<svg version="1.1" viewBox="0.0 0.0 600.0 371.0" fill="none" stroke="none" stroke-linecap="square" stroke-miterlimit="10" width="600" height="371" xmlns:xlink="http://www.w3.org/1999/xlink" xmlns="http://www.w3.org/2000/svg"><path fill="#ffffff" d="M0 0L600.0 0L600.0 371.0L0 371.0L0 0Z" fill-rule="nonzero"/><path stroke="#cccccc" stroke-width="1.0" stroke-linecap="butt" d="M147.5 88.5L147.5 300.5" fill-rule="nonzero"/><path stroke="#cccccc" stroke-width="1.0" stroke-linecap="butt" d="M238.5 88.5L238.5 300.5" fill-rule="nonzero"/><path stroke="#cccccc" stroke-width="1.0" stroke-linecap="butt" d="M328.5 88.5L328.5 300.5" fill-rule="nonzero"/><path stroke="#cccccc" stroke-width="1.0" stroke-linecap="butt" d="M419.5 88.5L419.5 300.5" fill-rule="nonzero"/><path stroke="#cccccc" stroke-width="1.0" stroke-linecap="butt" d="M509.5 88.5L509.5 300.5" fill-rule="nonzero"/><path stroke="#333333" stroke-width="1.0" stroke-linecap="butt" d="M77.5 300.5L581.5 300.5" fill-rule="nonzero"/><path stroke="#cccccc" stroke-width="1.0" stroke-linecap="butt" d="M77.5 229.5L581.5 229.5" fill-rule="nonzero"/><path stroke="#cccccc" stroke-width="1.0" stroke-linecap="butt" d="M77.5 159.5L581.5 159.5" fill-rule="nonzero"/><path stroke="#cccccc" stroke-width="1.0" stroke-linecap="butt" d="M77.5 88.5L581.5 88.5" fill-rule="nonzero"/><clipPath id="id_0"><path d="M77.55 88.28333L581.45 88.28333L581.45 300.45L77.55 300.45L77.55 88.28333Z" clip-rule="nonzero"/></clipPath><path stroke="#4285f4" stroke-width="2.0" stroke-linecap="butt" stroke-opacity="0.5019608" clip-path="url(#id_0)" d="M0 245.07628L581.45 264.54556" fill-rule="nonzero"/><path fill="#4285f4" clip-path="url(#id_0)" d="M88.86077 259.3427C88.86077 261.828 86.846054 263.8427 84.36077 263.8427C81.875496 263.8427 79.86077 261.828 79.86077 259.3427C79.86077 256.85742 81.875496 254.84271 84.36077 254.84271C86.846054 254.84271 88.86077 256.85742 88.86077 259.3427Z" fill-rule="nonzero"/><path fill="#4285f4" clip-path="url(#id_0)" d="M116.098465 251.74007C116.098465 254.22536 114.08375 256.24008 111.598465 256.24008C109.11318 256.24008 107.098465 254.22536 107.098465 251.74007C107.098465 249.25479 109.11318 247.24007 111.598465 247.24007C114.08375 247.24007 116.098465 249.25479 116.098465 251.74007Z" fill-rule="nonzero"/><path fill="#4285f4" clip-path="url(#id_0)" d="M143.33615 264.22253C143.33615 266.70782 141.32144 268.72253 138.83615 268.72253C136.35088 268.72253 134.33615 266.70782 134.33615 264.22253C134.33615 261.73727 136.35088 259.72253 138.83615 259.72253C141.32144 259.72253 143.33615 261.73727 143.33615 264.22253Z" fill-rule="nonzero"/><path fill="#4285f4" clip-path="url(#id_0)" d="M170.57385 255.2585C170.57385 257.74377 168.55913 259.7585 166.07385 259.7585C163.58856 259.7585 161.57385 257.74377 161.57385 255.2585C161.57385 252.77322 163.58856 250.7585 166.07385 250.7585C168.55913 250.7585 170.57385 252.77322 170.57385 255.2585Z" fill-rule="nonzero"/><path fill="#4285f4" clip-path="url(#id_0)" d="M197.81154 264.922C197.81154 267.40726 195.79683 269.422 193.31154 269.422C190.82626 269.422 188.81154 267.40726 188.81154 264.922C188.81154 262.4367 190.82626 260.422 193.31154 260.422C195.79683 260.422 197.81154 262.4367 197.81154 264.922Z" fill-rule="nonzero"/><path fill="#4285f4" clip-path="url(#id_0)" d="M225.04924 265.2215C225.04924 267.7068 223.03452 269.7215 220.54924 269.7215C218.06395 269.7215 216.04924 267.7068 216.04924 265.2215C216.04924 262.7362 218.06395 260.7215 220.54924 260.7215C223.03452 260.7215 225.04924 262.7362 225.04924 265.2215Z" fill-rule="nonzero"/><path fill="#4285f4" clip-path="url(#id_0)" d="M252.28693 266.24283C252.28693 268.72812 250.2722 270.74283 247.78693 270.74283C245.30165 270.74283 243.28693 268.72812 243.28693 266.24283C243.28693 263.75754 245.30165 261.74283 247.78693 261.74283C250.2722 261.74283 252.28693 263.75754 252.28693 266.24283Z" fill-rule="nonzero"/><path fill="#4285f4" clip-path="url(#id_0)" d="M279.52463 263.5164C279.52463 266.00165 277.5099 268.0164 275.02463 268.0164C272.53934 268.0164 270.52463 266.00165 270.52463 263.5164C270.52463 261.0311 272.53934 259.0164 275.02463 259.0164C277.5099 259.0164 279.52463 261.0311 279.52463 263.5164Z" fill-rule="nonzero"/><path fill="#4285f4" clip-path="url(#id_0)" d="M306.7623 266.22885C306.7623 268.71414 304.7476 270.72885 302.2623 270.72885C299.77704 270.72885 297.7623 268.71414 297.7623 266.22885C297.7623 263.7436 299.77704 261.72885 302.2623 261.72885C304.7476 261.72885 306.7623 263.7436 306.7623 266.22885Z" fill-rule="nonzero"/><path fill="#4285f4" clip-path="url(#id_0)" d="M334.0 103.93841C334.0 106.42368 331.9853 108.43841 329.5 108.43841C327.0147 108.43841 325.0 106.42368 325.0 103.93841C325.0 101.453125 327.0147 99.43841 329.5 99.43841C331.9853 99.43841 334.0 101.453125 334.0 103.93841Z" fill-rule="nonzero"/><path fill="#4285f4" clip-path="url(#id_0)" d="M361.2377 198.6581C361.2377 201.14337 359.22296 203.1581 356.7377 203.1581C354.2524 203.1581 352.2377 201.14337 352.2377 198.6581C352.2377 196.1728 354.2524 194.1581 356.7377 194.1581C359.22296 194.1581 361.2377 196.1728 361.2377 198.6581Z" fill-rule="nonzero"/><path fill="#4285f4" clip-path="url(#id_0)" d="M388.47537 231.65495C388.47537 234.14024 386.46066 236.15495 383.97537 236.15495C381.4901 236.15495 379.47537 234.14024 379.47537 231.65495C379.47537 229.16968 381.4901 227.15495 383.97537 227.15495C386.46066 227.15495 388.47537 229.16968 388.47537 231.65495Z" fill-rule="nonzero"/><path fill="#4285f4" clip-path="url(#id_0)" d="M415.71307 252.05443C415.71307 254.53972 413.69836 256.55444 411.21307 256.55444C408.72778 256.55444 406.71307 254.53972 406.71307 252.05443C406.71307 249.56915 408.72778 247.55443 411.21307 247.55443C413.69836 247.55443 415.71307 249.56915 415.71307 252.05443Z" fill-rule="nonzero"/><path fill="#4285f4" clip-path="url(#id_0)" d="M442.95078 256.9318C442.95078 259.41708 440.93604 261.4318 438.45078 261.4318C435.96548 261.4318 433.95078 259.41708 433.95078 256.9318C433.95078 254.4465 435.96548 252.4318 438.45078 252.4318C440.93604 252.4318 442.95078 254.4465 442.95078 256.9318Z" fill-rule="nonzero"/><path fill="#4285f4" clip-path="url(#id_0)" d="M470.18845 259.90955C470.18845 262.39484 468.17374 264.40955 465.68845 264.40955C463.2032 264.40955 461.18845 262.39484 461.18845 259.90955C461.18845 257.42426 463.2032 255.40955 465.68845 255.40955C468.17374 255.40955 470.18845 257.42426 470.18845 259.90955Z" fill-rule="nonzero"/><path fill="#4285f4" clip-path="url(#id_0)" d="M497.42615 256.5018C497.42615 258.9871 495.41144 261.0018 492.92615 261.0018C490.44086 261.0018 488.42615 258.9871 488.42615 256.5018C488.42615 254.01651 490.44086 252.0018 492.92615 252.0018C495.41144 252.0018 497.42615 254.01651 497.42615 256.5018Z" fill-rule="nonzero"/><path fill="#4285f4" clip-path="url(#id_0)" d="M524.6638 259.71152C524.6638 262.1968 522.6491 264.21152 520.1638 264.21152C517.6786 264.21152 515.6638 262.1968 515.6638 259.71152C515.6638 257.22626 517.6786 255.21152 520.1638 255.21152C522.6491 255.21152 524.6638 257.22626 524.6638 259.71152Z" fill-rule="nonzero"/><path fill="#4285f4" clip-path="url(#id_0)" d="M551.90155 259.32785C551.90155 261.81314 549.88684 263.82785 547.40155 263.82785C544.91626 263.82785 542.90155 261.81314 542.90155 259.32785C542.90155 256.8426 544.91626 254.82785 547.40155 254.82785C549.88684 254.82785 551.90155 256.8426 551.90155 259.32785Z" fill-rule="nonzero"/><path fill="#4285f4" clip-path="url(#id_0)" d="M579.1392 253.80763C579.1392 256.2929 577.1245 258.30765 574.6392 258.30765C572.15393 258.30765 570.1392 256.2929 570.1392 253.80763C570.1392 251.32236 572.15393 249.30763 574.6392 249.30763C577.1245 249.30763 579.1392 251.32236 579.1392 253.80763Z" fill-rule="nonzero"/><path fill="#000000" d="M308.54688 347.45L309.64062 347.575Q309.39062 348.52814 308.6875 349.0594Q307.98438 349.59064 306.90625 349.59064Q305.54688 349.59064 304.73438 348.7469Q303.9375 347.90314 303.9375 346.3875Q303.9375 344.825 304.75 343.96564Q305.5625 343.09064 306.84375 343.09064Q308.09375 343.09064 308.875 343.9344Q309.67188 344.77814 309.67188 346.325Q309.67188 346.41876 309.67188 346.60626L305.03125 346.60626Q305.09375 347.6375 305.60938 348.1844Q306.125 348.71564 306.90625 348.71564Q307.48438 348.71564 307.89062 348.41876Q308.3125 348.10626 308.54688 347.45ZM305.09375 345.7469L308.5625 345.7469Q308.5 344.95 308.17188 344.5594Q307.65625 343.95 306.85938 343.95Q306.125 343.95 305.625 344.4344Q305.14062 344.91876 305.09375 345.7469ZM311.26562 349.45L311.26562 340.85626L312.32812 340.85626L312.32812 349.45L311.26562 349.45ZM318.54688 347.45L319.64062 347.575Q319.39062 348.52814 318.6875 349.0594Q317.98438 349.59064 316.90625 349.59064Q315.54688 349.59064 314.73438 348.7469Q313.9375 347.90314 313.9375 346.3875Q313.9375 344.825 314.75 343.96564Q315.5625 343.09064 316.84375 343.09064Q318.09375 343.09064 318.875 343.9344Q319.67188 344.77814 319.67188 346.325Q319.67188 346.41876 319.67188 346.60626L315.03125 346.60626Q315.09375 347.6375 315.60938 348.1844Q316.125 348.71564 316.90625 348.71564Q317.48438 348.71564 317.89062 348.41876Q318.3125 348.10626 318.54688 347.45ZM315.09375 345.7469L318.5625 345.7469Q318.5 344.95 318.17188 344.5594Q317.65625 343.95 316.85938 343.95Q316.125 343.95 315.625 344.4344Q315.14062 344.91876 315.09375 345.7469ZM321.29688 349.45L321.29688 343.23126L322.23438 343.23126L322.23438 344.10626Q322.53125 343.6375 323.01562 343.3719Q323.5 343.09064 324.125 343.09064Q324.8125 343.09064 325.25 343.3719Q325.70312 343.65314 325.875 344.16876Q326.625 343.09064 327.79688 343.09064Q328.73438 343.09064 329.21875 343.60626Q329.71875 344.10626 329.71875 345.1844L329.71875 349.45L328.67188 349.45L328.67188 345.52814Q328.67188 344.90314 328.5625 344.6219Q328.46875 344.34064 328.20312 344.16876Q327.9375 343.9969 327.5625 343.9969Q326.90625 343.9969 326.46875 344.4344Q326.04688 344.8719 326.04688 345.84064L326.04688 349.45L324.98438 349.45L324.98438 345.40314Q324.98438 344.7 324.71875 344.35626Q324.46875 343.9969 323.89062 343.9969Q323.4375 343.9969 323.0625 344.23126Q322.6875 344.46564 322.51562 344.91876Q322.34375 345.3719 322.34375 346.21564L322.34375 349.45L321.29688 349.45ZM336.54688 347.45L337.64062 347.575Q337.39062 348.52814 336.6875 349.0594Q335.98438 349.59064 334.90625 349.59064Q333.54688 349.59064 332.73438 348.7469Q331.9375 347.90314 331.9375 346.3875Q331.9375 344.825 332.75 343.96564Q333.5625 343.09064 334.84375 343.09064Q336.09375 343.09064 336.875 343.9344Q337.67188 344.77814 337.67188 346.325Q337.67188 346.41876 337.67188 346.60626L333.03125 346.60626Q333.09375 347.6375 333.60938 348.1844Q334.125 348.71564 334.90625 348.71564Q335.48438 348.71564 335.89062 348.41876Q336.3125 348.10626 336.54688 347.45ZM333.09375 345.7469L336.5625 345.7469Q336.5 344.95 336.17188 344.5594Q335.65625 343.95 334.85938 343.95Q334.125 343.95 333.625 344.4344Q333.14062 344.91876 333.09375 345.7469ZM339.29688 349.45L339.29688 343.23126L340.23438 343.23126L340.23438 344.10626Q340.92188 343.09064 342.21875 343.09064Q342.78125 343.09064 343.25 343.29376Q343.73438 343.4969 343.96875 343.825Q344.20312 344.15314 344.29688 344.59064Q344.34375 344.8875 344.34375 345.6219L344.34375 349.45L343.29688 349.45L343.29688 345.66876Q343.29688 345.0125 343.17188 344.7Q343.04688 344.3875 342.73438 344.2Q342.42188 343.9969 342.0 343.9969Q341.32812 343.9969 340.82812 344.4344Q340.34375 344.85626 340.34375 346.04376L340.34375 349.45L339.29688 349.45ZM348.59375 348.5125L348.75 349.4344Q348.29688 349.52814 347.95312 349.52814Q347.375 349.52814 347.0625 349.35626Q346.75 349.16876 346.60938 348.8719Q346.48438 348.575 346.48438 347.6219L346.48438 344.04376L345.71875 344.04376L345.71875 343.23126L346.48438 343.23126L346.48438 341.6844L347.53125 341.0594L347.53125 343.23126L348.59375 343.23126L348.59375 344.04376L347.53125 344.04376L347.53125 347.6844Q347.53125 348.1375 347.57812 348.2625Q347.64062 348.3875 347.76562 348.46564Q347.89062 348.54376 348.125 348.54376Q348.3125 348.54376 348.59375 348.5125ZM348.875 347.59064L349.90625 347.4344Q350.0 348.0594 350.39062 348.3875Q350.79688 348.71564 351.53125 348.71564Q352.25 348.71564 352.59375 348.4344Q352.95312 348.1375 352.95312 347.73126Q352.95312 347.3719 352.64062 347.16876Q352.42188 347.02814 351.5625 346.8094Q350.40625 346.5125 349.95312 346.3094Q349.51562 346.09064 349.28125 345.71564Q349.04688 345.34064 349.04688 344.8719Q349.04688 344.46564 349.23438 344.10626Q349.42188 343.7469 349.75 343.5125Q350.0 343.34064 350.42188 343.21564Q350.84375 343.09064 351.34375 343.09064Q352.0625 343.09064 352.60938 343.3094Q353.17188 343.5125 353.4375 343.8719Q353.70312 344.23126 353.79688 344.825L352.76562 344.96564Q352.70312 344.4969 352.35938 344.23126Q352.03125 343.95 351.40625 343.95Q350.6875 343.95 350.375 344.2Q350.0625 344.4344 350.0625 344.7625Q350.0625 344.96564 350.1875 345.1219Q350.32812 345.29376 350.59375 345.40314Q350.75 345.46564 351.53125 345.66876Q352.65625 345.98126 353.09375 346.16876Q353.53125 346.35626 353.78125 346.71564Q354.03125 347.075 354.03125 347.6219Q354.03125 348.15314 353.71875 348.6219Q353.42188 349.075 352.84375 349.34064Q352.26562 349.59064 351.53125 349.59064Q350.3125 349.59064 349.67188 349.09064Q349.04688 348.575 348.875 347.59064Z" fill-rule="nonzero"/><path fill="#000000" d="M23.331263 229.39792L29.550013 229.39792L29.550013 230.35104L28.815638 230.35104Q29.284388 230.64792 29.456263 230.9448Q29.690638 231.35104 29.690638 231.89792Q29.690638 232.3823 29.503138 232.7573Q29.362513 233.03854 28.925013 233.3823L31.940638 233.3823L31.940638 234.42917L23.331263 234.42917L23.331263 233.3823L25.956263 233.3823Q27.393763 233.3823 27.831263 233.24167Q28.253138 233.08542 28.503138 232.74167Q28.737513 232.39792 28.737513 231.9448Q28.737513 231.47604 28.487513 231.11667Q28.221888 230.74167 27.815638 230.60104Q27.409388 230.4448 25.987513 230.4448L23.331263 230.4448L23.331263 229.39792ZM27.690638 227.99167L27.534388 226.96042Q28.159388 226.86667 28.487513 226.47604Q28.815638 226.0698 28.815638 225.33542Q28.815638 224.61667 28.534388 224.27292Q28.237513 223.91354 27.831263 223.91354Q27.471888 223.91354 27.268763 224.22604Q27.128138 224.4448 26.909388 225.30417Q26.612513 226.46042 26.409388 226.91354Q26.190638 227.35104 25.815638 227.58542Q25.440638 227.8198 24.971888 227.8198Q24.565638 227.8198 24.206263 227.6323Q23.846888 227.4448 23.612513 227.11667Q23.440638 226.86667 23.315638 226.4448Q23.190638 226.02292 23.190638 225.52292Q23.190638 224.80417 23.409388 224.2573Q23.612513 223.6948 23.971888 223.42917Q24.331263 223.16354 24.925013 223.0698L25.065638 224.10104Q24.596888 224.16354 24.331263 224.5073Q24.050013 224.83542 24.050013 225.46042Q24.050013 226.17917 24.300013 226.49167Q24.534388 226.80417 24.862513 226.80417Q25.065638 226.80417 25.221888 226.67917Q25.393763 226.53854 25.503138 226.27292Q25.565638 226.11667 25.768763 225.33542Q26.081263 224.21042 26.268763 223.77292Q26.456263 223.33542 26.815638 223.08542Q27.175013 222.83542 27.721888 222.83542Q28.253138 222.83542 28.721888 223.14792Q29.175013 223.4448 29.440638 224.02292Q29.690638 224.60104 29.690638 225.33542Q29.690638 226.55417 29.190638 227.1948Q28.675013 227.8198 27.690638 227.99167ZM29.690638 221.36667L20.815638 218.8823L20.815638 218.03854L29.690638 220.52292L29.690638 221.36667ZM26.440638 217.96042Q24.706263 217.96042 23.878138 217.0073Q23.190638 216.21042 23.190638 215.05417Q23.190638 213.77292 24.034388 212.96042Q24.862513 212.1323 26.346888 212.1323Q27.550013 212.1323 28.237513 212.49167Q28.925013 212.85104 29.315638 213.55417Q29.690638 214.24167 29.690638 215.05417Q29.690638 216.35104 28.862513 217.16354Q28.018763 217.96042 26.440638 217.96042ZM26.440638 216.8823Q27.628138 216.8823 28.221888 216.36667Q28.815638 215.83542 28.815638 215.05417Q28.815638 214.2573 28.221888 213.74167Q27.628138 213.22604 26.409388 213.22604Q25.253138 213.22604 24.659388 213.7573Q24.065638 214.27292 24.065638 215.05417Q24.065638 215.83542 24.659388 216.36667Q25.237513 216.8823 26.440638 216.8823ZM31.940638 210.5698L23.331263 210.5698L23.331263 209.61667L24.128138 209.61667Q23.659388 209.27292 23.425013 208.85104Q23.190638 208.41354 23.190638 207.80417Q23.190638 207.0073 23.596888 206.39792Q24.003138 205.78854 24.753138 205.49167Q25.503138 205.17917 26.393763 205.17917Q27.346888 205.17917 28.112513 205.52292Q28.878138 205.85104 29.284388 206.5073Q29.690638 207.16354 29.690638 207.8823Q29.690638 208.41354 29.471888 208.83542Q29.237513 209.2573 28.909388 209.52292L31.940638 209.52292L31.940638 210.5698ZM26.471888 209.61667Q27.675013 209.61667 28.253138 209.1323Q28.815638 208.64792 28.815638 207.96042Q28.815638 207.2573 28.221888 206.7573Q27.628138 206.2573 26.378138 206.2573Q25.190638 206.2573 24.612513 206.74167Q24.018763 207.22604 24.018763 207.91354Q24.018763 208.58542 24.643763 209.10104Q25.268763 209.61667 26.471888 209.61667ZM27.550013 199.3198L27.675013 198.22604Q28.628138 198.47604 29.159388 199.17917Q29.690638 199.8823 29.690638 200.96042Q29.690638 202.3198 28.846888 203.1323Q28.003138 203.92917 26.487513 203.92917Q24.925013 203.92917 24.065638 203.11667Q23.190638 202.30417 23.190638 201.02292Q23.190638 199.77292 24.034388 198.99167Q24.878138 198.1948 26.425013 198.1948Q26.518763 198.1948 26.706263 198.1948L26.706263 202.83542Q27.737513 202.77292 28.284388 202.2573Q28.815638 201.74167 28.815638 200.96042Q28.815638 200.3823 28.518763 199.97604Q28.206263 199.55417 27.550013 199.3198ZM25.846888 202.77292L25.846888 199.30417Q25.050013 199.36667 24.659388 199.6948Q24.050013 200.21042 24.050013 201.0073Q24.050013 201.74167 24.534388 202.24167Q25.018763 202.72604 25.846888 202.77292ZM29.550013 196.58542L23.331263 196.58542L23.331263 195.6323L24.268763 195.6323Q23.612513 195.27292 23.409388 194.97604Q23.190638 194.66354 23.190638 194.28854Q23.190638 193.7573 23.518763 193.21042L24.503138 193.5698Q24.268763 193.96042 24.268763 194.33542Q24.268763 194.6948 24.487513 194.97604Q24.690638 195.24167 25.065638 195.35104Q25.628138 195.53854 26.284388 195.53854L29.550013 195.53854L29.550013 196.58542ZM28.784388 188.5073Q29.284388 189.10104 29.487513 189.64792Q29.690638 190.17917 29.690638 190.80417Q29.690638 191.83542 29.190638 192.3823Q28.690638 192.92917 27.909388 192.92917Q27.456263 192.92917 27.081263 192.72604Q26.690638 192.52292 26.471888 192.17917Q26.237513 191.83542 26.128138 191.41354Q26.034388 191.11667 25.956263 190.47604Q25.815638 189.21042 25.596888 188.60104Q25.378138 188.60104 25.331263 188.60104Q24.675013 188.60104 24.409388 188.89792Q24.065638 189.30417 24.065638 190.10104Q24.065638 190.83542 24.331263 191.1948Q24.581263 191.55417 25.237513 191.72604L25.096888 192.7573Q24.440638 192.61667 24.034388 192.28854Q23.628138 191.96042 23.409388 191.35104Q23.190638 190.74167 23.190638 189.9448Q23.190638 189.14792 23.378138 188.64792Q23.565638 188.14792 23.846888 187.91354Q24.128138 187.67917 24.565638 187.58542Q24.831263 187.53854 25.534388 187.53854L26.940638 187.53854Q28.409388 187.53854 28.800013 187.47604Q29.190638 187.39792 29.550013 187.1948L29.550013 188.30417Q29.221888 188.46042 28.784388 188.5073ZM26.425013 188.60104Q26.659388 189.17917 26.831263 190.3198Q26.925013 190.97604 27.050013 191.24167Q27.159388 191.5073 27.378138 191.66354Q27.596888 191.80417 27.878138 191.80417Q28.300013 191.80417 28.581263 191.49167Q28.862513 191.16354 28.862513 190.55417Q28.862513 189.9448 28.596888 189.47604Q28.331263 188.99167 27.862513 188.77292Q27.503138 188.60104 26.815638 188.60104L26.425013 188.60104ZM28.612513 183.27292L29.534388 183.11667Q29.628138 183.5698 29.628138 183.91354Q29.628138 184.49167 29.456263 184.80417Q29.268763 185.11667 28.971888 185.2573Q28.675013 185.3823 27.721888 185.3823L24.143763 185.3823L24.143763 186.14792L23.331263 186.14792L23.331263 185.3823L21.784388 185.3823L21.159388 184.33542L23.331263 184.33542L23.331263 183.27292L24.143763 183.27292L24.143763 184.33542L27.784388 184.33542Q28.237513 184.33542 28.362513 184.28854Q28.487513 184.22604 28.565638 184.10104Q28.643763 183.97604 28.643763 183.74167Q28.643763 183.55417 28.612513 183.27292ZM22.175013 182.5698L20.956263 182.5698L20.956263 181.5073L22.175013 181.5073L22.175013 182.5698ZM29.550013 182.5698L23.331263 182.5698L23.331263 181.5073L29.550013 181.5073L29.550013 182.5698ZM26.440638 179.96042Q24.706263 179.96042 23.878138 179.0073Q23.190638 178.21042 23.190638 177.05417Q23.190638 175.77292 24.034388 174.96042Q24.862513 174.1323 26.346888 174.1323Q27.550013 174.1323 28.237513 174.49167Q28.925013 174.85104 29.315638 175.55417Q29.690638 176.24167 29.690638 177.05417Q29.690638 178.35104 28.862513 179.16354Q28.018763 179.96042 26.440638 179.96042ZM26.440638 178.8823Q27.628138 178.8823 28.221888 178.36667Q28.815638 177.83542 28.815638 177.05417Q28.815638 176.2573 28.221888 175.74167Q27.628138 175.22604 26.409388 175.22604Q25.253138 175.22604 24.659388 175.7573Q24.065638 176.27292 24.065638 177.05417Q24.065638 177.83542 24.659388 178.36667Q25.237513 178.8823 26.440638 178.8823ZM29.550013 172.5698L23.331263 172.5698L23.331263 171.6323L24.206263 171.6323Q23.190638 170.9448 23.190638 169.64792Q23.190638 169.08542 23.393763 168.61667Q23.596888 168.1323 23.925013 167.89792Q24.253138 167.66354 24.690638 167.5698Q24.987513 167.52292 25.721888 167.52292L29.550013 167.52292L29.550013 168.5698L25.768763 168.5698Q25.112513 168.5698 24.800013 168.6948Q24.487513 168.8198 24.300013 169.1323Q24.096888 169.4448 24.096888 169.86667Q24.096888 170.53854 24.534388 171.03854Q24.956263 171.52292 26.143763 171.52292L29.550013 171.52292L29.550013 172.5698Z" fill-rule="nonzero"/><path fill="#000000" d="M65.05 300.21564Q65.05 298.6844 65.3625 297.7625Q65.675 296.825 66.28438 296.325Q66.90938 295.825 67.84688 295.825Q68.53438 295.825 69.05 296.10626Q69.58125 296.3875 69.925 296.91876Q70.26875 297.4344 70.45625 298.1844Q70.64375 298.9344 70.64375 300.21564Q70.64375 301.73126 70.33125 302.65314Q70.03438 303.575 69.40938 304.09064Q68.8 304.59064 67.84688 304.59064Q66.6125 304.59064 65.89375 303.7Q65.05 302.6375 65.05 300.21564ZM66.12813 300.21564Q66.12813 302.325 66.62813 303.02814Q67.12813 303.73126 67.84688 303.73126Q68.58125 303.73126 69.06563 303.02814Q69.56563 302.325 69.56563 300.21564Q69.56563 298.09064 69.06563 297.40314Q68.58125 296.7 67.83125 296.7Q67.1125 296.7 66.675 297.3094Q66.12813 298.09064 66.12813 300.21564Z" fill-rule="nonzero"/><path fill="#000000" d="M70.59688 232.71216L70.59688 233.72778L64.90938 233.72778Q64.90938 233.35278 65.03438 232.99341Q65.25313 232.41528 65.72188 231.85278Q66.20625 231.29028 67.1125 230.55591Q68.51875 229.39966 69.00313 228.72778Q69.50313 228.05591 69.50313 227.46216Q69.50313 226.83716 69.05 226.41528Q68.59688 225.97778 67.87813 225.97778Q67.1125 225.97778 66.65938 226.43091Q66.20625 226.88403 66.19063 227.69653L65.1125 227.58716Q65.22188 226.36841 65.94063 225.74341Q66.675 225.10278 67.90938 225.10278Q69.14375 225.10278 69.8625 225.79028Q70.58125 226.47778 70.58125 227.49341Q70.58125 228.00903 70.3625 228.50903Q70.15938 228.99341 69.65938 229.55591Q69.175 230.10278 68.05 231.05591Q67.09688 231.85278 66.81563 232.14966Q66.55 232.43091 66.37813 232.71216L70.59688 232.71216Z" fill-rule="nonzero"/><path fill="#000000" d="M68.425 163.00555L68.425 160.94305L64.70625 160.94305L64.70625 159.9743L68.62813 154.4118L69.4875 154.4118L69.4875 159.9743L70.64375 159.9743L70.64375 160.94305L69.4875 160.94305L69.4875 163.00555L68.425 163.00555ZM68.425 159.9743L68.425 156.11493L65.7375 159.9743L68.425 159.9743Z" fill-rule="nonzero"/><path fill="#000000" d="M70.51875 85.79896L69.47188 85.87708Q69.33125 85.25208 69.08125 84.97083Q68.64375 84.51771 68.01875 84.51771Q67.51875 84.51771 67.12813 84.79896Q66.64375 85.17396 66.34688 85.87708Q66.06563 86.56458 66.05 87.84583Q66.425 87.26771 66.97188 86.98646Q67.53438 86.70521 68.14375 86.70521Q69.19063 86.70521 69.925 87.48646Q70.675 88.26771 70.675 89.48646Q70.675 90.29896 70.31563 91.00208Q69.97188 91.68958 69.3625 92.06458Q68.75313 92.42396 67.9875 92.42396Q66.65938 92.42396 65.83125 91.45521Q65.00313 90.48646 65.00313 88.26771Q65.00313 85.76771 65.925 84.64271Q66.72188 83.65833 68.08125 83.65833Q69.09688 83.65833 69.7375 84.23646Q70.39375 84.79896 70.51875 85.79896ZM66.22188 89.50208Q66.22188 90.04896 66.44063 90.54896Q66.675 91.03333 67.08125 91.29896Q67.50313 91.56458 67.97188 91.56458Q68.62813 91.56458 69.1125 91.03333Q69.59688 90.48646 69.59688 89.56458Q69.59688 88.67396 69.1125 88.15833Q68.64375 87.64271 67.925 87.64271Q67.20625 87.64271 66.70625 88.15833Q66.22188 88.67396 66.22188 89.50208Z" fill-rule="nonzero"/><path fill="#000000" d="M145.07349 317.45L144.02661 317.45L144.02661 310.73126Q143.63599 311.09064 143.01099 311.46564Q142.40161 311.825 141.91724 311.9969L141.91724 310.98126Q142.79224 310.5594 143.44849 309.98126Q144.12036 309.3875 144.40161 308.825L145.07349 308.825L145.07349 317.45ZM148.10474 313.21564Q148.10474 311.6844 148.41724 310.7625Q148.72974 309.825 149.33911 309.325Q149.96411 308.825 150.90161 308.825Q151.58911 308.825 152.10474 309.10626Q152.63599 309.3875 152.97974 309.91876Q153.32349 310.4344 153.51099 311.1844Q153.69849 311.9344 153.69849 313.21564Q153.69849 314.73126 153.38599 315.65314Q153.08911 316.575 152.46411 317.09064Q151.85474 317.59064 150.90161 317.59064Q149.66724 317.59064 148.94849 316.7Q148.10474 315.6375 148.10474 313.21564ZM149.18286 313.21564Q149.18286 315.325 149.68286 316.02814Q150.18286 316.73126 150.90161 316.73126Q151.63599 316.73126 152.12036 316.02814Q152.62036 315.325 152.62036 313.21564Q152.62036 311.09064 152.12036 310.40314Q151.63599 309.7 150.88599 309.7Q150.16724 309.7 149.72974 310.3094Q149.18286 311.09064 149.18286 313.21564Z" fill-rule="nonzero"/><path fill="#000000" d="M232.05515 317.45L231.00827 317.45L231.00827 310.73126Q230.61765 311.09064 229.99265 311.46564Q229.38327 311.825 228.8989 311.9969L228.8989 310.98126Q229.7739 310.5594 230.43015 309.98126Q231.10202 309.3875 231.38327 308.825L232.05515 308.825L232.05515 317.45ZM235.0864 313.21564Q235.0864 311.6844 235.3989 310.7625Q235.7114 309.825 236.32077 309.325Q236.94577 308.825 237.88327 308.825Q238.57077 308.825 239.0864 309.10626Q239.61765 309.3875 239.9614 309.91876Q240.30515 310.4344 240.49265 311.1844Q240.68015 311.9344 240.68015 313.21564Q240.68015 314.73126 240.36765 315.65314Q240.07077 316.575 239.44577 317.09064Q238.8364 317.59064 237.88327 317.59064Q236.6489 317.59064 235.93015 316.7Q235.0864 315.6375 235.0864 313.21564ZM236.16452 313.21564Q236.16452 315.325 236.66452 316.02814Q237.16452 316.73126 237.88327 316.73126Q238.61765 316.73126 239.10202 316.02814Q239.60202 315.325 239.60202 313.21564Q239.60202 311.09064 239.10202 310.40314Q238.61765 309.7 237.86765 309.7Q237.1489 309.7 236.7114 310.3094Q236.16452 311.09064 236.16452 313.21564ZM242.0864 313.21564Q242.0864 311.6844 242.3989 310.7625Q242.7114 309.825 243.32077 309.325Q243.94577 308.825 244.88327 308.825Q245.57077 308.825 246.0864 309.10626Q246.61765 309.3875 246.9614 309.91876Q247.30515 310.4344 247.49265 311.1844Q247.68015 311.9344 247.68015 313.21564Q247.68015 314.73126 247.36765 315.65314Q247.07077 316.575 246.44577 317.09064Q245.8364 317.59064 244.88327 317.59064Q243.6489 317.59064 242.93015 316.7Q242.0864 315.6375 242.0864 313.21564ZM243.16452 313.21564Q243.16452 315.325 243.66452 316.02814Q244.16452 316.73126 244.88327 316.73126Q245.61765 316.73126 246.10202 316.02814Q246.60202 315.325 246.60202 313.21564Q246.60202 311.09064 246.10202 310.40314Q245.61765 309.7 244.86765 309.7Q244.1489 309.7 243.7114 310.3094Q243.16452 311.09064 243.16452 313.21564Z" fill-rule="nonzero"/><path fill="#000000" d="M319.0368 317.45L317.98993 317.45L317.98993 310.73126Q317.5993 311.09064 316.9743 311.46564Q316.36493 311.825 315.88055 311.9969L315.88055 310.98126Q316.75555 310.5594 317.4118 309.98126Q318.08368 309.3875 318.36493 308.825L319.0368 308.825L319.0368 317.45ZM322.06805 313.21564Q322.06805 311.6844 322.38055 310.7625Q322.69305 309.825 323.30243 309.325Q323.92743 308.825 324.86493 308.825Q325.55243 308.825 326.06805 309.10626Q326.5993 309.3875 326.94305 309.91876Q327.2868 310.4344 327.4743 311.1844Q327.6618 311.9344 327.6618 313.21564Q327.6618 314.73126 327.3493 315.65314Q327.05243 316.575 326.42743 317.09064Q325.81805 317.59064 324.86493 317.59064Q323.63055 317.59064 322.9118 316.7Q322.06805 315.6375 322.06805 313.21564ZM323.14618 313.21564Q323.14618 315.325 323.64618 316.02814Q324.14618 316.73126 324.86493 316.73126Q325.5993 316.73126 326.08368 316.02814Q326.58368 315.325 326.58368 313.21564Q326.58368 311.09064 326.08368 310.40314Q325.5993 309.7 324.8493 309.7Q324.13055 309.7 323.69305 310.3094Q323.14618 311.09064 323.14618 313.21564ZM329.06805 313.21564Q329.06805 311.6844 329.38055 310.7625Q329.69305 309.825 330.30243 309.325Q330.92743 308.825 331.86493 308.825Q332.55243 308.825 333.06805 309.10626Q333.5993 309.3875 333.94305 309.91876Q334.2868 310.4344 334.4743 311.1844Q334.6618 311.9344 334.6618 313.21564Q334.6618 314.73126 334.3493 315.65314Q334.05243 316.575 333.42743 317.09064Q332.81805 317.59064 331.86493 317.59064Q330.63055 317.59064 329.9118 316.7Q329.06805 315.6375 329.06805 313.21564ZM330.14618 313.21564Q330.14618 315.325 330.64618 316.02814Q331.14618 316.73126 331.86493 316.73126Q332.5993 316.73126 333.08368 316.02814Q333.58368 315.325 333.58368 313.21564Q333.58368 311.09064 333.08368 310.40314Q332.5993 309.7 331.8493 309.7Q331.13055 309.7 330.69305 310.3094Q330.14618 311.09064 330.14618 313.21564ZM336.06805 313.21564Q336.06805 311.6844 336.38055 310.7625Q336.69305 309.825 337.30243 309.325Q337.92743 308.825 338.86493 308.825Q339.55243 308.825 340.06805 309.10626Q340.5993 309.3875 340.94305 309.91876Q341.2868 310.4344 341.4743 311.1844Q341.6618 311.9344 341.6618 313.21564Q341.6618 314.73126 341.3493 315.65314Q341.05243 316.575 340.42743 317.09064Q339.81805 317.59064 338.86493 317.59064Q337.63055 317.59064 336.9118 316.7Q336.06805 315.6375 336.06805 313.21564ZM337.14618 313.21564Q337.14618 315.325 337.64618 316.02814Q338.14618 316.73126 338.86493 316.73126Q339.5993 316.73126 340.08368 316.02814Q340.58368 315.325 340.58368 313.21564Q340.58368 311.09064 340.08368 310.40314Q339.5993 309.7 338.8493 309.7Q338.13055 309.7 337.69305 310.3094Q337.14618 311.09064 337.14618 313.21564Z" fill-rule="nonzero"/><path fill="#000000" d="M406.01843 317.45L404.97156 317.45L404.97156 310.73126Q404.58093 311.09064 403.95593 311.46564Q403.34656 311.825 402.86218 311.9969L402.86218 310.98126Q403.73718 310.5594 404.39343 309.98126Q405.0653 309.3875 405.34656 308.825L406.01843 308.825L406.01843 317.45ZM409.04968 313.21564Q409.04968 311.6844 409.36218 310.7625Q409.67468 309.825 410.28406 309.325Q410.90906 308.825 411.84656 308.825Q412.53406 308.825 413.04968 309.10626Q413.58093 309.3875 413.92468 309.91876Q414.26843 310.4344 414.45593 311.1844Q414.64343 311.9344 414.64343 313.21564Q414.64343 314.73126 414.33093 315.65314Q414.03406 316.575 413.40906 317.09064Q412.79968 317.59064 411.84656 317.59064Q410.61218 317.59064 409.89343 316.7Q409.04968 315.6375 409.04968 313.21564ZM410.1278 313.21564Q410.1278 315.325 410.6278 316.02814Q411.1278 316.73126 411.84656 316.73126Q412.58093 316.73126 413.0653 316.02814Q413.5653 315.325 413.5653 313.21564Q413.5653 311.09064 413.0653 310.40314Q412.58093 309.7 411.83093 309.7Q411.11218 309.7 410.67468 310.3094Q410.1278 311.09064 410.1278 313.21564ZM416.04968 313.21564Q416.04968 311.6844 416.36218 310.7625Q416.67468 309.825 417.28406 309.325Q417.90906 308.825 418.84656 308.825Q419.53406 308.825 420.04968 309.10626Q420.58093 309.3875 420.92468 309.91876Q421.26843 310.4344 421.45593 311.1844Q421.64343 311.9344 421.64343 313.21564Q421.64343 314.73126 421.33093 315.65314Q421.03406 316.575 420.40906 317.09064Q419.79968 317.59064 418.84656 317.59064Q417.61218 317.59064 416.89343 316.7Q416.04968 315.6375 416.04968 313.21564ZM417.1278 313.21564Q417.1278 315.325 417.6278 316.02814Q418.1278 316.73126 418.84656 316.73126Q419.58093 316.73126 420.0653 316.02814Q420.5653 315.325 420.5653 313.21564Q420.5653 311.09064 420.0653 310.40314Q419.58093 309.7 418.83093 309.7Q418.11218 309.7 417.67468 310.3094Q417.1278 311.09064 417.1278 313.21564ZM423.04968 313.21564Q423.04968 311.6844 423.36218 310.7625Q423.67468 309.825 424.28406 309.325Q424.90906 308.825 425.84656 308.825Q426.53406 308.825 427.04968 309.10626Q427.58093 309.3875 427.92468 309.91876Q428.26843 310.4344 428.45593 311.1844Q428.64343 311.9344 428.64343 313.21564Q428.64343 314.73126 428.33093 315.65314Q428.03406 316.575 427.40906 317.09064Q426.79968 317.59064 425.84656 317.59064Q424.61218 317.59064 423.89343 316.7Q423.04968 315.6375 423.04968 313.21564ZM424.1278 313.21564Q424.1278 315.325 424.6278 316.02814Q425.1278 316.73126 425.84656 316.73126Q426.58093 316.73126 427.0653 316.02814Q427.5653 315.325 427.5653 313.21564Q427.5653 311.09064 427.0653 310.40314Q426.58093 309.7 425.83093 309.7Q425.11218 309.7 424.67468 310.3094Q424.1278 311.09064 424.1278 313.21564ZM430.04968 313.21564Q430.04968 311.6844 430.36218 310.7625Q430.67468 309.825 431.28406 309.325Q431.90906 308.825 432.84656 308.825Q433.53406 308.825 434.04968 309.10626Q434.58093 309.3875 434.92468 309.91876Q435.26843 310.4344 435.45593 311.1844Q435.64343 311.9344 435.64343 313.21564Q435.64343 314.73126 435.33093 315.65314Q435.03406 316.575 434.40906 317.09064Q433.79968 317.59064 432.84656 317.59064Q431.61218 317.59064 430.89343 316.7Q430.04968 315.6375 430.04968 313.21564ZM431.1278 313.21564Q431.1278 315.325 431.6278 316.02814Q432.1278 316.73126 432.84656 316.73126Q433.58093 316.73126 434.0653 316.02814Q434.5653 315.325 434.5653 313.21564Q434.5653 311.09064 434.0653 310.40314Q433.58093 309.7 432.83093 309.7Q432.11218 309.7 431.67468 310.3094Q431.1278 311.09064 431.1278 313.21564Z" fill-rule="nonzero"/><path fill="#000000" d="M493.0001 317.45L491.95322 317.45L491.95322 310.73126Q491.5626 311.09064 490.9376 311.46564Q490.32822 311.825 489.84384 311.9969L489.84384 310.98126Q490.71884 310.5594 491.3751 309.98126Q492.04697 309.3875 492.32822 308.825L493.0001 308.825L493.0001 317.45ZM496.03134 313.21564Q496.03134 311.6844 496.34384 310.7625Q496.65634 309.825 497.26572 309.325Q497.89072 308.825 498.82822 308.825Q499.51572 308.825 500.03134 309.10626Q500.5626 309.3875 500.90634 309.91876Q501.2501 310.4344 501.4376 311.1844Q501.6251 311.9344 501.6251 313.21564Q501.6251 314.73126 501.3126 315.65314Q501.01572 316.575 500.39072 317.09064Q499.78134 317.59064 498.82822 317.59064Q497.59384 317.59064 496.8751 316.7Q496.03134 315.6375 496.03134 313.21564ZM497.10947 313.21564Q497.10947 315.325 497.60947 316.02814Q498.10947 316.73126 498.82822 316.73126Q499.5626 316.73126 500.04697 316.02814Q500.54697 315.325 500.54697 313.21564Q500.54697 311.09064 500.04697 310.40314Q499.5626 309.7 498.8126 309.7Q498.09384 309.7 497.65634 310.3094Q497.10947 311.09064 497.10947 313.21564ZM503.03134 313.21564Q503.03134 311.6844 503.34384 310.7625Q503.65634 309.825 504.26572 309.325Q504.89072 308.825 505.82822 308.825Q506.51572 308.825 507.03134 309.10626Q507.5626 309.3875 507.90634 309.91876Q508.2501 310.4344 508.4376 311.1844Q508.6251 311.9344 508.6251 313.21564Q508.6251 314.73126 508.3126 315.65314Q508.01572 316.575 507.39072 317.09064Q506.78134 317.59064 505.82822 317.59064Q504.59384 317.59064 503.8751 316.7Q503.03134 315.6375 503.03134 313.21564ZM504.10947 313.21564Q504.10947 315.325 504.60947 316.02814Q505.10947 316.73126 505.82822 316.73126Q506.5626 316.73126 507.04697 316.02814Q507.54697 315.325 507.54697 313.21564Q507.54697 311.09064 507.04697 310.40314Q506.5626 309.7 505.8126 309.7Q505.09384 309.7 504.65634 310.3094Q504.10947 311.09064 504.10947 313.21564ZM510.03134 313.21564Q510.03134 311.6844 510.34384 310.7625Q510.65634 309.825 511.26572 309.325Q511.89072 308.825 512.82825 308.825Q513.51575 308.825 514.0314 309.10626Q514.5626 309.3875 514.9064 309.91876Q515.2501 310.4344 515.4376 311.1844Q515.6251 311.9344 515.6251 313.21564Q515.6251 314.73126 515.3126 315.65314Q515.01575 316.575 514.39075 317.09064Q513.7814 317.59064 512.82825 317.59064Q511.59384 317.59064 510.8751 316.7Q510.03134 315.6375 510.03134 313.21564ZM511.10947 313.21564Q511.10947 315.325 511.60947 316.02814Q512.1095 316.73126 512.82825 316.73126Q513.5626 316.73126 514.047 316.02814Q514.547 315.325 514.547 313.21564Q514.547 311.09064 514.047 310.40314Q513.5626 309.7 512.8126 309.7Q512.0939 309.7 511.65634 310.3094Q511.10947 311.09064 511.10947 313.21564ZM517.0314 313.21564Q517.0314 311.6844 517.3439 310.7625Q517.6564 309.825 518.26575 309.325Q518.89075 308.825 519.82825 308.825Q520.51575 308.825 521.0314 309.10626Q521.5626 309.3875 521.9064 309.91876Q522.2501 310.4344 522.4376 311.1844Q522.6251 311.9344 522.6251 313.21564Q522.6251 314.73126 522.3126 315.65314Q522.01575 316.575 521.39075 317.09064Q520.7814 317.59064 519.82825 317.59064Q518.5939 317.59064 517.8751 316.7Q517.0314 315.6375 517.0314 313.21564ZM518.1095 313.21564Q518.1095 315.325 518.6095 316.02814Q519.1095 316.73126 519.82825 316.73126Q520.5626 316.73126 521.047 316.02814Q521.547 315.325 521.547 313.21564Q521.547 311.09064 521.047 310.40314Q520.5626 309.7 519.8126 309.7Q519.0939 309.7 518.6564 310.3094Q518.1095 311.09064 518.1095 313.21564ZM524.0314 313.21564Q524.0314 311.6844 524.3439 310.7625Q524.6564 309.825 525.26575 309.325Q525.89075 308.825 526.82825 308.825Q527.51575 308.825 528.0314 309.10626Q528.5626 309.3875 528.9064 309.91876Q529.2501 310.4344 529.4376 311.1844Q529.6251 311.9344 529.6251 313.21564Q529.6251 314.73126 529.3126 315.65314Q529.01575 316.575 528.39075 317.09064Q527.7814 317.59064 526.82825 317.59064Q525.5939 317.59064 524.8751 316.7Q524.0314 315.6375 524.0314 313.21564ZM525.1095 313.21564Q525.1095 315.325 525.6095 316.02814Q526.1095 316.73126 526.82825 316.73126Q527.5626 316.73126 528.047 316.02814Q528.547 315.325 528.547 313.21564Q528.547 311.09064 528.047 310.40314Q527.5626 309.7 526.8126 309.7Q526.0939 309.7 525.6564 310.3094Q525.1095 311.09064 525.1095 313.21564Z" fill-rule="nonzero"/><path fill="#4285f4" d="M149.0 61.916668C149.0 65.23038 146.3137 67.916664 143.0 67.916664C139.6863 67.916664 137.0 65.23038 137.0 61.916668C137.0 58.60296 139.6863 55.916668 143.0 55.916668C146.3137 55.916668 149.0 58.60296 149.0 61.916668Z" fill-rule="nonzero"/><path fill="#1a1a1a" d="M162.96875 59.697914L162.96875 65.916664L162.01562 65.916664L162.01562 65.18229Q161.71875 65.65104 161.42188 65.822914Q161.01562 66.05729 160.46875 66.05729Q159.98438 66.05729 159.60938 65.86979Q159.32812 65.729164 158.98438 65.291664L158.98438 68.30729L157.9375 68.30729L157.9375 59.697914L158.98438 59.697914L158.98438 62.322914Q158.98438 63.760414 159.125 64.197914Q159.28125 64.61979 159.625 64.86979Q159.96875 65.104164 160.42188 65.104164Q160.89062 65.104164 161.25 64.854164Q161.625 64.58854 161.76562 64.18229Q161.92188 63.77604 161.92188 62.354164L161.92188 59.697914L162.96875 59.697914ZM164.375 64.05729L165.40625 63.90104Q165.5 64.52604 165.89062 64.854164Q166.29688 65.18229 167.03125 65.18229Q167.75 65.18229 168.09375 64.90104Q168.45312 64.604164 168.45312 64.197914Q168.45312 63.83854 168.14062 63.635414Q167.92188 63.49479 167.0625 63.27604Q165.90625 62.979164 165.45312 62.77604Q165.01562 62.55729 164.78125 62.18229Q164.54688 61.80729 164.54688 61.33854Q164.54688 60.93229 164.73438 60.572914Q164.92188 60.21354 165.25 59.979164Q165.5 59.80729 165.92188 59.68229Q166.34375 59.55729 166.84375 59.55729Q167.5625 59.55729 168.10938 59.77604Q168.67188 59.979164 168.9375 60.33854Q169.20312 60.697914 169.29688 61.291664L168.26562 61.43229Q168.20312 60.96354 167.85938 60.697914Q167.53125 60.416664 166.90625 60.416664Q166.1875 60.416664 165.875 60.666664Q165.5625 60.90104 165.5625 61.229164Q165.5625 61.43229 165.6875 61.58854Q165.82812 61.760414 166.09375 61.86979Q166.25 61.93229 167.03125 62.135414Q168.15625 62.447914 168.59375 62.635414Q169.03125 62.822914 169.28125 63.18229Q169.53125 63.541664 169.53125 64.08854Q169.53125 64.61979 169.21875 65.08854Q168.92188 65.541664 168.34375 65.80729Q167.76562 66.05729 167.03125 66.05729Q165.8125 66.05729 165.17188 65.55729Q164.54688 65.041664 164.375 64.05729ZM171.0 66.05729L173.48438 57.18229L174.32812 57.18229L171.84375 66.05729L171.0 66.05729ZM174.40625 62.80729Q174.40625 61.072914 175.35938 60.24479Q176.15625 59.55729 177.3125 59.55729Q178.59375 59.55729 179.40625 60.40104Q180.23438 61.229164 180.23438 62.71354Q180.23438 63.916664 179.875 64.604164Q179.51562 65.291664 178.8125 65.68229Q178.125 66.05729 177.3125 66.05729Q176.01562 66.05729 175.20312 65.229164Q174.40625 64.385414 174.40625 62.80729ZM175.48438 62.80729Q175.48438 63.99479 176.0 64.58854Q176.53125 65.18229 177.3125 65.18229Q178.10938 65.18229 178.625 64.58854Q179.14062 63.99479 179.14062 62.77604Q179.14062 61.61979 178.60938 61.02604Q178.09375 60.43229 177.3125 60.43229Q176.53125 60.43229 176.0 61.02604Q175.48438 61.604164 175.48438 62.80729ZM181.79688 68.30729L181.79688 59.697914L182.75 59.697914L182.75 60.49479Q183.09375 60.02604 183.51562 59.791664Q183.95312 59.55729 184.5625 59.55729Q185.35938 59.55729 185.96875 59.96354Q186.57812 60.36979 186.875 61.11979Q187.1875 61.86979 187.1875 62.760414Q187.1875 63.71354 186.84375 64.479164Q186.51562 65.24479 185.85938 65.65104Q185.20312 66.05729 184.48438 66.05729Q183.95312 66.05729 183.53125 65.83854Q183.10938 65.604164 182.84375 65.27604L182.84375 68.30729L181.79688 68.30729ZM182.75 62.83854Q182.75 64.041664 183.23438 64.61979Q183.71875 65.18229 184.40625 65.18229Q185.10938 65.18229 185.60938 64.58854Q186.10938 63.99479 186.10938 62.74479Q186.10938 61.55729 185.625 60.979164Q185.14062 60.385414 184.45312 60.385414Q183.78125 60.385414 183.26562 61.010414Q182.75 61.635414 182.75 62.83854ZM193.04688 63.916664L194.14062 64.041664Q193.89062 64.99479 193.1875 65.52604Q192.48438 66.05729 191.40625 66.05729Q190.04688 66.05729 189.23438 65.21354Q188.4375 64.36979 188.4375 62.854164Q188.4375 61.291664 189.25 60.43229Q190.0625 59.55729 191.34375 59.55729Q192.59375 59.55729 193.375 60.40104Q194.17188 61.24479 194.17188 62.791664Q194.17188 62.885414 194.17188 63.072914L189.53125 63.072914Q189.59375 64.104164 190.10938 64.65104Q190.625 65.18229 191.40625 65.18229Q191.98438 65.18229 192.39062 64.885414Q192.8125 64.572914 193.04688 63.916664ZM189.59375 62.21354L193.0625 62.21354Q193.0 61.416664 192.67188 61.02604Q192.15625 60.416664 191.35938 60.416664Q190.625 60.416664 190.125 60.90104Q189.64062 61.385414 189.59375 62.21354ZM195.78125 65.916664L195.78125 59.697914L196.73438 59.697914L196.73438 60.635414Q197.09375 59.979164 197.39062 59.77604Q197.70312 59.55729 198.07812 59.55729Q198.60938 59.55729 199.15625 59.885414L198.79688 60.86979Q198.40625 60.635414 198.03125 60.635414Q197.67188 60.635414 197.39062 60.854164Q197.125 61.05729 197.01562 61.43229Q196.82812 61.99479 196.82812 62.65104L196.82812 65.916664L195.78125 65.916664ZM203.85938 65.15104Q203.26562 65.65104 202.71875 65.854164Q202.1875 66.05729 201.5625 66.05729Q200.53125 66.05729 199.98438 65.55729Q199.4375 65.05729 199.4375 64.27604Q199.4375 63.822914 199.64062 63.447914Q199.84375 63.05729 200.1875 62.83854Q200.53125 62.604164 200.95312 62.49479Q201.25 62.40104 201.89062 62.322914Q203.15625 62.18229 203.76562 61.96354Q203.76562 61.74479 203.76562 61.697914Q203.76562 61.041664 203.46875 60.77604Q203.0625 60.43229 202.26562 60.43229Q201.53125 60.43229 201.17188 60.697914Q200.8125 60.947914 200.64062 61.604164L199.60938 61.46354Q199.75 60.80729 200.07812 60.40104Q200.40625 59.99479 201.01562 59.77604Q201.625 59.55729 202.42188 59.55729Q203.21875 59.55729 203.71875 59.74479Q204.21875 59.93229 204.45312 60.21354Q204.6875 60.49479 204.78125 60.93229Q204.82812 61.197914 204.82812 61.90104L204.82812 63.30729Q204.82812 64.77604 204.89062 65.166664Q204.96875 65.55729 205.17188 65.916664L204.0625 65.916664Q203.90625 65.58854 203.85938 65.15104ZM203.76562 62.791664Q203.1875 63.02604 202.04688 63.197914Q201.39062 63.291664 201.125 63.416664Q200.85938 63.52604 200.70312 63.74479Q200.5625 63.96354 200.5625 64.24479Q200.5625 64.666664 200.875 64.947914Q201.20312 65.229164 201.8125 65.229164Q202.42188 65.229164 202.89062 64.96354Q203.375 64.697914 203.59375 64.229164Q203.76562 63.86979 203.76562 63.18229L203.76562 62.791664ZM209.09375 64.979164L209.25 65.90104Q208.79688 65.99479 208.45312 65.99479Q207.875 65.99479 207.5625 65.822914Q207.25 65.635414 207.10938 65.33854Q206.98438 65.041664 206.98438 64.08854L206.98438 60.510414L206.21875 60.510414L206.21875 59.697914L206.98438 59.697914L206.98438 58.15104L208.03125 57.52604L208.03125 59.697914L209.09375 59.697914L209.09375 60.510414L208.03125 60.510414L208.03125 64.15104Q208.03125 64.604164 208.07812 64.729164Q208.14062 64.854164 208.26562 64.93229Q208.39062 65.010414 208.625 65.010414Q208.8125 65.010414 209.09375 64.979164ZM209.79688 58.541664L209.79688 57.322914L210.85938 57.322914L210.85938 58.541664L209.79688 58.541664ZM209.79688 65.916664L209.79688 59.697914L210.85938 59.697914L210.85938 65.916664L209.79688 65.916664ZM212.40625 62.80729Q212.40625 61.072914 213.35938 60.24479Q214.15625 59.55729 215.3125 59.55729Q216.59375 59.55729 217.40625 60.40104Q218.23438 61.229164 218.23438 62.71354Q218.23438 63.916664 217.875 64.604164Q217.51562 65.291664 216.8125 65.68229Q216.125 66.05729 215.3125 66.05729Q214.01562 66.05729 213.20312 65.229164Q212.40625 64.385414 212.40625 62.80729ZM213.48438 62.80729Q213.48438 63.99479 214.0 64.58854Q214.53125 65.18229 215.3125 65.18229Q216.10938 65.18229 216.625 64.58854Q217.14062 63.99479 217.14062 62.77604Q217.14062 61.61979 216.60938 61.02604Q216.09375 60.43229 215.3125 60.43229Q214.53125 60.43229 214.0 61.02604Q213.48438 61.604164 213.48438 62.80729ZM219.79688 65.916664L219.79688 59.697914L220.73438 59.697914L220.73438 60.572914Q221.42188 59.55729 222.71875 59.55729Q223.28125 59.55729 223.75 59.760414Q224.23438 59.96354 224.46875 60.291664Q224.70312 60.61979 224.79688 61.05729Q224.84375 61.354164 224.84375 62.08854L224.84375 65.916664L223.79688 65.916664L223.79688 62.135414Q223.79688 61.479164 223.67188 61.166664Q223.54688 60.854164 223.23438 60.666664Q222.92188 60.46354 222.5 60.46354Q221.82812 60.46354 221.32812 60.90104Q220.84375 61.322914 220.84375 62.510414L220.84375 65.916664L219.79688 65.916664Z" fill-rule="nonzero"/><path stroke="#4285f4" stroke-width="4.0" stroke-linecap="butt" stroke-opacity="0.5019608" d="M242.0 61.916668L254.0 61.916668" fill-rule="nonzero"/><path fill="#1a1a1a" d="M265.10938 65.916664L265.10938 58.33854L262.28125 58.33854L262.28125 57.322914L269.09375 57.322914L269.09375 58.33854L266.25 58.33854L266.25 65.916664L265.10938 65.916664ZM269.78125 65.916664L269.78125 59.697914L270.73438 59.697914L270.73438 60.635414Q271.09375 59.979164 271.39062 59.77604Q271.70312 59.55729 272.07812 59.55729Q272.60938 59.55729 273.15625 59.885414L272.79688 60.86979Q272.40625 60.635414 272.03125 60.635414Q271.67188 60.635414 271.39062 60.854164Q271.125 61.05729 271.01562 61.43229Q270.82812 61.99479 270.82812 62.65104L270.82812 65.916664L269.78125 65.916664ZM278.04688 63.916664L279.14062 64.041664Q278.89062 64.99479 278.1875 65.52604Q277.48438 66.05729 276.40625 66.05729Q275.04688 66.05729 274.23438 65.21354Q273.4375 64.36979 273.4375 62.854164Q273.4375 61.291664 274.25 60.43229Q275.0625 59.55729 276.34375 59.55729Q277.59375 59.55729 278.375 60.40104Q279.17188 61.24479 279.17188 62.791664Q279.17188 62.885414 279.17188 63.072914L274.53125 63.072914Q274.59375 64.104164 275.10938 64.65104Q275.625 65.18229 276.40625 65.18229Q276.98438 65.18229 277.39062 64.885414Q277.8125 64.572914 278.04688 63.916664ZM274.59375 62.21354L278.0625 62.21354Q278.0 61.416664 277.67188 61.02604Q277.15625 60.416664 276.35938 60.416664Q275.625 60.416664 275.125 60.90104Q274.64062 61.385414 274.59375 62.21354ZM280.79688 65.916664L280.79688 59.697914L281.73438 59.697914L281.73438 60.572914Q282.42188 59.55729 283.71875 59.55729Q284.28125 59.55729 284.75 59.760414Q285.23438 59.96354 285.46875 60.291664Q285.70312 60.61979 285.79688 61.05729Q285.84375 61.354164 285.84375 62.08854L285.84375 65.916664L284.79688 65.916664L284.79688 62.135414Q284.79688 61.479164 284.67188 61.166664Q284.54688 60.854164 284.23438 60.666664Q283.92188 60.46354 283.5 60.46354Q282.82812 60.46354 282.32812 60.90104Q281.84375 61.322914 281.84375 62.510414L281.84375 65.916664L280.79688 65.916664ZM291.82812 65.916664L291.82812 65.135414Q291.23438 66.05729 290.09375 66.05729Q289.34375 66.05729 288.71875 65.65104Q288.09375 65.229164 287.75 64.49479Q287.40625 63.760414 287.40625 62.80729Q287.40625 61.885414 287.71875 61.11979Q288.03125 60.354164 288.65625 59.96354Q289.28125 59.55729 290.04688 59.55729Q290.60938 59.55729 291.04688 59.791664Q291.48438 60.02604 291.76562 60.40104L291.76562 57.322914L292.8125 57.322914L292.8125 65.916664L291.82812 65.916664ZM288.5 62.80729Q288.5 64.010414 289.0 64.604164Q289.5 65.18229 290.1875 65.18229Q290.875 65.18229 291.35938 64.61979Q291.84375 64.05729 291.84375 62.90104Q291.84375 61.61979 291.34375 61.02604Q290.85938 60.43229 290.14062 60.43229Q289.4375 60.43229 288.96875 61.010414Q288.5 61.572914 288.5 62.80729ZM294.76562 65.916664L294.76562 57.322914L295.82812 57.322914L295.82812 65.916664L294.76562 65.916664ZM297.79688 58.541664L297.79688 57.322914L298.85938 57.322914L298.85938 58.541664L297.79688 58.541664ZM297.79688 65.916664L297.79688 59.697914L298.85938 59.697914L298.85938 65.916664L297.79688 65.916664ZM300.79688 65.916664L300.79688 59.697914L301.73438 59.697914L301.73438 60.572914Q302.42188 59.55729 303.71875 59.55729Q304.28125 59.55729 304.75 59.760414Q305.23438 59.96354 305.46875 60.291664Q305.70312 60.61979 305.79688 61.05729Q305.84375 61.354164 305.84375 62.08854L305.84375 65.916664L304.79688 65.916664L304.79688 62.135414Q304.79688 61.479164 304.67188 61.166664Q304.54688 60.854164 304.23438 60.666664Q303.92188 60.46354 303.5 60.46354Q302.82812 60.46354 302.32812 60.90104Q301.84375 61.322914 301.84375 62.510414L301.84375 65.916664L300.79688 65.916664ZM312.04688 63.916664L313.14062 64.041664Q312.89062 64.99479 312.1875 65.52604Q311.48438 66.05729 310.40625 66.05729Q309.04688 66.05729 308.23438 65.21354Q307.4375 64.36979 307.4375 62.854164Q307.4375 61.291664 308.25 60.43229Q309.0625 59.55729 310.34375 59.55729Q311.59375 59.55729 312.375 60.40104Q313.17188 61.24479 313.17188 62.791664Q313.17188 62.885414 313.17188 63.072914L308.53125 63.072914Q308.59375 64.104164 309.10938 64.65104Q309.625 65.18229 310.40625 65.18229Q310.98438 65.18229 311.39062 64.885414Q311.8125 64.572914 312.04688 63.916664ZM308.59375 62.21354L312.0625 62.21354Q312.0 61.416664 311.67188 61.02604Q311.15625 60.416664 310.35938 60.416664Q309.625 60.416664 309.125 60.90104Q308.64062 61.385414 308.59375 62.21354ZM318.04688 65.916664L318.04688 60.510414L317.10938 60.510414L317.10938 59.697914L318.04688 59.697914L318.04688 59.02604Q318.04688 58.40104 318.15625 58.104164Q318.3125 57.68229 318.6875 57.43229Q319.07812 57.18229 319.76562 57.18229Q320.21875 57.18229 320.75 57.291664L320.59375 58.197914Q320.26562 58.15104 319.96875 58.15104Q319.48438 58.15104 319.28125 58.354164Q319.09375 58.55729 319.09375 59.11979L319.09375 59.697914L320.3125 59.697914L320.3125 60.510414L319.09375 60.510414L319.09375 65.916664L318.04688 65.916664ZM320.40625 62.80729Q320.40625 61.072914 321.35938 60.24479Q322.15625 59.55729 323.3125 59.55729Q324.59375 59.55729 325.40625 60.40104Q326.23438 61.229164 326.23438 62.71354Q326.23438 63.916664 325.875 64.604164Q325.51562 65.291664 324.8125 65.68229Q324.125 66.05729 323.3125 66.05729Q322.01562 66.05729 321.20312 65.229164Q320.40625 64.385414 320.40625 62.80729ZM321.48438 62.80729Q321.48438 63.99479 322.0 64.58854Q322.53125 65.18229 323.3125 65.18229Q324.10938 65.18229 324.625 64.58854Q325.14062 63.99479 325.14062 62.77604Q325.14062 61.61979 324.60938 61.02604Q324.09375 60.43229 323.3125 60.43229Q322.53125 60.43229 322.0 61.02604Q321.48438 61.604164 321.48438 62.80729ZM327.78125 65.916664L327.78125 59.697914L328.73438 59.697914L328.73438 60.635414Q329.09375 59.979164 329.39062 59.77604Q329.70312 59.55729 330.07812 59.55729Q330.60938 59.55729 331.15625 59.885414L330.79688 60.86979Q330.40625 60.635414 330.03125 60.635414Q329.67188 60.635414 329.39062 60.854164Q329.125 61.05729 329.01562 61.43229Q328.82812 61.99479 328.82812 62.65104L328.82812 65.916664L327.78125 65.916664ZM339.96875 59.697914L339.96875 65.916664L339.01562 65.916664L339.01562 65.18229Q338.71875 65.65104 338.42188 65.822914Q338.01562 66.05729 337.46875 66.05729Q336.98438 66.05729 336.60938 65.86979Q336.32812 65.729164 335.98438 65.291664L335.98438 68.30729L334.9375 68.30729L334.9375 59.697914L335.98438 59.697914L335.98438 62.322914Q335.98438 63.760414 336.125 64.197914Q336.28125 64.61979 336.625 64.86979Q336.96875 65.104164 337.42188 65.104164Q337.89062 65.104164 338.25 64.854164Q338.625 64.58854 338.76562 64.18229Q338.92188 63.77604 338.92188 62.354164L338.92188 59.697914L339.96875 59.697914ZM341.375 64.05729L342.40625 63.90104Q342.5 64.52604 342.89062 64.854164Q343.29688 65.18229 344.03125 65.18229Q344.75 65.18229 345.09375 64.90104Q345.45312 64.604164 345.45312 64.197914Q345.45312 63.83854 345.14062 63.635414Q344.92188 63.49479 344.0625 63.27604Q342.90625 62.979164 342.45312 62.77604Q342.01562 62.55729 341.78125 62.18229Q341.54688 61.80729 341.54688 61.33854Q341.54688 60.93229 341.73438 60.572914Q341.92188 60.21354 342.25 59.979164Q342.5 59.80729 342.92188 59.68229Q343.34375 59.55729 343.84375 59.55729Q344.5625 59.55729 345.10938 59.77604Q345.67188 59.979164 345.9375 60.33854Q346.20312 60.697914 346.29688 61.291664L345.26562 61.43229Q345.20312 60.96354 344.85938 60.697914Q344.53125 60.416664 343.90625 60.416664Q343.1875 60.416664 342.875 60.666664Q342.5625 60.90104 342.5625 61.229164Q342.5625 61.43229 342.6875 61.58854Q342.82812 61.760414 343.09375 61.86979Q343.25 61.93229 344.03125 62.135414Q345.15625 62.447914 345.59375 62.635414Q346.03125 62.822914 346.28125 63.18229Q346.53125 63.541664 346.53125 64.08854Q346.53125 64.61979 346.21875 65.08854Q345.92188 65.541664 345.34375 65.80729Q344.76562 66.05729 344.03125 66.05729Q342.8125 66.05729 342.17188 65.55729Q341.54688 65.041664 341.375 64.05729ZM348.0 66.05729L350.48438 57.18229L351.32812 57.18229L348.84375 66.05729L348.0 66.05729ZM351.40625 62.80729Q351.40625 61.072914 352.35938 60.24479Q353.15625 59.55729 354.3125 59.55729Q355.59375 59.55729 356.40625 60.40104Q357.23438 61.229164 357.23438 62.71354Q357.23438 63.916664 356.875 64.604164Q356.51562 65.291664 355.8125 65.68229Q355.125 66.05729 354.3125 66.05729Q353.01562 66.05729 352.20312 65.229164Q351.40625 64.385414 351.40625 62.80729ZM352.48438 62.80729Q352.48438 63.99479 353.0 64.58854Q353.53125 65.18229 354.3125 65.18229Q355.10938 65.18229 355.625 64.58854Q356.14062 63.99479 356.14062 62.77604Q356.14062 61.61979 355.60938 61.02604Q355.09375 60.43229 354.3125 60.43229Q353.53125 60.43229 353.0 61.02604Q352.48438 61.604164 352.48438 62.80729ZM358.79688 68.30729L358.79688 59.697914L359.75 59.697914L359.75 60.49479Q360.09375 60.02604 360.51562 59.791664Q360.95312 59.55729 361.5625 59.55729Q362.35938 59.55729 362.96875 59.96354Q363.57812 60.36979 363.875 61.11979Q364.1875 61.86979 364.1875 62.760414Q364.1875 63.71354 363.84375 64.479164Q363.51562 65.24479 362.85938 65.65104Q362.20312 66.05729 361.48438 66.05729Q360.95312 66.05729 360.53125 65.83854Q360.10938 65.604164 359.84375 65.27604L359.84375 68.30729L358.79688 68.30729ZM359.75 62.83854Q359.75 64.041664 360.23438 64.61979Q360.71875 65.18229 361.40625 65.18229Q362.10938 65.18229 362.60938 64.58854Q363.10938 63.99479 363.10938 62.74479Q363.10938 61.55729 362.625 60.979164Q362.14062 60.385414 361.45312 60.385414Q360.78125 60.385414 360.26562 61.010414Q359.75 61.635414 359.75 62.83854ZM370.04688 63.916664L371.14062 64.041664Q370.89062 64.99479 370.1875 65.52604Q369.48438 66.05729 368.40625 66.05729Q367.04688 66.05729 366.23438 65.21354Q365.4375 64.36979 365.4375 62.854164Q365.4375 61.291664 366.25 60.43229Q367.0625 59.55729 368.34375 59.55729Q369.59375 59.55729 370.375 60.40104Q371.17188 61.24479 371.17188 62.791664Q371.17188 62.885414 371.17188 63.072914L366.53125 63.072914Q366.59375 64.104164 367.10938 64.65104Q367.625 65.18229 368.40625 65.18229Q368.98438 65.18229 369.39062 64.885414Q369.8125 64.572914 370.04688 63.916664ZM366.59375 62.21354L370.0625 62.21354Q370.0 61.416664 369.67188 61.02604Q369.15625 60.416664 368.35938 60.416664Q367.625 60.416664 367.125 60.90104Q366.64062 61.385414 366.59375 62.21354ZM372.78125 65.916664L372.78125 59.697914L373.73438 59.697914L373.73438 60.635414Q374.09375 59.979164 374.39062 59.77604Q374.70312 59.55729 375.07812 59.55729Q375.60938 59.55729 376.15625 59.885414L375.79688 60.86979Q375.40625 60.635414 375.03125 60.635414Q374.67188 60.635414 374.39062 60.854164Q374.125 61.05729 374.01562 61.43229Q373.82812 61.99479 373.82812 62.65104L373.82812 65.916664L372.78125 65.916664ZM380.85938 65.15104Q380.26562 65.65104 379.71875 65.854164Q379.1875 66.05729 378.5625 66.05729Q377.53125 66.05729 376.98438 65.55729Q376.4375 65.05729 376.4375 64.27604Q376.4375 63.822914 376.64062 63.447914Q376.84375 63.05729 377.1875 62.83854Q377.53125 62.604164 377.95312 62.49479Q378.25 62.40104 378.89062 62.322914Q380.15625 62.18229 380.76562 61.96354Q380.76562 61.74479 380.76562 61.697914Q380.76562 61.041664 380.46875 60.77604Q380.0625 60.43229 379.26562 60.43229Q378.53125 60.43229 378.17188 60.697914Q377.8125 60.947914 377.64062 61.604164L376.60938 61.46354Q376.75 60.80729 377.07812 60.40104Q377.40625 59.99479 378.01562 59.77604Q378.625 59.55729 379.42188 59.55729Q380.21875 59.55729 380.71875 59.74479Q381.21875 59.93229 381.45312 60.21354Q381.6875 60.49479 381.78125 60.93229Q381.82812 61.197914 381.82812 61.90104L381.82812 63.30729Q381.82812 64.77604 381.89062 65.166664Q381.96875 65.55729 382.17188 65.916664L381.0625 65.916664Q380.90625 65.58854 380.85938 65.15104ZM380.76562 62.791664Q380.1875 63.02604 379.04688 63.197914Q378.39062 63.291664 378.125 63.416664Q377.85938 63.52604 377.70312 63.74479Q377.5625 63.96354 377.5625 64.24479Q377.5625 64.666664 377.875 64.947914Q378.20312 65.229164 378.8125 65.229164Q379.42188 65.229164 379.89062 64.96354Q380.375 64.697914 380.59375 64.229164Q380.76562 63.86979 380.76562 63.18229L380.76562 62.791664ZM386.09375 64.979164L386.25 65.90104Q385.79688 65.99479 385.45312 65.99479Q384.875 65.99479 384.5625 65.822914Q384.25 65.635414 384.10938 65.33854Q383.98438 65.041664 383.98438 64.08854L383.98438 60.510414L383.21875 60.510414L383.21875 59.697914L383.98438 59.697914L383.98438 58.15104L385.03125 57.52604L385.03125 59.697914L386.09375 59.697914L386.09375 60.510414L385.03125 60.510414L385.03125 64.15104Q385.03125 64.604164 385.07812 64.729164Q385.14062 64.854164 385.26562 64.93229Q385.39062 65.010414 385.625 65.010414Q385.8125 65.010414 386.09375 64.979164ZM386.79688 58.541664L386.79688 57.322914L387.85938 57.322914L387.85938 58.541664L386.79688 58.541664ZM386.79688 65.916664L386.79688 59.697914L387.85938 59.697914L387.85938 65.916664L386.79688 65.916664ZM389.40625 62.80729Q389.40625 61.072914 390.35938 60.24479Q391.15625 59.55729 392.3125 59.55729Q393.59375 59.55729 394.40625 60.40104Q395.23438 61.229164 395.23438 62.71354Q395.23438 63.916664 394.875 64.604164Q394.51562 65.291664 393.8125 65.68229Q393.125 66.05729 392.3125 66.05729Q391.01562 66.05729 390.20312 65.229164Q389.40625 64.385414 389.40625 62.80729ZM390.48438 62.80729Q390.48438 63.99479 391.0 64.58854Q391.53125 65.18229 392.3125 65.18229Q393.10938 65.18229 393.625 64.58854Q394.14062 63.99479 394.14062 62.77604Q394.14062 61.61979 393.60938 61.02604Q393.09375 60.43229 392.3125 60.43229Q391.53125 60.43229 391.0 61.02604Q390.48438 61.604164 390.48438 62.80729ZM396.79688 65.916664L396.79688 59.697914L397.73438 59.697914L397.73438 60.572914Q398.42188 59.55729 399.71875 59.55729Q400.28125 59.55729 400.75 59.760414Q401.23438 59.96354 401.46875 60.291664Q401.70312 60.61979 401.79688 61.05729Q401.84375 61.354164 401.84375 62.08854L401.84375 65.916664L400.79688 65.916664L400.79688 62.135414Q400.79688 61.479164 400.67188 61.166664Q400.54688 60.854164 400.23438 60.666664Q399.92188 60.46354 399.5 60.46354Q398.82812 60.46354 398.32812 60.90104Q397.84375 61.322914 397.84375 62.510414L397.84375 65.916664L396.79688 65.916664ZM406.9375 65.916664L406.9375 57.322914L410.75 57.322914Q411.90625 57.322914 412.5 57.55729Q413.09375 57.791664 413.45312 58.385414Q413.8125 58.96354 413.8125 59.666664Q413.8125 60.58854 413.21875 61.21354Q412.625 61.83854 411.39062 62.010414Q411.84375 62.229164 412.07812 62.43229Q412.57812 62.885414 413.01562 63.572914L414.51562 65.916664L413.07812 65.916664L411.95312 64.135414Q411.45312 63.354164 411.125 62.947914Q410.8125 62.541664 410.54688 62.385414Q410.29688 62.21354 410.03125 62.135414Q409.84375 62.104164 409.40625 62.104164L408.07812 62.104164L408.07812 65.916664L406.9375 65.916664ZM408.07812 61.11979L410.53125 61.11979Q411.29688 61.11979 411.73438 60.96354Q412.1875 60.791664 412.40625 60.447914Q412.64062 60.08854 412.64062 59.666664Q412.64062 59.05729 412.1875 58.666664Q411.75 58.27604 410.79688 58.27604L408.07812 58.27604L408.07812 61.11979ZM415.14062 61.61979Q415.1875 61.291664 415.42188 60.947914Q415.79688 60.447914 416.64062 59.83854Q417.48438 59.229164 417.64062 59.041664Q417.85938 58.80729 417.85938 58.55729Q417.85938 58.27604 417.64062 58.104164Q417.4375 57.916664 417.04688 57.916664Q416.65625 57.916664 416.46875 58.05729Q416.28125 58.18229 416.15625 58.572914L415.26562 58.479164Q415.4375 57.83854 415.85938 57.52604Q416.28125 57.21354 417.0625 57.21354Q417.95312 57.21354 418.35938 57.572914Q418.78125 57.916664 418.78125 58.416664Q418.78125 58.90104 418.42188 59.33854Q418.17188 59.666664 417.23438 60.33854Q416.73438 60.697914 416.53125 60.916664L418.79688 60.916664L418.79688 61.61979L415.14062 61.61979ZM428.34375 60.86979L422.67188 60.86979L422.67188 59.885414L428.34375 59.885414L428.34375 60.86979ZM428.34375 63.479164L422.67188 63.479164L422.67188 62.49479L428.34375 62.49479L428.34375 63.479164ZM432.5 61.68229Q432.5 60.15104 432.8125 59.229164Q433.125 58.291664 433.73438 57.791664Q434.35938 57.291664 435.29688 57.291664Q435.98438 57.291664 436.5 57.572914Q437.03125 57.854164 437.375 58.385414Q437.71875 58.90104 437.90625 59.65104Q438.09375 60.40104 438.09375 61.68229Q438.09375 63.197914 437.78125 64.11979Q437.48438 65.041664 436.85938 65.55729Q436.25 66.05729 435.29688 66.05729Q434.0625 66.05729 433.34375 65.166664Q432.5 64.104164 432.5 61.68229ZM433.57812 61.68229Q433.57812 63.791664 434.07812 64.49479Q434.57812 65.197914 435.29688 65.197914Q436.03125 65.197914 436.51562 64.49479Q437.01562 63.791664 437.01562 61.68229Q437.01562 59.55729 436.51562 58.86979Q436.03125 58.166664 435.28125 58.166664Q434.5625 58.166664 434.125 58.77604Q433.57812 59.55729 433.57812 61.68229ZM440.09375 65.916664L440.09375 64.71354L441.29688 64.71354L441.29688 65.916664L440.09375 65.916664ZM442.5 61.68229Q442.5 60.15104 442.8125 59.229164Q443.125 58.291664 443.73438 57.791664Q444.35938 57.291664 445.29688 57.291664Q445.98438 57.291664 446.5 57.572914Q447.03125 57.854164 447.375 58.385414Q447.71875 58.90104 447.90625 59.65104Q448.09375 60.40104 448.09375 61.68229Q448.09375 63.197914 447.78125 64.11979Q447.48438 65.041664 446.85938 65.55729Q446.25 66.05729 445.29688 66.05729Q444.0625 66.05729 443.34375 65.166664Q442.5 64.104164 442.5 61.68229ZM443.57812 61.68229Q443.57812 63.791664 444.07812 64.49479Q444.57812 65.197914 445.29688 65.197914Q446.03125 65.197914 446.51562 64.49479Q447.01562 63.791664 447.01562 61.68229Q447.01562 59.55729 446.51562 58.86979Q446.03125 58.166664 445.28125 58.166664Q444.5625 58.166664 444.125 58.77604Q443.57812 59.55729 443.57812 61.68229ZM453.46875 65.916664L452.42188 65.916664L452.42188 59.197914Q452.03125 59.55729 451.40625 59.93229Q450.79688 60.291664 450.3125 60.46354L450.3125 59.447914Q451.1875 59.02604 451.84375 58.447914Q452.51562 57.854164 452.79688 57.291664L453.46875 57.291664L453.46875 65.916664ZM462.04688 64.90104L462.04688 65.916664L456.35938 65.916664Q456.35938 65.541664 456.48438 65.18229Q456.70312 64.604164 457.17188 64.041664Q457.65625 63.479164 458.5625 62.74479Q459.96875 61.58854 460.45312 60.916664Q460.95312 60.24479 460.95312 59.65104Q460.95312 59.02604 460.5 58.604164Q460.04688 58.166664 459.32812 58.166664Q458.5625 58.166664 458.10938 58.61979Q457.65625 59.072914 457.64062 59.885414L456.5625 59.77604Q456.67188 58.55729 457.39062 57.93229Q458.125 57.291664 459.35938 57.291664Q460.59375 57.291664 461.3125 57.979164Q462.03125 58.666664 462.03125 59.68229Q462.03125 60.197914 461.8125 60.697914Q461.60938 61.18229 461.10938 61.74479Q460.625 62.291664 459.5 63.24479Q458.54688 64.041664 458.26562 64.33854Q458.0 64.61979 457.82812 64.90104L462.04688 64.90104Z" fill-rule="nonzero"/><path fill="#757575" d="M20.159374 37.55L20.159374 23.2375L22.05 23.2375L22.05 29.1125L29.4875 29.1125L29.4875 23.2375L31.378124 23.2375L31.378124 37.55L29.4875 37.55L29.4875 30.8L22.05 30.8L22.05 37.55L20.159374 37.55ZM39.64375 36.26875Q38.659374 37.096874 37.753124 37.440624Q36.846874 37.784374 35.815624 37.784374Q34.1125 37.784374 33.190624 36.95625Q32.26875 36.1125 32.26875 34.815624Q32.26875 34.05 32.6125 33.425Q32.971874 32.8 33.534374 32.425Q34.096874 32.034374 34.8 31.83125Q35.315624 31.70625 36.3625 31.565624Q38.4875 31.315624 39.4875 30.971874Q39.503124 30.6125 39.503124 30.503124Q39.503124 29.440624 39.003124 28.9875Q38.33125 28.39375 37.003124 28.39375Q35.753124 28.39375 35.159374 28.83125Q34.58125 29.26875 34.3 30.378124L32.58125 30.14375Q32.815624 29.034374 33.346874 28.3625Q33.878124 27.675 34.89375 27.315624Q35.909374 26.940624 37.253124 26.940624Q38.58125 26.940624 39.409374 27.253124Q40.2375 27.565624 40.628124 28.05Q41.01875 28.51875 41.175 29.2375Q41.26875 29.690624 41.26875 30.8625L41.26875 33.20625Q41.26875 35.659374 41.378124 36.315624Q41.4875 36.95625 41.83125 37.55L39.9875 37.55Q39.721874 37.003124 39.64375 36.26875ZM39.4875 32.346874Q38.534374 32.7375 36.6125 33.003124Q35.534374 33.159374 35.08125 33.3625Q34.64375 33.55 34.39375 33.925Q34.14375 34.3 34.14375 34.76875Q34.14375 35.471874 34.675 35.940624Q35.20625 36.409374 36.2375 36.409374Q37.253124 36.409374 38.034374 35.971874Q38.83125 35.51875 39.20625 34.753124Q39.4875 34.14375 39.4875 32.9875L39.4875 32.346874ZM43.159374 34.45625L44.909374 34.175Q45.05 35.221874 45.721874 35.784374Q46.39375 36.33125 47.596874 36.33125Q48.8 36.33125 49.378124 35.846874Q49.971874 35.346874 49.971874 34.690624Q49.971874 34.096874 49.45625 33.753124Q49.096874 33.51875 47.659374 33.159374Q45.721874 32.659374 44.971874 32.315624Q44.2375 31.95625 43.846874 31.33125Q43.45625 30.690624 43.45625 29.925Q43.45625 29.2375 43.76875 28.64375Q44.096874 28.05 44.64375 27.659374Q45.05 27.3625 45.753124 27.159374Q46.471874 26.940624 47.284374 26.940624Q48.503124 26.940624 49.425 27.3Q50.346874 27.64375 50.784374 28.253124Q51.221874 28.846874 51.39375 29.846874L49.675 30.08125Q49.55 29.284374 48.9875 28.846874Q48.425 28.39375 47.409374 28.39375Q46.190624 28.39375 45.675 28.8Q45.159374 29.190624 45.159374 29.721874Q45.159374 30.065624 45.378124 30.346874Q45.58125 30.628124 46.05 30.815624Q46.315624 30.909374 47.596874 31.253124Q49.471874 31.753124 50.20625 32.08125Q50.940624 32.39375 51.3625 33.003124Q51.784374 33.596874 51.784374 34.503124Q51.784374 35.378124 51.26875 36.159374Q50.753124 36.940624 49.784374 37.3625Q48.815624 37.784374 47.596874 37.784374Q45.58125 37.784374 44.51875 36.940624Q43.45625 36.096874 43.159374 34.45625ZM53.8625 37.55L53.8625 23.2375L55.628124 23.2375L55.628124 28.3625Q56.8625 26.940624 58.7375 26.940624Q59.878124 26.940624 60.721874 27.39375Q61.58125 27.846874 61.940624 28.659374Q62.315624 29.45625 62.315624 30.971874L62.315624 37.55L60.565624 37.55L60.565624 30.971874Q60.565624 29.659374 59.9875 29.065624Q59.409374 28.45625 58.378124 28.45625Q57.596874 28.45625 56.89375 28.8625Q56.20625 29.26875 55.909374 29.971874Q55.628124 30.659374 55.628124 31.878124L55.628124 37.55L53.8625 37.55ZM73.7375 37.55L73.7375 24.925L69.01875 24.925L69.01875 23.2375L80.3625 23.2375L80.3625 24.925L75.62813 24.925L75.62813 37.55L73.7375 37.55ZM88.64375 36.26875Q87.65938 37.096874 86.75313 37.440624Q85.84688 37.784374 84.81563 37.784374Q83.1125 37.784374 82.19063 36.95625Q81.26875 36.1125 81.26875 34.815624Q81.26875 34.05 81.6125 33.425Q81.97188 32.8 82.53438 32.425Q83.09688 32.034374 83.8 31.83125Q84.31563 31.70625 85.3625 31.565624Q87.4875 31.315624 88.4875 30.971874Q88.50313 30.6125 88.50313 30.503124Q88.50313 29.440624 88.00313 28.9875Q87.33125 28.39375 86.00313 28.39375Q84.75313 28.39375 84.15938 28.83125Q83.58125 29.26875 83.3 30.378124L81.58125 30.14375Q81.81563 29.034374 82.34688 28.3625Q82.87813 27.675 83.89375 27.315624Q84.90938 26.940624 86.25313 26.940624Q87.58125 26.940624 88.40938 27.253124Q89.2375 27.565624 89.62813 28.05Q90.01875 28.51875 90.175 29.2375Q90.26875 29.690624 90.26875 30.8625L90.26875 33.20625Q90.26875 35.659374 90.37813 36.315624Q90.4875 36.95625 90.83125 37.55L88.9875 37.55Q88.72188 37.003124 88.64375 36.26875ZM88.4875 32.346874Q87.53438 32.7375 85.6125 33.003124Q84.53438 33.159374 84.08125 33.3625Q83.64375 33.55 83.39375 33.925Q83.14375 34.3 83.14375 34.76875Q83.14375 35.471874 83.675 35.940624Q84.20625 36.409374 85.2375 36.409374Q86.25313 36.409374 87.03438 35.971874Q87.83125 35.51875 88.20625 34.753124Q88.4875 34.14375 88.4875 32.9875L88.4875 32.346874ZM94.4875 37.55L92.8625 37.55L92.8625 23.2375L94.6125 23.2375L94.6125 28.346874Q95.7375 26.940624 97.45625 26.940624Q98.40938 26.940624 99.26875 27.33125Q100.12813 27.721874 100.675 28.425Q101.22188 29.1125 101.53438 30.096874Q101.84688 31.08125 101.84688 32.20625Q101.84688 34.878124 100.53438 36.33125Q99.22188 37.784374 97.37813 37.784374Q95.53438 37.784374 94.4875 36.253124L94.4875 37.55ZM94.47188 32.284374Q94.47188 34.14375 94.97188 34.9875Q95.81563 36.33125 97.22188 36.33125Q98.37813 36.33125 99.20625 35.33125Q100.05 34.33125 100.05 32.346874Q100.05 30.315624 99.2375 29.3625Q98.44063 28.39375 97.3 28.39375Q96.14375 28.39375 95.3 29.39375Q94.47188 30.39375 94.47188 32.284374ZM103.83125 37.55L103.83125 23.2375L105.58125 23.2375L105.58125 37.55L103.83125 37.55ZM114.97188 34.20625L116.78438 34.440624Q116.3625 36.01875 115.19063 36.909374Q114.03438 37.784374 112.22188 37.784374Q109.95625 37.784374 108.6125 36.39375Q107.28438 34.9875 107.28438 32.45625Q107.28438 29.83125 108.62813 28.39375Q109.97188 26.940624 112.12813 26.940624Q114.20625 26.940624 115.51875 28.3625Q116.84688 29.76875 116.84688 32.346874Q116.84688 32.503124 116.83125 32.815624L109.09688 32.815624Q109.19063 34.51875 110.06563 35.425Q110.94063 36.33125 112.2375 36.33125Q113.20625 36.33125 113.87813 35.83125Q114.56563 35.315624 114.97188 34.20625ZM109.19063 31.3625L114.9875 31.3625Q114.87813 30.065624 114.33125 29.409374Q113.4875 28.39375 112.14375 28.39375Q110.94063 28.39375 110.1125 29.20625Q109.28438 30.003124 109.19063 31.3625ZM125.09688 37.55L125.09688 23.2375L130.4875 23.2375Q131.925 23.2375 132.675 23.3625Q133.72188 23.55 134.44063 24.05Q135.15938 24.534374 135.58125 25.425Q136.01875 26.315624 136.01875 27.378124Q136.01875 29.20625 134.84688 30.471874Q133.69063 31.721874 130.65938 31.721874L126.9875 31.721874L126.9875 37.55L125.09688 37.55ZM126.9875 30.034374L130.69063 30.034374Q132.51875 30.034374 133.28438 29.3625Q134.06563 28.675 134.06563 27.425Q134.06563 26.534374 133.6125 25.89375Q133.15938 25.253124 132.425 25.05Q131.94063 24.925 130.64375 24.925L126.9875 24.925L126.9875 30.034374ZM144.97188 34.20625L146.78438 34.440624Q146.3625 36.01875 145.19063 36.909374Q144.03438 37.784374 142.22188 37.784374Q139.95625 37.784374 138.6125 36.39375Q137.28438 34.9875 137.28438 32.45625Q137.28438 29.83125 138.62813 28.39375Q139.97188 26.940624 142.12813 26.940624Q144.20625 26.940624 145.51875 28.3625Q146.84688 29.76875 146.84688 32.346874Q146.84688 32.503124 146.83125 32.815624L139.09688 32.815624Q139.19063 34.51875 140.06563 35.425Q140.94063 36.33125 142.2375 36.33125Q143.20625 36.33125 143.87813 35.83125Q144.56563 35.315624 144.97188 34.20625ZM139.19063 31.3625L144.9875 31.3625Q144.87813 30.065624 144.33125 29.409374Q143.4875 28.39375 142.14375 28.39375Q140.94063 28.39375 140.1125 29.20625Q139.28438 30.003124 139.19063 31.3625ZM148.84688 37.55L148.84688 27.175L150.425 27.175L150.425 28.753124Q151.03438 27.64375 151.55 27.3Q152.06563 26.940624 152.675 26.940624Q153.56563 26.940624 154.4875 27.503124L153.87813 29.14375Q153.2375 28.753124 152.59688 28.753124Q152.01875 28.753124 151.55 29.1125Q151.09688 29.45625 150.89375 30.065624Q150.6125 31.003124 150.6125 32.1125L150.6125 37.55L148.84688 37.55ZM156.28438 37.55L156.28438 28.55L154.7375 28.55L154.7375 27.175L156.28438 27.175L156.28438 26.08125Q156.28438 25.034374 156.47188 24.51875Q156.72188 23.83125 157.3625 23.409374Q158.00313 22.9875 159.15938 22.9875Q159.90938 22.9875 160.8 23.159374L160.53438 24.690624Q159.9875 24.596874 159.50313 24.596874Q158.70625 24.596874 158.3625 24.940624Q158.03438 25.284374 158.03438 26.221874L158.03438 27.175L160.06563 27.175L160.06563 28.55L158.03438 28.55L158.03438 37.55L156.28438 37.55ZM161.22188 32.3625Q161.22188 29.4875 162.81563 28.096874Q164.15938 26.940624 166.08125 26.940624Q168.22188 26.940624 169.56563 28.346874Q170.925 29.753124 170.925 32.221874Q170.925 34.221874 170.33125 35.378124Q169.7375 36.51875 168.58125 37.159374Q167.44063 37.784374 166.08125 37.784374Q163.89375 37.784374 162.55 36.39375Q161.22188 34.9875 161.22188 32.3625ZM163.01875 32.3625Q163.01875 34.3625 163.87813 35.346874Q164.75313 36.33125 166.08125 36.33125Q167.39375 36.33125 168.25313 35.346874Q169.12813 34.346874 169.12813 32.3Q169.12813 30.378124 168.25313 29.39375Q167.37813 28.39375 166.08125 28.39375Q164.75313 28.39375 163.87813 29.39375Q163.01875 30.378124 163.01875 32.3625ZM172.84688 37.55L172.84688 27.175L174.425 27.175L174.425 28.753124Q175.03438 27.64375 175.55 27.3Q176.06563 26.940624 176.675 26.940624Q177.56563 26.940624 178.4875 27.503124L177.87813 29.14375Q177.2375 28.753124 176.59688 28.753124Q176.01875 28.753124 175.55 29.1125Q175.09688 29.45625 174.89375 30.065624Q174.6125 31.003124 174.6125 32.1125L174.6125 37.55L172.84688 37.55ZM179.8625 37.55L179.8625 27.175L181.44063 27.175L181.44063 28.628124Q181.925 27.878124 182.7375 27.409374Q183.55 26.940624 184.58125 26.940624Q185.7375 26.940624 186.47188 27.425Q187.20625 27.89375 187.51875 28.753124Q188.75313 26.940624 190.72188 26.940624Q192.26875 26.940624 193.09688 27.8Q193.925 28.659374 193.925 30.425L193.925 37.55L192.175 37.55L192.175 31.01875Q192.175 29.95625 192.00313 29.503124Q191.83125 29.034374 191.37813 28.753124Q190.94063 28.471874 190.33125 28.471874Q189.2375 28.471874 188.50313 29.20625Q187.78438 29.925 187.78438 31.51875L187.78438 37.55L186.03438 37.55L186.03438 30.815624Q186.03438 29.64375 185.59688 29.065624Q185.175 28.471874 184.19063 28.471874Q183.45625 28.471874 182.81563 28.8625Q182.19063 29.253124 181.90938 30.003124Q181.62813 30.753124 181.62813 32.175L181.62813 37.55L179.8625 37.55ZM202.64375 36.26875Q201.65938 37.096874 200.75313 37.440624Q199.84688 37.784374 198.81563 37.784374Q197.1125 37.784374 196.19063 36.95625Q195.26875 36.1125 195.26875 34.815624Q195.26875 34.05 195.6125 33.425Q195.97188 32.8 196.53438 32.425Q197.09688 32.034374 197.8 31.83125Q198.31563 31.70625 199.3625 31.565624Q201.4875 31.315624 202.4875 30.971874Q202.50313 30.6125 202.50313 30.503124Q202.50313 29.440624 202.00313 28.9875Q201.33125 28.39375 200.00313 28.39375Q198.75313 28.39375 198.15938 28.83125Q197.58125 29.26875 197.3 30.378124L195.58125 30.14375Q195.81563 29.034374 196.34688 28.3625Q196.87813 27.675 197.89375 27.315624Q198.90938 26.940624 200.25313 26.940624Q201.58125 26.940624 202.40938 27.253124Q203.2375 27.565624 203.62813 28.05Q204.01875 28.51875 204.175 29.2375Q204.26875 29.690624 204.26875 30.8625L204.26875 33.20625Q204.26875 35.659374 204.37813 36.315624Q204.4875 36.95625 204.83125 37.55L202.9875 37.55Q202.72188 37.003124 202.64375 36.26875ZM202.4875 32.346874Q201.53438 32.7375 199.6125 33.003124Q198.53438 33.159374 198.08125 33.3625Q197.64375 33.55 197.39375 33.925Q197.14375 34.3 197.14375 34.76875Q197.14375 35.471874 197.675 35.940624Q198.20625 36.409374 199.2375 36.409374Q200.25313 36.409374 201.03438 35.971874Q201.83125 35.51875 202.20625 34.753124Q202.4875 34.14375 202.4875 32.9875L202.4875 32.346874ZM206.8625 37.55L206.8625 27.175L208.45625 27.175L208.45625 28.659374Q209.59688 26.940624 211.75313 26.940624Q212.69063 26.940624 213.47188 27.284374Q214.26875 27.6125 214.65938 28.159374Q215.05 28.70625 215.20625 29.45625Q215.3 29.95625 215.3 31.175L215.3 37.55L213.53438 37.55L213.53438 31.2375Q213.53438 30.159374 213.33125 29.628124Q213.12813 29.096874 212.59688 28.784374Q212.08125 28.471874 211.37813 28.471874Q210.25313 28.471874 209.44063 29.190624Q208.62813 29.89375 208.62813 31.878124L208.62813 37.55L206.8625 37.55ZM223.64375 33.753124L225.3625 33.971874Q225.08125 35.76875 223.90938 36.784374Q222.75313 37.784374 221.05 37.784374Q218.925 37.784374 217.62813 36.39375Q216.33125 35.003124 216.33125 32.409374Q216.33125 30.721874 216.87813 29.471874Q217.44063 28.20625 218.58125 27.58125Q219.72188 26.940624 221.06563 26.940624Q222.75313 26.940624 223.81563 27.8Q224.89375 28.659374 225.20625 30.221874L223.4875 30.4875Q223.25313 29.440624 222.62813 28.925Q222.00313 28.39375 221.12813 28.39375Q219.8 28.39375 218.97188 29.346874Q218.14375 30.3 218.14375 32.346874Q218.14375 34.440624 218.94063 35.39375Q219.7375 36.33125 221.03438 36.33125Q222.06563 36.33125 222.75313 35.70625Q223.45625 35.065624 223.64375 33.753124ZM233.97188 34.20625L235.78438 34.440624Q235.3625 36.01875 234.19063 36.909374Q233.03438 37.784374 231.22188 37.784374Q228.95625 37.784374 227.6125 36.39375Q226.28438 34.9875 226.28438 32.45625Q226.28438 29.83125 227.62813 28.39375Q228.97188 26.940624 231.12813 26.940624Q233.20625 26.940624 234.51875 28.3625Q235.84688 29.76875 235.84688 32.346874Q235.84688 32.503124 235.83125 32.815624L228.09688 32.815624Q228.19063 34.51875 229.06563 35.425Q229.94063 36.33125 231.2375 36.33125Q232.20625 36.33125 232.87813 35.83125Q233.56563 35.315624 233.97188 34.20625ZM228.19063 31.3625L233.9875 31.3625Q233.87813 30.065624 233.33125 29.409374Q232.4875 28.39375 231.14375 28.39375Q229.94063 28.39375 229.1125 29.20625Q228.28438 30.003124 228.19063 31.3625Z" fill-rule="nonzero"/></svg>