<svg version="1.1" viewBox="0.0 0.0 600.0 371.0" fill="none" stroke="none" stroke-linecap="square" stroke-miterlimit="10" width="600" height="371" xmlns:xlink="http://www.w3.org/1999/xlink" xmlns="http://www.w3.org/2000/svg"><path fill="#ffffff" d="M0 0L600.0 0L600.0 371.0L0 371.0L0 0Z" fill-rule="nonzero"/><path stroke="#333333" stroke-width="1.0" stroke-linecap="butt" d="M84.5 88.5L84.5 300.5" fill-rule="nonzero"/><path stroke="#cccccc" stroke-width="1.0" stroke-linecap="butt" d="M233.5 88.5L233.5 300.5" fill-rule="nonzero"/><path stroke="#cccccc" stroke-width="1.0" stroke-linecap="butt" d="M383.5 88.5L383.5 300.5" fill-rule="nonzero"/><path stroke="#cccccc" stroke-width="1.0" stroke-linecap="butt" d="M533.5 88.5L533.5 300.5" fill-rule="nonzero"/><path stroke="#333333" stroke-width="1.0" stroke-linecap="butt" d="M77.5 300.5L581.5 300.5" fill-rule="nonzero"/><path stroke="#cccccc" stroke-width="1.0" stroke-linecap="butt" d="M77.5 229.5L581.5 229.5" fill-rule="nonzero"/><path stroke="#cccccc" stroke-width="1.0" stroke-linecap="butt" d="M77.5 159.5L581.5 159.5" fill-rule="nonzero"/><path stroke="#cccccc" stroke-width="1.0" stroke-linecap="butt" d="M77.5 88.5L581.5 88.5" fill-rule="nonzero"/><clipPath id="id_0"><path d="M77.55 88.28333L581.45 88.28333L581.45 300.45L77.55 300.45L77.55 88.28333Z" clip-rule="nonzero"/></clipPath><path stroke="#4285f4" stroke-width="2.0" stroke-linecap="butt" stroke-opacity="0.5019608" clip-path="url(#id_0)" d="M0 328.14096L581.45 119.22264" fill-rule="nonzero"/><path fill="#4285f4" clip-path="url(#id_0)" d="M88.86077 295.93298C88.86077 298.41824 86.846054 300.43298 84.36077 300.43298C81.875496 300.43298 79.86077 298.41824 79.86077 295.93298C79.86077 293.4477 81.875496 291.43298 84.36077 291.43298C86.846054 291.43298 88.86077 293.4477 88.86077 295.93298Z" fill-rule="nonzero"/><path fill="#4285f4" clip-path="url(#id_0)" d="M88.92063 297.33575C88.92063 299.821 86.905914 301.83575 84.42063 301.83575C81.93535 301.83575 79.92063 299.821 79.92063 297.33575C79.92063 294.85046 81.93535 292.83575 84.42063 292.83575C86.905914 292.83575 88.92063 294.85046 88.92063 297.33575Z" fill-rule="nonzero"/><path fill="#4285f4" clip-path="url(#id_0)" d="M89.040344 297.86377C89.040344 300.34906 87.02562 302.36377 84.540344 302.36377C82.05506 302.36377 80.040344 300.34906 80.040344 297.86377C80.040344 295.3785 82.05506 293.36377 84.540344 293.36377C87.02562 293.36377 89.040344 295.3785 89.040344 297.86377Z" fill-rule="nonzero"/><path fill="#4285f4" clip-path="url(#id_0)" d="M89.27976 298.01962C89.27976 300.5049 87.265045 302.51962 84.77976 302.51962C82.29448 302.51962 80.27976 300.5049 80.27976 298.01962C80.27976 295.53436 82.29448 293.51962 84.77976 293.51962C87.265045 293.51962 89.27976 295.53436 89.27976 298.01962Z" fill-rule="nonzero"/><path fill="#4285f4" clip-path="url(#id_0)" d="M89.75861 297.80887C89.75861 300.29413 87.74389 302.30887 85.25861 302.30887C82.77333 302.30887 80.75861 300.29413 80.75861 297.80887C80.75861 295.32358 82.77333 293.30887 85.25861 293.30887C87.74389 293.30887 89.75861 295.32358 89.75861 297.80887Z" fill-rule="nonzero"/><path fill="#4285f4" clip-path="url(#id_0)" d="M90.7163 297.7112C90.7163 300.19647 88.701584 302.2112 86.2163 302.2112C83.73102 302.2112 81.7163 300.19647 81.7163 297.7112C81.7163 295.22592 83.73102 293.2112 86.2163 293.2112C88.701584 293.2112 90.7163 295.22592 90.7163 297.7112Z" fill-rule="nonzero"/><path fill="#4285f4" clip-path="url(#id_0)" d="M92.63168 296.97205C92.63168 299.4573 90.61697 301.47205 88.13168 301.47205C85.64641 301.47205 83.63168 299.4573 83.63168 296.97205C83.63168 294.48676 85.64641 292.47205 88.13168 292.47205C90.61697 292.47205 92.63168 294.48676 92.63168 296.97205Z" fill-rule="nonzero"/><path fill="#4285f4" clip-path="url(#id_0)" d="M96.462456 295.60202C96.462456 298.0873 94.44774 300.10202 91.962456 300.10202C89.47717 300.10202 87.462456 298.0873 87.462456 295.60202C87.462456 293.11676 89.47717 291.10202 91.962456 291.10202C94.44774 291.10202 96.462456 293.11676 96.462456 295.60202Z" fill-rule="nonzero"/><path fill="#4285f4" clip-path="url(#id_0)" d="M104.12399 292.654C104.12399 295.13928 102.109276 297.154 99.62399 297.154C97.13871 297.154 95.12399 295.13928 95.12399 292.654C95.12399 290.16873 97.13871 288.154 99.62399 288.154C102.109276 288.154 104.12399 290.16873 104.12399 292.654Z" fill-rule="nonzero"/><path fill="#4285f4" clip-path="url(#id_0)" d="M119.44706 287.10754C119.44706 289.59283 117.43234 291.60754 114.94706 291.60754C112.461784 291.60754 110.44706 289.59283 110.44706 287.10754C110.44706 284.62225 112.461784 282.60754 114.94706 282.60754C117.43234 282.60754 119.44706 284.62225 119.44706 287.10754Z" fill-rule="nonzero"/><path fill="#4285f4" clip-path="url(#id_0)" d="M150.0932 275.78738C150.0932 278.27267 148.07849 280.28738 145.5932 280.28738C143.10793 280.28738 141.0932 278.27267 141.0932 275.78738C141.0932 273.30212 143.10793 271.28738 145.5932 271.28738C148.07849 271.28738 150.0932 273.30212 150.0932 275.78738Z" fill-rule="nonzero"/><path fill="#4285f4" clip-path="url(#id_0)" d="M211.3855 253.50346C211.3855 255.98874 209.37077 258.00345 206.8855 258.00345C204.4002 258.00345 202.3855 255.98874 202.3855 253.50346C202.3855 251.01817 204.4002 249.00346 206.8855 249.00346C209.37077 249.00346 211.3855 251.01817 211.3855 253.50346Z" fill-rule="nonzero"/><path fill="#4285f4" clip-path="url(#id_0)" d="M333.97006 209.37321C333.97006 211.85849 331.95535 213.87321 329.47006 213.87321C326.9848 213.87321 324.97006 211.85849 324.97006 209.37321C324.97006 206.88794 326.9848 204.87321 329.47006 204.87321C331.95535 204.87321 333.97006 206.88794 333.97006 209.37321Z" fill-rule="nonzero"/><path fill="#4285f4" clip-path="url(#id_0)" d="M579.1392 121.90327C579.1392 124.38854 577.1245 126.40327 574.6392 126.40327C572.15393 126.40327 570.1392 124.38854 570.1392 121.90327C570.1392 119.417984 572.15393 117.40327 574.6392 117.40327C577.1245 117.40327 579.1392 119.417984 579.1392 121.90327Z" fill-rule="nonzero"/><path fill="#000000" d="M308.54688 347.45L309.64062 347.575Q309.39062 348.52814 308.6875 349.0594Q307.98438 349.59064 306.90625 349.59064Q305.54688 349.59064 304.73438 348.7469Q303.9375 347.90314 303.9375 346.3875Q303.9375 344.825 304.75 343.96564Q305.5625 343.09064 306.84375 343.09064Q308.09375 343.09064 308.875 343.9344Q309.67188 344.77814 309.67188 346.325Q309.67188 346.41876 309.67188 346.60626L305.03125 346.60626Q305.09375 347.6375 305.60938 348.1844Q306.125 348.71564 306.90625 348.71564Q307.48438 348.71564 307.89062 348.41876Q308.3125 348.10626 308.54688 347.45ZM305.09375 345.7469L308.5625 345.7469Q308.5 344.95 308.17188 344.5594Q307.65625 343.95 306.85938 343.95Q306.125 343.95 305.625 344.4344Q305.14062 344.91876 305.09375 345.7469ZM311.26562 349.45L311.26562 340.85626L312.32812 340.85626L312.32812 349.45L311.26562 349.45ZM318.54688 347.45L319.64062 347.575Q319.39062 348.52814 318.6875 349.0594Q317.98438 349.59064 316.90625 349.59064Q315.54688 349.59064 314.73438 348.7469Q313.9375 347.90314 313.9375 346.3875Q313.9375 344.825 314.75 343.96564Q315.5625 343.09064 316.84375 343.09064Q318.09375 343.09064 318.875 343.9344Q319.67188 344.77814 319.67188 346.325Q319.67188 346.41876 319.67188 346.60626L315.03125 346.60626Q315.09375 347.6375 315.60938 348.1844Q316.125 348.71564 316.90625 348.71564Q317.48438 348.71564 317.89062 348.41876Q318.3125 348.10626 318.54688 347.45ZM315.09375 345.7469L318.5625 345.7469Q318.5 344.95 318.17188 344.5594Q317.65625 343.95 316.85938 343.95Q316.125 343.95 315.625 344.4344Q315.14062 344.91876 315.09375 345.7469ZM321.29688 349.45L321.29688 343.23126L322.23438 343.23126L322.23438 344.10626Q322.53125 343.6375 323.01562 343.3719Q323.5 343.09064 324.125 343.09064Q324.8125 343.09064 325.25 343.3719Q325.70312 343.65314 325.875 344.16876Q326.625 343.09064 327.79688 343.09064Q328.73438 343.09064 329.21875 343.60626Q329.71875 344.10626 329.71875 345.1844L329.71875 349.45L328.67188 349.45L328.67188 345.52814Q328.67188 344.90314 328.5625 344.6219Q328.46875 344.34064 328.20312 344.16876Q327.9375 343.9969 327.5625 343.9969Q326.90625 343.9969 326.46875 344.4344Q326.04688 344.8719 326.04688 345.84064L326.04688 349.45L324.98438 349.45L324.98438 345.40314Q324.98438 344.7 324.71875 344.35626Q324.46875 343.9969 323.89062 343.9969Q323.4375 343.9969 323.0625 344.23126Q322.6875 344.46564 322.51562 344.91876Q322.34375 345.3719 322.34375 346.21564L322.34375 349.45L321.29688 349.45ZM336.54688 347.45L337.64062 347.575Q337.39062 348.52814 336.6875 349.0594Q335.98438 349.59064 334.90625 349.59064Q333.54688 349.59064 332.73438 348.7469Q331.9375 347.90314 331.9375 346.3875Q331.9375 344.825 332.75 343.96564Q333.5625 343.09064 334.84375 343.09064Q336.09375 343.09064 336.875 343.9344Q337.67188 344.77814 337.67188 346.325Q337.67188 346.41876 337.67188 346.60626L333.03125 346.60626Q333.09375 347.6375 333.60938 348.1844Q334.125 348.71564 334.90625 348.71564Q335.48438 348.71564 335.89062 348.41876Q336.3125 348.10626 336.54688 347.45ZM333.09375 345.7469L336.5625 345.7469Q336.5 344.95 336.17188 344.5594Q335.65625 343.95 334.85938 343.95Q334.125 343.95 333.625 344.4344Q333.14062 344.91876 333.09375 345.7469ZM339.29688 349.45L339.29688 343.23126L340.23438 343.23126L340.23438 344.10626Q340.92188 343.09064 342.21875 343.09064Q342.78125 343.09064 343.25 343.29376Q343.73438 343.4969 343.96875 343.825Q344.20312 344.15314 344.29688 344.59064Q344.34375 344.8875 344.34375 345.6219L344.34375 349.45L343.29688 349.45L343.29688 345.66876Q343.29688 345.0125 343.17188 344.7Q343.04688 344.3875 342.73438 344.2Q342.42188 343.9969 342.0 343.9969Q341.32812 343.9969 340.82812 344.4344Q340.34375 344.85626 340.34375 346.04376L340.34375 349.45L339.29688 349.45ZM348.59375 348.5125L348.75 349.4344Q348.29688 349.52814 347.95312 349.52814Q347.375 349.52814 347.0625 349.35626Q346.75 349.16876 346.60938 348.8719Q346.48438 348.575 346.48438 347.6219L346.48438 344.04376L345.71875 344.04376L345.71875 343.23126L346.48438 343.23126L346.48438 341.6844L347.53125 341.0594L347.53125 343.23126L348.59375 343.23126L348.59375 344.04376L347.53125 344.04376L347.53125 347.6844Q347.53125 348.1375 347.57812 348.2625Q347.64062 348.3875 347.76562 348.46564Q347.89062 348.54376 348.125 348.54376Q348.3125 348.54376 348.59375 348.5125ZM348.875 347.59064L349.90625 347.4344Q350.0 348.0594 350.39062 348.3875Q350.79688 348.71564 351.53125 348.71564Q352.25 348.71564 352.59375 348.4344Q352.95312 348.1375 352.95312 347.73126Q352.95312 347.3719 352.64062 347.16876Q352.42188 347.02814 351.5625 346.8094Q350.40625 346.5125 349.95312 346.3094Q349.51562 346.09064 349.28125 345.71564Q349.04688 345.34064 349.04688 344.8719Q349.04688 344.46564 349.23438 344.10626Q349.42188 343.7469 349.75 343.5125Q350.0 343.34064 350.42188 343.21564Q350.84375 343.09064 351.34375 343.09064Q352.0625 343.09064 352.60938 343.3094Q353.17188 343.5125 353.4375 343.8719Q353.70312 344.23126 353.79688 344.825L352.76562 344.96564Q352.70312 344.4969 352.35938 344.23126Q352.03125 343.95 351.40625 343.95Q350.6875 343.95 350.375 344.2Q350.0625 344.4344 350.0625 344.7625Q350.0625 344.96564 350.1875 345.1219Q350.32812 345.29376 350.59375 345.40314Q350.75 345.46564 351.53125 345.66876Q352.65625 345.98126 353.09375 346.16876Q353.53125 346.35626 353.78125 346.71564Q354.03125 347.075 354.03125 347.6219Q354.03125 348.15314 353.71875 348.6219Q353.42188 349.075 352.84375 349.34064Q352.26562 349.59064 351.53125 349.59064Q350.3125 349.59064 349.67188 349.09064Q349.04688 348.575 348.875 347.59064Z" fill-rule="nonzero"/><path fill="#000000" d="M23.331263 229.39792L29.550013 229.39792L29.550013 230.35104L28.815638 230.35104Q29.284388 230.64792 29.456263 230.9448Q29.690638 231.35104 29.690638 231.89792Q29.690638 232.3823 29.503138 232.7573Q29.362513 233.03854 28.925013 233.3823L31.940638 233.3823L31.940638 234.42917L23.331263 234.42917L23.331263 233.3823L25.956263 233.3823Q27.393763 233.3823 27.831263 233.24167Q28.253138 233.08542 28.503138 232.74167Q28.737513 232.39792 28.737513 231.9448Q28.737513 231.47604 28.487513 231.11667Q28.221888 230.74167 27.815638 230.60104Q27.409388 230.4448 25.987513 230.4448L23.331263 230.4448L23.331263 229.39792ZM27.690638 227.99167L27.534388 226.96042Q28.159388 226.86667 28.487513 226.47604Q28.815638 226.0698 28.815638 225.33542Q28.815638 224.61667 28.534388 224.27292Q28.237513 223.91354 27.831263 223.91354Q27.471888 223.91354 27.268763 224.22604Q27.128138 224.4448 26.909388 225.30417Q26.612513 226.46042 26.409388 226.91354Q26.190638 227.35104 25.815638 227.58542Q25.440638 227.8198 24.971888 227.8198Q24.565638 227.8198 24.206263 227.6323Q23.846888 227.4448 23.612513 227.11667Q23.440638 226.86667 23.315638 226.4448Q23.190638 226.02292 23.190638 225.52292Q23.190638 224.80417 23.409388 224.2573Q23.612513 223.6948 23.971888 223.42917Q24.331263 223.16354 24.925013 223.0698L25.065638 224.10104Q24.596888 224.16354 24.331263 224.5073Q24.050013 224.83542 24.050013 225.46042Q24.050013 226.17917 24.300013 226.49167Q24.534388 226.80417 24.862513 226.80417Q25.065638 226.80417 25.221888 226.67917Q25.393763 226.53854 25.503138 226.27292Q25.565638 226.11667 25.768763 225.33542Q26.081263 224.21042 26.268763 223.77292Q26.456263 223.33542 26.815638 223.08542Q27.175013 222.83542 27.721888 222.83542Q28.253138 222.83542 28.721888 223.14792Q29.175013 223.4448 29.440638 224.02292Q29.690638 224.60104 29.690638 225.33542Q29.690638 226.55417 29.190638 227.1948Q28.675013 227.8198 27.690638 227.99167ZM29.690638 221.36667L20.815638 218.8823L20.815638 218.03854L29.690638 220.52292L29.690638 221.36667ZM26.440638 217.96042Q24.706263 217.96042 23.878138 217.0073Q23.190638 216.21042 23.190638 215.05417Q23.190638 213.77292 24.034388 212.96042Q24.862513 212.1323 26.346888 212.1323Q27.550013 212.1323 28.237513 212.49167Q28.925013 212.85104 29.315638 213.55417Q29.690638 214.24167 29.690638 215.05417Q29.690638 216.35104 28.862513 217.16354Q28.018763 217.96042 26.440638 217.96042ZM26.440638 216.8823Q27.628138 216.8823 28.221888 216.36667Q28.815638 215.83542 28.815638 215.05417Q28.815638 214.2573 28.221888 213.74167Q27.628138 213.22604 26.409388 213.22604Q25.253138 213.22604 24.659388 213.7573Q24.065638 214.27292 24.065638 215.05417Q24.065638 215.83542 24.659388 216.36667Q25.237513 216.8823 26.440638 216.8823ZM31.940638 210.5698L23.331263 210.5698L23.331263 209.61667L24.128138 209.61667Q23.659388 209.27292 23.425013 208.85104Q23.190638 208.41354 23.190638 207.80417Q23.190638 207.0073 23.596888 206.39792Q24.003138 205.78854 24.753138 205.49167Q25.503138 205.17917 26.393763 205.17917Q27.346888 205.17917 28.112513 205.52292Q28.878138 205.85104 29.284388 206.5073Q29.690638 207.16354 29.690638 207.8823Q29.690638 208.41354 29.471888 208.83542Q29.237513 209.2573 28.909388 209.52292L31.940638 209.52292L31.940638 210.5698ZM26.471888 209.61667Q27.675013 209.61667 28.253138 209.1323Q28.815638 208.64792 28.815638 207.96042Q28.815638 207.2573 28.221888 206.7573Q27.628138 206.2573 26.378138 206.2573Q25.190638 206.2573 24.612513 206.74167Q24.018763 207.22604 24.018763 207.91354Q24.018763 208.58542 24.643763 209.10104Q25.268763 209.61667 26.471888 209.61667ZM27.550013 199.3198L27.675013 198.22604Q28.628138 198.47604 29.159388 199.17917Q29.690638 199.8823 29.690638 200.96042Q29.690638 202.3198 28.846888 203.1323Q28.003138 203.92917 26.487513 203.92917Q24.925013 203.92917 24.065638 203.11667Q23.190638 202.30417 23.190638 201.02292Q23.190638 199.77292 24.034388 198.99167Q24.878138 198.1948 26.425013 198.1948Q26.518763 198.1948 26.706263 198.1948L26.706263 202.83542Q27.737513 202.77292 28.284388 202.2573Q28.815638 201.74167 28.815638 200.96042Q28.815638 200.3823 28.518763 199.97604Q28.206263 199.55417 27.550013 199.3198ZM25.846888 202.77292L25.846888 199.30417Q25.050013 199.36667 24.659388 199.6948Q24.050013 200.21042 24.050013 201.0073Q24.050013 201.74167 24.534388 202.24167Q25.018763 202.72604 25.846888 202.77292ZM29.550013 196.58542L23.331263 196.58542L23.331263 195.6323L24.268763 195.6323Q23.612513 195.27292 23.409388 194.97604Q23.190638 194.66354 23.190638 194.28854Q23.190638 193.7573 23.518763 193.21042L24.503138 193.5698Q24.268763 193.96042 24.268763 194.33542Q24.268763 194.6948 24.487513 194.97604Q24.690638 195.24167 25.065638 195.35104Q25.628138 195.53854 26.284388 195.53854L29.550013 195.53854L29.550013 196.58542ZM28.784388 188.5073Q29.284388 189.10104 29.487513 189.64792Q29.690638 190.17917 29.690638 190.80417Q29.690638 191.83542 29.190638 192.3823Q28.690638 192.92917 27.909388 192.92917Q27.456263 192.92917 27.081263 192.72604Q26.690638 192.52292 26.471888 192.17917Q26.237513 191.83542 26.128138 191.41354Q26.034388 191.11667 25.956263 190.47604Q25.815638 189.21042 25.596888 188.60104Q25.378138 188.60104 25.331263 188.60104Q24.675013 188.60104 24.409388 188.89792Q24.065638 189.30417 24.065638 190.10104Q24.065638 190.83542 24.331263 191.1948Q24.581263 191.55417 25.237513 191.72604L25.096888 192.7573Q24.440638 192.61667 24.034388 192.28854Q23.628138 191.96042 23.409388 191.35104Q23.190638 190.74167 23.190638 189.9448Q23.190638 189.14792 23.378138 188.64792Q23.565638 188.14792 23.846888 187.91354Q24.128138 187.67917 24.565638 187.58542Q24.831263 187.53854 25.534388 187.53854L26.940638 187.53854Q28.409388 187.53854 28.800013 187.47604Q29.190638 187.39792 29.550013 187.1948L29.550013 188.30417Q29.221888 188.46042 28.784388 188.5073ZM26.425013 188.60104Q26.659388 189.17917 26.831263 190.3198Q26.925013 190.97604 27.050013 191.24167Q27.159388 191.5073 27.378138 191.66354Q27.596888 191.80417 27.878138 191.80417Q28.300013 191.80417 28.581263 191.49167Q28.862513 191.16354 28.862513 190.55417Q28.862513 189.9448 28.596888 189.47604Q28.331263 188.99167 27.862513 188.77292Q27.503138 188.60104 26.815638 188.60104L26.425013 188.60104ZM28.612513 183.27292L29.534388 183.11667Q29.628138 183.5698 29.628138 183.91354Q29.628138 184.49167 29.456263 184.80417Q29.268763 185.11667 28.971888 185.2573Q28.675013 185.3823 27.721888 185.3823L24.143763 185.3823L24.143763 186.14792L23.331263 186.14792L23.331263 185.3823L21.784388 185.3823L21.159388 184.33542L23.331263 184.33542L23.331263 183.27292L24.143763 183.27292L24.143763 184.33542L27.784388 184.33542Q28.237513 184.33542 28.362513 184.28854Q28.487513 184.22604 28.565638 184.10104Q28.643763 183.97604 28.643763 183.74167Q28.643763 183.55417 28.612513 183.27292ZM22.175013 182.5698L20.956263 182.5698L20.956263 181.5073L22.175013 181.5073L22.175013 182.5698ZM29.550013 182.5698L23.331263 182.5698L23.331263 181.5073L29.550013 181.5073L29.550013 182.5698ZM26.440638 179.96042Q24.706263 179.96042 23.878138 179.0073Q23.190638 178.21042 23.190638 177.05417Q23.190638 175.77292 24.034388 174.96042Q24.862513 174.1323 26.346888 174.1323Q27.550013 174.1323 28.237513 174.49167Q28.925013 174.85104 29.315638 175.55417Q29.690638 176.24167 29.690638 177.05417Q29.690638 178.35104 28.862513 179.16354Q28.018763 179.96042 26.440638 179.96042ZM26.440638 178.8823Q27.628138 178.8823 28.221888 178.36667Q28.815638 177.83542 28.815638 177.05417Q28.815638 176.2573 28.221888 175.74167Q27.628138 175.22604 26.409388 175.22604Q25.253138 175.22604 24.659388 175.7573Q24.065638 176.27292 24.065638 177.05417Q24.065638 177.83542 24.659388 178.36667Q25.237513 178.8823 26.440638 178.8823ZM29.550013 172.5698L23.331263 172.5698L23.331263 171.6323L24.206263 171.6323Q23.190638 170.9448 23.190638 169.64792Q23.190638 169.08542 23.393763 168.61667Q23.596888 168.1323 23.925013 167.89792Q24.253138 167.66354 24.690638 167.5698Q24.987513 167.52292 25.721888 167.52292L29.550013 167.52292L29.550013 168.5698L25.768763 168.5698Q25.112513 168.5698 24.800013 168.6948Q24.487513 168.8198 24.300013 169.1323Q24.096888 169.4448 24.096888 169.86667Q24.096888 170.53854 24.534388 171.03854Q24.956263 171.52292 26.143763 171.52292L29.550013 171.52292L29.550013 172.5698Z" fill-rule="nonzero"/><path fill="#000000" d="M65.05 300.21564Q65.05 298.6844 65.3625 297.7625Q65.675 296.825 66.28438 296.325Q66.90938 295.825 67.84688 295.825Q68.53438 295.825 69.05 296.10626Q69.58125 296.3875 69.925 296.91876Q70.26875 297.4344 70.45625 298.1844Q70.64375 298.9344 70.64375 300.21564Q70.64375 301.73126 70.33125 302.65314Q70.03438 303.575 69.40938 304.09064Q68.8 304.59064 67.84688 304.59064Q66.6125 304.59064 65.89375 303.7Q65.05 302.6375 65.05 300.21564ZM66.12813 300.21564Q66.12813 302.325 66.62813 303.02814Q67.12813 303.73126 67.84688 303.73126Q68.58125 303.73126 69.06563 303.02814Q69.56563 302.325 69.56563 300.21564Q69.56563 298.09064 69.06563 297.40314Q68.58125 296.7 67.83125 296.7Q67.1125 296.7 66.675 297.3094Q66.12813 298.09064 66.12813 300.21564Z" fill-rule="nonzero"/><path fill="#000000" d="M55.01875 233.72778L53.971874 233.72778L53.971874 227.00903Q53.58125 227.36841 52.95625 227.74341Q52.346874 228.10278 51.8625 228.27466L51.8625 227.25903Q52.7375 226.83716 53.39375 226.25903Q54.065624 225.66528 54.346874 225.10278L55.01875 225.10278L55.01875 233.72778ZM58.05 229.49341Q58.05 227.96216 58.3625 227.04028Q58.675 226.10278 59.284374 225.60278Q59.909374 225.10278 60.846874 225.10278Q61.534374 225.10278 62.05 225.38403Q62.58125 225.66528 62.925 226.19653Q63.26875 226.71216 63.45625 227.46216Q63.64375 228.21216 63.64375 229.49341Q63.64375 231.00903 63.33125 231.93091Q63.034374 232.85278 62.409374 233.36841Q61.8 233.86841 60.846874 233.86841Q59.6125 233.86841 58.89375 232.97778Q58.05 231.91528 58.05 229.49341ZM59.128124 229.49341Q59.128124 231.60278 59.628124 232.30591Q60.128124 233.00903 60.846874 233.00903Q61.58125 233.00903 62.065624 232.30591Q62.565624 231.60278 62.565624 229.49341Q62.565624 227.36841 62.065624 226.68091Q61.58125 225.97778 60.83125 225.97778Q60.1125 225.97778 59.675 226.58716Q59.128124 227.36841 59.128124 229.49341ZM65.05 229.49341Q65.05 227.96216 65.3625 227.04028Q65.675 226.10278 66.28438 225.60278Q66.90938 225.10278 67.84688 225.10278Q68.53438 225.10278 69.05 225.38403Q69.58125 225.66528 69.925 226.19653Q70.26875 226.71216 70.45625 227.46216Q70.64375 228.21216 70.64375 229.49341Q70.64375 231.00903 70.33125 231.93091Q70.03438 232.85278 69.40938 233.36841Q68.8 233.86841 67.84688 233.86841Q66.6125 233.86841 65.89375 232.97778Q65.05 231.91528 65.05 229.49341ZM66.12813 229.49341Q66.12813 231.60278 66.62813 232.30591Q67.12813 233.00903 67.84688 233.00903Q68.58125 233.00903 69.06563 232.30591Q69.56563 231.60278 69.56563 229.49341Q69.56563 227.36841 69.06563 226.68091Q68.58125 225.97778 67.83125 225.97778Q67.1125 225.97778 66.675 226.58716Q66.12813 227.36841 66.12813 229.49341Z" fill-rule="nonzero"/><path fill="#000000" d="M56.596874 161.98993L56.596874 163.00555L50.909374 163.00555Q50.909374 162.63055 51.034374 162.27118Q51.253124 161.69305 51.721874 161.13055Q52.20625 160.56805 53.1125 159.83368Q54.51875 158.67743 55.003124 158.00555Q55.503124 157.33368 55.503124 156.73993Q55.503124 156.11493 55.05 155.69305Q54.596874 155.25555 53.878124 155.25555Q53.1125 155.25555 52.659374 155.70868Q52.20625 156.1618 52.190624 156.9743L51.1125 156.86493Q51.221874 155.64618 51.940624 155.02118Q52.675 154.38055 53.909374 154.38055Q55.14375 154.38055 55.8625 155.06805Q56.58125 155.75555 56.58125 156.77118Q56.58125 157.2868 56.3625 157.7868Q56.159374 158.27118 55.659374 158.83368Q55.175 159.38055 54.05 160.33368Q53.096874 161.13055 52.815624 161.42743Q52.55 161.70868 52.378124 161.98993L56.596874 161.98993ZM58.05 158.77118Q58.05 157.23993 58.3625 156.31805Q58.675 155.38055 59.284374 154.88055Q59.909374 154.38055 60.846874 154.38055Q61.534374 154.38055 62.05 154.6618Q62.58125 154.94305 62.925 155.4743Q63.26875 155.98993 63.45625 156.73993Q63.64375 157.48993 63.64375 158.77118Q63.64375 160.2868 63.33125 161.20868Q63.034374 162.13055 62.409374 162.64618Q61.8 163.14618 60.846874 163.14618Q59.6125 163.14618 58.89375 162.25555Q58.05 161.19305 58.05 158.77118ZM59.128124 158.77118Q59.128124 160.88055 59.628124 161.58368Q60.128124 162.2868 60.846874 162.2868Q61.58125 162.2868 62.065624 161.58368Q62.565624 160.88055 62.565624 158.77118Q62.565624 156.64618 62.065624 155.95868Q61.58125 155.25555 60.83125 155.25555Q60.1125 155.25555 59.675 155.86493Q59.128124 156.64618 59.128124 158.77118ZM65.05 158.77118Q65.05 157.23993 65.3625 156.31805Q65.675 155.38055 66.28438 154.88055Q66.90938 154.38055 67.84688 154.38055Q68.53438 154.38055 69.05 154.6618Q69.58125 154.94305 69.925 155.4743Q70.26875 155.98993 70.45625 156.73993Q70.64375 157.48993 70.64375 158.77118Q70.64375 160.2868 70.33125 161.20868Q70.03438 162.13055 69.40938 162.64618Q68.8 163.14618 67.84688 163.14618Q66.6125 163.14618 65.89375 162.25555Q65.05 161.19305 65.05 158.77118ZM66.12813 158.77118Q66.12813 160.88055 66.62813 161.58368Q67.12813 162.2868 67.84688 162.2868Q68.58125 162.2868 69.06563 161.58368Q69.56563 160.88055 69.56563 158.77118Q69.56563 156.64618 69.06563 155.95868Q68.58125 155.25555 67.83125 155.25555Q67.1125 155.25555 66.675 155.86493Q66.12813 156.64618 66.12813 158.77118Z" fill-rule="nonzero"/><path fill="#000000" d="M51.05 90.01771L52.1125 89.87708Q52.284374 90.76771 52.721874 91.17396Q53.159374 91.56458 53.784374 91.56458Q54.534374 91.56458 55.05 91.04896Q55.565624 90.53333 55.565624 89.76771Q55.565624 89.04896 55.08125 88.58021Q54.6125 88.09583 53.878124 88.09583Q53.58125 88.09583 53.128124 88.22083L53.253124 87.28333Q53.3625 87.29896 53.425 87.29896Q54.096874 87.29896 54.628124 86.95521Q55.175 86.59583 55.175 85.86146Q55.175 85.28333 54.784374 84.90833Q54.39375 84.51771 53.76875 84.51771Q53.159374 84.51771 52.7375 84.90833Q52.33125 85.29896 52.221874 86.06458L51.159374 85.87708Q51.346874 84.83021 52.034374 84.25208Q52.721874 83.65833 53.7375 83.65833Q54.440624 83.65833 55.034374 83.97083Q55.628124 84.26771 55.940624 84.78333Q56.253124 85.29896 56.253124 85.89271Q56.253124 86.43958 55.95625 86.90833Q55.659374 87.36146 55.08125 87.62708Q55.83125 87.79896 56.253124 88.36146Q56.675 88.90833 56.675 89.75208Q56.675 90.87708 55.846874 91.65833Q55.034374 92.43958 53.784374 92.43958Q52.659374 92.43958 51.909374 91.76771Q51.159374 91.08021 51.05 90.01771ZM58.05 88.04896Q58.05 86.51771 58.3625 85.59583Q58.675 84.65833 59.284374 84.15833Q59.909374 83.65833 60.846874 83.65833Q61.534374 83.65833 62.05 83.93958Q62.58125 84.22083 62.925 84.75208Q63.26875 85.26771 63.45625 86.01771Q63.64375 86.76771 63.64375 88.04896Q63.64375 89.56458 63.33125 90.48646Q63.034374 91.40833 62.409374 91.92396Q61.8 92.42396 60.846874 92.42396Q59.6125 92.42396 58.89375 91.53333Q58.05 90.47083 58.05 88.04896ZM59.128124 88.04896Q59.128124 90.15833 59.628124 90.86146Q60.128124 91.56458 60.846874 91.56458Q61.58125 91.56458 62.065624 90.86146Q62.565624 90.15833 62.565624 88.04896Q62.565624 85.92396 62.065624 85.23646Q61.58125 84.53333 60.83125 84.53333Q60.1125 84.53333 59.675 85.14271Q59.128124 85.92396 59.128124 88.04896ZM65.05 88.04896Q65.05 86.51771 65.3625 85.59583Q65.675 84.65833 66.28438 84.15833Q66.90938 83.65833 67.84688 83.65833Q68.53438 83.65833 69.05 83.93958Q69.58125 84.22083 69.925 84.75208Q70.26875 85.26771 70.45625 86.01771Q70.64375 86.76771 70.64375 88.04896Q70.64375 89.56458 70.33125 90.48646Q70.03438 91.40833 69.40938 91.92396Q68.8 92.42396 67.84688 92.42396Q66.6125 92.42396 65.89375 91.53333Q65.05 90.47083 65.05 88.04896ZM66.12813 88.04896Q66.12813 90.15833 66.62813 90.86146Q67.12813 91.56458 67.84688 91.56458Q68.58125 91.56458 69.06563 90.86146Q69.56563 90.15833 69.56563 88.04896Q69.56563 85.92396 69.06563 85.23646Q68.58125 84.53333 67.83125 84.53333Q67.1125 84.53333 66.675 85.14271Q66.12813 85.92396 66.12813 88.04896Z" fill-rule="nonzero"/><path fill="#000000" d="M81.30092 313.21564Q81.30092 311.6844 81.61342 310.7625Q81.92592 309.825 82.53529 309.325Q83.16029 308.825 84.09779 308.825Q84.78529 308.825 85.30092 309.10626Q85.83217 309.3875 86.17592 309.91876Q86.51967 310.4344 86.70717 311.1844Q86.89467 311.9344 86.89467 313.21564Q86.89467 314.73126 86.58217 315.65314Q86.28529 316.575 85.66029 317.09064Q85.05092 317.59064 84.09779 317.59064Q82.86342 317.59064 82.14467 316.7Q81.30092 315.6375 81.30092 313.21564ZM82.37904 313.21564Q82.37904 315.325 82.87904 316.02814Q83.37904 316.73126 84.09779 316.73126Q84.83217 316.73126 85.31654 316.02814Q85.81654 315.325 85.81654 313.21564Q85.81654 311.09064 85.31654 310.40314Q84.83217 309.7 84.08217 309.7Q83.36342 309.7 82.92592 310.3094Q82.37904 311.09064 82.37904 313.21564Z" fill-rule="nonzero"/><path fill="#000000" d="M220.44029 315.2L221.54967 315.10626Q221.67467 315.91876 222.11217 316.325Q222.56529 316.73126 223.20592 316.73126Q223.95592 316.73126 224.48717 316.15314Q225.01842 315.575 225.01842 314.6375Q225.01842 313.73126 224.50279 313.21564Q224.00279 312.6844 223.17467 312.6844Q222.67467 312.6844 222.25279 312.91876Q221.84654 313.15314 221.61217 313.5125L220.62779 313.3875L221.45592 308.98126L225.73717 308.98126L225.73717 309.98126L222.29967 309.98126L221.84654 312.29376Q222.61217 311.7469 223.45592 311.7469Q224.58092 311.7469 225.34654 312.52814Q226.12779 313.3094 226.12779 314.54376Q226.12779 315.7 225.45592 316.5594Q224.62779 317.59064 223.20592 317.59064Q222.03404 317.59064 221.28404 316.9344Q220.54967 316.27814 220.44029 315.2ZM227.44029 313.21564Q227.44029 311.6844 227.75279 310.7625Q228.06529 309.825 228.67467 309.325Q229.29967 308.825 230.23717 308.825Q230.92467 308.825 231.44029 309.10626Q231.97154 309.3875 232.31529 309.91876Q232.65904 310.4344 232.84654 311.1844Q233.03404 311.9344 233.03404 313.21564Q233.03404 314.73126 232.72154 315.65314Q232.42467 316.575 231.79967 317.09064Q231.19029 317.59064 230.23717 317.59064Q229.00279 317.59064 228.28404 316.7Q227.44029 315.6375 227.44029 313.21564ZM228.51842 313.21564Q228.51842 315.325 229.01842 316.02814Q229.51842 316.73126 230.23717 316.73126Q230.97154 316.73126 231.45592 316.02814Q231.95592 315.325 231.95592 313.21564Q231.95592 311.09064 231.45592 310.40314Q230.97154 309.7 230.22154 309.7Q229.50279 309.7 229.06529 310.3094Q228.51842 311.09064 228.51842 313.21564ZM234.44029 313.21564Q234.44029 311.6844 234.75279 310.7625Q235.06529 309.825 235.67467 309.325Q236.29967 308.825 237.23717 308.825Q237.92467 308.825 238.44029 309.10626Q238.97154 309.3875 239.31529 309.91876Q239.65904 310.4344 239.84654 311.1844Q240.03404 311.9344 240.03404 313.21564Q240.03404 314.73126 239.72154 315.65314Q239.42467 316.575 238.79967 317.09064Q238.19029 317.59064 237.23717 317.59064Q236.00279 317.59064 235.28404 316.7Q234.44029 315.6375 234.44029 313.21564ZM235.51842 313.21564Q235.51842 315.325 236.01842 316.02814Q236.51842 316.73126 237.23717 316.73126Q237.97154 316.73126 238.45592 316.02814Q238.95592 315.325 238.95592 313.21564Q238.95592 311.09064 238.45592 310.40314Q237.97154 309.7 237.22154 309.7Q236.50279 309.7 236.06529 310.3094Q235.51842 311.09064 235.51842 313.21564ZM241.44029 313.21564Q241.44029 311.6844 241.75279 310.7625Q242.06529 309.825 242.67467 309.325Q243.29967 308.825 244.23717 308.825Q244.92467 308.825 245.44029 309.10626Q245.97154 309.3875 246.31529 309.91876Q246.65904 310.4344 246.84654 311.1844Q247.03404 311.9344 247.03404 313.21564Q247.03404 314.73126 246.72154 315.65314Q246.42467 316.575 245.79967 317.09064Q245.19029 317.59064 244.23717 317.59064Q243.00279 317.59064 242.28404 316.7Q241.44029 315.6375 241.44029 313.21564ZM242.51842 313.21564Q242.51842 315.325 243.01842 316.02814Q243.51842 316.73126 244.23717 316.73126Q244.97154 316.73126 245.45592 316.02814Q245.95592 315.325 245.95592 313.21564Q245.95592 311.09064 245.45592 310.40314Q244.97154 309.7 244.22154 309.7Q243.50279 309.7 243.06529 310.3094Q242.51842 311.09064 242.51842 313.21564Z" fill-rule="nonzero"/><path fill="#000000" d="M370.54843 317.45L369.50156 317.45L369.50156 310.73126Q369.11093 311.09064 368.48593 311.46564Q367.87656 311.825 367.39218 311.9969L367.39218 310.98126Q368.26718 310.5594 368.92343 309.98126Q369.5953 309.3875 369.87656 308.825L370.54843 308.825L370.54843 317.45ZM373.57968 313.21564Q373.57968 311.6844 373.89218 310.7625Q374.20468 309.825 374.81406 309.325Q375.43906 308.825 376.37656 308.825Q377.06406 308.825 377.57968 309.10626Q378.11093 309.3875 378.45468 309.91876Q378.79843 310.4344 378.98593 311.1844Q379.17343 311.9344 379.17343 313.21564Q379.17343 314.73126 378.86093 315.65314Q378.56406 316.575 377.93906 317.09064Q377.32968 317.59064 376.37656 317.59064Q375.14218 317.59064 374.42343 316.7Q373.57968 315.6375 373.57968 313.21564ZM374.6578 313.21564Q374.6578 315.325 375.1578 316.02814Q375.6578 316.73126 376.37656 316.73126Q377.11093 316.73126 377.5953 316.02814Q378.0953 315.325 378.0953 313.21564Q378.0953 311.09064 377.5953 310.40314Q377.11093 309.7 376.36093 309.7Q375.64218 309.7 375.20468 310.3094Q374.6578 311.09064 374.6578 313.21564ZM380.57968 313.21564Q380.57968 311.6844 380.89218 310.7625Q381.20468 309.825 381.81406 309.325Q382.43906 308.825 383.37656 308.825Q384.06406 308.825 384.57968 309.10626Q385.11093 309.3875 385.45468 309.91876Q385.79843 310.4344 385.98593 311.1844Q386.17343 311.9344 386.17343 313.21564Q386.17343 314.73126 385.86093 315.65314Q385.56406 316.575 384.93906 317.09064Q384.32968 317.59064 383.37656 317.59064Q382.14218 317.59064 381.42343 316.7Q380.57968 315.6375 380.57968 313.21564ZM381.6578 313.21564Q381.6578 315.325 382.1578 316.02814Q382.6578 316.73126 383.37656 316.73126Q384.11093 316.73126 384.5953 316.02814Q385.0953 315.325 385.0953 313.21564Q385.0953 311.09064 384.5953 310.40314Q384.11093 309.7 383.36093 309.7Q382.64218 309.7 382.20468 310.3094Q381.6578 311.09064 381.6578 313.21564ZM387.57968 313.21564Q387.57968 311.6844 387.89218 310.7625Q388.20468 309.825 388.81406 309.325Q389.43906 308.825 390.37656 308.825Q391.06406 308.825 391.57968 309.10626Q392.11093 309.3875 392.45468 309.91876Q392.79843 310.4344 392.98593 311.1844Q393.17343 311.9344 393.17343 313.21564Q393.17343 314.73126 392.86093 315.65314Q392.56406 316.575 391.93906 317.09064Q391.32968 317.59064 390.37656 317.59064Q389.14218 317.59064 388.42343 316.7Q387.57968 315.6375 387.57968 313.21564ZM388.6578 313.21564Q388.6578 315.325 389.1578 316.02814Q389.6578 316.73126 390.37656 316.73126Q391.11093 316.73126 391.5953 316.02814Q392.0953 315.325 392.0953 313.21564Q392.0953 311.09064 391.5953 310.40314Q391.11093 309.7 390.36093 309.7Q389.64218 309.7 389.20468 310.3094Q388.6578 311.09064 388.6578 313.21564ZM394.57968 313.21564Q394.57968 311.6844 394.89218 310.7625Q395.20468 309.825 395.81406 309.325Q396.43906 308.825 397.37656 308.825Q398.06406 308.825 398.57968 309.10626Q399.11093 309.3875 399.45468 309.91876Q399.79843 310.4344 399.98593 311.1844Q400.17343 311.9344 400.17343 313.21564Q400.17343 314.73126 399.86093 315.65314Q399.56406 316.575 398.93906 317.09064Q398.32968 317.59064 397.37656 317.59064Q396.14218 317.59064 395.42343 316.7Q394.57968 315.6375 394.57968 313.21564ZM395.6578 313.21564Q395.6578 315.325 396.1578 316.02814Q396.6578 316.73126 397.37656 316.73126Q398.11093 316.73126 398.5953 316.02814Q399.0953 315.325 399.0953 313.21564Q399.0953 311.09064 398.5953 310.40314Q398.11093 309.7 397.36093 309.7Q396.64218 309.7 396.20468 310.3094Q395.6578 311.09064 395.6578 313.21564Z" fill-rule="nonzero"/><path fill="#000000" d="M520.1878 317.45L519.1409 317.45L519.1409 310.73126Q518.7503 311.09064 518.1253 311.46564Q517.5159 311.825 517.03156 311.9969L517.03156 310.98126Q517.90656 310.5594 518.5628 309.98126Q519.2347 309.3875 519.5159 308.825L520.1878 308.825L520.1878 317.45ZM523.21906 315.2L524.3284 315.10626Q524.4534 315.91876 524.8909 316.325Q525.34406 316.73126 525.9847 316.73126Q526.7347 316.73126 527.2659 316.15314Q527.7972 315.575 527.7972 314.6375Q527.7972 313.73126 527.28156 313.21564Q526.78156 312.6844 525.9534 312.6844Q525.4534 312.6844 525.03156 312.91876Q524.6253 313.15314 524.3909 313.5125L523.40656 313.3875L524.2347 308.98126L528.5159 308.98126L528.5159 309.98126L525.0784 309.98126L524.6253 312.29376Q525.3909 311.7469 526.2347 311.7469Q527.3597 311.7469 528.1253 312.52814Q528.90656 313.3094 528.90656 314.54376Q528.90656 315.7 528.2347 316.5594Q527.40656 317.59064 525.9847 317.59064Q524.8128 317.59064 524.0628 316.9344Q523.3284 316.27814 523.21906 315.2ZM530.21906 313.21564Q530.21906 311.6844 530.53156 310.7625Q530.84406 309.825 531.4534 309.325Q532.0784 308.825 533.0159 308.825Q533.7034 308.825 534.21906 309.10626Q534.7503 309.3875 535.09406 309.91876Q535.4378 310.4344 535.6253 311.1844Q535.8128 311.9344 535.8128 313.21564Q535.8128 314.73126 535.5003 315.65314Q535.2034 316.575 534.5784 317.09064Q533.96906 317.59064 533.0159 317.59064Q531.78156 317.59064 531.0628 316.7Q530.21906 315.6375 530.21906 313.21564ZM531.2972 313.21564Q531.2972 315.325 531.7972 316.02814Q532.2972 316.73126 533.0159 316.73126Q533.7503 316.73126 534.2347 316.02814Q534.7347 315.325 534.7347 313.21564Q534.7347 311.09064 534.2347 310.40314Q533.7503 309.7 533.0003 309.7Q532.28156 309.7 531.84406 310.3094Q531.2972 311.09064 531.2972 313.21564ZM537.21906 313.21564Q537.21906 311.6844 537.53156 310.7625Q537.84406 309.825 538.4534 309.325Q539.0784 308.825 540.0159 308.825Q540.7034 308.825 541.21906 309.10626Q541.7503 309.3875 542.09406 309.91876Q542.4378 310.4344 542.6253 311.1844Q542.8128 311.9344 542.8128 313.21564Q542.8128 314.73126 542.5003 315.65314Q542.2034 316.575 541.5784 317.09064Q540.96906 317.59064 540.0159 317.59064Q538.78156 317.59064 538.0628 316.7Q537.21906 315.6375 537.21906 313.21564ZM538.2972 313.21564Q538.2972 315.325 538.7972 316.02814Q539.2972 316.73126 540.0159 316.73126Q540.7503 316.73126 541.2347 316.02814Q541.7347 315.325 541.7347 313.21564Q541.7347 311.09064 541.2347 310.40314Q540.7503 309.7 540.0003 309.7Q539.28156 309.7 538.84406 310.3094Q538.2972 311.09064 538.2972 313.21564ZM544.21906 313.21564Q544.21906 311.6844 544.53156 310.7625Q544.84406 309.825 545.4534 309.325Q546.0784 308.825 547.0159 308.825Q547.7034 308.825 548.21906 309.10626Q548.7503 309.3875 549.09406 309.91876Q549.4378 310.4344 549.6253 311.1844Q549.8128 311.9344 549.8128 313.21564Q549.8128 314.73126 549.5003 315.65314Q549.2034 316.575 548.5784 317.09064Q547.96906 317.59064 547.0159 317.59064Q545.78156 317.59064 545.0628 316.7Q544.21906 315.6375 544.21906 313.21564ZM545.2972 313.21564Q545.2972 315.325 545.7972 316.02814Q546.2972 316.73126 547.0159 316.73126Q547.7503 316.73126 548.2347 316.02814Q548.7347 315.325 548.7347 313.21564Q548.7347 311.09064 548.2347 310.40314Q547.7503 309.7 547.0003 309.7Q546.28156 309.7 545.84406 310.3094Q545.2972 311.09064 545.2972 313.21564Z" fill-rule="nonzero"/><path fill="#4285f4" d="M161.0 61.916668C161.0 65.23038 158.3137 67.916664 155.0 67.916664C151.6863 67.916664 149.0 65.23038 149.0 61.916668C149.0 58.60296 151.6863 55.916668 155.0 55.916668C158.3137 55.916668 161.0 58.60296 161.0 61.916668Z" fill-rule="nonzero"/><path fill="#1a1a1a" d="M174.96875 59.697914L174.96875 65.916664L174.01562 65.916664L174.01562 65.18229Q173.71875 65.65104 173.42188 65.822914Q173.01562 66.05729 172.46875 66.05729Q171.98438 66.05729 171.60938 65.86979Q171.32812 65.729164 170.98438 65.291664L170.98438 68.30729L169.9375 68.30729L169.9375 59.697914L170.98438 59.697914L170.98438 62.322914Q170.98438 63.760414 171.125 64.197914Q171.28125 64.61979 171.625 64.86979Q171.96875 65.104164 172.42188 65.104164Q172.89062 65.104164 173.25 64.854164Q173.625 64.58854 173.76562 64.18229Q173.92188 63.77604 173.92188 62.354164L173.92188 59.697914L174.96875 59.697914ZM176.375 64.05729L177.40625 63.90104Q177.5 64.52604 177.89062 64.854164Q178.29688 65.18229 179.03125 65.18229Q179.75 65.18229 180.09375 64.90104Q180.45312 64.604164 180.45312 64.197914Q180.45312 63.83854 180.14062 63.635414Q179.92188 63.49479 179.0625 63.27604Q177.90625 62.979164 177.45312 62.77604Q177.01562 62.55729 176.78125 62.18229Q176.54688 61.80729 176.54688 61.33854Q176.54688 60.93229 176.73438 60.572914Q176.92188 60.21354 177.25 59.979164Q177.5 59.80729 177.92188 59.68229Q178.34375 59.55729 178.84375 59.55729Q179.5625 59.55729 180.10938 59.77604Q180.67188 59.979164 180.9375 60.33854Q181.20312 60.697914 181.29688 61.291664L180.26562 61.43229Q180.20312 60.96354 179.85938 60.697914Q179.53125 60.416664 178.90625 60.416664Q178.1875 60.416664 177.875 60.666664Q177.5625 60.90104 177.5625 61.229164Q177.5625 61.43229 177.6875 61.58854Q177.82812 61.760414 178.09375 61.86979Q178.25 61.93229 179.03125 62.135414Q180.15625 62.447914 180.59375 62.635414Q181.03125 62.822914 181.28125 63.18229Q181.53125 63.541664 181.53125 64.08854Q181.53125 64.61979 181.21875 65.08854Q180.92188 65.541664 180.34375 65.80729Q179.76562 66.05729 179.03125 66.05729Q177.8125 66.05729 177.17188 65.55729Q176.54688 65.041664 176.375 64.05729ZM183.0 66.05729L185.48438 57.18229L186.32812 57.18229L183.84375 66.05729L183.0 66.05729ZM186.40625 62.80729Q186.40625 61.072914 187.35938 60.24479Q188.15625 59.55729 189.3125 59.55729Q190.59375 59.55729 191.40625 60.40104Q192.23438 61.229164 192.23438 62.71354Q192.23438 63.916664 191.875 64.604164Q191.51562 65.291664 190.8125 65.68229Q190.125 66.05729 189.3125 66.05729Q188.01562 66.05729 187.20312 65.229164Q186.40625 64.385414 186.40625 62.80729ZM187.48438 62.80729Q187.48438 63.99479 188.0 64.58854Q188.53125 65.18229 189.3125 65.18229Q190.10938 65.18229 190.625 64.58854Q191.14062 63.99479 191.14062 62.77604Q191.14062 61.61979 190.60938 61.02604Q190.09375 60.43229 189.3125 60.43229Q188.53125 60.43229 188.0 61.02604Q187.48438 61.604164 187.48438 62.80729ZM193.79688 68.30729L193.79688 59.697914L194.75 59.697914L194.75 60.49479Q195.09375 60.02604 195.51562 59.791664Q195.95312 59.55729 196.5625 59.55729Q197.35938 59.55729 197.96875 59.96354Q198.57812 60.36979 198.875 61.11979Q199.1875 61.86979 199.1875 62.760414Q199.1875 63.71354 198.84375 64.479164Q198.51562 65.24479 197.85938 65.65104Q197.20312 66.05729 196.48438 66.05729Q195.95312 66.05729 195.53125 65.83854Q195.10938 65.604164 194.84375 65.27604L194.84375 68.30729L193.79688 68.30729ZM194.75 62.83854Q194.75 64.041664 195.23438 64.61979Q195.71875 65.18229 196.40625 65.18229Q197.10938 65.18229 197.60938 64.58854Q198.10938 63.99479 198.10938 62.74479Q198.10938 61.55729 197.625 60.979164Q197.14062 60.385414 196.45312 60.385414Q195.78125 60.385414 195.26562 61.010414Q194.75 61.635414 194.75 62.83854ZM205.04688 63.916664L206.14062 64.041664Q205.89062 64.99479 205.1875 65.52604Q204.48438 66.05729 203.40625 66.05729Q202.04688 66.05729 201.23438 65.21354Q200.4375 64.36979 200.4375 62.854164Q200.4375 61.291664 201.25 60.43229Q202.0625 59.55729 203.34375 59.55729Q204.59375 59.55729 205.375 60.40104Q206.17188 61.24479 206.17188 62.791664Q206.17188 62.885414 206.17188 63.072914L201.53125 63.072914Q201.59375 64.104164 202.10938 64.65104Q202.625 65.18229 203.40625 65.18229Q203.98438 65.18229 204.39062 64.885414Q204.8125 64.572914 205.04688 63.916664ZM201.59375 62.21354L205.0625 62.21354Q205.0 61.416664 204.67188 61.02604Q204.15625 60.416664 203.35938 60.416664Q202.625 60.416664 202.125 60.90104Q201.64062 61.385414 201.59375 62.21354ZM207.78125 65.916664L207.78125 59.697914L208.73438 59.697914L208.73438 60.635414Q209.09375 59.979164 209.39062 59.77604Q209.70312 59.55729 210.07812 59.55729Q210.60938 59.55729 211.15625 59.885414L210.79688 60.86979Q210.40625 60.635414 210.03125 60.635414Q209.67188 60.635414 209.39062 60.854164Q209.125 61.05729 209.01562 61.43229Q208.82812 61.99479 208.82812 62.65104L208.82812 65.916664L207.78125 65.916664ZM215.85938 65.15104Q215.26562 65.65104 214.71875 65.854164Q214.1875 66.05729 213.5625 66.05729Q212.53125 66.05729 211.98438 65.55729Q211.4375 65.05729 211.4375 64.27604Q211.4375 63.822914 211.64062 63.447914Q211.84375 63.05729 212.1875 62.83854Q212.53125 62.604164 212.95312 62.49479Q213.25 62.40104 213.89062 62.322914Q215.15625 62.18229 215.76562 61.96354Q215.76562 61.74479 215.76562 61.697914Q215.76562 61.041664 215.46875 60.77604Q215.0625 60.43229 214.26562 60.43229Q213.53125 60.43229 213.17188 60.697914Q212.8125 60.947914 212.64062 61.604164L211.60938 61.46354Q211.75 60.80729 212.07812 60.40104Q212.40625 59.99479 213.01562 59.77604Q213.625 59.55729 214.42188 59.55729Q215.21875 59.55729 215.71875 59.74479Q216.21875 59.93229 216.45312 60.21354Q216.6875 60.49479 216.78125 60.93229Q216.82812 61.197914 216.82812 61.90104L216.82812 63.30729Q216.82812 64.77604 216.89062 65.166664Q216.96875 65.55729 217.17188 65.916664L216.0625 65.916664Q215.90625 65.58854 215.85938 65.15104ZM215.76562 62.791664Q215.1875 63.02604 214.04688 63.197914Q213.39062 63.291664 213.125 63.416664Q212.85938 63.52604 212.70312 63.74479Q212.5625 63.96354 212.5625 64.24479Q212.5625 64.666664 212.875 64.947914Q213.20312 65.229164 213.8125 65.229164Q214.42188 65.229164 214.89062 64.96354Q215.375 64.697914 215.59375 64.229164Q215.76562 63.86979 215.76562 63.18229L215.76562 62.791664ZM221.09375 64.979164L221.25 65.90104Q220.79688 65.99479 220.45312 65.99479Q219.875 65.99479 219.5625 65.822914Q219.25 65.635414 219.10938 65.33854Q218.98438 65.041664 218.98438 64.08854L218.98438 60.510414L218.21875 60.510414L218.21875 59.697914L218.98438 59.697914L218.98438 58.15104L220.03125 57.52604L220.03125 59.697914L221.09375 59.697914L221.09375 60.510414L220.03125 60.510414L220.03125 64.15104Q220.03125 64.604164 220.07812 64.729164Q220.14062 64.854164 220.26562 64.93229Q220.39062 65.010414 220.625 65.010414Q220.8125 65.010414 221.09375 64.979164ZM221.79688 58.541664L221.79688 57.322914L222.85938 57.322914L222.85938 58.541664L221.79688 58.541664ZM221.79688 65.916664L221.79688 59.697914L222.85938 59.697914L222.85938 65.916664L221.79688 65.916664ZM224.40625 62.80729Q224.40625 61.072914 225.35938 60.24479Q226.15625 59.55729 227.3125 59.55729Q228.59375 59.55729 229.40625 60.40104Q230.23438 61.229164 230.23438 62.71354Q230.23438 63.916664 229.875 64.604164Q229.51562 65.291664 228.8125 65.68229Q228.125 66.05729 227.3125 66.05729Q226.01562 66.05729 225.20312 65.229164Q224.40625 64.385414 224.40625 62.80729ZM225.48438 62.80729Q225.48438 63.99479 226.0 64.58854Q226.53125 65.18229 227.3125 65.18229Q228.10938 65.18229 228.625 64.58854Q229.14062 63.99479 229.14062 62.77604Q229.14062 61.61979 228.60938 61.02604Q228.09375 60.43229 227.3125 60.43229Q226.53125 60.43229 226.0 61.02604Q225.48438 61.604164 225.48438 62.80729ZM231.79688 65.916664L231.79688 59.697914L232.73438 59.697914L232.73438 60.572914Q233.42188 59.55729 234.71875 59.55729Q235.28125 59.55729 235.75 59.760414Q236.23438 59.96354 236.46875 60.291664Q236.70312 60.61979 236.79688 61.05729Q236.84375 61.354164 236.84375 62.08854L236.84375 65.916664L235.79688 65.916664L235.79688 62.135414Q235.79688 61.479164 235.67188 61.166664Q235.54688 60.854164 235.23438 60.666664Q234.92188 60.46354 234.5 60.46354Q233.82812 60.46354 233.32812 60.90104Q232.84375 61.322914 232.84375 62.510414L232.84375 65.916664L231.79688 65.916664Z" fill-rule="nonzero"/><path stroke="#4285f4" stroke-width="4.0" stroke-linecap="butt" stroke-opacity="0.5019608" d="M254.0 61.916668L266.0 61.916668" fill-rule="nonzero"/><path fill="#1a1a1a" d="M277.10938 65.916664L277.10938 58.33854L274.28125 58.33854L274.28125 57.322914L281.09375 57.322914L281.09375 58.33854L278.25 58.33854L278.25 65.916664L277.10938 65.916664ZM281.78125 65.916664L281.78125 59.697914L282.73438 59.697914L282.73438 60.635414Q283.09375 59.979164 283.39062 59.77604Q283.70312 59.55729 284.07812 59.55729Q284.60938 59.55729 285.15625 59.885414L284.79688 60.86979Q284.40625 60.635414 284.03125 60.635414Q283.67188 60.635414 283.39062 60.854164Q283.125 61.05729 283.01562 61.43229Q282.82812 61.99479 282.82812 62.65104L282.82812 65.916664L281.78125 65.916664ZM290.04688 63.916664L291.14062 64.041664Q290.89062 64.99479 290.1875 65.52604Q289.48438 66.05729 288.40625 66.05729Q287.04688 66.05729 286.23438 65.21354Q285.4375 64.36979 285.4375 62.854164Q285.4375 61.291664 286.25 60.43229Q287.0625 59.55729 288.34375 59.55729Q289.59375 59.55729 290.375 60.40104Q291.17188 61.24479 291.17188 62.791664Q291.17188 62.885414 291.17188 63.072914L286.53125 63.072914Q286.59375 64.104164 287.10938 64.65104Q287.625 65.18229 288.40625 65.18229Q288.98438 65.18229 289.39062 64.885414Q289.8125 64.572914 290.04688 63.916664ZM286.59375 62.21354L290.0625 62.21354Q290.0 61.416664 289.67188 61.02604Q289.15625 60.416664 288.35938 60.416664Q287.625 60.416664 287.125 60.90104Q286.64062 61.385414 286.59375 62.21354ZM292.79688 65.916664L292.79688 59.697914L293.73438 59.697914L293.73438 60.572914Q294.42188 59.55729 295.71875 59.55729Q296.28125 59.55729 296.75 59.760414Q297.23438 59.96354 297.46875 60.291664Q297.70312 60.61979 297.79688 61.05729Q297.84375 61.354164 297.84375 62.08854L297.84375 65.916664L296.79688 65.916664L296.79688 62.135414Q296.79688 61.479164 296.67188 61.166664Q296.54688 60.854164 296.23438 60.666664Q295.92188 60.46354 295.5 60.46354Q294.82812 60.46354 294.32812 60.90104Q293.84375 61.322914 293.84375 62.510414L293.84375 65.916664L292.79688 65.916664ZM303.82812 65.916664L303.82812 65.135414Q303.23438 66.05729 302.09375 66.05729Q301.34375 66.05729 300.71875 65.65104Q300.09375 65.229164 299.75 64.49479Q299.40625 63.760414 299.40625 62.80729Q299.40625 61.885414 299.71875 61.11979Q300.03125 60.354164 300.65625 59.96354Q301.28125 59.55729 302.04688 59.55729Q302.60938 59.55729 303.04688 59.791664Q303.48438 60.02604 303.76562 60.40104L303.76562 57.322914L304.8125 57.322914L304.8125 65.916664L303.82812 65.916664ZM300.5 62.80729Q300.5 64.010414 301.0 64.604164Q301.5 65.18229 302.1875 65.18229Q302.875 65.18229 303.35938 64.61979Q303.84375 64.05729 303.84375 62.90104Q303.84375 61.61979 303.34375 61.02604Q302.85938 60.43229 302.14062 60.43229Q301.4375 60.43229 300.96875 61.010414Q300.5 61.572914 300.5 62.80729ZM306.76562 65.916664L306.76562 57.322914L307.82812 57.322914L307.82812 65.916664L306.76562 65.916664ZM309.79688 58.541664L309.79688 57.322914L310.85938 57.322914L310.85938 58.541664L309.79688 58.541664ZM309.79688 65.916664L309.79688 59.697914L310.85938 59.697914L310.85938 65.916664L309.79688 65.916664ZM312.79688 65.916664L312.79688 59.697914L313.73438 59.697914L313.73438 60.572914Q314.42188 59.55729 315.71875 59.55729Q316.28125 59.55729 316.75 59.760414Q317.23438 59.96354 317.46875 60.291664Q317.70312 60.61979 317.79688 61.05729Q317.84375 61.354164 317.84375 62.08854L317.84375 65.916664L316.79688 65.916664L316.79688 62.135414Q316.79688 61.479164 316.67188 61.166664Q316.54688 60.854164 316.23438 60.666664Q315.92188 60.46354 315.5 60.46354Q314.82812 60.46354 314.32812 60.90104Q313.84375 61.322914 313.84375 62.510414L313.84375 65.916664L312.79688 65.916664ZM324.04688 63.916664L325.14062 64.041664Q324.89062 64.99479 324.1875 65.52604Q323.48438 66.05729 322.40625 66.05729Q321.04688 66.05729 320.23438 65.21354Q319.4375 64.36979 319.4375 62.854164Q319.4375 61.291664 320.25 60.43229Q321.0625 59.55729 322.34375 59.55729Q323.59375 59.55729 324.375 60.40104Q325.17188 61.24479 325.17188 62.791664Q325.17188 62.885414 325.17188 63.072914L320.53125 63.072914Q320.59375 64.104164 321.10938 64.65104Q321.625 65.18229 322.40625 65.18229Q322.98438 65.18229 323.39062 64.885414Q323.8125 64.572914 324.04688 63.916664ZM320.59375 62.21354L324.0625 62.21354Q324.0 61.416664 323.67188 61.02604Q323.15625 60.416664 322.35938 60.416664Q321.625 60.416664 321.125 60.90104Q320.64062 61.385414 320.59375 62.21354ZM330.04688 65.916664L330.04688 60.510414L329.10938 60.510414L329.10938 59.697914L330.04688 59.697914L330.04688 59.02604Q330.04688 58.40104 330.15625 58.104164Q330.3125 57.68229 330.6875 57.43229Q331.07812 57.18229 331.76562 57.18229Q332.21875 57.18229 332.75 57.291664L332.59375 58.197914Q332.26562 58.15104 331.96875 58.15104Q331.48438 58.15104 331.28125 58.354164Q331.09375 58.55729 331.09375 59.11979L331.09375 59.697914L332.3125 59.697914L332.3125 60.510414L331.09375 60.510414L331.09375 65.916664L330.04688 65.916664ZM332.40625 62.80729Q332.40625 61.072914 333.35938 60.24479Q334.15625 59.55729 335.3125 59.55729Q336.59375 59.55729 337.40625 60.40104Q338.23438 61.229164 338.23438 62.71354Q338.23438 63.916664 337.875 64.604164Q337.51562 65.291664 336.8125 65.68229Q336.125 66.05729 335.3125 66.05729Q334.01562 66.05729 333.20312 65.229164Q332.40625 64.385414 332.40625 62.80729ZM333.48438 62.80729Q333.48438 63.99479 334.0 64.58854Q334.53125 65.18229 335.3125 65.18229Q336.10938 65.18229 336.625 64.58854Q337.14062 63.99479 337.14062 62.77604Q337.14062 61.61979 336.60938 61.02604Q336.09375 60.43229 335.3125 60.43229Q334.53125 60.43229 334.0 61.02604Q333.48438 61.604164 333.48438 62.80729ZM339.78125 65.916664L339.78125 59.697914L340.73438 59.697914L340.73438 60.635414Q341.09375 59.979164 341.39062 59.77604Q341.70312 59.55729 342.07812 59.55729Q342.60938 59.55729 343.15625 59.885414L342.79688 60.86979Q342.40625 60.635414 342.03125 60.635414Q341.67188 60.635414 341.39062 60.854164Q341.125 61.05729 341.01562 61.43229Q340.82812 61.99479 340.82812 62.65104L340.82812 65.916664L339.78125 65.916664ZM351.96875 59.697914L351.96875 65.916664L351.01562 65.916664L351.01562 65.18229Q350.71875 65.65104 350.42188 65.822914Q350.01562 66.05729 349.46875 66.05729Q348.98438 66.05729 348.60938 65.86979Q348.32812 65.729164 347.98438 65.291664L347.98438 68.30729L346.9375 68.30729L346.9375 59.697914L347.98438 59.697914L347.98438 62.322914Q347.98438 63.760414 348.125 64.197914Q348.28125 64.61979 348.625 64.86979Q348.96875 65.104164 349.42188 65.104164Q349.89062 65.104164 350.25 64.854164Q350.625 64.58854 350.76562 64.18229Q350.92188 63.77604 350.92188 62.354164L350.92188 59.697914L351.96875 59.697914ZM353.375 64.05729L354.40625 63.90104Q354.5 64.52604 354.89062 64.854164Q355.29688 65.18229 356.03125 65.18229Q356.75 65.18229 357.09375 64.90104Q357.45312 64.604164 357.45312 64.197914Q357.45312 63.83854 357.14062 63.635414Q356.92188 63.49479 356.0625 63.27604Q354.90625 62.979164 354.45312 62.77604Q354.01562 62.55729 353.78125 62.18229Q353.54688 61.80729 353.54688 61.33854Q353.54688 60.93229 353.73438 60.572914Q353.92188 60.21354 354.25 59.979164Q354.5 59.80729 354.92188 59.68229Q355.34375 59.55729 355.84375 59.55729Q356.5625 59.55729 357.10938 59.77604Q357.67188 59.979164 357.9375 60.33854Q358.20312 60.697914 358.29688 61.291664L357.26562 61.43229Q357.20312 60.96354 356.85938 60.697914Q356.53125 60.416664 355.90625 60.416664Q355.1875 60.416664 354.875 60.666664Q354.5625 60.90104 354.5625 61.229164Q354.5625 61.43229 354.6875 61.58854Q354.82812 61.760414 355.09375 61.86979Q355.25 61.93229 356.03125 62.135414Q357.15625 62.447914 357.59375 62.635414Q358.03125 62.822914 358.28125 63.18229Q358.53125 63.541664 358.53125 64.08854Q358.53125 64.61979 358.21875 65.08854Q357.92188 65.541664 357.34375 65.80729Q356.76562 66.05729 356.03125 66.05729Q354.8125 66.05729 354.17188 65.55729Q353.54688 65.041664 353.375 64.05729ZM360.0 66.05729L362.48438 57.18229L363.32812 57.18229L360.84375 66.05729L360.0 66.05729ZM363.40625 62.80729Q363.40625 61.072914 364.35938 60.24479Q365.15625 59.55729 366.3125 59.55729Q367.59375 59.55729 368.40625 60.40104Q369.23438 61.229164 369.23438 62.71354Q369.23438 63.916664 368.875 64.604164Q368.51562 65.291664 367.8125 65.68229Q367.125 66.05729 366.3125 66.05729Q365.01562 66.05729 364.20312 65.229164Q363.40625 64.385414 363.40625 62.80729ZM364.48438 62.80729Q364.48438 63.99479 365.0 64.58854Q365.53125 65.18229 366.3125 65.18229Q367.10938 65.18229 367.625 64.58854Q368.14062 63.99479 368.14062 62.77604Q368.14062 61.61979 367.60938 61.02604Q367.09375 60.43229 366.3125 60.43229Q365.53125 60.43229 365.0 61.02604Q364.48438 61.604164 364.48438 62.80729ZM370.79688 68.30729L370.79688 59.697914L371.75 59.697914L371.75 60.49479Q372.09375 60.02604 372.51562 59.791664Q372.95312 59.55729 373.5625 59.55729Q374.35938 59.55729 374.96875 59.96354Q375.57812 60.36979 375.875 61.11979Q376.1875 61.86979 376.1875 62.760414Q376.1875 63.71354 375.84375 64.479164Q375.51562 65.24479 374.85938 65.65104Q374.20312 66.05729 373.48438 66.05729Q372.95312 66.05729 372.53125 65.83854Q372.10938 65.604164 371.84375 65.27604L371.84375 68.30729L370.79688 68.30729ZM371.75 62.83854Q371.75 64.041664 372.23438 64.61979Q372.71875 65.18229 373.40625 65.18229Q374.10938 65.18229 374.60938 64.58854Q375.10938 63.99479 375.10938 62.74479Q375.10938 61.55729 374.625 60.979164Q374.14062 60.385414 373.45312 60.385414Q372.78125 60.385414 372.26562 61.010414Q371.75 61.635414 371.75 62.83854ZM382.04688 63.916664L383.14062 64.041664Q382.89062 64.99479 382.1875 65.52604Q381.48438 66.05729 380.40625 66.05729Q379.04688 66.05729 378.23438 65.21354Q377.4375 64.36979 377.4375 62.854164Q377.4375 61.291664 378.25 60.43229Q379.0625 59.55729 380.34375 59.55729Q381.59375 59.55729 382.375 60.40104Q383.17188 61.24479 383.17188 62.791664Q383.17188 62.885414 383.17188 63.072914L378.53125 63.072914Q378.59375 64.104164 379.10938 64.65104Q379.625 65.18229 380.40625 65.18229Q380.98438 65.18229 381.39062 64.885414Q381.8125 64.572914 382.04688 63.916664ZM378.59375 62.21354L382.0625 62.21354Q382.0 61.416664 381.67188 61.02604Q381.15625 60.416664 380.35938 60.416664Q379.625 60.416664 379.125 60.90104Q378.64062 61.385414 378.59375 62.21354ZM384.78125 65.916664L384.78125 59.697914L385.73438 59.697914L385.73438 60.635414Q386.09375 59.979164 386.39062 59.77604Q386.70312 59.55729 387.07812 59.55729Q387.60938 59.55729 388.15625 59.885414L387.79688 60.86979Q387.40625 60.635414 387.03125 60.635414Q386.67188 60.635414 386.39062 60.854164Q386.125 61.05729 386.01562 61.43229Q385.82812 61.99479 385.82812 62.65104L385.82812 65.916664L384.78125 65.916664ZM392.85938 65.15104Q392.26562 65.65104 391.71875 65.854164Q391.1875 66.05729 390.5625 66.05729Q389.53125 66.05729 388.98438 65.55729Q388.4375 65.05729 388.4375 64.27604Q388.4375 63.822914 388.64062 63.447914Q388.84375 63.05729 389.1875 62.83854Q389.53125 62.604164 389.95312 62.49479Q390.25 62.40104 390.89062 62.322914Q392.15625 62.18229 392.76562 61.96354Q392.76562 61.74479 392.76562 61.697914Q392.76562 61.041664 392.46875 60.77604Q392.0625 60.43229 391.26562 60.43229Q390.53125 60.43229 390.17188 60.697914Q389.8125 60.947914 389.64062 61.604164L388.60938 61.46354Q388.75 60.80729 389.07812 60.40104Q389.40625 59.99479 390.01562 59.77604Q390.625 59.55729 391.42188 59.55729Q392.21875 59.55729 392.71875 59.74479Q393.21875 59.93229 393.45312 60.21354Q393.6875 60.49479 393.78125 60.93229Q393.82812 61.197914 393.82812 61.90104L393.82812 63.30729Q393.82812 64.77604 393.89062 65.166664Q393.96875 65.55729 394.17188 65.916664L393.0625 65.916664Q392.90625 65.58854 392.85938 65.15104ZM392.76562 62.791664Q392.1875 63.02604 391.04688 63.197914Q390.39062 63.291664 390.125 63.416664Q389.85938 63.52604 389.70312 63.74479Q389.5625 63.96354 389.5625 64.24479Q389.5625 64.666664 389.875 64.947914Q390.20312 65.229164 390.8125 65.229164Q391.42188 65.229164 391.89062 64.96354Q392.375 64.697914 392.59375 64.229164Q392.76562 63.86979 392.76562 63.18229L392.76562 62.791664ZM398.09375 64.979164L398.25 65.90104Q397.79688 65.99479 397.45312 65.99479Q396.875 65.99479 396.5625 65.822914Q396.25 65.635414 396.10938 65.33854Q395.98438 65.041664 395.98438 64.08854L395.98438 60.510414L395.21875 60.510414L395.21875 59.697914L395.98438 59.697914L395.98438 58.15104L397.03125 57.52604L397.03125 59.697914L398.09375 59.697914L398.09375 60.510414L397.03125 60.510414L397.03125 64.15104Q397.03125 64.604164 397.07812 64.729164Q397.14062 64.854164 397.26562 64.93229Q397.39062 65.010414 397.625 65.010414Q397.8125 65.010414 398.09375 64.979164ZM398.79688 58.541664L398.79688 57.322914L399.85938 57.322914L399.85938 58.541664L398.79688 58.541664ZM398.79688 65.916664L398.79688 59.697914L399.85938 59.697914L399.85938 65.916664L398.79688 65.916664ZM401.40625 62.80729Q401.40625 61.072914 402.35938 60.24479Q403.15625 59.55729 404.3125 59.55729Q405.59375 59.55729 406.40625 60.40104Q407.23438 61.229164 407.23438 62.71354Q407.23438 63.916664 406.875 64.604164Q406.51562 65.291664 405.8125 65.68229Q405.125 66.05729 404.3125 66.05729Q403.01562 66.05729 402.20312 65.229164Q401.40625 64.385414 401.40625 62.80729ZM402.48438 62.80729Q402.48438 63.99479 403.0 64.58854Q403.53125 65.18229 404.3125 65.18229Q405.10938 65.18229 405.625 64.58854Q406.14062 63.99479 406.14062 62.77604Q406.14062 61.61979 405.60938 61.02604Q405.09375 60.43229 404.3125 60.43229Q403.53125 60.43229 403.0 61.02604Q402.48438 61.604164 402.48438 62.80729ZM408.79688 65.916664L408.79688 59.697914L409.73438 59.697914L409.73438 60.572914Q410.42188 59.55729 411.71875 59.55729Q412.28125 59.55729 412.75 59.760414Q413.23438 59.96354 413.46875 60.291664Q413.70312 60.61979 413.79688 61.05729Q413.84375 61.354164 413.84375 62.08854L413.84375 65.916664L412.79688 65.916664L412.79688 62.135414Q412.79688 61.479164 412.67188 61.166664Q412.54688 60.854164 412.23438 60.666664Q411.92188 60.46354 411.5 60.46354Q410.82812 60.46354 410.32812 60.90104Q409.84375 61.322914 409.84375 62.510414L409.84375 65.916664L408.79688 65.916664ZM418.9375 65.916664L418.9375 57.322914L422.75 57.322914Q423.90625 57.322914 424.5 57.55729Q425.09375 57.791664 425.45312 58.385414Q425.8125 58.96354 425.8125 59.666664Q425.8125 60.58854 425.21875 61.21354Q424.625 61.83854 423.39062 62.010414Q423.84375 62.229164 424.07812 62.43229Q424.57812 62.885414 425.01562 63.572914L426.51562 65.916664L425.07812 65.916664L423.95312 64.135414Q423.45312 63.354164 423.125 62.947914Q422.8125 62.541664 422.54688 62.385414Q422.29688 62.21354 422.03125 62.135414Q421.84375 62.104164 421.40625 62.104164L420.07812 62.104164L420.07812 65.916664L418.9375 65.916664ZM420.07812 61.11979L422.53125 61.11979Q423.29688 61.11979 423.73438 60.96354Q424.1875 60.791664 424.40625 60.447914Q424.64062 60.08854 424.64062 59.666664Q424.64062 59.05729 424.1875 58.666664Q423.75 58.27604 422.79688 58.27604L420.07812 58.27604L420.07812 61.11979ZM427.14062 61.61979Q427.1875 61.291664 427.42188 60.947914Q427.79688 60.447914 428.64062 59.83854Q429.48438 59.229164 429.64062 59.041664Q429.85938 58.80729 429.85938 58.55729Q429.85938 58.27604 429.64062 58.104164Q429.4375 57.916664 429.04688 57.916664Q428.65625 57.916664 428.46875 58.05729Q428.28125 58.18229 428.15625 58.572914L427.26562 58.479164Q427.4375 57.83854 427.85938 57.52604Q428.28125 57.21354 429.0625 57.21354Q429.95312 57.21354 430.35938 57.572914Q430.78125 57.916664 430.78125 58.416664Q430.78125 58.90104 430.42188 59.33854Q430.17188 59.666664 429.23438 60.33854Q428.73438 60.697914 428.53125 60.916664L430.79688 60.916664L430.79688 61.61979L427.14062 61.61979ZM440.34375 60.86979L434.67188 60.86979L434.67188 59.885414L440.34375 59.885414L440.34375 60.86979ZM440.34375 63.479164L434.67188 63.479164L434.67188 62.49479L440.34375 62.49479L440.34375 63.479164ZM448.46875 65.916664L447.42188 65.916664L447.42188 59.197914Q447.03125 59.55729 446.40625 59.93229Q445.79688 60.291664 445.3125 60.46354L445.3125 59.447914Q446.1875 59.02604 446.84375 58.447914Q447.51562 57.854164 447.79688 57.291664L448.46875 57.291664L448.46875 65.916664Z" fill-rule="nonzero"/><path fill="#757575" d="M19.45625 32.95625L21.2375 32.8Q21.3625 33.8625 21.815624 34.55Q22.284374 35.2375 23.253124 35.675Q24.2375 36.096874 25.471874 36.096874Q26.55 36.096874 27.378124 35.784374Q28.20625 35.45625 28.6125 34.89375Q29.01875 34.33125 29.01875 33.659374Q29.01875 32.9875 28.628124 32.4875Q28.2375 31.9875 27.346874 31.64375Q26.76875 31.409374 24.784374 30.940624Q22.815624 30.471874 22.034374 30.05Q21.003124 29.51875 20.503124 28.721874Q20.003124 27.925 20.003124 26.940624Q20.003124 25.846874 20.6125 24.909374Q21.221874 23.971874 22.409374 23.4875Q23.596874 22.9875 25.034374 22.9875Q26.628124 22.9875 27.846874 23.503124Q29.065624 24.01875 29.70625 25.01875Q30.3625 26.003124 30.409374 27.26875L28.596874 27.409374Q28.45625 26.05 27.6125 25.3625Q26.76875 24.659374 25.1125 24.659374Q23.39375 24.659374 22.596874 25.3Q21.815624 25.925 21.815624 26.8Q21.815624 27.58125 22.378124 28.08125Q22.925 28.58125 25.2375 29.096874Q27.55 29.6125 28.409374 30.003124Q29.659374 30.58125 30.253124 31.471874Q30.846874 32.346874 30.846874 33.503124Q30.846874 34.64375 30.190624 35.659374Q29.534374 36.675 28.3 37.2375Q27.08125 37.8 25.55 37.8Q23.6125 37.8 22.3 37.2375Q20.9875 36.659374 20.2375 35.51875Q19.4875 34.378124 19.45625 32.95625ZM36.70625 35.971874L36.95625 37.534374Q36.221874 37.690624 35.628124 37.690624Q34.675 37.690624 34.14375 37.39375Q33.628124 37.08125 33.409374 36.596874Q33.190624 36.096874 33.190624 34.51875L33.190624 28.55L31.909374 28.55L31.909374 27.175L33.190624 27.175L33.190624 24.6125L34.940624 23.55L34.940624 27.175L36.70625 27.175L36.70625 28.55L34.940624 28.55L34.940624 34.6125Q34.940624 35.3625 35.034374 35.58125Q35.128124 35.784374 35.33125 35.925Q35.55 36.05 35.940624 36.05Q36.221874 36.05 36.70625 35.971874ZM45.64375 36.26875Q44.659374 37.096874 43.753124 37.440624Q42.846874 37.784374 41.815624 37.784374Q40.1125 37.784374 39.190624 36.95625Q38.26875 36.1125 38.26875 34.815624Q38.26875 34.05 38.6125 33.425Q38.971874 32.8 39.534374 32.425Q40.096874 32.034374 40.8 31.83125Q41.315624 31.70625 42.3625 31.565624Q44.4875 31.315624 45.4875 30.971874Q45.503124 30.6125 45.503124 30.503124Q45.503124 29.440624 45.003124 28.9875Q44.33125 28.39375 43.003124 28.39375Q41.753124 28.39375 41.159374 28.83125Q40.58125 29.26875 40.3 30.378124L38.58125 30.14375Q38.815624 29.034374 39.346874 28.3625Q39.878124 27.675 40.89375 27.315624Q41.909374 26.940624 43.253124 26.940624Q44.58125 26.940624 45.409374 27.253124Q46.2375 27.565624 46.628124 28.05Q47.01875 28.51875 47.175 29.2375Q47.26875 29.690624 47.26875 30.8625L47.26875 33.20625Q47.26875 35.659374 47.378124 36.315624Q47.4875 36.95625 47.83125 37.55L45.9875 37.55Q45.721874 37.003124 45.64375 36.26875ZM45.4875 32.346874Q44.534374 32.7375 42.6125 33.003124Q41.534374 33.159374 41.08125 33.3625Q40.64375 33.55 40.39375 33.925Q40.14375 34.3 40.14375 34.76875Q40.14375 35.471874 40.675 35.940624Q41.20625 36.409374 42.2375 36.409374Q43.253124 36.409374 44.034374 35.971874Q44.83125 35.51875 45.20625 34.753124Q45.4875 34.14375 45.4875 32.9875L45.4875 32.346874ZM56.64375 33.753124L58.3625 33.971874Q58.08125 35.76875 56.909374 36.784374Q55.753124 37.784374 54.05 37.784374Q51.925 37.784374 50.628124 36.39375Q49.33125 35.003124 49.33125 32.409374Q49.33125 30.721874 49.878124 29.471874Q50.440624 28.20625 51.58125 27.58125Q52.721874 26.940624 54.065624 26.940624Q55.753124 26.940624 56.815624 27.8Q57.89375 28.659374 58.20625 30.221874L56.4875 30.4875Q56.253124 29.440624 55.628124 28.925Q55.003124 28.39375 54.128124 28.39375Q52.8 28.39375 51.971874 29.346874Q51.14375 30.3 51.14375 32.346874Q51.14375 34.440624 51.940624 35.39375Q52.7375 36.33125 54.034374 36.33125Q55.065624 36.33125 55.753124 35.70625Q56.45625 35.065624 56.64375 33.753124ZM59.878124 37.55L59.878124 23.2375L61.64375 23.2375L61.64375 31.39375L65.8 27.175L68.06563 27.175L64.1125 31.01875L68.47188 37.55L66.3 37.55L62.878124 32.253124L61.64375 33.440624L61.64375 37.55L59.878124 37.55ZM69.45625 32.95625L71.2375 32.8Q71.3625 33.8625 71.81563 34.55Q72.28438 35.2375 73.25313 35.675Q74.2375 36.096874 75.47188 36.096874Q76.55 36.096874 77.37813 35.784374Q78.20625 35.45625 78.6125 34.89375Q79.01875 34.33125 79.01875 33.659374Q79.01875 32.9875 78.62813 32.4875Q78.2375 31.9875 77.34688 31.64375Q76.76875 31.409374 74.78438 30.940624Q72.81563 30.471874 72.03438 30.05Q71.00313 29.51875 70.50313 28.721874Q70.00313 27.925 70.00313 26.940624Q70.00313 25.846874 70.6125 24.909374Q71.22188 23.971874 72.40938 23.4875Q73.59688 22.9875 75.03438 22.9875Q76.62813 22.9875 77.84688 23.503124Q79.06563 24.01875 79.70625 25.01875Q80.3625 26.003124 80.40938 27.26875L78.59688 27.409374Q78.45625 26.05 77.6125 25.3625Q76.76875 24.659374 75.1125 24.659374Q73.39375 24.659374 72.59688 25.3Q71.81563 25.925 71.81563 26.8Q71.81563 27.58125 72.37813 28.08125Q72.925 28.58125 75.2375 29.096874Q77.55 29.6125 78.40938 30.003124Q79.65938 30.58125 80.25313 31.471874Q80.84688 32.346874 80.84688 33.503124Q80.84688 34.64375 80.19063 35.659374Q79.53438 36.675 78.3 37.2375Q77.08125 37.8 75.55 37.8Q73.6125 37.8 72.3 37.2375Q70.9875 36.659374 70.2375 35.51875Q69.4875 34.378124 69.45625 32.95625ZM89.64375 33.753124L91.3625 33.971874Q91.08125 35.76875 89.90938 36.784374Q88.75313 37.784374 87.05 37.784374Q84.925 37.784374 83.62813 36.39375Q82.33125 35.003124 82.33125 32.409374Q82.33125 30.721874 82.87813 29.471874Q83.44063 28.20625 84.58125 27.58125Q85.72188 26.940624 87.06563 26.940624Q88.75313 26.940624 89.81563 27.8Q90.89375 28.659374 91.20625 30.221874L89.4875 30.4875Q89.25313 29.440624 88.62813 28.925Q88.00313 28.39375 87.12813 28.39375Q85.8 28.39375 84.97188 29.346874Q84.14375 30.3 84.14375 32.346874Q84.14375 34.440624 84.94063 35.39375Q85.7375 36.33125 87.03438 36.33125Q88.06563 36.33125 88.75313 35.70625Q89.45625 35.065624 89.64375 33.753124ZM92.84688 37.55L92.84688 27.175L94.425 27.175L94.425 28.753124Q95.03438 27.64375 95.55 27.3Q96.06563 26.940624 96.675 26.940624Q97.56563 26.940624 98.4875 27.503124L97.87813 29.14375Q97.2375 28.753124 96.59688 28.753124Q96.01875 28.753124 95.55 29.1125Q95.09688 29.45625 94.89375 30.065624Q94.6125 31.003124 94.6125 32.1125L94.6125 37.55L92.84688 37.55ZM99.87813 25.253124L99.87813 23.2375L101.64375 23.2375L101.64375 25.253124L99.87813 25.253124ZM99.87813 37.55L99.87813 27.175L101.64375 27.175L101.64375 37.55L99.87813 37.55ZM103.8625 41.51875L103.8625 27.175L105.47188 27.175L105.47188 28.51875Q106.03438 27.7375 106.7375 27.346874Q107.45625 26.940624 108.47188 26.940624Q109.8 26.940624 110.81563 27.628124Q111.83125 28.315624 112.34688 29.565624Q112.87813 30.8 112.87813 32.284374Q112.87813 33.878124 112.3 35.159374Q111.7375 36.425 110.64375 37.1125Q109.55 37.784374 108.34688 37.784374Q107.47188 37.784374 106.76875 37.409374Q106.08125 37.034374 105.62813 36.471874L105.62813 41.51875L103.8625 41.51875ZM105.45625 32.425Q105.45625 34.425 106.26875 35.378124Q107.08125 36.33125 108.2375 36.33125Q109.40938 36.33125 110.2375 35.346874Q111.08125 34.3625 111.08125 32.26875Q111.08125 30.3 110.25313 29.315624Q109.44063 28.315624 108.31563 28.315624Q107.19063 28.315624 106.31563 29.378124Q105.45625 30.425 105.45625 32.425ZM118.70625 35.971874L118.95625 37.534374Q118.22188 37.690624 117.62813 37.690624Q116.675 37.690624 116.14375 37.39375Q115.62813 37.08125 115.40938 36.596874Q115.19063 36.096874 115.19063 34.51875L115.19063 28.55L113.90938 28.55L113.90938 27.175L115.19063 27.175L115.19063 24.6125L116.94063 23.55L116.94063 27.175L118.70625 27.175L118.70625 28.55L116.94063 28.55L116.94063 34.6125Q116.94063 35.3625 117.03438 35.58125Q117.12813 35.784374 117.33125 35.925Q117.55 36.05 117.94063 36.05Q118.22188 36.05 118.70625 35.971874ZM137.94063 36.01875Q139.26875 36.925 140.37813 37.346874L139.81563 38.659374Q138.26875 38.1125 136.7375 36.909374Q135.14375 37.8 133.22188 37.8Q131.28438 37.8 129.69063 36.8625Q128.1125 35.925 127.25313 34.221874Q126.40938 32.51875 126.40938 30.39375Q126.40938 28.26875 127.26875 26.534374Q128.12813 24.8 129.70625 23.89375Q131.3 22.971874 133.26875 22.971874Q135.25313 22.971874 136.83125 23.925Q138.425 24.8625 139.25313 26.565624Q140.09688 28.253124 140.09688 30.378124Q140.09688 32.14375 139.56563 33.565624Q139.03438 34.971874 137.94063 36.01875ZM133.76875 33.596874Q135.40938 34.05 136.47188 34.95625Q138.14375 33.440624 138.14375 30.378124Q138.14375 28.64375 137.55 27.346874Q136.97188 26.05 135.83125 25.33125Q134.69063 24.6125 133.26875 24.6125Q131.15938 24.6125 129.75313 26.065624Q128.3625 27.503124 128.3625 30.39375Q128.3625 33.190624 129.7375 34.690624Q131.12813 36.175 133.26875 36.175Q134.28438 36.175 135.19063 35.784374Q134.3 35.221874 133.31563 34.971874L133.76875 33.596874ZM149.65938 37.55L149.65938 36.01875Q148.45625 37.784374 146.37813 37.784374Q145.45625 37.784374 144.65938 37.440624Q143.8625 37.08125 143.47188 36.55Q143.09688 36.01875 142.94063 35.2375Q142.83125 34.721874 142.83125 33.596874L142.83125 27.175L144.58125 27.175L144.58125 32.925Q144.58125 34.3 144.69063 34.784374Q144.8625 35.471874 145.39375 35.878124Q145.94063 36.26875 146.72188 36.26875Q147.51875 36.26875 148.20625 35.8625Q148.90938 35.45625 149.19063 34.76875Q149.4875 34.065624 149.4875 32.7375L149.4875 27.175L151.2375 27.175L151.2375 37.55L149.65938 37.55ZM159.97188 34.20625L161.78438 34.440624Q161.3625 36.01875 160.19063 36.909374Q159.03438 37.784374 157.22188 37.784374Q154.95625 37.784374 153.6125 36.39375Q152.28438 34.9875 152.28438 32.45625Q152.28438 29.83125 153.62813 28.39375Q154.97188 26.940624 157.12813 26.940624Q159.20625 26.940624 160.51875 28.3625Q161.84688 29.76875 161.84688 32.346874Q161.84688 32.503124 161.83125 32.815624L154.09688 32.815624Q154.19063 34.51875 155.06563 35.425Q155.94063 36.33125 157.2375 36.33125Q158.20625 36.33125 158.87813 35.83125Q159.56563 35.315624 159.97188 34.20625ZM154.19063 31.3625L159.9875 31.3625Q159.87813 30.065624 159.33125 29.409374Q158.4875 28.39375 157.14375 28.39375Q155.94063 28.39375 155.1125 29.20625Q154.28438 30.003124 154.19063 31.3625ZM170.65938 37.55L170.65938 36.01875Q169.45625 37.784374 167.37813 37.784374Q166.45625 37.784374 165.65938 37.440624Q164.8625 37.08125 164.47188 36.55Q164.09688 36.01875 163.94063 35.2375Q163.83125 34.721874 163.83125 33.596874L163.83125 27.175L165.58125 27.175L165.58125 32.925Q165.58125 34.3 165.69063 34.784374Q165.8625 35.471874 166.39375 35.878124Q166.94063 36.26875 167.72188 36.26875Q168.51875 36.26875 169.20625 35.8625Q169.90938 35.45625 170.19063 34.76875Q170.4875 34.065624 170.4875 32.7375L170.4875 27.175L172.2375 27.175L172.2375 37.55L170.65938 37.55ZM180.97188 34.20625L182.78438 34.440624Q182.3625 36.01875 181.19063 36.909374Q180.03438 37.784374 178.22188 37.784374Q175.95625 37.784374 174.6125 36.39375Q173.28438 34.9875 173.28438 32.45625Q173.28438 29.83125 174.62813 28.39375Q175.97188 26.940624 178.12813 26.940624Q180.20625 26.940624 181.51875 28.3625Q182.84688 29.76875 182.84688 32.346874Q182.84688 32.503124 182.83125 32.815624L175.09688 32.815624Q175.19063 34.51875 176.06563 35.425Q176.94063 36.33125 178.2375 36.33125Q179.20625 36.33125 179.87813 35.83125Q180.56563 35.315624 180.97188 34.20625ZM175.19063 31.3625L180.9875 31.3625Q180.87813 30.065624 180.33125 29.409374Q179.4875 28.39375 178.14375 28.39375Q176.94063 28.39375 176.1125 29.20625Q175.28438 30.003124 175.19063 31.3625ZM191.09688 37.55L191.09688 23.2375L196.4875 23.2375Q197.925 23.2375 198.675 23.3625Q199.72188 23.55 200.44063 24.05Q201.15938 24.534374 201.58125 25.425Q202.01875 26.315624 202.01875 27.378124Q202.01875 29.20625 200.84688 30.471874Q199.69063 31.721874 196.65938 31.721874L192.9875 31.721874L192.9875 37.55L191.09688 37.55ZM192.9875 30.034374L196.69063 30.034374Q198.51875 30.034374 199.28438 29.3625Q200.06563 28.675 200.06563 27.425Q200.06563 26.534374 199.6125 25.89375Q199.15938 25.253124 198.425 25.05Q197.94063 24.925 196.64375 24.925L192.9875 24.925L192.9875 30.034374ZM210.97188 34.20625L212.78438 34.440624Q212.3625 36.01875 211.19063 36.909374Q210.03438 37.784374 208.22188 37.784374Q205.95625 37.784374 204.6125 36.39375Q203.28438 34.9875 203.28438 32.45625Q203.28438 29.83125 204.62813 28.39375Q205.97188 26.940624 208.12813 26.940624Q210.20625 26.940624 211.51875 28.3625Q212.84688 29.76875 212.84688 32.346874Q212.84688 32.503124 212.83125 32.815624L205.09688 32.815624Q205.19063 34.51875 206.06563 35.425Q206.94063 36.33125 208.2375 36.33125Q209.20625 36.33125 209.87813 35.83125Q210.56563 35.315624 210.97188 34.20625ZM205.19063 31.3625L210.9875 31.3625Q210.87813 30.065624 210.33125 29.409374Q209.4875 28.39375 208.14375 28.39375Q206.94063 28.39375 206.1125 29.20625Q205.28438 30.003124 205.19063 31.3625ZM214.84688 37.55L214.84688 27.175L216.425 27.175L216.425 28.753124Q217.03438 27.64375 217.55 27.3Q218.06563 26.940624 218.675 26.940624Q219.56563 26.940624 220.4875 27.503124L219.87813 29.14375Q219.2375 28.753124 218.59688 28.753124Q218.01875 28.753124 217.55 29.1125Q217.09688 29.45625 216.89375 30.065624Q216.6125 31.003124 216.6125 32.1125L216.6125 37.55L214.84688 37.55ZM222.28438 37.55L222.28438 28.55L220.7375 28.55L220.7375 27.175L222.28438 27.175L222.28438 26.08125Q222.28438 25.034374 222.47188 24.51875Q222.72188 23.83125 223.3625 23.409374Q224.00313 22.9875 225.15938 22.9875Q225.90938 22.9875 226.8 23.159374L226.53438 24.690624Q225.9875 24.596874 225.50313 24.596874Q224.70625 24.596874 224.3625 24.940624Q224.03438 25.284374 224.03438 26.221874L224.03438 27.175L226.06563 27.175L226.06563 28.55L224.03438 28.55L224.03438 37.55L222.28438 37.55ZM227.22188 32.3625Q227.22188 29.4875 228.81563 28.096874Q230.15938 26.940624 232.08125 26.940624Q234.22188 26.940624 235.56563 28.346874Q236.925 29.753124 236.925 32.221874Q236.925 34.221874 236.33125 35.378124Q235.7375 36.51875 234.58125 37.159374Q233.44063 37.784374 232.08125 37.784374Q229.89375 37.784374 228.55 36.39375Q227.22188 34.9875 227.22188 32.3625ZM229.01875 32.3625Q229.01875 34.3625 229.87813 35.346874Q230.75313 36.33125 232.08125 36.33125Q233.39375 36.33125 234.25313 35.346874Q235.12813 34.346874 235.12813 32.3Q235.12813 30.378124 234.25313 29.39375Q233.37813 28.39375 232.08125 28.39375Q230.75313 28.39375 229.87813 29.39375Q229.01875 30.378124 229.01875 32.3625ZM238.84688 37.55L238.84688 27.175L240.425 27.175L240.425 28.753124Q241.03438 27.64375 241.55 27.3Q242.06563 26.940624 242.675 26.940624Q243.56563 26.940624 244.4875 27.503124L243.87813 29.14375Q243.2375 28.753124 242.59688 28.753124Q242.01875 28.753124 241.55 29.1125Q241.09688 29.45625 240.89375 30.065624Q240.6125 31.003124 240.6125 32.1125L240.6125 37.55L238.84688 37.55ZM245.8625 37.55L245.8625 27.175L247.44063 27.175L247.44063 28.628124Q247.925 27.878124 248.7375 27.409374Q249.55 26.940624 250.58125 26.940624Q251.7375 26.940624 252.47188 27.425Q253.20625 27.89375 253.51875 28.753124Q254.75313 26.940624 256.72186 26.940624Q258.26874 26.940624 259.09686 27.8Q259.925 28.659374 259.925 30.425L259.925 37.55L258.175 37.55L258.175 31.01875Q258.175 29.95625 258.0031 29.503124Q257.83124 29.034374 257.3781 28.753124Q256.9406 28.471874 256.33124 28.471874Q255.2375 28.471874 254.50313 29.20625Q253.78438 29.925 253.78438 31.51875L253.78438 37.55L252.03438 37.55L252.03438 30.815624Q252.03438 29.64375 251.59688 29.065624Q251.175 28.471874 250.19063 28.471874Q249.45625 28.471874 248.81563 28.8625Q248.19063 29.253124 247.90938 30.003124Q247.62813 30.753124 247.62813 32.175L247.62813 37.55L245.8625 37.55ZM268.64374 36.26875Q267.65936 37.096874 266.7531 37.440624Q265.84686 37.784374 264.8156 37.784374Q263.1125 37.784374 262.1906 36.95625Q261.26874 36.1125 261.26874 34.815624Q261.26874 34.05 261.6125 33.425Q261.97186 32.8 262.53436 32.425Q263.09686 32.034374 263.8 31.83125Q264.3156 31.70625 265.3625 31.565624Q267.4875 31.315624 268.4875 30.971874Q268.5031 30.6125 268.5031 30.503124Q268.5031 29.440624 268.0031 28.9875Q267.33124 28.39375 266.0031 28.39375Q264.7531 28.39375 264.15936 28.83125Q263.58124 29.26875 263.3 30.378124L261.58124 30.14375Q261.8156 29.034374 262.34686 28.3625Q262.8781 27.675 263.89374 27.315624Q264.90936 26.940624 266.2531 26.940624Q267.58124 26.940624 268.40936 27.253124Q269.2375 27.565624 269.6281 28.05Q270.01874 28.51875 270.175 29.2375Q270.26874 29.690624 270.26874 30.8625L270.26874 33.20625Q270.26874 35.659374 270.3781 36.315624Q270.4875 36.95625 270.83124 37.55L268.9875 37.55Q268.72186 37.003124 268.64374 36.26875ZM268.4875 32.346874Q267.53436 32.7375 265.6125 33.003124Q264.53436 33.159374 264.08124 33.3625Q263.64374 33.55 263.39374 33.925Q263.14374 34.3 263.14374 34.76875Q263.14374 35.471874 263.675 35.940624Q264.20624 36.409374 265.2375 36.409374Q266.2531 36.409374 267.03436 35.971874Q267.83124 35.51875 268.20624 34.753124Q268.4875 34.14375 268.4875 32.9875L268.4875 32.346874ZM272.8625 37.55L272.8625 27.175L274.45624 27.175L274.45624 28.659374Q275.59686 26.940624 277.7531 26.940624Q278.6906 26.940624 279.47186 27.284374Q280.26874 27.6125 280.65936 28.159374Q281.05 28.70625 281.20624 29.45625Q281.3 29.95625 281.3 31.175L281.3 37.55L279.53436 37.55L279.53436 31.2375Q279.53436 30.159374 279.33124 29.628124Q279.1281 29.096874 278.59686 28.784374Q278.08124 28.471874 277.3781 28.471874Q276.2531 28.471874 275.4406 29.190624Q274.6281 29.89375 274.6281 31.878124L274.6281 37.55L272.8625 37.55ZM289.64374 33.753124L291.3625 33.971874Q291.08124 35.76875 289.90936 36.784374Q288.7531 37.784374 287.05 37.784374Q284.925 37.784374 283.6281 36.39375Q282.33124 35.003124 282.33124 32.409374Q282.33124 30.721874 282.8781 29.471874Q283.4406 28.20625 284.58124 27.58125Q285.72186 26.940624 287.0656 26.940624Q288.7531 26.940624 289.8156 27.8Q290.89374 28.659374 291.20624 30.221874L289.4875 30.4875Q289.2531 29.440624 288.6281 28.925Q288.0031 28.39375 287.1281 28.39375Q285.8 28.39375 284.97186 29.346874Q284.14374 30.3 284.14374 32.346874Q284.14374 34.440624 284.9406 35.39375Q285.7375 36.33125 287.03436 36.33125Q288.0656 36.33125 288.7531 35.70625Q289.45624 35.065624 289.64374 33.753124ZM299.97186 34.20625L301.78436 34.440624Q301.3625 36.01875 300.1906 36.909374Q299.03436 37.784374 297.22186 37.784374Q294.95624 37.784374 293.6125 36.39375Q292.28436 34.9875 292.28436 32.45625Q292.28436 29.83125 293.6281 28.39375Q294.97186 26.940624 297.1281 26.940624Q299.20624 26.940624 300.51874 28.3625Q301.84686 29.76875 301.84686 32.346874Q301.84686 32.503124 301.83124 32.815624L294.09686 32.815624Q294.1906 34.51875 295.0656 35.425Q295.9406 36.33125 297.2375 36.33125Q298.20624 36.33125 298.8781 35.83125Q299.5656 35.315624 299.97186 34.20625ZM294.1906 31.3625L299.9875 31.3625Q299.8781 30.065624 299.33124 29.409374Q298.4875 28.39375 297.14374 28.39375Q295.9406 28.39375 295.1125 29.20625Q294.28436 30.003124 294.1906 31.3625Z" fill-rule="nonzero"/></svg>