<svg version="1.1" viewBox="0.0 0.0 600.0 371.0" fill="none" stroke="none" stroke-linecap="square" stroke-miterlimit="10" width="600" height="371" xmlns:xlink="http://www.w3.org/1999/xlink" xmlns="http://www.w3.org/2000/svg"><path fill="#ffffff" d="M0 0L600.0 0L600.0 371.0L0 371.0L0 0Z" fill-rule="nonzero"/><path stroke="#333333" stroke-width="1.0" stroke-linecap="butt" d="M98.5 88.5L98.5 300.5" fill-rule="nonzero"/><path stroke="#cccccc" stroke-width="1.0" stroke-linecap="butt" d="M214.5 88.5L214.5 300.5" fill-rule="nonzero"/><path stroke="#cccccc" stroke-width="1.0" stroke-linecap="butt" d="M330.5 88.5L330.5 300.5" fill-rule="nonzero"/><path stroke="#cccccc" stroke-width="1.0" stroke-linecap="butt" d="M447.5 88.5L447.5 300.5" fill-rule="nonzero"/><path stroke="#cccccc" stroke-width="1.0" stroke-linecap="butt" d="M563.5 88.5L563.5 300.5" fill-rule="nonzero"/><path stroke="#333333" stroke-width="1.0" stroke-linecap="butt" d="M91.5 300.5L581.5 300.5" fill-rule="nonzero"/><path stroke="#cccccc" stroke-width="1.0" stroke-linecap="butt" d="M91.5 247.5L581.5 247.5" fill-rule="nonzero"/><path stroke="#cccccc" stroke-width="1.0" stroke-linecap="butt" d="M91.5 194.5L581.5 194.5" fill-rule="nonzero"/><path stroke="#cccccc" stroke-width="1.0" stroke-linecap="butt" d="M91.5 141.5L581.5 141.5" fill-rule="nonzero"/><path stroke="#cccccc" stroke-width="1.0" stroke-linecap="butt" d="M91.5 88.5L581.5 88.5" fill-rule="nonzero"/><clipPath id="id_0"><path d="M91.55 88.28333L581.45 88.28333L581.45 300.45L91.55 300.45L91.55 88.28333Z" clip-rule="nonzero"/></clipPath><path stroke="#4285f4" stroke-width="2.0" stroke-linecap="butt" stroke-opacity="0.5019608" clip-path="url(#id_0)" d="M0 296.691C0 296.691 2.6666667 296.96826 4.0 297.10144C5.3333335 297.23465 6.6666665 297.36426 8.0 297.49023C9.333333 297.6162 10.666667 297.7386 12.0 297.85736C13.333333 297.97614 14.666667 298.0913 16.0 298.20285C17.333334 298.3144 18.666666 298.42236 20.0 298.5267C21.333334 298.631 22.666666 298.73175 24.0 298.8289C25.333334 298.926 26.666666 299.0195 28.0 299.1094C29.333334 299.1993 30.666666 299.2856 32.0 299.36832C33.333332 299.451 34.666668 299.5301 36.0 299.60556C37.333332 299.68103 38.666668 299.7529 40.0 299.82117C41.333332 299.8894 42.666668 299.95407 44.0 300.0151C45.333332 300.07614 46.666668 300.13358 48.0 300.1874C49.333332 300.24124 50.666668 300.29144 52.0 300.33807C53.333332 300.38467 54.666668 300.42767 56.0 300.46707C57.333332 300.50647 58.666668 300.54224 60.0 300.57443C61.333332 300.6066 62.666668 300.63516 64.0 300.66013C65.333336 300.6851 66.666664 300.70645 68.0 300.72418C69.333336 300.74194 70.666664 300.75607 72.0 300.7666C73.333336 300.77713 74.666664 300.78406 76.0 300.78738C77.333336 300.79068 78.666664 300.7904 80.0 300.7865C81.333336 300.7826 82.666664 300.7751 84.0 300.76398C85.333336 300.75284 86.666664 300.73813 88.0 300.7198C89.333336 300.70145 90.666664 300.6795 92.0 300.65396C93.333336 300.62842 94.666664 300.59924 96.0 300.5665C97.333336 300.53372 98.666664 300.49734 100.0 300.45737C101.333336 300.4174 102.666664 300.3738 104.0 300.3266C105.333336 300.2794 106.666664 300.2286 108.0 300.1742C109.333336 300.11978 110.666664 300.06174 112.0 300.00012C113.333336 299.93848 114.666664 299.87326 116.0 299.8044C117.333336 299.73557 118.666664 299.66312 120.0 299.58704C121.333336 299.511 122.666664 299.4313 124.0 299.34802C125.333336 299.26477 126.666664 299.17786 128.0 299.08737C129.33333 298.9969 130.66667 298.90277 132.0 298.80508C133.33333 298.70737 134.66667 298.60605 136.0 298.50113C137.33333 298.3962 138.66667 298.28766 140.0 298.1755C141.33333 298.0634 142.66667 297.94763 144.0 297.82828C145.33333 297.70892 146.66667 297.58594 148.0 297.45938C149.33333 297.3328 150.66667 297.2026 152.0 297.06882C153.33333 296.93503 154.66667 296.79764 156.0 296.65665C157.33333 296.51562 158.66667 296.37103 160.0 296.2228C161.33333 296.0746 162.66667 295.92276 164.0 295.7673C165.33333 295.61188 166.66667 295.45282 168.0 295.29016C169.33333 295.12753 170.66667 294.96127 172.0 294.79138C173.33333 294.62152 174.66667 294.44806 176.0 294.27097C177.33333 294.09387 178.66667 293.91318 180.0 293.72888C181.33333 293.5446 182.66667 293.35666 184.0 293.16516C185.33333 292.97363 186.66667 292.7785 188.0 292.57977C189.33333 292.38104 190.66667 292.1787 192.0 291.97275C193.33333 291.7668 194.66667 291.55725 196.0 291.3441C197.33333 291.13092 198.66667 290.91415 200.0 290.69376C201.33333 290.4734 202.66667 290.2494 204.0 290.0218C205.33333 289.7942 206.66667 289.563 208.0 289.3282C209.33333 289.09338 210.66667 288.85495 212.0 288.6129C213.33333 288.37088 214.66667 288.12524 216.0 287.876C217.33333 287.62677 218.66667 287.3739 220.0 287.11746C221.33333 286.861 222.66667 286.60092 224.0 286.33725C225.33333 286.07358 226.66667 285.80627 228.0 285.5354C229.33333 285.2645 230.66667 284.99 232.0 284.71188C233.33333 284.43378 234.66667 284.15207 236.0 283.86673C237.33333 283.58142 238.66667 283.29248 240.0 282.99994C241.33333 282.7074 242.66667 282.41125 244.0 282.11148C245.33333 281.81174 246.66667 281.50836 248.0 281.20142C249.33333 280.89444 250.66667 280.58386 252.0 280.26965C253.33333 279.95547 254.66667 279.63766 256.0 279.31628C257.33334 278.99487 258.66666 278.66986 260.0 278.34122C261.33334 278.0126 262.66666 277.6804 264.0 277.34454C265.33334 277.0087 266.66666 276.66925 268.0 276.3262C269.33334 275.98315 270.66666 275.6365 272.0 275.28622C273.33334 274.93597 274.66666 274.5821 276.0 274.2246C277.33334 273.86713 278.66666 273.506 280.0 273.14133C281.33334 272.7766 282.66666 272.40833 284.0 272.0364C285.33334 271.6645 286.66666 271.28897 288.0 270.90982C289.33334 270.5307 290.66666 270.14795 292.0 269.7616C293.33334 269.37524 294.66666 268.9853 296.0 268.59174C297.33334 268.19818 298.66666 267.801 300.0 267.4002C301.33334 266.99945 302.66666 266.59506 304.0 266.18704C305.33334 265.77905 306.66666 265.36746 308.0 264.95224C309.33334 264.53702 310.66666 264.11823 312.0 263.69577C313.33334 263.27335 314.66666 262.84732 316.0 262.41766C317.33334 261.98804 318.66666 261.55478 320.0 261.11792C321.33334 260.68106 322.66666 260.2406 324.0 259.7965C325.33334 259.35245 326.66666 258.90475 328.0 258.45346C329.33334 258.00217 330.66666 257.54727 332.0 257.08878C333.33334 256.63025 334.66666 256.16815 336.0 255.70241C337.33334 255.2367 338.66666 254.76736 340.0 254.29442C341.33334 253.82147 342.66666 253.34492 344.0 252.86478C345.33334 252.38461 346.66666 251.90085 348.0 251.41348C349.33334 250.92612 350.66666 250.43513 352.0 249.94054C353.33334 249.44595 354.66666 248.94775 356.0 248.44595C357.33334 247.94415 358.66666 247.43874 360.0 246.92972C361.33334 246.4207 362.66666 245.90807 364.0 245.39183C365.33334 244.8756 366.66666 244.35576 368.0 243.8323C369.33334 243.30885 370.66666 242.7818 372.0 242.25113C373.33334 241.72046 374.66666 241.18619 376.0 240.6483C377.33334 240.11041 378.66666 239.56892 380.0 239.02382C381.33334 238.47873 382.66666 237.93002 384.0 237.3777C385.33334 236.82538 386.66666 236.26945 388.0 235.70993C389.33334 235.1504 390.66666 234.58727 392.0 234.02051C393.33334 233.45377 394.66666 232.8834 396.0 232.30945C397.33334 231.73549 398.66666 231.15791 400.0 230.57674C401.33334 229.99554 402.66666 229.41077 404.0 228.82237C405.33334 228.23398 406.66666 227.64197 408.0 227.04636C409.33334 226.45074 410.66666 225.85153 412.0 225.2487C413.33334 224.64587 414.66666 224.03944 416.0 223.4294C417.33334 222.81935 418.66666 222.2057 420.0 221.58844C421.33334 220.97118 422.66666 220.35031 424.0 219.72585C425.33334 219.10136 426.66666 218.47328 428.0 217.84158C429.33334 217.2099 430.66666 216.5746 432.0 215.93568C433.33334 215.29678 434.66666 214.65427 436.0 214.00815C437.33334 213.36201 438.66666 212.7123 440.0 212.05894C441.33334 211.40561 442.66666 210.74866 444.0 210.0881C445.33334 209.42755 446.66666 208.7634 448.0 208.09563C449.33334 207.42784 450.66666 206.75647 452.0 206.08148C453.33334 205.4065 454.66666 204.7279 456.0 204.0457C457.33334 203.3635 458.66666 202.67769 460.0 201.98827C461.33334 201.29884 462.66666 200.60582 464.0 199.90918C465.33334 199.21255 466.66666 198.5123 468.0 197.80846C469.33334 197.1046 470.66666 196.39714 472.0 195.68608C473.33334 194.975 474.66666 194.26033 476.0 193.54205C477.33334 192.82378 478.66666 192.10188 480.0 191.37637C481.33334 190.65088 482.66666 189.92177 484.0 189.18906C485.33334 188.45634 486.66666 187.72002 488.0 186.98009C489.33334 186.24016 490.66666 185.49663 492.0 184.74948C493.33334 184.00233 494.66666 183.25157 496.0 182.49721C497.33334 181.74284 498.66666 180.98488 500.0 180.2233C501.33334 179.46172 502.66666 178.69653 504.0 177.92773C505.33334 177.15894 506.66666 176.38654 508.0 175.61053C509.33334 174.83452 510.66666 174.0549 512.0 173.27167C513.3333 172.48845 514.6667 171.70161 516.0 170.91116C517.3333 170.12073 518.6667 169.32668 520.0 168.52902C521.3333 167.73135 522.6667 166.9301 524.0 166.12521C525.3333 165.32034 526.6667 164.51186 528.0 163.69977C529.3333 162.88768 530.6667 162.07198 532.0 161.25267C533.3333 160.43336 534.6667 159.61046 536.0 158.78394C537.3333 157.95741 538.6667 157.12727 540.0 156.29353C541.3333 155.45981 542.6667 154.62245 544.0 153.7815C545.3333 152.94055 546.6667 152.09598 548.0 151.24782C549.3333 150.39964 550.6667 149.54787 552.0 148.69247C553.3333 147.8371 554.6667 146.9781 556.0 146.1155C557.3333 145.2529 558.6667 144.38669 560.0 143.51686C561.3333 142.64705 562.6667 141.77362 564.0 140.89659C565.3333 140.01955 566.6667 139.13892 568.0 138.25465C569.3333 137.3704 570.6667 136.48254 572.0 135.59108C573.3333 134.69962 574.6667 133.80455 576.0 132.90587C577.3333 132.00717 580.0 130.19899 580.0 130.19899" fill-rule="nonzero"/><path fill="#4285f4" clip-path="url(#id_0)" d="M102.855515 300.34262C102.855515 302.8279 100.8408 304.84262 98.355515 304.84262C95.87024 304.84262 93.855515 302.8279 93.855515 300.34262C93.855515 297.85736 95.87024 295.84262 98.355515 295.84262C100.8408 295.84262 102.855515 297.85736 102.855515 300.34262Z" fill-rule="nonzero"/><path fill="#4285f4" clip-path="url(#id_0)" d="M103.088196 300.36902C103.088196 302.85428 101.07348 304.86902 98.588196 304.86902C96.10291 304.86902 94.088196 302.85428 94.088196 300.36902C94.088196 297.88373 96.10291 295.86902 98.588196 295.86902C101.07348 295.86902 103.088196 297.88373 103.088196 300.36902Z" fill-rule="nonzero"/><path fill="#4285f4" clip-path="url(#id_0)" d="M103.55354 300.3783C103.55354 302.86356 101.538826 304.8783 99.05354 304.8783C96.56827 304.8783 94.55354 302.86356 94.55354 300.3783C94.55354 297.893 96.56827 295.8783 99.05354 295.8783C101.538826 295.8783 103.55354 297.893 103.55354 300.3783Z" fill-rule="nonzero"/><path fill="#4285f4" clip-path="url(#id_0)" d="M104.48425 300.36026C104.48425 302.84552 102.469536 304.86026 99.98425 304.86026C97.49897 304.86026 95.48425 302.84552 95.48425 300.36026C95.48425 297.87497 97.49897 295.86026 99.98425 295.86026C102.469536 295.86026 104.48425 297.87497 104.48425 300.36026Z" fill-rule="nonzero"/><path fill="#4285f4" clip-path="url(#id_0)" d="M106.345665 300.3015C106.345665 302.7868 104.33095 304.8015 101.845665 304.8015C99.36038 304.8015 97.345665 302.7868 97.345665 300.3015C97.345665 297.81622 99.36038 295.8015 101.845665 295.8015C104.33095 295.8015 106.345665 297.81622 106.345665 300.3015Z" fill-rule="nonzero"/><path fill="#4285f4" clip-path="url(#id_0)" d="M110.06849 300.1009C110.06849 302.58615 108.05377 304.6009 105.56849 304.6009C103.083206 304.6009 101.06849 302.58615 101.06849 300.1009C101.06849 297.6156 103.083206 295.6009 105.56849 295.6009C108.05377 295.6009 110.06849 297.6156 110.06849 300.1009Z" fill-rule="nonzero"/><path fill="#4285f4" clip-path="url(#id_0)" d="M117.514145 299.9516C117.514145 302.4369 115.49942 304.4516 113.014145 304.4516C110.52886 304.4516 108.514145 302.4369 108.514145 299.9516C108.514145 297.4663 110.52886 295.4516 113.014145 295.4516C115.49942 295.4516 117.514145 297.4663 117.514145 299.9516Z" fill-rule="nonzero"/><path fill="#4285f4" clip-path="url(#id_0)" d="M132.40544 299.20837C132.40544 301.69366 130.39073 303.70837 127.90544 303.70837C125.42016 303.70837 123.40544 301.69366 123.40544 299.20837C123.40544 296.72308 125.42016 294.70837 127.90544 294.70837C130.39073 294.70837 132.40544 296.72308 132.40544 299.20837Z" fill-rule="nonzero"/><path fill="#4285f4" clip-path="url(#id_0)" d="M162.18805 296.9618C162.18805 299.44708 160.17332 301.4618 157.68805 301.4618C155.20276 301.4618 153.18805 299.44708 153.18805 296.9618C153.18805 294.47653 155.20276 292.4618 157.68805 292.4618C160.17332 292.4618 162.18805 294.47653 162.18805 296.9618Z" fill-rule="nonzero"/><path fill="#4285f4" clip-path="url(#id_0)" d="M221.75325 288.54315C221.75325 291.02844 219.73853 293.04315 217.25325 293.04315C214.76797 293.04315 212.75325 291.02844 212.75325 288.54315C212.75325 286.05786 214.76797 284.04315 217.25325 284.04315C219.73853 284.04315 221.75325 286.05786 221.75325 288.54315Z" fill-rule="nonzero"/><path fill="#4285f4" clip-path="url(#id_0)" d="M340.88367 254.66884C340.88367 257.1541 338.86896 259.16882 336.38367 259.16882C333.89838 259.16882 331.88367 257.1541 331.88367 254.66884C331.88367 252.18355 333.89838 250.16884 336.38367 250.16884C338.86896 250.16884 340.88367 252.18355 340.88367 254.66884Z" fill-rule="nonzero"/><path fill="#4285f4" clip-path="url(#id_0)" d="M579.1445 133.97873C579.1445 136.464 577.12976 138.47873 574.6445 138.47873C572.1592 138.47873 570.1445 136.464 570.1445 133.97873C570.1445 131.49345 572.1592 129.47873 574.6445 129.47873C577.12976 129.47873 579.1445 131.49345 579.1445 133.97873Z" fill-rule="nonzero"/><path fill="#000000" d="M315.54688 347.45L316.64062 347.575Q316.39062 348.52814 315.6875 349.0594Q314.98438 349.59064 313.90625 349.59064Q312.54688 349.59064 311.73438 348.7469Q310.9375 347.90314 310.9375 346.3875Q310.9375 344.825 311.75 343.96564Q312.5625 343.09064 313.84375 343.09064Q315.09375 343.09064 315.875 343.9344Q316.67188 344.77814 316.67188 346.325Q316.67188 346.41876 316.67188 346.60626L312.03125 346.60626Q312.09375 347.6375 312.60938 348.1844Q313.125 348.71564 313.90625 348.71564Q314.48438 348.71564 314.89062 348.41876Q315.3125 348.10626 315.54688 347.45ZM312.09375 345.7469L315.5625 345.7469Q315.5 344.95 315.17188 344.5594Q314.65625 343.95 313.85938 343.95Q313.125 343.95 312.625 344.4344Q312.14062 344.91876 312.09375 345.7469ZM318.26562 349.45L318.26562 340.85626L319.32812 340.85626L319.32812 349.45L318.26562 349.45ZM325.54688 347.45L326.64062 347.575Q326.39062 348.52814 325.6875 349.0594Q324.98438 349.59064 323.90625 349.59064Q322.54688 349.59064 321.73438 348.7469Q320.9375 347.90314 320.9375 346.3875Q320.9375 344.825 321.75 343.96564Q322.5625 343.09064 323.84375 343.09064Q325.09375 343.09064 325.875 343.9344Q326.67188 344.77814 326.67188 346.325Q326.67188 346.41876 326.67188 346.60626L322.03125 346.60626Q322.09375 347.6375 322.60938 348.1844Q323.125 348.71564 323.90625 348.71564Q324.48438 348.71564 324.89062 348.41876Q325.3125 348.10626 325.54688 347.45ZM322.09375 345.7469L325.5625 345.7469Q325.5 344.95 325.17188 344.5594Q324.65625 343.95 323.85938 343.95Q323.125 343.95 322.625 344.4344Q322.14062 344.91876 322.09375 345.7469ZM328.29688 349.45L328.29688 343.23126L329.23438 343.23126L329.23438 344.10626Q329.53125 343.6375 330.01562 343.3719Q330.5 343.09064 331.125 343.09064Q331.8125 343.09064 332.25 343.3719Q332.70312 343.65314 332.875 344.16876Q333.625 343.09064 334.79688 343.09064Q335.73438 343.09064 336.21875 343.60626Q336.71875 344.10626 336.71875 345.1844L336.71875 349.45L335.67188 349.45L335.67188 345.52814Q335.67188 344.90314 335.5625 344.6219Q335.46875 344.34064 335.20312 344.16876Q334.9375 343.9969 334.5625 343.9969Q333.90625 343.9969 333.46875 344.4344Q333.04688 344.8719 333.04688 345.84064L333.04688 349.45L331.98438 349.45L331.98438 345.40314Q331.98438 344.7 331.71875 344.35626Q331.46875 343.9969 330.89062 343.9969Q330.4375 343.9969 330.0625 344.23126Q329.6875 344.46564 329.51562 344.91876Q329.34375 345.3719 329.34375 346.21564L329.34375 349.45L328.29688 349.45ZM343.54688 347.45L344.64062 347.575Q344.39062 348.52814 343.6875 349.0594Q342.98438 349.59064 341.90625 349.59064Q340.54688 349.59064 339.73438 348.7469Q338.9375 347.90314 338.9375 346.3875Q338.9375 344.825 339.75 343.96564Q340.5625 343.09064 341.84375 343.09064Q343.09375 343.09064 343.875 343.9344Q344.67188 344.77814 344.67188 346.325Q344.67188 346.41876 344.67188 346.60626L340.03125 346.60626Q340.09375 347.6375 340.60938 348.1844Q341.125 348.71564 341.90625 348.71564Q342.48438 348.71564 342.89062 348.41876Q343.3125 348.10626 343.54688 347.45ZM340.09375 345.7469L343.5625 345.7469Q343.5 344.95 343.17188 344.5594Q342.65625 343.95 341.85938 343.95Q341.125 343.95 340.625 344.4344Q340.14062 344.91876 340.09375 345.7469ZM346.29688 349.45L346.29688 343.23126L347.23438 343.23126L347.23438 344.10626Q347.92188 343.09064 349.21875 343.09064Q349.78125 343.09064 350.25 343.29376Q350.73438 343.4969 350.96875 343.825Q351.20312 344.15314 351.29688 344.59064Q351.34375 344.8875 351.34375 345.6219L351.34375 349.45L350.29688 349.45L350.29688 345.66876Q350.29688 345.0125 350.17188 344.7Q350.04688 344.3875 349.73438 344.2Q349.42188 343.9969 349.0 343.9969Q348.32812 343.9969 347.82812 344.4344Q347.34375 344.85626 347.34375 346.04376L347.34375 349.45L346.29688 349.45ZM355.59375 348.5125L355.75 349.4344Q355.29688 349.52814 354.95312 349.52814Q354.375 349.52814 354.0625 349.35626Q353.75 349.16876 353.60938 348.8719Q353.48438 348.575 353.48438 347.6219L353.48438 344.04376L352.71875 344.04376L352.71875 343.23126L353.48438 343.23126L353.48438 341.6844L354.53125 341.0594L354.53125 343.23126L355.59375 343.23126L355.59375 344.04376L354.53125 344.04376L354.53125 347.6844Q354.53125 348.1375 354.57812 348.2625Q354.64062 348.3875 354.76562 348.46564Q354.89062 348.54376 355.125 348.54376Q355.3125 348.54376 355.59375 348.5125ZM355.875 347.59064L356.90625 347.4344Q357.0 348.0594 357.39062 348.3875Q357.79688 348.71564 358.53125 348.71564Q359.25 348.71564 359.59375 348.4344Q359.95312 348.1375 359.95312 347.73126Q359.95312 347.3719 359.64062 347.16876Q359.42188 347.02814 358.5625 346.8094Q357.40625 346.5125 356.95312 346.3094Q356.51562 346.09064 356.28125 345.71564Q356.04688 345.34064 356.04688 344.8719Q356.04688 344.46564 356.23438 344.10626Q356.42188 343.7469 356.75 343.5125Q357.0 343.34064 357.42188 343.21564Q357.84375 343.09064 358.34375 343.09064Q359.0625 343.09064 359.60938 343.3094Q360.17188 343.5125 360.4375 343.8719Q360.70312 344.23126 360.79688 344.825L359.76562 344.96564Q359.70312 344.4969 359.35938 344.23126Q359.03125 343.95 358.40625 343.95Q357.6875 343.95 357.375 344.2Q357.0625 344.4344 357.0625 344.7625Q357.0625 344.96564 357.1875 345.1219Q357.32812 345.29376 357.59375 345.40314Q357.75 345.46564 358.53125 345.66876Q359.65625 345.98126 360.09375 346.16876Q360.53125 346.35626 360.78125 346.71564Q361.03125 347.075 361.03125 347.6219Q361.03125 348.15314 360.71875 348.6219Q360.42188 349.075 359.84375 349.34064Q359.26562 349.59064 358.53125 349.59064Q357.3125 349.59064 356.67188 349.09064Q356.04688 348.575 355.875 347.59064Z" fill-rule="nonzero"/><path fill="#000000" d="M23.331263 229.39792L29.550013 229.39792L29.550013 230.35104L28.815638 230.35104Q29.284388 230.64792 29.456263 230.9448Q29.690638 231.35104 29.690638 231.89792Q29.690638 232.3823 29.503138 232.7573Q29.362513 233.03854 28.925013 233.3823L31.940638 233.3823L31.940638 234.42917L23.331263 234.42917L23.331263 233.3823L25.956263 233.3823Q27.393763 233.3823 27.831263 233.24167Q28.253138 233.08542 28.503138 232.74167Q28.737513 232.39792 28.737513 231.9448Q28.737513 231.47604 28.487513 231.11667Q28.221888 230.74167 27.815638 230.60104Q27.409388 230.4448 25.987513 230.4448L23.331263 230.4448L23.331263 229.39792ZM27.690638 227.99167L27.534388 226.96042Q28.159388 226.86667 28.487513 226.47604Q28.815638 226.0698 28.815638 225.33542Q28.815638 224.61667 28.534388 224.27292Q28.237513 223.91354 27.831263 223.91354Q27.471888 223.91354 27.268763 224.22604Q27.128138 224.4448 26.909388 225.30417Q26.612513 226.46042 26.409388 226.91354Q26.190638 227.35104 25.815638 227.58542Q25.440638 227.8198 24.971888 227.8198Q24.565638 227.8198 24.206263 227.6323Q23.846888 227.4448 23.612513 227.11667Q23.440638 226.86667 23.315638 226.4448Q23.190638 226.02292 23.190638 225.52292Q23.190638 224.80417 23.409388 224.2573Q23.612513 223.6948 23.971888 223.42917Q24.331263 223.16354 24.925013 223.0698L25.065638 224.10104Q24.596888 224.16354 24.331263 224.5073Q24.050013 224.83542 24.050013 225.46042Q24.050013 226.17917 24.300013 226.49167Q24.534388 226.80417 24.862513 226.80417Q25.065638 226.80417 25.221888 226.67917Q25.393763 226.53854 25.503138 226.27292Q25.565638 226.11667 25.768763 225.33542Q26.081263 224.21042 26.268763 223.77292Q26.456263 223.33542 26.815638 223.08542Q27.175013 222.83542 27.721888 222.83542Q28.253138 222.83542 28.721888 223.14792Q29.175013 223.4448 29.440638 224.02292Q29.690638 224.60104 29.690638 225.33542Q29.690638 226.55417 29.190638 227.1948Q28.675013 227.8198 27.690638 227.99167ZM29.690638 221.36667L20.815638 218.8823L20.815638 218.03854L29.690638 220.52292L29.690638 221.36667ZM26.440638 217.96042Q24.706263 217.96042 23.878138 217.0073Q23.190638 216.21042 23.190638 215.05417Q23.190638 213.77292 24.034388 212.96042Q24.862513 212.1323 26.346888 212.1323Q27.550013 212.1323 28.237513 212.49167Q28.925013 212.85104 29.315638 213.55417Q29.690638 214.24167 29.690638 215.05417Q29.690638 216.35104 28.862513 217.16354Q28.018763 217.96042 26.440638 217.96042ZM26.440638 216.8823Q27.628138 216.8823 28.221888 216.36667Q28.815638 215.83542 28.815638 215.05417Q28.815638 214.2573 28.221888 213.74167Q27.628138 213.22604 26.409388 213.22604Q25.253138 213.22604 24.659388 213.7573Q24.065638 214.27292 24.065638 215.05417Q24.065638 215.83542 24.659388 216.36667Q25.237513 216.8823 26.440638 216.8823ZM31.940638 210.5698L23.331263 210.5698L23.331263 209.61667L24.128138 209.61667Q23.659388 209.27292 23.425013 208.85104Q23.190638 208.41354 23.190638 207.80417Q23.190638 207.0073 23.596888 206.39792Q24.003138 205.78854 24.753138 205.49167Q25.503138 205.17917 26.393763 205.17917Q27.346888 205.17917 28.112513 205.52292Q28.878138 205.85104 29.284388 206.5073Q29.690638 207.16354 29.690638 207.8823Q29.690638 208.41354 29.471888 208.83542Q29.237513 209.2573 28.909388 209.52292L31.940638 209.52292L31.940638 210.5698ZM26.471888 209.61667Q27.675013 209.61667 28.253138 209.1323Q28.815638 208.64792 28.815638 207.96042Q28.815638 207.2573 28.221888 206.7573Q27.628138 206.2573 26.378138 206.2573Q25.190638 206.2573 24.612513 206.74167Q24.018763 207.22604 24.018763 207.91354Q24.018763 208.58542 24.643763 209.10104Q25.268763 209.61667 26.471888 209.61667ZM27.550013 199.3198L27.675013 198.22604Q28.628138 198.47604 29.159388 199.17917Q29.690638 199.8823 29.690638 200.96042Q29.690638 202.3198 28.846888 203.1323Q28.003138 203.92917 26.487513 203.92917Q24.925013 203.92917 24.065638 203.11667Q23.190638 202.30417 23.190638 201.02292Q23.190638 199.77292 24.034388 198.99167Q24.878138 198.1948 26.425013 198.1948Q26.518763 198.1948 26.706263 198.1948L26.706263 202.83542Q27.737513 202.77292 28.284388 202.2573Q28.815638 201.74167 28.815638 200.96042Q28.815638 200.3823 28.518763 199.97604Q28.206263 199.55417 27.550013 199.3198ZM25.846888 202.77292L25.846888 199.30417Q25.050013 199.36667 24.659388 199.6948Q24.050013 200.21042 24.050013 201.0073Q24.050013 201.74167 24.534388 202.24167Q25.018763 202.72604 25.846888 202.77292ZM29.550013 196.58542L23.331263 196.58542L23.331263 195.6323L24.268763 195.6323Q23.612513 195.27292 23.409388 194.97604Q23.190638 194.66354 23.190638 194.28854Q23.190638 193.7573 23.518763 193.21042L24.503138 193.5698Q24.268763 193.96042 24.268763 194.33542Q24.268763 194.6948 24.487513 194.97604Q24.690638 195.24167 25.065638 195.35104Q25.628138 195.53854 26.284388 195.53854L29.550013 195.53854L29.550013 196.58542ZM28.784388 188.5073Q29.284388 189.10104 29.487513 189.64792Q29.690638 190.17917 29.690638 190.80417Q29.690638 191.83542 29.190638 192.3823Q28.690638 192.92917 27.909388 192.92917Q27.456263 192.92917 27.081263 192.72604Q26.690638 192.52292 26.471888 192.17917Q26.237513 191.83542 26.128138 191.41354Q26.034388 191.11667 25.956263 190.47604Q25.815638 189.21042 25.596888 188.60104Q25.378138 188.60104 25.331263 188.60104Q24.675013 188.60104 24.409388 188.89792Q24.065638 189.30417 24.065638 190.10104Q24.065638 190.83542 24.331263 191.1948Q24.581263 191.55417 25.237513 191.72604L25.096888 192.7573Q24.440638 192.61667 24.034388 192.28854Q23.628138 191.96042 23.409388 191.35104Q23.190638 190.74167 23.190638 189.9448Q23.190638 189.14792 23.378138 188.64792Q23.565638 188.14792 23.846888 187.91354Q24.128138 187.67917 24.565638 187.58542Q24.831263 187.53854 25.534388 187.53854L26.940638 187.53854Q28.409388 187.53854 28.800013 187.47604Q29.190638 187.39792 29.550013 187.1948L29.550013 188.30417Q29.221888 188.46042 28.784388 188.5073ZM26.425013 188.60104Q26.659388 189.17917 26.831263 190.3198Q26.925013 190.97604 27.050013 191.24167Q27.159388 191.5073 27.378138 191.66354Q27.596888 191.80417 27.878138 191.80417Q28.300013 191.80417 28.581263 191.49167Q28.862513 191.16354 28.862513 190.55417Q28.862513 189.9448 28.596888 189.47604Q28.331263 188.99167 27.862513 188.77292Q27.503138 188.60104 26.815638 188.60104L26.425013 188.60104ZM28.612513 183.27292L29.534388 183.11667Q29.628138 183.5698 29.628138 183.91354Q29.628138 184.49167 29.456263 184.80417Q29.268763 185.11667 28.971888 185.2573Q28.675013 185.3823 27.721888 185.3823L24.143763 185.3823L24.143763 186.14792L23.331263 186.14792L23.331263 185.3823L21.784388 185.3823L21.159388 184.33542L23.331263 184.33542L23.331263 183.27292L24.143763 183.27292L24.143763 184.33542L27.784388 184.33542Q28.237513 184.33542 28.362513 184.28854Q28.487513 184.22604 28.565638 184.10104Q28.643763 183.97604 28.643763 183.74167Q28.643763 183.55417 28.612513 183.27292ZM22.175013 182.5698L20.956263 182.5698L20.956263 181.5073L22.175013 181.5073L22.175013 182.5698ZM29.550013 182.5698L23.331263 182.5698L23.331263 181.5073L29.550013 181.5073L29.550013 182.5698ZM26.440638 179.96042Q24.706263 179.96042 23.878138 179.0073Q23.190638 178.21042 23.190638 177.05417Q23.190638 175.77292 24.034388 174.96042Q24.862513 174.1323 26.346888 174.1323Q27.550013 174.1323 28.237513 174.49167Q28.925013 174.85104 29.315638 175.55417Q29.690638 176.24167 29.690638 177.05417Q29.690638 178.35104 28.862513 179.16354Q28.018763 179.96042 26.440638 179.96042ZM26.440638 178.8823Q27.628138 178.8823 28.221888 178.36667Q28.815638 177.83542 28.815638 177.05417Q28.815638 176.2573 28.221888 175.74167Q27.628138 175.22604 26.409388 175.22604Q25.253138 175.22604 24.659388 175.7573Q24.065638 176.27292 24.065638 177.05417Q24.065638 177.83542 24.659388 178.36667Q25.237513 178.8823 26.440638 178.8823ZM29.550013 172.5698L23.331263 172.5698L23.331263 171.6323L24.206263 171.6323Q23.190638 170.9448 23.190638 169.64792Q23.190638 169.08542 23.393763 168.61667Q23.596888 168.1323 23.925013 167.89792Q24.253138 167.66354 24.690638 167.5698Q24.987513 167.52292 25.721888 167.52292L29.550013 167.52292L29.550013 168.5698L25.768763 168.5698Q25.112513 168.5698 24.800013 168.6948Q24.487513 168.8198 24.300013 169.1323Q24.096888 169.4448 24.096888 169.86667Q24.096888 170.53854 24.534388 171.03854Q24.956263 171.52292 26.143763 171.52292L29.550013 171.52292L29.550013 172.5698Z" fill-rule="nonzero"/><path fill="#000000" d="M79.05 300.21564Q79.05 298.6844 79.3625 297.7625Q79.675 296.825 80.28438 296.325Q80.90938 295.825 81.84688 295.825Q82.53438 295.825 83.05 296.10626Q83.58125 296.3875 83.925 296.91876Q84.26875 297.4344 84.45625 298.1844Q84.64375 298.9344 84.64375 300.21564Q84.64375 301.73126 84.33125 302.65314Q84.03438 303.575 83.40938 304.09064Q82.8 304.59064 81.84688 304.59064Q80.6125 304.59064 79.89375 303.7Q79.05 302.6375 79.05 300.21564ZM80.12813 300.21564Q80.12813 302.325 80.62813 303.02814Q81.12813 303.73126 81.84688 303.73126Q82.58125 303.73126 83.06563 303.02814Q83.56563 302.325 83.56563 300.21564Q83.56563 298.09064 83.06563 297.40314Q82.58125 296.7 81.83125 296.7Q81.1125 296.7 80.675 297.3094Q80.12813 298.09064 80.12813 300.21564Z" fill-rule="nonzero"/><path fill="#000000" d="M55.01875 251.40834L53.971874 251.40834L53.971874 244.68959Q53.58125 245.04897 52.95625 245.42397Q52.346874 245.78334 51.8625 245.95522L51.8625 244.93959Q52.7375 244.51772 53.39375 243.93959Q54.065624 243.34584 54.346874 242.78334L55.01875 242.78334L55.01875 251.40834ZM58.05 247.17397Q58.05 245.64272 58.3625 244.72084Q58.675 243.78334 59.284374 243.28334Q59.909374 242.78334 60.846874 242.78334Q61.534374 242.78334 62.05 243.06459Q62.58125 243.34584 62.925 243.87709Q63.26875 244.39272 63.45625 245.14272Q63.64375 245.89272 63.64375 247.17397Q63.64375 248.68959 63.33125 249.61147Q63.034374 250.53334 62.409374 251.04897Q61.8 251.54897 60.846874 251.54897Q59.6125 251.54897 58.89375 250.65834Q58.05 249.59584 58.05 247.17397ZM59.128124 247.17397Q59.128124 249.28334 59.628124 249.98647Q60.128124 250.68959 60.846874 250.68959Q61.58125 250.68959 62.065624 249.98647Q62.565624 249.28334 62.565624 247.17397Q62.565624 245.04897 62.065624 244.36147Q61.58125 243.65834 60.83125 243.65834Q60.1125 243.65834 59.675 244.26772Q59.128124 245.04897 59.128124 247.17397ZM65.05 247.17397Q65.05 245.64272 65.3625 244.72084Q65.675 243.78334 66.28438 243.28334Q66.90938 242.78334 67.84688 242.78334Q68.53438 242.78334 69.05 243.06459Q69.58125 243.34584 69.925 243.87709Q70.26875 244.39272 70.45625 245.14272Q70.64375 245.89272 70.64375 247.17397Q70.64375 248.68959 70.33125 249.61147Q70.03438 250.53334 69.40938 251.04897Q68.8 251.54897 67.84688 251.54897Q66.6125 251.54897 65.89375 250.65834Q65.05 249.59584 65.05 247.17397ZM66.12813 247.17397Q66.12813 249.28334 66.62813 249.98647Q67.12813 250.68959 67.84688 250.68959Q68.58125 250.68959 69.06563 249.98647Q69.56563 249.28334 69.56563 247.17397Q69.56563 245.04897 69.06563 244.36147Q68.58125 243.65834 67.83125 243.65834Q67.1125 243.65834 66.675 244.26772Q66.12813 245.04897 66.12813 247.17397ZM72.05 247.17397Q72.05 245.64272 72.3625 244.72084Q72.675 243.78334 73.28438 243.28334Q73.90938 242.78334 74.84688 242.78334Q75.53438 242.78334 76.05 243.06459Q76.58125 243.34584 76.925 243.87709Q77.26875 244.39272 77.45625 245.14272Q77.64375 245.89272 77.64375 247.17397Q77.64375 248.68959 77.33125 249.61147Q77.03438 250.53334 76.40938 251.04897Q75.8 251.54897 74.84688 251.54897Q73.6125 251.54897 72.89375 250.65834Q72.05 249.59584 72.05 247.17397ZM73.12813 247.17397Q73.12813 249.28334 73.62813 249.98647Q74.12813 250.68959 74.84688 250.68959Q75.58125 250.68959 76.06563 249.98647Q76.56563 249.28334 76.56563 247.17397Q76.56563 245.04897 76.06563 244.36147Q75.58125 243.65834 74.83125 243.65834Q74.1125 243.65834 73.675 244.26772Q73.12813 245.04897 73.12813 247.17397ZM79.05 247.17397Q79.05 245.64272 79.3625 244.72084Q79.675 243.78334 80.28438 243.28334Q80.90938 242.78334 81.84688 242.78334Q82.53438 242.78334 83.05 243.06459Q83.58125 243.34584 83.925 243.87709Q84.26875 244.39272 84.45625 245.14272Q84.64375 245.89272 84.64375 247.17397Q84.64375 248.68959 84.33125 249.61147Q84.03438 250.53334 83.40938 251.04897Q82.8 251.54897 81.84688 251.54897Q80.6125 251.54897 79.89375 250.65834Q79.05 249.59584 79.05 247.17397ZM80.12813 247.17397Q80.12813 249.28334 80.62813 249.98647Q81.12813 250.68959 81.84688 250.68959Q82.58125 250.68959 83.06563 249.98647Q83.56563 249.28334 83.56563 247.17397Q83.56563 245.04897 83.06563 244.36147Q82.58125 243.65834 81.83125 243.65834Q81.1125 243.65834 80.675 244.26772Q80.12813 245.04897 80.12813 247.17397Z" fill-rule="nonzero"/><path fill="#000000" d="M56.596874 197.35104L56.596874 198.36667L50.909374 198.36667Q50.909374 197.99167 51.034374 197.6323Q51.253124 197.05417 51.721874 196.49167Q52.20625 195.92917 53.1125 195.1948Q54.51875 194.03854 55.003124 193.36667Q55.503124 192.6948 55.503124 192.10104Q55.503124 191.47604 55.05 191.05417Q54.596874 190.61667 53.878124 190.61667Q53.1125 190.61667 52.659374 191.0698Q52.20625 191.52292 52.190624 192.33542L51.1125 192.22604Q51.221874 191.0073 51.940624 190.3823Q52.675 189.74167 53.909374 189.74167Q55.14375 189.74167 55.8625 190.42917Q56.58125 191.11667 56.58125 192.1323Q56.58125 192.64792 56.3625 193.14792Q56.159374 193.6323 55.659374 194.1948Q55.175 194.74167 54.05 195.6948Q53.096874 196.49167 52.815624 196.78854Q52.55 197.0698 52.378124 197.35104L56.596874 197.35104ZM58.05 194.1323Q58.05 192.60104 58.3625 191.67917Q58.675 190.74167 59.284374 190.24167Q59.909374 189.74167 60.846874 189.74167Q61.534374 189.74167 62.05 190.02292Q62.58125 190.30417 62.925 190.83542Q63.26875 191.35104 63.45625 192.10104Q63.64375 192.85104 63.64375 194.1323Q63.64375 195.64792 63.33125 196.5698Q63.034374 197.49167 62.409374 198.0073Q61.8 198.5073 60.846874 198.5073Q59.6125 198.5073 58.89375 197.61667Q58.05 196.55417 58.05 194.1323ZM59.128124 194.1323Q59.128124 196.24167 59.628124 196.9448Q60.128124 197.64792 60.846874 197.64792Q61.58125 197.64792 62.065624 196.9448Q62.565624 196.24167 62.565624 194.1323Q62.565624 192.0073 62.065624 191.3198Q61.58125 190.61667 60.83125 190.61667Q60.1125 190.61667 59.675 191.22604Q59.128124 192.0073 59.128124 194.1323ZM65.05 194.1323Q65.05 192.60104 65.3625 191.67917Q65.675 190.74167 66.28438 190.24167Q66.90938 189.74167 67.84688 189.74167Q68.53438 189.74167 69.05 190.02292Q69.58125 190.30417 69.925 190.83542Q70.26875 191.35104 70.45625 192.10104Q70.64375 192.85104 70.64375 194.1323Q70.64375 195.64792 70.33125 196.5698Q70.03438 197.49167 69.40938 198.0073Q68.8 198.5073 67.84688 198.5073Q66.6125 198.5073 65.89375 197.61667Q65.05 196.55417 65.05 194.1323ZM66.12813 194.1323Q66.12813 196.24167 66.62813 196.9448Q67.12813 197.64792 67.84688 197.64792Q68.58125 197.64792 69.06563 196.9448Q69.56563 196.24167 69.56563 194.1323Q69.56563 192.0073 69.06563 191.3198Q68.58125 190.61667 67.83125 190.61667Q67.1125 190.61667 66.675 191.22604Q66.12813 192.0073 66.12813 194.1323ZM72.05 194.1323Q72.05 192.60104 72.3625 191.67917Q72.675 190.74167 73.28438 190.24167Q73.90938 189.74167 74.84688 189.74167Q75.53438 189.74167 76.05 190.02292Q76.58125 190.30417 76.925 190.83542Q77.26875 191.35104 77.45625 192.10104Q77.64375 192.85104 77.64375 194.1323Q77.64375 195.64792 77.33125 196.5698Q77.03438 197.49167 76.40938 198.0073Q75.8 198.5073 74.84688 198.5073Q73.6125 198.5073 72.89375 197.61667Q72.05 196.55417 72.05 194.1323ZM73.12813 194.1323Q73.12813 196.24167 73.62813 196.9448Q74.12813 197.64792 74.84688 197.64792Q75.58125 197.64792 76.06563 196.9448Q76.56563 196.24167 76.56563 194.1323Q76.56563 192.0073 76.06563 191.3198Q75.58125 190.61667 74.83125 190.61667Q74.1125 190.61667 73.675 191.22604Q73.12813 192.0073 73.12813 194.1323ZM79.05 194.1323Q79.05 192.60104 79.3625 191.67917Q79.675 190.74167 80.28438 190.24167Q80.90938 189.74167 81.84688 189.74167Q82.53438 189.74167 83.05 190.02292Q83.58125 190.30417 83.925 190.83542Q84.26875 191.35104 84.45625 192.10104Q84.64375 192.85104 84.64375 194.1323Q84.64375 195.64792 84.33125 196.5698Q84.03438 197.49167 83.40938 198.0073Q82.8 198.5073 81.84688 198.5073Q80.6125 198.5073 79.89375 197.61667Q79.05 196.55417 79.05 194.1323ZM80.12813 194.1323Q80.12813 196.24167 80.62813 196.9448Q81.12813 197.64792 81.84688 197.64792Q82.58125 197.64792 83.06563 196.9448Q83.56563 196.24167 83.56563 194.1323Q83.56563 192.0073 83.06563 191.3198Q82.58125 190.61667 81.83125 190.61667Q81.1125 190.61667 80.675 191.22604Q80.12813 192.0073 80.12813 194.1323Z" fill-rule="nonzero"/><path fill="#000000" d="M51.05 143.05937L52.1125 142.91875Q52.284374 143.80937 52.721874 144.21562Q53.159374 144.60625 53.784374 144.60625Q54.534374 144.60625 55.05 144.09062Q55.565624 143.575 55.565624 142.80937Q55.565624 142.09062 55.08125 141.62187Q54.6125 141.1375 53.878124 141.1375Q53.58125 141.1375 53.128124 141.2625L53.253124 140.325Q53.3625 140.34062 53.425 140.34062Q54.096874 140.34062 54.628124 139.99687Q55.175 139.6375 55.175 138.90312Q55.175 138.325 54.784374 137.95Q54.39375 137.55937 53.76875 137.55937Q53.159374 137.55937 52.7375 137.95Q52.33125 138.34062 52.221874 139.10625L51.159374 138.91875Q51.346874 137.87187 52.034374 137.29375Q52.721874 136.7 53.7375 136.7Q54.440624 136.7 55.034374 137.0125Q55.628124 137.30937 55.940624 137.825Q56.253124 138.34062 56.253124 138.93437Q56.253124 139.48125 55.95625 139.95Q55.659374 140.40312 55.08125 140.66875Q55.83125 140.84062 56.253124 141.40312Q56.675 141.95 56.675 142.79375Q56.675 143.91875 55.846874 144.7Q55.034374 145.48125 53.784374 145.48125Q52.659374 145.48125 51.909374 144.80937Q51.159374 144.12187 51.05 143.05937ZM58.05 141.09062Q58.05 139.55937 58.3625 138.6375Q58.675 137.7 59.284374 137.2Q59.909374 136.7 60.846874 136.7Q61.534374 136.7 62.05 136.98125Q62.58125 137.2625 62.925 137.79375Q63.26875 138.30937 63.45625 139.05937Q63.64375 139.80937 63.64375 141.09062Q63.64375 142.60625 63.33125 143.52812Q63.034374 144.45 62.409374 144.96562Q61.8 145.46562 60.846874 145.46562Q59.6125 145.46562 58.89375 144.575Q58.05 143.5125 58.05 141.09062ZM59.128124 141.09062Q59.128124 143.2 59.628124 143.90312Q60.128124 144.60625 60.846874 144.60625Q61.58125 144.60625 62.065624 143.90312Q62.565624 143.2 62.565624 141.09062Q62.565624 138.96562 62.065624 138.27812Q61.58125 137.575 60.83125 137.575Q60.1125 137.575 59.675 138.18437Q59.128124 138.96562 59.128124 141.09062ZM65.05 141.09062Q65.05 139.55937 65.3625 138.6375Q65.675 137.7 66.28438 137.2Q66.90938 136.7 67.84688 136.7Q68.53438 136.7 69.05 136.98125Q69.58125 137.2625 69.925 137.79375Q70.26875 138.30937 70.45625 139.05937Q70.64375 139.80937 70.64375 141.09062Q70.64375 142.60625 70.33125 143.52812Q70.03438 144.45 69.40938 144.96562Q68.8 145.46562 67.84688 145.46562Q66.6125 145.46562 65.89375 144.575Q65.05 143.5125 65.05 141.09062ZM66.12813 141.09062Q66.12813 143.2 66.62813 143.90312Q67.12813 144.60625 67.84688 144.60625Q68.58125 144.60625 69.06563 143.90312Q69.56563 143.2 69.56563 141.09062Q69.56563 138.96562 69.06563 138.27812Q68.58125 137.575 67.83125 137.575Q67.1125 137.575 66.675 138.18437Q66.12813 138.96562 66.12813 141.09062ZM72.05 141.09062Q72.05 139.55937 72.3625 138.6375Q72.675 137.7 73.28438 137.2Q73.90938 136.7 74.84688 136.7Q75.53438 136.7 76.05 136.98125Q76.58125 137.2625 76.925 137.79375Q77.26875 138.30937 77.45625 139.05937Q77.64375 139.80937 77.64375 141.09062Q77.64375 142.60625 77.33125 143.52812Q77.03438 144.45 76.40938 144.96562Q75.8 145.46562 74.84688 145.46562Q73.6125 145.46562 72.89375 144.575Q72.05 143.5125 72.05 141.09062ZM73.12813 141.09062Q73.12813 143.2 73.62813 143.90312Q74.12813 144.60625 74.84688 144.60625Q75.58125 144.60625 76.06563 143.90312Q76.56563 143.2 76.56563 141.09062Q76.56563 138.96562 76.06563 138.27812Q75.58125 137.575 74.83125 137.575Q74.1125 137.575 73.675 138.18437Q73.12813 138.96562 73.12813 141.09062ZM79.05 141.09062Q79.05 139.55937 79.3625 138.6375Q79.675 137.7 80.28438 137.2Q80.90938 136.7 81.84688 136.7Q82.53438 136.7 83.05 136.98125Q83.58125 137.2625 83.925 137.79375Q84.26875 138.30937 84.45625 139.05937Q84.64375 139.80937 84.64375 141.09062Q84.64375 142.60625 84.33125 143.52812Q84.03438 144.45 83.40938 144.96562Q82.8 145.46562 81.84688 145.46562Q80.6125 145.46562 79.89375 144.575Q79.05 143.5125 79.05 141.09062ZM80.12813 141.09062Q80.12813 143.2 80.62813 143.90312Q81.12813 144.60625 81.84688 144.60625Q82.58125 144.60625 83.06563 143.90312Q83.56563 143.2 83.56563 141.09062Q83.56563 138.96562 83.06563 138.27812Q82.58125 137.575 81.83125 137.575Q81.1125 137.575 80.675 138.18437Q80.12813 138.96562 80.12813 141.09062Z" fill-rule="nonzero"/><path fill="#000000" d="M54.425 92.28333L54.425 90.22083L50.70625 90.22083L50.70625 89.25208L54.628124 83.68958L55.4875 83.68958L55.4875 89.25208L56.64375 89.25208L56.64375 90.22083L55.4875 90.22083L55.4875 92.28333L54.425 92.28333ZM54.425 89.25208L54.425 85.39271L51.7375 89.25208L54.425 89.25208ZM58.05 88.04896Q58.05 86.51771 58.3625 85.59583Q58.675 84.65833 59.284374 84.15833Q59.909374 83.65833 60.846874 83.65833Q61.534374 83.65833 62.05 83.93958Q62.58125 84.22083 62.925 84.75208Q63.26875 85.26771 63.45625 86.01771Q63.64375 86.76771 63.64375 88.04896Q63.64375 89.56458 63.33125 90.48646Q63.034374 91.40833 62.409374 91.92396Q61.8 92.42396 60.846874 92.42396Q59.6125 92.42396 58.89375 91.53333Q58.05 90.47083 58.05 88.04896ZM59.128124 88.04896Q59.128124 90.15833 59.628124 90.86146Q60.128124 91.56458 60.846874 91.56458Q61.58125 91.56458 62.065624 90.86146Q62.565624 90.15833 62.565624 88.04896Q62.565624 85.92396 62.065624 85.23646Q61.58125 84.53333 60.83125 84.53333Q60.1125 84.53333 59.675 85.14271Q59.128124 85.92396 59.128124 88.04896ZM65.05 88.04896Q65.05 86.51771 65.3625 85.59583Q65.675 84.65833 66.28438 84.15833Q66.90938 83.65833 67.84688 83.65833Q68.53438 83.65833 69.05 83.93958Q69.58125 84.22083 69.925 84.75208Q70.26875 85.26771 70.45625 86.01771Q70.64375 86.76771 70.64375 88.04896Q70.64375 89.56458 70.33125 90.48646Q70.03438 91.40833 69.40938 91.92396Q68.8 92.42396 67.84688 92.42396Q66.6125 92.42396 65.89375 91.53333Q65.05 90.47083 65.05 88.04896ZM66.12813 88.04896Q66.12813 90.15833 66.62813 90.86146Q67.12813 91.56458 67.84688 91.56458Q68.58125 91.56458 69.06563 90.86146Q69.56563 90.15833 69.56563 88.04896Q69.56563 85.92396 69.06563 85.23646Q68.58125 84.53333 67.83125 84.53333Q67.1125 84.53333 66.675 85.14271Q66.12813 85.92396 66.12813 88.04896ZM72.05 88.04896Q72.05 86.51771 72.3625 85.59583Q72.675 84.65833 73.28438 84.15833Q73.90938 83.65833 74.84688 83.65833Q75.53438 83.65833 76.05 83.93958Q76.58125 84.22083 76.925 84.75208Q77.26875 85.26771 77.45625 86.01771Q77.64375 86.76771 77.64375 88.04896Q77.64375 89.56458 77.33125 90.48646Q77.03438 91.40833 76.40938 91.92396Q75.8 92.42396 74.84688 92.42396Q73.6125 92.42396 72.89375 91.53333Q72.05 90.47083 72.05 88.04896ZM73.12813 88.04896Q73.12813 90.15833 73.62813 90.86146Q74.12813 91.56458 74.84688 91.56458Q75.58125 91.56458 76.06563 90.86146Q76.56563 90.15833 76.56563 88.04896Q76.56563 85.92396 76.06563 85.23646Q75.58125 84.53333 74.83125 84.53333Q74.1125 84.53333 73.675 85.14271Q73.12813 85.92396 73.12813 88.04896ZM79.05 88.04896Q79.05 86.51771 79.3625 85.59583Q79.675 84.65833 80.28438 84.15833Q80.90938 83.65833 81.84688 83.65833Q82.53438 83.65833 83.05 83.93958Q83.58125 84.22083 83.925 84.75208Q84.26875 85.26771 84.45625 86.01771Q84.64375 86.76771 84.64375 88.04896Q84.64375 89.56458 84.33125 90.48646Q84.03438 91.40833 83.40938 91.92396Q82.8 92.42396 81.84688 92.42396Q80.6125 92.42396 79.89375 91.53333Q79.05 90.47083 79.05 88.04896ZM80.12813 88.04896Q80.12813 90.15833 80.62813 90.86146Q81.12813 91.56458 81.84688 91.56458Q82.58125 91.56458 83.06563 90.86146Q83.56563 90.15833 83.56563 88.04896Q83.56563 85.92396 83.06563 85.23646Q82.58125 84.53333 81.83125 84.53333Q81.1125 84.53333 80.675 85.14271Q80.12813 85.92396 80.12813 88.04896Z" fill-rule="nonzero"/><path fill="#000000" d="M95.12284 313.21564Q95.12284 311.6844 95.43534 310.7625Q95.74784 309.825 96.357216 309.325Q96.982216 308.825 97.919716 308.825Q98.607216 308.825 99.12284 309.10626Q99.65409 309.3875 99.99784 309.91876Q100.34159 310.4344 100.52909 311.1844Q100.71659 311.9344 100.71659 313.21564Q100.71659 314.73126 100.40409 315.65314Q100.107216 316.575 99.482216 317.09064Q98.87284 317.59064 97.919716 317.59064Q96.68534 317.59064 95.96659 316.7Q95.12284 315.6375 95.12284 313.21564ZM96.200966 313.21564Q96.200966 315.325 96.700966 316.02814Q97.200966 316.73126 97.919716 316.73126Q98.65409 316.73126 99.138466 316.02814Q99.638466 315.325 99.638466 313.21564Q99.638466 311.09064 99.138466 310.40314Q98.65409 309.7 97.90409 309.7Q97.18534 309.7 96.74784 310.3094Q96.200966 311.09064 96.200966 313.21564Z" fill-rule="nonzero"/><path fill="#000000" d="M204.92989 317.45L203.88301 317.45L203.88301 310.73126Q203.49239 311.09064 202.86739 311.46564Q202.25801 311.825 201.77364 311.9969L201.77364 310.98126Q202.64864 310.5594 203.30489 309.98126Q203.97676 309.3875 204.25801 308.825L204.92989 308.825L204.92989 317.45ZM207.96114 313.21564Q207.96114 311.6844 208.27364 310.7625Q208.58614 309.825 209.19551 309.325Q209.82051 308.825 210.75801 308.825Q211.44551 308.825 211.96114 309.10626Q212.49239 309.3875 212.83614 309.91876Q213.17989 310.4344 213.36739 311.1844Q213.55489 311.9344 213.55489 313.21564Q213.55489 314.73126 213.24239 315.65314Q212.94551 316.575 212.32051 317.09064Q211.71114 317.59064 210.75801 317.59064Q209.52364 317.59064 208.80489 316.7Q207.96114 315.6375 207.96114 313.21564ZM209.03926 313.21564Q209.03926 315.325 209.53926 316.02814Q210.03926 316.73126 210.75801 316.73126Q211.49239 316.73126 211.97676 316.02814Q212.47676 315.325 212.47676 313.21564Q212.47676 311.09064 211.97676 310.40314Q211.49239 309.7 210.74239 309.7Q210.02364 309.7 209.58614 310.3094Q209.03926 311.09064 209.03926 313.21564ZM214.96114 313.21564Q214.96114 311.6844 215.27364 310.7625Q215.58614 309.825 216.19551 309.325Q216.82051 308.825 217.75801 308.825Q218.44551 308.825 218.96114 309.10626Q219.49239 309.3875 219.83614 309.91876Q220.17989 310.4344 220.36739 311.1844Q220.55489 311.9344 220.55489 313.21564Q220.55489 314.73126 220.24239 315.65314Q219.94551 316.575 219.32051 317.09064Q218.71114 317.59064 217.75801 317.59064Q216.52364 317.59064 215.80489 316.7Q214.96114 315.6375 214.96114 313.21564ZM216.03926 313.21564Q216.03926 315.325 216.53926 316.02814Q217.03926 316.73126 217.75801 316.73126Q218.49239 316.73126 218.97676 316.02814Q219.47676 315.325 219.47676 313.21564Q219.47676 311.09064 218.97676 310.40314Q218.49239 309.7 217.74239 309.7Q217.02364 309.7 216.58614 310.3094Q216.03926 311.09064 216.03926 313.21564ZM221.96114 313.21564Q221.96114 311.6844 222.27364 310.7625Q222.58614 309.825 223.19551 309.325Q223.82051 308.825 224.75801 308.825Q225.44551 308.825 225.96114 309.10626Q226.49239 309.3875 226.83614 309.91876Q227.17989 310.4344 227.36739 311.1844Q227.55489 311.9344 227.55489 313.21564Q227.55489 314.73126 227.24239 315.65314Q226.94551 316.575 226.32051 317.09064Q225.71114 317.59064 224.75801 317.59064Q223.52364 317.59064 222.80489 316.7Q221.96114 315.6375 221.96114 313.21564ZM223.03926 313.21564Q223.03926 315.325 223.53926 316.02814Q224.03926 316.73126 224.75801 316.73126Q225.49239 316.73126 225.97676 316.02814Q226.47676 315.325 226.47676 313.21564Q226.47676 311.09064 225.97676 310.40314Q225.49239 309.7 224.74239 309.7Q224.02364 309.7 223.58614 310.3094Q223.03926 311.09064 223.03926 313.21564Z" fill-rule="nonzero"/><path fill="#000000" d="M322.8463 316.4344L322.8463 317.45L317.1588 317.45Q317.1588 317.075 317.2838 316.71564Q317.50256 316.1375 317.9713 315.575Q318.4557 315.0125 319.36194 314.27814Q320.7682 313.1219 321.25256 312.45Q321.75256 311.77814 321.75256 311.1844Q321.75256 310.5594 321.29944 310.1375Q320.8463 309.7 320.12756 309.7Q319.36194 309.7 318.9088 310.15314Q318.4557 310.60626 318.44006 311.41876L317.36194 311.3094Q317.4713 310.09064 318.19006 309.46564Q318.92444 308.825 320.1588 308.825Q321.3932 308.825 322.11194 309.5125Q322.8307 310.2 322.8307 311.21564Q322.8307 311.73126 322.61194 312.23126Q322.4088 312.71564 321.9088 313.27814Q321.42444 313.825 320.29944 314.77814Q319.3463 315.575 319.06506 315.8719Q318.79944 316.15314 318.62756 316.4344L322.8463 316.4344ZM324.29944 313.21564Q324.29944 311.6844 324.61194 310.7625Q324.92444 309.825 325.5338 309.325Q326.1588 308.825 327.0963 308.825Q327.7838 308.825 328.29944 309.10626Q328.8307 309.3875 329.17444 309.91876Q329.5182 310.4344 329.7057 311.1844Q329.8932 311.9344 329.8932 313.21564Q329.8932 314.73126 329.5807 315.65314Q329.2838 316.575 328.6588 317.09064Q328.04944 317.59064 327.0963 317.59064Q325.86194 317.59064 325.1432 316.7Q324.29944 315.6375 324.29944 313.21564ZM325.37756 313.21564Q325.37756 315.325 325.87756 316.02814Q326.37756 316.73126 327.0963 316.73126Q327.8307 316.73126 328.31506 316.02814Q328.81506 315.325 328.81506 313.21564Q328.81506 311.09064 328.31506 310.40314Q327.8307 309.7 327.0807 309.7Q326.36194 309.7 325.92444 310.3094Q325.37756 311.09064 325.37756 313.21564ZM331.29944 313.21564Q331.29944 311.6844 331.61194 310.7625Q331.92444 309.825 332.5338 309.325Q333.1588 308.825 334.0963 308.825Q334.7838 308.825 335.29944 309.10626Q335.8307 309.3875 336.17444 309.91876Q336.5182 310.4344 336.7057 311.1844Q336.8932 311.9344 336.8932 313.21564Q336.8932 314.73126 336.5807 315.65314Q336.2838 316.575 335.6588 317.09064Q335.04944 317.59064 334.0963 317.59064Q332.86194 317.59064 332.1432 316.7Q331.29944 315.6375 331.29944 313.21564ZM332.37756 313.21564Q332.37756 315.325 332.87756 316.02814Q333.37756 316.73126 334.0963 316.73126Q334.8307 316.73126 335.31506 316.02814Q335.81506 315.325 335.81506 313.21564Q335.81506 311.09064 335.31506 310.40314Q334.8307 309.7 334.0807 309.7Q333.36194 309.7 332.92444 310.3094Q332.37756 311.09064 332.37756 313.21564ZM338.29944 313.21564Q338.29944 311.6844 338.61194 310.7625Q338.92444 309.825 339.5338 309.325Q340.1588 308.825 341.0963 308.825Q341.7838 308.825 342.29944 309.10626Q342.8307 309.3875 343.17444 309.91876Q343.5182 310.4344 343.7057 311.1844Q343.8932 311.9344 343.8932 313.21564Q343.8932 314.73126 343.5807 315.65314Q343.2838 316.575 342.6588 317.09064Q342.04944 317.59064 341.0963 317.59064Q339.86194 317.59064 339.1432 316.7Q338.29944 315.6375 338.29944 313.21564ZM339.37756 313.21564Q339.37756 315.325 339.87756 316.02814Q340.37756 316.73126 341.0963 316.73126Q341.8307 316.73126 342.31506 316.02814Q342.81506 315.325 342.81506 313.21564Q342.81506 311.09064 342.31506 310.40314Q341.8307 309.7 341.0807 309.7Q340.36194 309.7 339.92444 310.3094Q339.37756 311.09064 339.37756 313.21564Z" fill-rule="nonzero"/><path fill="#000000" d="M433.63773 315.1844L434.70023 315.04376Q434.8721 315.9344 435.3096 316.34064Q435.7471 316.73126 436.3721 316.73126Q437.1221 316.73126 437.63773 316.21564Q438.15335 315.7 438.15335 314.9344Q438.15335 314.21564 437.66898 313.7469Q437.20023 313.2625 436.46585 313.2625Q436.16898 313.2625 435.71585 313.3875L435.84085 312.45Q435.95023 312.46564 436.01273 312.46564Q436.6846 312.46564 437.21585 312.1219Q437.76273 311.7625 437.76273 311.02814Q437.76273 310.45 437.3721 310.075Q436.98148 309.6844 436.35648 309.6844Q435.7471 309.6844 435.32523 310.075Q434.91898 310.46564 434.8096 311.23126L433.7471 311.04376Q433.9346 309.9969 434.6221 309.41876Q435.3096 308.825 436.32523 308.825Q437.02835 308.825 437.6221 309.1375Q438.21585 309.4344 438.52835 309.95Q438.84085 310.46564 438.84085 311.0594Q438.84085 311.60626 438.54398 312.075Q438.2471 312.52814 437.66898 312.79376Q438.41898 312.96564 438.84085 313.52814Q439.26273 314.075 439.26273 314.91876Q439.26273 316.04376 438.4346 316.825Q437.6221 317.60626 436.3721 317.60626Q435.2471 317.60626 434.4971 316.9344Q433.7471 316.2469 433.63773 315.1844ZM440.63773 313.21564Q440.63773 311.6844 440.95023 310.7625Q441.26273 309.825 441.8721 309.325Q442.4971 308.825 443.4346 308.825Q444.1221 308.825 444.63773 309.10626Q445.16898 309.3875 445.51273 309.91876Q445.85648 310.4344 446.04398 311.1844Q446.23148 311.9344 446.23148 313.21564Q446.23148 314.73126 445.91898 315.65314Q445.6221 316.575 444.9971 317.09064Q444.38773 317.59064 443.4346 317.59064Q442.20023 317.59064 441.48148 316.7Q440.63773 315.6375 440.63773 313.21564ZM441.71585 313.21564Q441.71585 315.325 442.21585 316.02814Q442.71585 316.73126 443.4346 316.73126Q444.16898 316.73126 444.65335 316.02814Q445.15335 315.325 445.15335 313.21564Q445.15335 311.09064 444.65335 310.40314Q444.16898 309.7 443.41898 309.7Q442.70023 309.7 442.26273 310.3094Q441.71585 311.09064 441.71585 313.21564ZM447.63773 313.21564Q447.63773 311.6844 447.95023 310.7625Q448.26273 309.825 448.8721 309.325Q449.4971 308.825 450.4346 308.825Q451.1221 308.825 451.63773 309.10626Q452.16898 309.3875 452.51273 309.91876Q452.85648 310.4344 453.04398 311.1844Q453.23148 311.9344 453.23148 313.21564Q453.23148 314.73126 452.91898 315.65314Q452.6221 316.575 451.9971 317.09064Q451.38773 317.59064 450.4346 317.59064Q449.20023 317.59064 448.48148 316.7Q447.63773 315.6375 447.63773 313.21564ZM448.71585 313.21564Q448.71585 315.325 449.21585 316.02814Q449.71585 316.73126 450.4346 316.73126Q451.16898 316.73126 451.65335 316.02814Q452.15335 315.325 452.15335 313.21564Q452.15335 311.09064 451.65335 310.40314Q451.16898 309.7 450.41898 309.7Q449.70023 309.7 449.26273 310.3094Q448.71585 311.09064 448.71585 313.21564ZM454.63773 313.21564Q454.63773 311.6844 454.95023 310.7625Q455.26273 309.825 455.8721 309.325Q456.4971 308.825 457.4346 308.825Q458.1221 308.825 458.63773 309.10626Q459.16898 309.3875 459.51273 309.91876Q459.85648 310.4344 460.04398 311.1844Q460.23148 311.9344 460.23148 313.21564Q460.23148 314.73126 459.91898 315.65314Q459.6221 316.575 458.9971 317.09064Q458.38773 317.59064 457.4346 317.59064Q456.20023 317.59064 455.48148 316.7Q454.63773 315.6375 454.63773 313.21564ZM455.71585 313.21564Q455.71585 315.325 456.21585 316.02814Q456.71585 316.73126 457.4346 316.73126Q458.16898 316.73126 458.65335 316.02814Q459.15335 315.325 459.15335 313.21564Q459.15335 311.09064 458.65335 310.40314Q458.16898 309.7 457.41898 309.7Q456.70023 309.7 456.26273 310.3094Q455.71585 311.09064 455.71585 313.21564Z" fill-rule="nonzero"/><path fill="#000000" d="M553.351 317.45L553.351 315.3875L549.63226 315.3875L549.63226 314.41876L553.55414 308.85626L554.4135 308.85626L554.4135 314.41876L555.56976 314.41876L555.56976 315.3875L554.4135 315.3875L554.4135 317.45L553.351 317.45ZM553.351 314.41876L553.351 310.5594L550.6635 314.41876L553.351 314.41876ZM556.976 313.21564Q556.976 311.6844 557.2885 310.7625Q557.601 309.825 558.2104 309.325Q558.8354 308.825 559.7729 308.825Q560.4604 308.825 560.976 309.10626Q561.50726 309.3875 561.851 309.91876Q562.19476 310.4344 562.38226 311.1844Q562.56976 311.9344 562.56976 313.21564Q562.56976 314.73126 562.25726 315.65314Q561.9604 316.575 561.3354 317.09064Q560.726 317.59064 559.7729 317.59064Q558.5385 317.59064 557.81976 316.7Q556.976 315.6375 556.976 313.21564ZM558.05414 313.21564Q558.05414 315.325 558.55414 316.02814Q559.05414 316.73126 559.7729 316.73126Q560.50726 316.73126 560.99164 316.02814Q561.49164 315.325 561.49164 313.21564Q561.49164 311.09064 560.99164 310.40314Q560.50726 309.7 559.75726 309.7Q559.0385 309.7 558.601 310.3094Q558.05414 311.09064 558.05414 313.21564ZM563.976 313.21564Q563.976 311.6844 564.2885 310.7625Q564.601 309.825 565.2104 309.325Q565.8354 308.825 566.7729 308.825Q567.4604 308.825 567.976 309.10626Q568.50726 309.3875 568.851 309.91876Q569.19476 310.4344 569.38226 311.1844Q569.56976 311.9344 569.56976 313.21564Q569.56976 314.73126 569.25726 315.65314Q568.9604 316.575 568.3354 317.09064Q567.726 317.59064 566.7729 317.59064Q565.5385 317.59064 564.81976 316.7Q563.976 315.6375 563.976 313.21564ZM565.05414 313.21564Q565.05414 315.325 565.55414 316.02814Q566.05414 316.73126 566.7729 316.73126Q567.50726 316.73126 567.99164 316.02814Q568.49164 315.325 568.49164 313.21564Q568.49164 311.09064 567.99164 310.40314Q567.50726 309.7 566.75726 309.7Q566.0385 309.7 565.601 310.3094Q565.05414 311.09064 565.05414 313.21564ZM570.976 313.21564Q570.976 311.6844 571.2885 310.7625Q571.601 309.825 572.2104 309.325Q572.8354 308.825 573.7729 308.825Q574.4604 308.825 574.976 309.10626Q575.50726 309.3875 575.851 309.91876Q576.19476 310.4344 576.38226 311.1844Q576.56976 311.9344 576.56976 313.21564Q576.56976 314.73126 576.25726 315.65314Q575.9604 316.575 575.3354 317.09064Q574.726 317.59064 573.7729 317.59064Q572.5385 317.59064 571.81976 316.7Q570.976 315.6375 570.976 313.21564ZM572.05414 313.21564Q572.05414 315.325 572.55414 316.02814Q573.05414 316.73126 573.7729 316.73126Q574.50726 316.73126 574.99164 316.02814Q575.49164 315.325 575.49164 313.21564Q575.49164 311.09064 574.99164 310.40314Q574.50726 309.7 573.75726 309.7Q573.0385 309.7 572.601 310.3094Q572.05414 311.09064 572.05414 313.21564Z" fill-rule="nonzero"/><path fill="#4285f4" d="M211.5 61.916668C211.5 65.23038 208.8137 67.916664 205.5 67.916664C202.1863 67.916664 199.5 65.23038 199.5 61.916668C199.5 58.60296 202.1863 55.916668 205.5 55.916668C208.8137 55.916668 211.5 58.60296 211.5 61.916668Z" fill-rule="nonzero"/><path stroke="#4285f4" stroke-width="4.0" stroke-linecap="butt" stroke-opacity="0.5019608" d="M227.5 61.916668L239.5 61.916668" fill-rule="nonzero"/><path fill="#1a1a1a" d="M250.60938 65.916664L250.60938 58.33854L247.78125 58.33854L247.78125 57.322914L254.59375 57.322914L254.59375 58.33854L251.75 58.33854L251.75 65.916664L250.60938 65.916664ZM255.28125 65.916664L255.28125 59.697914L256.23438 59.697914L256.23438 60.635414Q256.59375 59.979164 256.89062 59.77604Q257.20312 59.55729 257.57812 59.55729Q258.10938 59.55729 258.65625 59.885414L258.29688 60.86979Q257.90625 60.635414 257.53125 60.635414Q257.17188 60.635414 256.89062 60.854164Q256.625 61.05729 256.51562 61.43229Q256.32812 61.99479 256.32812 62.65104L256.32812 65.916664L255.28125 65.916664ZM263.54688 63.916664L264.64062 64.041664Q264.39062 64.99479 263.6875 65.52604Q262.98438 66.05729 261.90625 66.05729Q260.54688 66.05729 259.73438 65.21354Q258.9375 64.36979 258.9375 62.854164Q258.9375 61.291664 259.75 60.43229Q260.5625 59.55729 261.84375 59.55729Q263.09375 59.55729 263.875 60.40104Q264.67188 61.24479 264.67188 62.791664Q264.67188 62.885414 264.67188 63.072914L260.03125 63.072914Q260.09375 64.104164 260.60938 64.65104Q261.125 65.18229 261.90625 65.18229Q262.48438 65.18229 262.89062 64.885414Q263.3125 64.572914 263.54688 63.916664ZM260.09375 62.21354L263.5625 62.21354Q263.5 61.416664 263.17188 61.02604Q262.65625 60.416664 261.85938 60.416664Q261.125 60.416664 260.625 60.90104Q260.14062 61.385414 260.09375 62.21354ZM266.29688 65.916664L266.29688 59.697914L267.23438 59.697914L267.23438 60.572914Q267.92188 59.55729 269.21875 59.55729Q269.78125 59.55729 270.25 59.760414Q270.73438 59.96354 270.96875 60.291664Q271.20312 60.61979 271.29688 61.05729Q271.34375 61.354164 271.34375 62.08854L271.34375 65.916664L270.29688 65.916664L270.29688 62.135414Q270.29688 61.479164 270.17188 61.166664Q270.04688 60.854164 269.73438 60.666664Q269.42188 60.46354 269.0 60.46354Q268.32812 60.46354 267.82812 60.90104Q267.34375 61.322914 267.34375 62.510414L267.34375 65.916664L266.29688 65.916664ZM277.32812 65.916664L277.32812 65.135414Q276.73438 66.05729 275.59375 66.05729Q274.84375 66.05729 274.21875 65.65104Q273.59375 65.229164 273.25 64.49479Q272.90625 63.760414 272.90625 62.80729Q272.90625 61.885414 273.21875 61.11979Q273.53125 60.354164 274.15625 59.96354Q274.78125 59.55729 275.54688 59.55729Q276.10938 59.55729 276.54688 59.791664Q276.98438 60.02604 277.26562 60.40104L277.26562 57.322914L278.3125 57.322914L278.3125 65.916664L277.32812 65.916664ZM274.0 62.80729Q274.0 64.010414 274.5 64.604164Q275.0 65.18229 275.6875 65.18229Q276.375 65.18229 276.85938 64.61979Q277.34375 64.05729 277.34375 62.90104Q277.34375 61.61979 276.84375 61.02604Q276.35938 60.43229 275.64062 60.43229Q274.9375 60.43229 274.46875 61.010414Q274.0 61.572914 274.0 62.80729ZM280.26562 65.916664L280.26562 57.322914L281.32812 57.322914L281.32812 65.916664L280.26562 65.916664ZM283.29688 58.541664L283.29688 57.322914L284.35938 57.322914L284.35938 58.541664L283.29688 58.541664ZM283.29688 65.916664L283.29688 59.697914L284.35938 59.697914L284.35938 65.916664L283.29688 65.916664ZM286.29688 65.916664L286.29688 59.697914L287.23438 59.697914L287.23438 60.572914Q287.92188 59.55729 289.21875 59.55729Q289.78125 59.55729 290.25 59.760414Q290.73438 59.96354 290.96875 60.291664Q291.20312 60.61979 291.29688 61.05729Q291.34375 61.354164 291.34375 62.08854L291.34375 65.916664L290.29688 65.916664L290.29688 62.135414Q290.29688 61.479164 290.17188 61.166664Q290.04688 60.854164 289.73438 60.666664Q289.42188 60.46354 289.0 60.46354Q288.32812 60.46354 287.82812 60.90104Q287.34375 61.322914 287.34375 62.510414L287.34375 65.916664L286.29688 65.916664ZM297.54688 63.916664L298.64062 64.041664Q298.39062 64.99479 297.6875 65.52604Q296.98438 66.05729 295.90625 66.05729Q294.54688 66.05729 293.73438 65.21354Q292.9375 64.36979 292.9375 62.854164Q292.9375 61.291664 293.75 60.43229Q294.5625 59.55729 295.84375 59.55729Q297.09375 59.55729 297.875 60.40104Q298.67188 61.24479 298.67188 62.791664Q298.67188 62.885414 298.67188 63.072914L294.03125 63.072914Q294.09375 64.104164 294.60938 64.65104Q295.125 65.18229 295.90625 65.18229Q296.48438 65.18229 296.89062 64.885414Q297.3125 64.572914 297.54688 63.916664ZM294.09375 62.21354L297.5625 62.21354Q297.5 61.416664 297.17188 61.02604Q296.65625 60.416664 295.85938 60.416664Q295.125 60.416664 294.625 60.90104Q294.14062 61.385414 294.09375 62.21354ZM303.54688 65.916664L303.54688 60.510414L302.60938 60.510414L302.60938 59.697914L303.54688 59.697914L303.54688 59.02604Q303.54688 58.40104 303.65625 58.104164Q303.8125 57.68229 304.1875 57.43229Q304.57812 57.18229 305.26562 57.18229Q305.71875 57.18229 306.25 57.291664L306.09375 58.197914Q305.76562 58.15104 305.46875 58.15104Q304.98438 58.15104 304.78125 58.354164Q304.59375 58.55729 304.59375 59.11979L304.59375 59.697914L305.8125 59.697914L305.8125 60.510414L304.59375 60.510414L304.59375 65.916664L303.54688 65.916664ZM305.90625 62.80729Q305.90625 61.072914 306.85938 60.24479Q307.65625 59.55729 308.8125 59.55729Q310.09375 59.55729 310.90625 60.40104Q311.73438 61.229164 311.73438 62.71354Q311.73438 63.916664 311.375 64.604164Q311.01562 65.291664 310.3125 65.68229Q309.625 66.05729 308.8125 66.05729Q307.51562 66.05729 306.70312 65.229164Q305.90625 64.385414 305.90625 62.80729ZM306.98438 62.80729Q306.98438 63.99479 307.5 64.58854Q308.03125 65.18229 308.8125 65.18229Q309.60938 65.18229 310.125 64.58854Q310.64062 63.99479 310.64062 62.77604Q310.64062 61.61979 310.10938 61.02604Q309.59375 60.43229 308.8125 60.43229Q308.03125 60.43229 307.5 61.02604Q306.98438 61.604164 306.98438 62.80729ZM313.28125 65.916664L313.28125 59.697914L314.23438 59.697914L314.23438 60.635414Q314.59375 59.979164 314.89062 59.77604Q315.20312 59.55729 315.57812 59.55729Q316.10938 59.55729 316.65625 59.885414L316.29688 60.86979Q315.90625 60.635414 315.53125 60.635414Q315.17188 60.635414 314.89062 60.854164Q314.625 61.05729 314.51562 61.43229Q314.32812 61.99479 314.32812 62.65104L314.32812 65.916664L313.28125 65.916664ZM319.875 64.05729L320.90625 63.90104Q321.0 64.52604 321.39062 64.854164Q321.79688 65.18229 322.53125 65.18229Q323.25 65.18229 323.59375 64.90104Q323.95312 64.604164 323.95312 64.197914Q323.95312 63.83854 323.64062 63.635414Q323.42188 63.49479 322.5625 63.27604Q321.40625 62.979164 320.95312 62.77604Q320.51562 62.55729 320.28125 62.18229Q320.04688 61.80729 320.04688 61.33854Q320.04688 60.93229 320.23438 60.572914Q320.42188 60.21354 320.75 59.979164Q321.0 59.80729 321.42188 59.68229Q321.84375 59.55729 322.34375 59.55729Q323.0625 59.55729 323.60938 59.77604Q324.17188 59.979164 324.4375 60.33854Q324.70312 60.697914 324.79688 61.291664L323.76562 61.43229Q323.70312 60.96354 323.35938 60.697914Q323.03125 60.416664 322.40625 60.416664Q321.6875 60.416664 321.375 60.666664Q321.0625 60.90104 321.0625 61.229164Q321.0625 61.43229 321.1875 61.58854Q321.32812 61.760414 321.59375 61.86979Q321.75 61.93229 322.53125 62.135414Q323.65625 62.447914 324.09375 62.635414Q324.53125 62.822914 324.78125 63.18229Q325.03125 63.541664 325.03125 64.08854Q325.03125 64.61979 324.71875 65.08854Q324.42188 65.541664 323.84375 65.80729Q323.26562 66.05729 322.53125 66.05729Q321.3125 66.05729 320.67188 65.55729Q320.04688 65.041664 319.875 64.05729ZM331.54688 63.916664L332.64062 64.041664Q332.39062 64.99479 331.6875 65.52604Q330.98438 66.05729 329.90625 66.05729Q328.54688 66.05729 327.73438 65.21354Q326.9375 64.36979 326.9375 62.854164Q326.9375 61.291664 327.75 60.43229Q328.5625 59.55729 329.84375 59.55729Q331.09375 59.55729 331.875 60.40104Q332.67188 61.24479 332.67188 62.791664Q332.67188 62.885414 332.67188 63.072914L328.03125 63.072914Q328.09375 64.104164 328.60938 64.65104Q329.125 65.18229 329.90625 65.18229Q330.48438 65.18229 330.89062 64.885414Q331.3125 64.572914 331.54688 63.916664ZM328.09375 62.21354L331.5625 62.21354Q331.5 61.416664 331.17188 61.02604Q330.65625 60.416664 329.85938 60.416664Q329.125 60.416664 328.625 60.90104Q328.14062 61.385414 328.09375 62.21354ZM334.28125 65.916664L334.28125 59.697914L335.23438 59.697914L335.23438 60.635414Q335.59375 59.979164 335.89062 59.77604Q336.20312 59.55729 336.57812 59.55729Q337.10938 59.55729 337.65625 59.885414L337.29688 60.86979Q336.90625 60.635414 336.53125 60.635414Q336.17188 60.635414 335.89062 60.854164Q335.625 61.05729 335.51562 61.43229Q335.32812 61.99479 335.32812 62.65104L335.32812 65.916664L334.28125 65.916664ZM338.29688 58.541664L338.29688 57.322914L339.35938 57.322914L339.35938 58.541664L338.29688 58.541664ZM338.29688 65.916664L338.29688 59.697914L339.35938 59.697914L339.35938 65.916664L338.29688 65.916664ZM345.54688 63.916664L346.64062 64.041664Q346.39062 64.99479 345.6875 65.52604Q344.98438 66.05729 343.90625 66.05729Q342.54688 66.05729 341.73438 65.21354Q340.9375 64.36979 340.9375 62.854164Q340.9375 61.291664 341.75 60.43229Q342.5625 59.55729 343.84375 59.55729Q345.09375 59.55729 345.875 60.40104Q346.67188 61.24479 346.67188 62.791664Q346.67188 62.885414 346.67188 63.072914L342.03125 63.072914Q342.09375 64.104164 342.60938 64.65104Q343.125 65.18229 343.90625 65.18229Q344.48438 65.18229 344.89062 64.885414Q345.3125 64.572914 345.54688 63.916664ZM342.09375 62.21354L345.5625 62.21354Q345.5 61.416664 345.17188 61.02604Q344.65625 60.416664 343.85938 60.416664Q343.125 60.416664 342.625 60.90104Q342.14062 61.385414 342.09375 62.21354ZM347.875 64.05729L348.90625 63.90104Q349.0 64.52604 349.39062 64.854164Q349.79688 65.18229 350.53125 65.18229Q351.25 65.18229 351.59375 64.90104Q351.95312 64.604164 351.95312 64.197914Q351.95312 63.83854 351.64062 63.635414Q351.42188 63.49479 350.5625 63.27604Q349.40625 62.979164 348.95312 62.77604Q348.51562 62.55729 348.28125 62.18229Q348.04688 61.80729 348.04688 61.33854Q348.04688 60.93229 348.23438 60.572914Q348.42188 60.21354 348.75 59.979164Q349.0 59.80729 349.42188 59.68229Q349.84375 59.55729 350.34375 59.55729Q351.0625 59.55729 351.60938 59.77604Q352.17188 59.979164 352.4375 60.33854Q352.70312 60.697914 352.79688 61.291664L351.76562 61.43229Q351.70312 60.96354 351.35938 60.697914Q351.03125 60.416664 350.40625 60.416664Q349.6875 60.416664 349.375 60.666664Q349.0625 60.90104 349.0625 61.229164Q349.0625 61.43229 349.1875 61.58854Q349.32812 61.760414 349.59375 61.86979Q349.75 61.93229 350.53125 62.135414Q351.65625 62.447914 352.09375 62.635414Q352.53125 62.822914 352.78125 63.18229Q353.03125 63.541664 353.03125 64.08854Q353.03125 64.61979 352.71875 65.08854Q352.42188 65.541664 351.84375 65.80729Q351.26562 66.05729 350.53125 66.05729Q349.3125 66.05729 348.67188 65.55729Q348.04688 65.041664 347.875 64.05729ZM361.96875 65.916664L360.92188 65.916664L360.92188 59.197914Q360.53125 59.55729 359.90625 59.93229Q359.29688 60.291664 358.8125 60.46354L358.8125 59.447914Q359.6875 59.02604 360.34375 58.447914Q361.01562 57.854164 361.29688 57.291664L361.96875 57.291664L361.96875 65.916664ZM368.4375 65.916664L368.4375 57.322914L372.25 57.322914Q373.40625 57.322914 374.0 57.55729Q374.59375 57.791664 374.95312 58.385414Q375.3125 58.96354 375.3125 59.666664Q375.3125 60.58854 374.71875 61.21354Q374.125 61.83854 372.89062 62.010414Q373.34375 62.229164 373.57812 62.43229Q374.07812 62.885414 374.51562 63.572914L376.01562 65.916664L374.57812 65.916664L373.45312 64.135414Q372.95312 63.354164 372.625 62.947914Q372.3125 62.541664 372.04688 62.385414Q371.79688 62.21354 371.53125 62.135414Q371.34375 62.104164 370.90625 62.104164L369.57812 62.104164L369.57812 65.916664L368.4375 65.916664ZM369.57812 61.11979L372.03125 61.11979Q372.79688 61.11979 373.23438 60.96354Q373.6875 60.791664 373.90625 60.447914Q374.14062 60.08854 374.14062 59.666664Q374.14062 59.05729 373.6875 58.666664Q373.25 58.27604 372.29688 58.27604L369.57812 58.27604L369.57812 61.11979ZM376.64062 61.61979Q376.6875 61.291664 376.92188 60.947914Q377.29688 60.447914 378.14062 59.83854Q378.98438 59.229164 379.14062 59.041664Q379.35938 58.80729 379.35938 58.55729Q379.35938 58.27604 379.14062 58.104164Q378.9375 57.916664 378.54688 57.916664Q378.15625 57.916664 377.96875 58.05729Q377.78125 58.18229 377.65625 58.572914L376.76562 58.479164Q376.9375 57.83854 377.35938 57.52604Q377.78125 57.21354 378.5625 57.21354Q379.45312 57.21354 379.85938 57.572914Q380.28125 57.916664 380.28125 58.416664Q380.28125 58.90104 379.92188 59.33854Q379.67188 59.666664 378.73438 60.33854Q378.23438 60.697914 378.03125 60.916664L380.29688 60.916664L380.29688 61.61979L376.64062 61.61979ZM389.84375 60.86979L384.17188 60.86979L384.17188 59.885414L389.84375 59.885414L389.84375 60.86979ZM389.84375 63.479164L384.17188 63.479164L384.17188 62.49479L389.84375 62.49479L389.84375 63.479164ZM397.96875 65.916664L396.92188 65.916664L396.92188 59.197914Q396.53125 59.55729 395.90625 59.93229Q395.29688 60.291664 394.8125 60.46354L394.8125 59.447914Q395.6875 59.02604 396.34375 58.447914Q397.01562 57.854164 397.29688 57.291664L397.96875 57.291664L397.96875 65.916664Z" fill-rule="nonzero"/><path fill="#757575" d="M19.45625 32.95625L21.2375 32.8Q21.3625 33.8625 21.815624 34.55Q22.284374 35.2375 23.253124 35.675Q24.2375 36.096874 25.471874 36.096874Q26.55 36.096874 27.378124 35.784374Q28.20625 35.45625 28.6125 34.89375Q29.01875 34.33125 29.01875 33.659374Q29.01875 32.9875 28.628124 32.4875Q28.2375 31.9875 27.346874 31.64375Q26.76875 31.409374 24.784374 30.940624Q22.815624 30.471874 22.034374 30.05Q21.003124 29.51875 20.503124 28.721874Q20.003124 27.925 20.003124 26.940624Q20.003124 25.846874 20.6125 24.909374Q21.221874 23.971874 22.409374 23.4875Q23.596874 22.9875 25.034374 22.9875Q26.628124 22.9875 27.846874 23.503124Q29.065624 24.01875 29.70625 25.01875Q30.3625 26.003124 30.409374 27.26875L28.596874 27.409374Q28.45625 26.05 27.6125 25.3625Q26.76875 24.659374 25.1125 24.659374Q23.39375 24.659374 22.596874 25.3Q21.815624 25.925 21.815624 26.8Q21.815624 27.58125 22.378124 28.08125Q22.925 28.58125 25.2375 29.096874Q27.55 29.6125 28.409374 30.003124Q29.659374 30.58125 30.253124 31.471874Q30.846874 32.346874 30.846874 33.503124Q30.846874 34.64375 30.190624 35.659374Q29.534374 36.675 28.3 37.2375Q27.08125 37.8 25.55 37.8Q23.6125 37.8 22.3 37.2375Q20.9875 36.659374 20.2375 35.51875Q19.4875 34.378124 19.45625 32.95625ZM36.70625 35.971874L36.95625 37.534374Q36.221874 37.690624 35.628124 37.690624Q34.675 37.690624 34.14375 37.39375Q33.628124 37.08125 33.409374 36.596874Q33.190624 36.096874 33.190624 34.51875L33.190624 28.55L31.909374 28.55L31.909374 27.175L33.190624 27.175L33.190624 24.6125L34.940624 23.55L34.940624 27.175L36.70625 27.175L36.70625 28.55L34.940624 28.55L34.940624 34.6125Q34.940624 35.3625 35.034374 35.58125Q35.128124 35.784374 35.33125 35.925Q35.55 36.05 35.940624 36.05Q36.221874 36.05 36.70625 35.971874ZM45.64375 36.26875Q44.659374 37.096874 43.753124 37.440624Q42.846874 37.784374 41.815624 37.784374Q40.1125 37.784374 39.190624 36.95625Q38.26875 36.1125 38.26875 34.815624Q38.26875 34.05 38.6125 33.425Q38.971874 32.8 39.534374 32.425Q40.096874 32.034374 40.8 31.83125Q41.315624 31.70625 42.3625 31.565624Q44.4875 31.315624 45.4875 30.971874Q45.503124 30.6125 45.503124 30.503124Q45.503124 29.440624 45.003124 28.9875Q44.33125 28.39375 43.003124 28.39375Q41.753124 28.39375 41.159374 28.83125Q40.58125 29.26875 40.3 30.378124L38.58125 30.14375Q38.815624 29.034374 39.346874 28.3625Q39.878124 27.675 40.89375 27.315624Q41.909374 26.940624 43.253124 26.940624Q44.58125 26.940624 45.409374 27.253124Q46.2375 27.565624 46.628124 28.05Q47.01875 28.51875 47.175 29.2375Q47.26875 29.690624 47.26875 30.8625L47.26875 33.20625Q47.26875 35.659374 47.378124 36.315624Q47.4875 36.95625 47.83125 37.55L45.9875 37.55Q45.721874 37.003124 45.64375 36.26875ZM45.4875 32.346874Q44.534374 32.7375 42.6125 33.003124Q41.534374 33.159374 41.08125 33.3625Q40.64375 33.55 40.39375 33.925Q40.14375 34.3 40.14375 34.76875Q40.14375 35.471874 40.675 35.940624Q41.20625 36.409374 42.2375 36.409374Q43.253124 36.409374 44.034374 35.971874Q44.83125 35.51875 45.20625 34.753124Q45.4875 34.14375 45.4875 32.9875L45.4875 32.346874ZM56.64375 33.753124L58.3625 33.971874Q58.08125 35.76875 56.909374 36.784374Q55.753124 37.784374 54.05 37.784374Q51.925 37.784374 50.628124 36.39375Q49.33125 35.003124 49.33125 32.409374Q49.33125 30.721874 49.878124 29.471874Q50.440624 28.20625 51.58125 27.58125Q52.721874 26.940624 54.065624 26.940624Q55.753124 26.940624 56.815624 27.8Q57.89375 28.659374 58.20625 30.221874L56.4875 30.4875Q56.253124 29.440624 55.628124 28.925Q55.003124 28.39375 54.128124 28.39375Q52.8 28.39375 51.971874 29.346874Q51.14375 30.3 51.14375 32.346874Q51.14375 34.440624 51.940624 35.39375Q52.7375 36.33125 54.034374 36.33125Q55.065624 36.33125 55.753124 35.70625Q56.45625 35.065624 56.64375 33.753124ZM59.878124 37.55L59.878124 23.2375L61.64375 23.2375L61.64375 31.39375L65.8 27.175L68.06563 27.175L64.1125 31.01875L68.47188 37.55L66.3 37.55L62.878124 32.253124L61.64375 33.440624L61.64375 37.55L59.878124 37.55ZM69.45625 32.95625L71.2375 32.8Q71.3625 33.8625 71.81563 34.55Q72.28438 35.2375 73.25313 35.675Q74.2375 36.096874 75.47188 36.096874Q76.55 36.096874 77.37813 35.784374Q78.20625 35.45625 78.6125 34.89375Q79.01875 34.33125 79.01875 33.659374Q79.01875 32.9875 78.62813 32.4875Q78.2375 31.9875 77.34688 31.64375Q76.76875 31.409374 74.78438 30.940624Q72.81563 30.471874 72.03438 30.05Q71.00313 29.51875 70.50313 28.721874Q70.00313 27.925 70.00313 26.940624Q70.00313 25.846874 70.6125 24.909374Q71.22188 23.971874 72.40938 23.4875Q73.59688 22.9875 75.03438 22.9875Q76.62813 22.9875 77.84688 23.503124Q79.06563 24.01875 79.70625 25.01875Q80.3625 26.003124 80.40938 27.26875L78.59688 27.409374Q78.45625 26.05 77.6125 25.3625Q76.76875 24.659374 75.1125 24.659374Q73.39375 24.659374 72.59688 25.3Q71.81563 25.925 71.81563 26.8Q71.81563 27.58125 72.37813 28.08125Q72.925 28.58125 75.2375 29.096874Q77.55 29.6125 78.40938 30.003124Q79.65938 30.58125 80.25313 31.471874Q80.84688 32.346874 80.84688 33.503124Q80.84688 34.64375 80.19063 35.659374Q79.53438 36.675 78.3 37.2375Q77.08125 37.8 75.55 37.8Q73.6125 37.8 72.3 37.2375Q70.9875 36.659374 70.2375 35.51875Q69.4875 34.378124 69.45625 32.95625ZM89.64375 33.753124L91.3625 33.971874Q91.08125 35.76875 89.90938 36.784374Q88.75313 37.784374 87.05 37.784374Q84.925 37.784374 83.62813 36.39375Q82.33125 35.003124 82.33125 32.409374Q82.33125 30.721874 82.87813 29.471874Q83.44063 28.20625 84.58125 27.58125Q85.72188 26.940624 87.06563 26.940624Q88.75313 26.940624 89.81563 27.8Q90.89375 28.659374 91.20625 30.221874L89.4875 30.4875Q89.25313 29.440624 88.62813 28.925Q88.00313 28.39375 87.12813 28.39375Q85.8 28.39375 84.97188 29.346874Q84.14375 30.3 84.14375 32.346874Q84.14375 34.440624 84.94063 35.39375Q85.7375 36.33125 87.03438 36.33125Q88.06563 36.33125 88.75313 35.70625Q89.45625 35.065624 89.64375 33.753124ZM92.84688 37.55L92.84688 27.175L94.425 27.175L94.425 28.753124Q95.03438 27.64375 95.55 27.3Q96.06563 26.940624 96.675 26.940624Q97.56563 26.940624 98.4875 27.503124L97.87813 29.14375Q97.2375 28.753124 96.59688 28.753124Q96.01875 28.753124 95.55 29.1125Q95.09688 29.45625 94.89375 30.065624Q94.6125 31.003124 94.6125 32.1125L94.6125 37.55L92.84688 37.55ZM99.87813 25.253124L99.87813 23.2375L101.64375 23.2375L101.64375 25.253124L99.87813 25.253124ZM99.87813 37.55L99.87813 27.175L101.64375 27.175L101.64375 37.55L99.87813 37.55ZM103.8625 41.51875L103.8625 27.175L105.47188 27.175L105.47188 28.51875Q106.03438 27.7375 106.7375 27.346874Q107.45625 26.940624 108.47188 26.940624Q109.8 26.940624 110.81563 27.628124Q111.83125 28.315624 112.34688 29.565624Q112.87813 30.8 112.87813 32.284374Q112.87813 33.878124 112.3 35.159374Q111.7375 36.425 110.64375 37.1125Q109.55 37.784374 108.34688 37.784374Q107.47188 37.784374 106.76875 37.409374Q106.08125 37.034374 105.62813 36.471874L105.62813 41.51875L103.8625 41.51875ZM105.45625 32.425Q105.45625 34.425 106.26875 35.378124Q107.08125 36.33125 108.2375 36.33125Q109.40938 36.33125 110.2375 35.346874Q111.08125 34.3625 111.08125 32.26875Q111.08125 30.3 110.25313 29.315624Q109.44063 28.315624 108.31563 28.315624Q107.19063 28.315624 106.31563 29.378124Q105.45625 30.425 105.45625 32.425ZM118.70625 35.971874L118.95625 37.534374Q118.22188 37.690624 117.62813 37.690624Q116.675 37.690624 116.14375 37.39375Q115.62813 37.08125 115.40938 36.596874Q115.19063 36.096874 115.19063 34.51875L115.19063 28.55L113.90938 28.55L113.90938 27.175L115.19063 27.175L115.19063 24.6125L116.94063 23.55L116.94063 27.175L118.70625 27.175L118.70625 28.55L116.94063 28.55L116.94063 34.6125Q116.94063 35.3625 117.03438 35.58125Q117.12813 35.784374 117.33125 35.925Q117.55 36.05 117.94063 36.05Q118.22188 36.05 118.70625 35.971874ZM126.45625 32.95625L128.2375 32.8Q128.3625 33.8625 128.81563 34.55Q129.28438 35.2375 130.25313 35.675Q131.2375 36.096874 132.47188 36.096874Q133.55 36.096874 134.37813 35.784374Q135.20625 35.45625 135.6125 34.89375Q136.01875 34.33125 136.01875 33.659374Q136.01875 32.9875 135.62813 32.4875Q135.2375 31.9875 134.34688 31.64375Q133.76875 31.409374 131.78438 30.940624Q129.81563 30.471874 129.03438 30.05Q128.00313 29.51875 127.50313 28.721874Q127.00313 27.925 127.00313 26.940624Q127.00313 25.846874 127.6125 24.909374Q128.22188 23.971874 129.40938 23.4875Q130.59688 22.9875 132.03438 22.9875Q133.62813 22.9875 134.84688 23.503124Q136.06563 24.01875 136.70625 25.01875Q137.3625 26.003124 137.40938 27.26875L135.59688 27.409374Q135.45625 26.05 134.6125 25.3625Q133.76875 24.659374 132.1125 24.659374Q130.39375 24.659374 129.59688 25.3Q128.81563 25.925 128.81563 26.8Q128.81563 27.58125 129.37813 28.08125Q129.925 28.58125 132.2375 29.096874Q134.55 29.6125 135.40938 30.003124Q136.65938 30.58125 137.25313 31.471874Q137.84688 32.346874 137.84688 33.503124Q137.84688 34.64375 137.19063 35.659374Q136.53438 36.675 135.3 37.2375Q134.08125 37.8 132.55 37.8Q130.6125 37.8 129.3 37.2375Q127.9875 36.659374 127.2375 35.51875Q126.4875 34.378124 126.45625 32.95625ZM139.22188 32.3625Q139.22188 29.4875 140.81563 28.096874Q142.15938 26.940624 144.08125 26.940624Q146.22188 26.940624 147.56563 28.346874Q148.925 29.753124 148.925 32.221874Q148.925 34.221874 148.33125 35.378124Q147.7375 36.51875 146.58125 37.159374Q145.44063 37.784374 144.08125 37.784374Q141.89375 37.784374 140.55 36.39375Q139.22188 34.9875 139.22188 32.3625ZM141.01875 32.3625Q141.01875 34.3625 141.87813 35.346874Q142.75313 36.33125 144.08125 36.33125Q145.39375 36.33125 146.25313 35.346874Q147.12813 34.346874 147.12813 32.3Q147.12813 30.378124 146.25313 29.39375Q145.37813 28.39375 144.08125 28.39375Q142.75313 28.39375 141.87813 29.39375Q141.01875 30.378124 141.01875 32.3625ZM150.84688 37.55L150.84688 27.175L152.425 27.175L152.425 28.753124Q153.03438 27.64375 153.55 27.3Q154.06563 26.940624 154.675 26.940624Q155.56563 26.940624 156.4875 27.503124L155.87813 29.14375Q155.2375 28.753124 154.59688 28.753124Q154.01875 28.753124 153.55 29.1125Q153.09688 29.45625 152.89375 30.065624Q152.6125 31.003124 152.6125 32.1125L152.6125 37.55L150.84688 37.55ZM161.70625 35.971874L161.95625 37.534374Q161.22188 37.690624 160.62813 37.690624Q159.675 37.690624 159.14375 37.39375Q158.62813 37.08125 158.40938 36.596874Q158.19063 36.096874 158.19063 34.51875L158.19063 28.55L156.90938 28.55L156.90938 27.175L158.19063 27.175L158.19063 24.6125L159.94063 23.55L159.94063 27.175L161.70625 27.175L161.70625 28.55L159.94063 28.55L159.94063 34.6125Q159.94063 35.3625 160.03438 35.58125Q160.12813 35.784374 160.33125 35.925Q160.55 36.05 160.94063 36.05Q161.22188 36.05 161.70625 35.971874Z" fill-rule="nonzero"/></svg>