<svg version="1.1" viewBox="0.0 0.0 600.0 371.0" fill="none" stroke="none" stroke-linecap="square" stroke-miterlimit="10" width="600" height="371" xmlns:xlink="http://www.w3.org/1999/xlink" xmlns="http://www.w3.org/2000/svg"><path fill="#ffffff" d="M0 0L600.0 0L600.0 371.0L0 371.0L0 0Z" fill-rule="nonzero"/><path stroke="#cccccc" stroke-width="1.0" stroke-linecap="butt" d="M183.5 88.5L183.5 300.5" fill-rule="nonzero"/><path stroke="#cccccc" stroke-width="1.0" stroke-linecap="butt" d="M299.5 88.5L299.5 300.5" fill-rule="nonzero"/><path stroke="#cccccc" stroke-width="1.0" stroke-linecap="butt" d="M415.5 88.5L415.5 300.5" fill-rule="nonzero"/><path stroke="#cccccc" stroke-width="1.0" stroke-linecap="butt" d="M532.5 88.5L532.5 300.5" fill-rule="nonzero"/><path stroke="#333333" stroke-width="1.0" stroke-linecap="butt" d="M77.5 300.5L581.5 300.5" fill-rule="nonzero"/><path stroke="#cccccc" stroke-width="1.0" stroke-linecap="butt" d="M77.5 247.5L581.5 247.5" fill-rule="nonzero"/><path stroke="#cccccc" stroke-width="1.0" stroke-linecap="butt" d="M77.5 194.5L581.5 194.5" fill-rule="nonzero"/><path stroke="#cccccc" stroke-width="1.0" stroke-linecap="butt" d="M77.5 141.5L581.5 141.5" fill-rule="nonzero"/><path stroke="#cccccc" stroke-width="1.0" stroke-linecap="butt" d="M77.5 88.5L581.5 88.5" fill-rule="nonzero"/><clipPath id="id_0"><path d="M77.55 88.28333L581.45 88.28333L581.45 300.45L77.55 300.45L77.55 88.28333Z" clip-rule="nonzero"/></clipPath><path stroke="#4285f4" stroke-width="2.0" stroke-linecap="butt" clip-path="url(#id_0)" d="M0 288.53262L581.45 305.6602" fill-rule="nonzero"/><path fill="#4285f4" clip-path="url(#id_0)" d="M88.86077 135.49042C88.86077 137.9757 86.846054 139.99042 84.36077 139.99042C81.875496 139.99042 79.86077 137.9757 79.86077 135.49042C79.86077 133.00514 81.875496 130.99042 84.36077 130.99042C86.846054 130.99042 88.86077 133.00514 88.86077 135.49042Z" fill-rule="nonzero"/><path fill="#4285f4" clip-path="url(#id_0)" d="M106.37072 283.07886C106.37072 285.56415 104.356 287.57886 101.87072 287.57886C99.38544 287.57886 97.37072 285.56415 97.37072 283.07886C97.37072 280.59357 99.38544 278.57886 101.87072 278.57886C104.356 278.57886 106.37072 280.59357 106.37072 283.07886Z" fill-rule="nonzero"/><path fill="#4285f4" clip-path="url(#id_0)" d="M123.88066 285.79724C123.88066 288.28253 121.865944 290.29724 119.38066 290.29724C116.895386 290.29724 114.88066 288.28253 114.88066 285.79724C114.88066 283.31195 116.895386 281.29724 119.38066 281.29724C121.865944 281.29724 123.88066 283.31195 123.88066 285.79724Z" fill-rule="nonzero"/><path fill="#4285f4" clip-path="url(#id_0)" d="M141.39061 284.83585C141.39061 287.32114 139.37589 289.33585 136.89061 289.33585C134.40533 289.33585 132.39061 287.32114 132.39061 284.83585C132.39061 282.3506 134.40533 280.33585 136.89061 280.33585C139.37589 280.33585 141.39061 282.3506 141.39061 284.83585Z" fill-rule="nonzero"/><path fill="#4285f4" clip-path="url(#id_0)" d="M158.90056 295.295C158.90056 297.7803 156.88583 299.795 154.40056 299.795C151.91527 299.795 149.90056 297.7803 149.90056 295.295C149.90056 292.80972 151.91527 290.795 154.40056 290.795C156.88583 290.795 158.90056 292.80972 158.90056 295.295Z" fill-rule="nonzero"/><path fill="#4285f4" clip-path="url(#id_0)" d="M176.41049 285.08447C176.41049 287.56973 174.39578 289.58447 171.91049 289.58447C169.42522 289.58447 167.41049 287.56973 167.41049 285.08447C167.41049 282.59918 169.42522 280.58447 171.91049 280.58447C174.39578 280.58447 176.41049 282.59918 176.41049 285.08447Z" fill-rule="nonzero"/><path fill="#4285f4" clip-path="url(#id_0)" d="M193.92044 297.0023C193.92044 299.48758 191.90573 301.5023 189.42044 301.5023C186.93517 301.5023 184.92044 299.48758 184.92044 297.0023C184.92044 294.517 186.93517 292.5023 189.42044 292.5023C191.90573 292.5023 193.92044 294.517 193.92044 297.0023Z" fill-rule="nonzero"/><path fill="#4285f4" clip-path="url(#id_0)" d="M211.43039 297.0251C211.43039 299.51038 209.41566 301.5251 206.93039 301.5251C204.4451 301.5251 202.43039 299.51038 202.43039 297.0251C202.43039 294.5398 204.4451 292.5251 206.93039 292.5251C209.41566 292.5251 211.43039 294.5398 211.43039 297.0251Z" fill-rule="nonzero"/><path fill="#4285f4" clip-path="url(#id_0)" d="M228.94034 295.88345C228.94034 298.3687 226.92561 300.38345 224.44034 300.38345C221.95505 300.38345 219.94034 298.3687 219.94034 295.88345C219.94034 293.39816 221.95505 291.38345 224.44034 291.38345C226.92561 291.38345 228.94034 293.39816 228.94034 295.88345Z" fill-rule="nonzero"/><path fill="#4285f4" clip-path="url(#id_0)" d="M246.45027 296.71896C246.45027 299.20422 244.43556 301.21896 241.95027 301.21896C239.465 301.21896 237.45027 299.20422 237.45027 296.71896C237.45027 294.23367 239.465 292.21896 241.95027 292.21896C244.43556 292.21896 246.45027 294.23367 246.45027 296.71896Z" fill-rule="nonzero"/><path fill="#4285f4" clip-path="url(#id_0)" d="M263.96024 296.86658C263.96024 299.35187 261.9455 301.36658 259.46024 301.36658C256.97495 301.36658 254.96022 299.35187 254.96022 296.86658C254.96022 294.3813 256.97495 292.36658 259.46024 292.36658C261.9455 292.36658 263.96024 294.3813 263.96024 296.86658Z" fill-rule="nonzero"/><path fill="#4285f4" clip-path="url(#id_0)" d="M281.47015 296.44235C281.47015 298.92764 279.45544 300.94235 276.97015 300.94235C274.4849 300.94235 272.47015 298.92764 272.47015 296.44235C272.47015 293.95706 274.4849 291.94235 276.97015 291.94235C279.45544 291.94235 281.47015 293.95706 281.47015 296.44235Z" fill-rule="nonzero"/><path fill="#4285f4" clip-path="url(#id_0)" d="M298.9801 296.40085C298.9801 298.88614 296.9654 300.90085 294.4801 300.90085C291.99484 300.90085 289.9801 298.88614 289.9801 296.40085C289.9801 293.91556 291.99484 291.90085 294.4801 291.90085C296.9654 291.90085 298.9801 293.91556 298.9801 296.40085Z" fill-rule="nonzero"/><path fill="#4285f4" clip-path="url(#id_0)" d="M316.49005 296.30154C316.49005 298.78683 314.47534 300.80154 311.99005 300.80154C309.50476 300.80154 307.49005 298.78683 307.49005 296.30154C307.49005 293.81628 309.50476 291.80154 311.99005 291.80154C314.47534 291.80154 316.49005 293.81628 316.49005 296.30154Z" fill-rule="nonzero"/><path fill="#4285f4" clip-path="url(#id_0)" d="M334.0 296.38052C334.0 298.86578 331.9853 300.88052 329.5 300.88052C327.0147 300.88052 325.0 298.86578 325.0 296.38052C325.0 293.89523 327.0147 291.88052 329.5 291.88052C331.9853 291.88052 334.0 293.89523 334.0 296.38052Z" fill-rule="nonzero"/><path fill="#4285f4" clip-path="url(#id_0)" d="M351.50995 296.3267C351.50995 298.81195 349.49524 300.8267 347.00995 300.8267C344.52466 300.8267 342.50995 298.81195 342.50995 296.3267C342.50995 293.8414 344.52466 291.8267 347.00995 291.8267C349.49524 291.8267 351.50995 293.8414 351.50995 296.3267Z" fill-rule="nonzero"/><path fill="#4285f4" clip-path="url(#id_0)" d="M369.0199 296.1525C369.0199 298.6378 367.00516 300.6525 364.5199 300.6525C362.0346 300.6525 360.0199 298.6378 360.0199 296.1525C360.0199 293.6672 362.0346 291.6525 364.5199 291.6525C367.00516 291.6525 369.0199 293.6672 369.0199 296.1525Z" fill-rule="nonzero"/><path fill="#4285f4" clip-path="url(#id_0)" d="M386.52985 296.03824C386.52985 298.5235 384.5151 300.53824 382.02985 300.53824C379.54456 300.53824 377.52985 298.5235 377.52985 296.03824C377.52985 293.55295 379.54456 291.53824 382.02985 291.53824C384.5151 291.53824 386.52985 293.55295 386.52985 296.03824Z" fill-rule="nonzero"/><path fill="#4285f4" clip-path="url(#id_0)" d="M404.03976 296.53693C404.03976 299.02222 402.02505 301.03693 399.53976 301.03693C397.0545 301.03693 395.03976 299.02222 395.03976 296.53693C395.03976 294.05167 397.0545 292.03693 399.53976 292.03693C402.02505 292.03693 404.03976 294.05167 404.03976 296.53693Z" fill-rule="nonzero"/><path fill="#4285f4" clip-path="url(#id_0)" d="M421.5497 295.7614C421.5497 298.24667 419.535 300.2614 417.0497 300.2614C414.56445 300.2614 412.5497 298.24667 412.5497 295.7614C412.5497 293.27612 414.56445 291.2614 417.0497 291.2614C419.535 291.2614 421.5497 293.27612 421.5497 295.7614Z" fill-rule="nonzero"/><path fill="#4285f4" clip-path="url(#id_0)" d="M439.05966 296.8772C439.05966 299.3625 437.04495 301.3772 434.55966 301.3772C432.0744 301.3772 430.05966 299.3625 430.05966 296.8772C430.05966 294.3919 432.0744 292.3772 434.55966 292.3772C437.04495 292.3772 439.05966 294.3919 439.05966 296.8772Z" fill-rule="nonzero"/><path fill="#4285f4" clip-path="url(#id_0)" d="M456.5696 296.8772C456.5696 299.3625 454.5549 301.3772 452.0696 301.3772C449.58432 301.3772 447.5696 299.3625 447.5696 296.8772C447.5696 294.3919 449.58432 292.3772 452.0696 292.3772C454.5549 292.3772 456.5696 294.3919 456.5696 296.8772Z" fill-rule="nonzero"/><path fill="#4285f4" clip-path="url(#id_0)" d="M474.07956 297.05002C474.07956 299.5353 472.06485 301.55002 469.57956 301.55002C467.09427 301.55002 465.07956 299.5353 465.07956 297.05002C465.07956 294.56473 467.09427 292.55002 469.57956 292.55002C472.06485 292.55002 474.07956 294.56473 474.07956 297.05002Z" fill-rule="nonzero"/><path fill="#4285f4" clip-path="url(#id_0)" d="M491.5895 297.1523C491.5895 299.6376 489.5748 301.6523 487.0895 301.6523C484.60422 301.6523 482.5895 299.6376 482.5895 297.1523C482.5895 294.66702 484.60422 292.6523 487.0895 292.6523C489.5748 292.6523 491.5895 294.66702 491.5895 297.1523Z" fill-rule="nonzero"/><path fill="#4285f4" clip-path="url(#id_0)" d="M509.09946 297.27924C509.09946 299.76453 507.08472 301.77924 504.59946 301.77924C502.11417 301.77924 500.09946 299.76453 500.09946 297.27924C500.09946 294.79398 502.11417 292.77924 504.59946 292.77924C507.08472 292.77924 509.09946 294.79398 509.09946 297.27924Z" fill-rule="nonzero"/><path fill="#4285f4" clip-path="url(#id_0)" d="M526.6094 297.23624C526.6094 299.72153 524.59467 301.73624 522.1094 301.73624C519.6241 301.73624 517.6094 299.72153 517.6094 297.23624C517.6094 294.75095 519.6241 292.73624 522.1094 292.73624C524.59467 292.73624 526.6094 294.75095 526.6094 297.23624Z" fill-rule="nonzero"/><path fill="#4285f4" clip-path="url(#id_0)" d="M544.1193 297.16138C544.1193 299.64667 542.1046 301.66138 539.6193 301.66138C537.13403 301.66138 535.1193 299.64667 535.1193 297.16138C535.1193 294.6761 537.13403 292.66138 539.6193 292.66138C542.1046 292.66138 544.1193 294.6761 544.1193 297.16138Z" fill-rule="nonzero"/><path fill="#4285f4" clip-path="url(#id_0)" d="M561.6293 297.27173C561.6293 299.75702 559.61456 301.77173 557.1293 301.77173C554.644 301.77173 552.6293 299.75702 552.6293 297.27173C552.6293 294.78644 554.644 292.77173 557.1293 292.77173C559.61456 292.77173 561.6293 294.78644 561.6293 297.27173Z" fill-rule="nonzero"/><path fill="#4285f4" clip-path="url(#id_0)" d="M579.1392 297.28156C579.1392 299.76685 577.1245 301.78156 574.6392 301.78156C572.15393 301.78156 570.1392 299.76685 570.1392 297.28156C570.1392 294.79626 572.15393 292.78156 574.6392 292.78156C577.1245 292.78156 579.1392 294.79626 579.1392 297.28156Z" fill-rule="nonzero"/><path fill="#000000" d="M308.54688 347.45L309.64062 347.575Q309.39062 348.52814 308.6875 349.0594Q307.98438 349.59064 306.90625 349.59064Q305.54688 349.59064 304.73438 348.7469Q303.9375 347.90314 303.9375 346.3875Q303.9375 344.825 304.75 343.96564Q305.5625 343.09064 306.84375 343.09064Q308.09375 343.09064 308.875 343.9344Q309.67188 344.77814 309.67188 346.325Q309.67188 346.41876 309.67188 346.60626L305.03125 346.60626Q305.09375 347.6375 305.60938 348.1844Q306.125 348.71564 306.90625 348.71564Q307.48438 348.71564 307.89062 348.41876Q308.3125 348.10626 308.54688 347.45ZM305.09375 345.7469L308.5625 345.7469Q308.5 344.95 308.17188 344.5594Q307.65625 343.95 306.85938 343.95Q306.125 343.95 305.625 344.4344Q305.14062 344.91876 305.09375 345.7469ZM311.26562 349.45L311.26562 340.85626L312.32812 340.85626L312.32812 349.45L311.26562 349.45ZM318.54688 347.45L319.64062 347.575Q319.39062 348.52814 318.6875 349.0594Q317.98438 349.59064 316.90625 349.59064Q315.54688 349.59064 314.73438 348.7469Q313.9375 347.90314 313.9375 346.3875Q313.9375 344.825 314.75 343.96564Q315.5625 343.09064 316.84375 343.09064Q318.09375 343.09064 318.875 343.9344Q319.67188 344.77814 319.67188 346.325Q319.67188 346.41876 319.67188 346.60626L315.03125 346.60626Q315.09375 347.6375 315.60938 348.1844Q316.125 348.71564 316.90625 348.71564Q317.48438 348.71564 317.89062 348.41876Q318.3125 348.10626 318.54688 347.45ZM315.09375 345.7469L318.5625 345.7469Q318.5 344.95 318.17188 344.5594Q317.65625 343.95 316.85938 343.95Q316.125 343.95 315.625 344.4344Q315.14062 344.91876 315.09375 345.7469ZM321.29688 349.45L321.29688 343.23126L322.23438 343.23126L322.23438 344.10626Q322.53125 343.6375 323.01562 343.3719Q323.5 343.09064 324.125 343.09064Q324.8125 343.09064 325.25 343.3719Q325.70312 343.65314 325.875 344.16876Q326.625 343.09064 327.79688 343.09064Q328.73438 343.09064 329.21875 343.60626Q329.71875 344.10626 329.71875 345.1844L329.71875 349.45L328.67188 349.45L328.67188 345.52814Q328.67188 344.90314 328.5625 344.6219Q328.46875 344.34064 328.20312 344.16876Q327.9375 343.9969 327.5625 343.9969Q326.90625 343.9969 326.46875 344.4344Q326.04688 344.8719 326.04688 345.84064L326.04688 349.45L324.98438 349.45L324.98438 345.40314Q324.98438 344.7 324.71875 344.35626Q324.46875 343.9969 323.89062 343.9969Q323.4375 343.9969 323.0625 344.23126Q322.6875 344.46564 322.51562 344.91876Q322.34375 345.3719 322.34375 346.21564L322.34375 349.45L321.29688 349.45ZM336.54688 347.45L337.64062 347.575Q337.39062 348.52814 336.6875 349.0594Q335.98438 349.59064 334.90625 349.59064Q333.54688 349.59064 332.73438 348.7469Q331.9375 347.90314 331.9375 346.3875Q331.9375 344.825 332.75 343.96564Q333.5625 343.09064 334.84375 343.09064Q336.09375 343.09064 336.875 343.9344Q337.67188 344.77814 337.67188 346.325Q337.67188 346.41876 337.67188 346.60626L333.03125 346.60626Q333.09375 347.6375 333.60938 348.1844Q334.125 348.71564 334.90625 348.71564Q335.48438 348.71564 335.89062 348.41876Q336.3125 348.10626 336.54688 347.45ZM333.09375 345.7469L336.5625 345.7469Q336.5 344.95 336.17188 344.5594Q335.65625 343.95 334.85938 343.95Q334.125 343.95 333.625 344.4344Q333.14062 344.91876 333.09375 345.7469ZM339.29688 349.45L339.29688 343.23126L340.23438 343.23126L340.23438 344.10626Q340.92188 343.09064 342.21875 343.09064Q342.78125 343.09064 343.25 343.29376Q343.73438 343.4969 343.96875 343.825Q344.20312 344.15314 344.29688 344.59064Q344.34375 344.8875 344.34375 345.6219L344.34375 349.45L343.29688 349.45L343.29688 345.66876Q343.29688 345.0125 343.17188 344.7Q343.04688 344.3875 342.73438 344.2Q342.42188 343.9969 342.0 343.9969Q341.32812 343.9969 340.82812 344.4344Q340.34375 344.85626 340.34375 346.04376L340.34375 349.45L339.29688 349.45ZM348.59375 348.5125L348.75 349.4344Q348.29688 349.52814 347.95312 349.52814Q347.375 349.52814 347.0625 349.35626Q346.75 349.16876 346.60938 348.8719Q346.48438 348.575 346.48438 347.6219L346.48438 344.04376L345.71875 344.04376L345.71875 343.23126L346.48438 343.23126L346.48438 341.6844L347.53125 341.0594L347.53125 343.23126L348.59375 343.23126L348.59375 344.04376L347.53125 344.04376L347.53125 347.6844Q347.53125 348.1375 347.57812 348.2625Q347.64062 348.3875 347.76562 348.46564Q347.89062 348.54376 348.125 348.54376Q348.3125 348.54376 348.59375 348.5125ZM348.875 347.59064L349.90625 347.4344Q350.0 348.0594 350.39062 348.3875Q350.79688 348.71564 351.53125 348.71564Q352.25 348.71564 352.59375 348.4344Q352.95312 348.1375 352.95312 347.73126Q352.95312 347.3719 352.64062 347.16876Q352.42188 347.02814 351.5625 346.8094Q350.40625 346.5125 349.95312 346.3094Q349.51562 346.09064 349.28125 345.71564Q349.04688 345.34064 349.04688 344.8719Q349.04688 344.46564 349.23438 344.10626Q349.42188 343.7469 349.75 343.5125Q350.0 343.34064 350.42188 343.21564Q350.84375 343.09064 351.34375 343.09064Q352.0625 343.09064 352.60938 343.3094Q353.17188 343.5125 353.4375 343.8719Q353.70312 344.23126 353.79688 344.825L352.76562 344.96564Q352.70312 344.4969 352.35938 344.23126Q352.03125 343.95 351.40625 343.95Q350.6875 343.95 350.375 344.2Q350.0625 344.4344 350.0625 344.7625Q350.0625 344.96564 350.1875 345.1219Q350.32812 345.29376 350.59375 345.40314Q350.75 345.46564 351.53125 345.66876Q352.65625 345.98126 353.09375 346.16876Q353.53125 346.35626 353.78125 346.71564Q354.03125 347.075 354.03125 347.6219Q354.03125 348.15314 353.71875 348.6219Q353.42188 349.075 352.84375 349.34064Q352.26562 349.59064 351.53125 349.59064Q350.3125 349.59064 349.67188 349.09064Q349.04688 348.575 348.875 347.59064Z" fill-rule="nonzero"/><path fill="#000000" d="M23.331263 229.39792L29.550013 229.39792L29.550013 230.35104L28.815638 230.35104Q29.284388 230.64792 29.456263 230.9448Q29.690638 231.35104 29.690638 231.89792Q29.690638 232.3823 29.503138 232.7573Q29.362513 233.03854 28.925013 233.3823L31.940638 233.3823L31.940638 234.42917L23.331263 234.42917L23.331263 233.3823L25.956263 233.3823Q27.393763 233.3823 27.831263 233.24167Q28.253138 233.08542 28.503138 232.74167Q28.737513 232.39792 28.737513 231.9448Q28.737513 231.47604 28.487513 231.11667Q28.221888 230.74167 27.815638 230.60104Q27.409388 230.4448 25.987513 230.4448L23.331263 230.4448L23.331263 229.39792ZM27.690638 227.99167L27.534388 226.96042Q28.159388 226.86667 28.487513 226.47604Q28.815638 226.0698 28.815638 225.33542Q28.815638 224.61667 28.534388 224.27292Q28.237513 223.91354 27.831263 223.91354Q27.471888 223.91354 27.268763 224.22604Q27.128138 224.4448 26.909388 225.30417Q26.612513 226.46042 26.409388 226.91354Q26.190638 227.35104 25.815638 227.58542Q25.440638 227.8198 24.971888 227.8198Q24.565638 227.8198 24.206263 227.6323Q23.846888 227.4448 23.612513 227.11667Q23.440638 226.86667 23.315638 226.4448Q23.190638 226.02292 23.190638 225.52292Q23.190638 224.80417 23.409388 224.2573Q23.612513 223.6948 23.971888 223.42917Q24.331263 223.16354 24.925013 223.0698L25.065638 224.10104Q24.596888 224.16354 24.331263 224.5073Q24.050013 224.83542 24.050013 225.46042Q24.050013 226.17917 24.300013 226.49167Q24.534388 226.80417 24.862513 226.80417Q25.065638 226.80417 25.221888 226.67917Q25.393763 226.53854 25.503138 226.27292Q25.565638 226.11667 25.768763 225.33542Q26.081263 224.21042 26.268763 223.77292Q26.456263 223.33542 26.815638 223.08542Q27.175013 222.83542 27.721888 222.83542Q28.253138 222.83542 28.721888 223.14792Q29.175013 223.4448 29.440638 224.02292Q29.690638 224.60104 29.690638 225.33542Q29.690638 226.55417 29.190638 227.1948Q28.675013 227.8198 27.690638 227.99167ZM29.690638 221.36667L20.815638 218.8823L20.815638 218.03854L29.690638 220.52292L29.690638 221.36667ZM26.440638 217.96042Q24.706263 217.96042 23.878138 217.0073Q23.190638 216.21042 23.190638 215.05417Q23.190638 213.77292 24.034388 212.96042Q24.862513 212.1323 26.346888 212.1323Q27.550013 212.1323 28.237513 212.49167Q28.925013 212.85104 29.315638 213.55417Q29.690638 214.24167 29.690638 215.05417Q29.690638 216.35104 28.862513 217.16354Q28.018763 217.96042 26.440638 217.96042ZM26.440638 216.8823Q27.628138 216.8823 28.221888 216.36667Q28.815638 215.83542 28.815638 215.05417Q28.815638 214.2573 28.221888 213.74167Q27.628138 213.22604 26.409388 213.22604Q25.253138 213.22604 24.659388 213.7573Q24.065638 214.27292 24.065638 215.05417Q24.065638 215.83542 24.659388 216.36667Q25.237513 216.8823 26.440638 216.8823ZM31.940638 210.5698L23.331263 210.5698L23.331263 209.61667L24.128138 209.61667Q23.659388 209.27292 23.425013 208.85104Q23.190638 208.41354 23.190638 207.80417Q23.190638 207.0073 23.596888 206.39792Q24.003138 205.78854 24.753138 205.49167Q25.503138 205.17917 26.393763 205.17917Q27.346888 205.17917 28.112513 205.52292Q28.878138 205.85104 29.284388 206.5073Q29.690638 207.16354 29.690638 207.8823Q29.690638 208.41354 29.471888 208.83542Q29.237513 209.2573 28.909388 209.52292L31.940638 209.52292L31.940638 210.5698ZM26.471888 209.61667Q27.675013 209.61667 28.253138 209.1323Q28.815638 208.64792 28.815638 207.96042Q28.815638 207.2573 28.221888 206.7573Q27.628138 206.2573 26.378138 206.2573Q25.190638 206.2573 24.612513 206.74167Q24.018763 207.22604 24.018763 207.91354Q24.018763 208.58542 24.643763 209.10104Q25.268763 209.61667 26.471888 209.61667ZM27.550013 199.3198L27.675013 198.22604Q28.628138 198.47604 29.159388 199.17917Q29.690638 199.8823 29.690638 200.96042Q29.690638 202.3198 28.846888 203.1323Q28.003138 203.92917 26.487513 203.92917Q24.925013 203.92917 24.065638 203.11667Q23.190638 202.30417 23.190638 201.02292Q23.190638 199.77292 24.034388 198.99167Q24.878138 198.1948 26.425013 198.1948Q26.518763 198.1948 26.706263 198.1948L26.706263 202.83542Q27.737513 202.77292 28.284388 202.2573Q28.815638 201.74167 28.815638 200.96042Q28.815638 200.3823 28.518763 199.97604Q28.206263 199.55417 27.550013 199.3198ZM25.846888 202.77292L25.846888 199.30417Q25.050013 199.36667 24.659388 199.6948Q24.050013 200.21042 24.050013 201.0073Q24.050013 201.74167 24.534388 202.24167Q25.018763 202.72604 25.846888 202.77292ZM29.550013 196.58542L23.331263 196.58542L23.331263 195.6323L24.268763 195.6323Q23.612513 195.27292 23.409388 194.97604Q23.190638 194.66354 23.190638 194.28854Q23.190638 193.7573 23.518763 193.21042L24.503138 193.5698Q24.268763 193.96042 24.268763 194.33542Q24.268763 194.6948 24.487513 194.97604Q24.690638 195.24167 25.065638 195.35104Q25.628138 195.53854 26.284388 195.53854L29.550013 195.53854L29.550013 196.58542ZM28.784388 188.5073Q29.284388 189.10104 29.487513 189.64792Q29.690638 190.17917 29.690638 190.80417Q29.690638 191.83542 29.190638 192.3823Q28.690638 192.92917 27.909388 192.92917Q27.456263 192.92917 27.081263 192.72604Q26.690638 192.52292 26.471888 192.17917Q26.237513 191.83542 26.128138 191.41354Q26.034388 191.11667 25.956263 190.47604Q25.815638 189.21042 25.596888 188.60104Q25.378138 188.60104 25.331263 188.60104Q24.675013 188.60104 24.409388 188.89792Q24.065638 189.30417 24.065638 190.10104Q24.065638 190.83542 24.331263 191.1948Q24.581263 191.55417 25.237513 191.72604L25.096888 192.7573Q24.440638 192.61667 24.034388 192.28854Q23.628138 191.96042 23.409388 191.35104Q23.190638 190.74167 23.190638 189.9448Q23.190638 189.14792 23.378138 188.64792Q23.565638 188.14792 23.846888 187.91354Q24.128138 187.67917 24.565638 187.58542Q24.831263 187.53854 25.534388 187.53854L26.940638 187.53854Q28.409388 187.53854 28.800013 187.47604Q29.190638 187.39792 29.550013 187.1948L29.550013 188.30417Q29.221888 188.46042 28.784388 188.5073ZM26.425013 188.60104Q26.659388 189.17917 26.831263 190.3198Q26.925013 190.97604 27.050013 191.24167Q27.159388 191.5073 27.378138 191.66354Q27.596888 191.80417 27.878138 191.80417Q28.300013 191.80417 28.581263 191.49167Q28.862513 191.16354 28.862513 190.55417Q28.862513 189.9448 28.596888 189.47604Q28.331263 188.99167 27.862513 188.77292Q27.503138 188.60104 26.815638 188.60104L26.425013 188.60104ZM28.612513 183.27292L29.534388 183.11667Q29.628138 183.5698 29.628138 183.91354Q29.628138 184.49167 29.456263 184.80417Q29.268763 185.11667 28.971888 185.2573Q28.675013 185.3823 27.721888 185.3823L24.143763 185.3823L24.143763 186.14792L23.331263 186.14792L23.331263 185.3823L21.784388 185.3823L21.159388 184.33542L23.331263 184.33542L23.331263 183.27292L24.143763 183.27292L24.143763 184.33542L27.784388 184.33542Q28.237513 184.33542 28.362513 184.28854Q28.487513 184.22604 28.565638 184.10104Q28.643763 183.97604 28.643763 183.74167Q28.643763 183.55417 28.612513 183.27292ZM22.175013 182.5698L20.956263 182.5698L20.956263 181.5073L22.175013 181.5073L22.175013 182.5698ZM29.550013 182.5698L23.331263 182.5698L23.331263 181.5073L29.550013 181.5073L29.550013 182.5698ZM26.440638 179.96042Q24.706263 179.96042 23.878138 179.0073Q23.190638 178.21042 23.190638 177.05417Q23.190638 175.77292 24.034388 174.96042Q24.862513 174.1323 26.346888 174.1323Q27.550013 174.1323 28.237513 174.49167Q28.925013 174.85104 29.315638 175.55417Q29.690638 176.24167 29.690638 177.05417Q29.690638 178.35104 28.862513 179.16354Q28.018763 179.96042 26.440638 179.96042ZM26.440638 178.8823Q27.628138 178.8823 28.221888 178.36667Q28.815638 177.83542 28.815638 177.05417Q28.815638 176.2573 28.221888 175.74167Q27.628138 175.22604 26.409388 175.22604Q25.253138 175.22604 24.659388 175.7573Q24.065638 176.27292 24.065638 177.05417Q24.065638 177.83542 24.659388 178.36667Q25.237513 178.8823 26.440638 178.8823ZM29.550013 172.5698L23.331263 172.5698L23.331263 171.6323L24.206263 171.6323Q23.190638 170.9448 23.190638 169.64792Q23.190638 169.08542 23.393763 168.61667Q23.596888 168.1323 23.925013 167.89792Q24.253138 167.66354 24.690638 167.5698Q24.987513 167.52292 25.721888 167.52292L29.550013 167.52292L29.550013 168.5698L25.768763 168.5698Q25.112513 168.5698 24.800013 168.6948Q24.487513 168.8198 24.300013 169.1323Q24.096888 169.4448 24.096888 169.86667Q24.096888 170.53854 24.534388 171.03854Q24.956263 171.52292 26.143763 171.52292L29.550013 171.52292L29.550013 172.5698Z" fill-rule="nonzero"/><path fill="#000000" d="M55.05 300.21564Q55.05 298.6844 55.3625 297.7625Q55.675 296.825 56.284374 296.325Q56.909374 295.825 57.846874 295.825Q58.534374 295.825 59.05 296.10626Q59.58125 296.3875 59.925 296.91876Q60.26875 297.4344 60.45625 298.1844Q60.64375 298.9344 60.64375 300.21564Q60.64375 301.73126 60.33125 302.65314Q60.034374 303.575 59.409374 304.09064Q58.8 304.59064 57.846874 304.59064Q56.6125 304.59064 55.89375 303.7Q55.05 302.6375 55.05 300.21564ZM56.128124 300.21564Q56.128124 302.325 56.628124 303.02814Q57.128124 303.73126 57.846874 303.73126Q58.58125 303.73126 59.065624 303.02814Q59.565624 302.325 59.565624 300.21564Q59.565624 298.09064 59.065624 297.40314Q58.58125 296.7 57.83125 296.7Q57.1125 296.7 56.675 297.3094Q56.128124 298.09064 56.128124 300.21564ZM62.64375 304.45L62.64375 303.2469L63.846874 303.2469L63.846874 304.45L62.64375 304.45ZM65.05 300.21564Q65.05 298.6844 65.3625 297.7625Q65.675 296.825 66.28438 296.325Q66.90938 295.825 67.84688 295.825Q68.53438 295.825 69.05 296.10626Q69.58125 296.3875 69.925 296.91876Q70.26875 297.4344 70.45625 298.1844Q70.64375 298.9344 70.64375 300.21564Q70.64375 301.73126 70.33125 302.65314Q70.03438 303.575 69.40938 304.09064Q68.8 304.59064 67.84688 304.59064Q66.6125 304.59064 65.89375 303.7Q65.05 302.6375 65.05 300.21564ZM66.12813 300.21564Q66.12813 302.325 66.62813 303.02814Q67.12813 303.73126 67.84688 303.73126Q68.58125 303.73126 69.06563 303.02814Q69.56563 302.325 69.56563 300.21564Q69.56563 298.09064 69.06563 297.40314Q68.58125 296.7 67.83125 296.7Q67.1125 296.7 66.675 297.3094Q66.12813 298.09064 66.12813 300.21564Z" fill-rule="nonzero"/><path fill="#000000" d="M55.05 247.17397Q55.05 245.64272 55.3625 244.72084Q55.675 243.78334 56.284374 243.28334Q56.909374 242.78334 57.846874 242.78334Q58.534374 242.78334 59.05 243.06459Q59.58125 243.34584 59.925 243.87709Q60.26875 244.39272 60.45625 245.14272Q60.64375 245.89272 60.64375 247.17397Q60.64375 248.68959 60.33125 249.61147Q60.034374 250.53334 59.409374 251.04897Q58.8 251.54897 57.846874 251.54897Q56.6125 251.54897 55.89375 250.65834Q55.05 249.59584 55.05 247.17397ZM56.128124 247.17397Q56.128124 249.28334 56.628124 249.98647Q57.128124 250.68959 57.846874 250.68959Q58.58125 250.68959 59.065624 249.98647Q59.565624 249.28334 59.565624 247.17397Q59.565624 245.04897 59.065624 244.36147Q58.58125 243.65834 57.83125 243.65834Q57.1125 243.65834 56.675 244.26772Q56.128124 245.04897 56.128124 247.17397ZM62.64375 251.40834L62.64375 250.20522L63.846874 250.20522L63.846874 251.40834L62.64375 251.40834ZM69.01875 251.40834L67.97188 251.40834L67.97188 244.68959Q67.58125 245.04897 66.95625 245.42397Q66.34688 245.78334 65.8625 245.95522L65.8625 244.93959Q66.7375 244.51772 67.39375 243.93959Q68.06563 243.34584 68.34688 242.78334L69.01875 242.78334L69.01875 251.40834Z" fill-rule="nonzero"/><path fill="#000000" d="M55.05 194.1323Q55.05 192.60104 55.3625 191.67917Q55.675 190.74167 56.284374 190.24167Q56.909374 189.74167 57.846874 189.74167Q58.534374 189.74167 59.05 190.02292Q59.58125 190.30417 59.925 190.83542Q60.26875 191.35104 60.45625 192.10104Q60.64375 192.85104 60.64375 194.1323Q60.64375 195.64792 60.33125 196.5698Q60.034374 197.49167 59.409374 198.0073Q58.8 198.5073 57.846874 198.5073Q56.6125 198.5073 55.89375 197.61667Q55.05 196.55417 55.05 194.1323ZM56.128124 194.1323Q56.128124 196.24167 56.628124 196.9448Q57.128124 197.64792 57.846874 197.64792Q58.58125 197.64792 59.065624 196.9448Q59.565624 196.24167 59.565624 194.1323Q59.565624 192.0073 59.065624 191.3198Q58.58125 190.61667 57.83125 190.61667Q57.1125 190.61667 56.675 191.22604Q56.128124 192.0073 56.128124 194.1323ZM62.64375 198.36667L62.64375 197.16354L63.846874 197.16354L63.846874 198.36667L62.64375 198.36667ZM70.59688 197.35104L70.59688 198.36667L64.90938 198.36667Q64.90938 197.99167 65.03438 197.6323Q65.25313 197.05417 65.72188 196.49167Q66.20625 195.92917 67.1125 195.1948Q68.51875 194.03854 69.00313 193.36667Q69.50313 192.6948 69.50313 192.10104Q69.50313 191.47604 69.05 191.05417Q68.59688 190.61667 67.87813 190.61667Q67.1125 190.61667 66.65938 191.0698Q66.20625 191.52292 66.19063 192.33542L65.1125 192.22604Q65.22188 191.0073 65.94063 190.3823Q66.675 189.74167 67.90938 189.74167Q69.14375 189.74167 69.8625 190.42917Q70.58125 191.11667 70.58125 192.1323Q70.58125 192.64792 70.3625 193.14792Q70.15938 193.6323 69.65938 194.1948Q69.175 194.74167 68.05 195.6948Q67.09688 196.49167 66.81563 196.78854Q66.55 197.0698 66.37813 197.35104L70.59688 197.35104Z" fill-rule="nonzero"/><path fill="#000000" d="M55.05 141.09062Q55.05 139.55937 55.3625 138.6375Q55.675 137.7 56.284374 137.2Q56.909374 136.7 57.846874 136.7Q58.534374 136.7 59.05 136.98125Q59.58125 137.2625 59.925 137.79375Q60.26875 138.30937 60.45625 139.05937Q60.64375 139.80937 60.64375 141.09062Q60.64375 142.60625 60.33125 143.52812Q60.034374 144.45 59.409374 144.96562Q58.8 145.46562 57.846874 145.46562Q56.6125 145.46562 55.89375 144.575Q55.05 143.5125 55.05 141.09062ZM56.128124 141.09062Q56.128124 143.2 56.628124 143.90312Q57.128124 144.60625 57.846874 144.60625Q58.58125 144.60625 59.065624 143.90312Q59.565624 143.2 59.565624 141.09062Q59.565624 138.96562 59.065624 138.27812Q58.58125 137.575 57.83125 137.575Q57.1125 137.575 56.675 138.18437Q56.128124 138.96562 56.128124 141.09062ZM62.64375 145.325L62.64375 144.12187L63.846874 144.12187L63.846874 145.325L62.64375 145.325ZM65.05 143.05937L66.1125 142.91875Q66.28438 143.80937 66.72188 144.21562Q67.15938 144.60625 67.78438 144.60625Q68.53438 144.60625 69.05 144.09062Q69.56563 143.575 69.56563 142.80937Q69.56563 142.09062 69.08125 141.62187Q68.6125 141.1375 67.87813 141.1375Q67.58125 141.1375 67.12813 141.2625L67.25313 140.325Q67.3625 140.34062 67.425 140.34062Q68.09688 140.34062 68.62813 139.99687Q69.175 139.6375 69.175 138.90312Q69.175 138.325 68.78438 137.95Q68.39375 137.55937 67.76875 137.55937Q67.15938 137.55937 66.7375 137.95Q66.33125 138.34062 66.22188 139.10625L65.15938 138.91875Q65.34688 137.87187 66.03438 137.29375Q66.72188 136.7 67.7375 136.7Q68.44063 136.7 69.03438 137.0125Q69.62813 137.30937 69.94063 137.825Q70.25313 138.34062 70.25313 138.93437Q70.25313 139.48125 69.95625 139.95Q69.65938 140.40312 69.08125 140.66875Q69.83125 140.84062 70.25313 141.40312Q70.675 141.95 70.675 142.79375Q70.675 143.91875 69.84688 144.7Q69.03438 145.48125 67.78438 145.48125Q66.65938 145.48125 65.90938 144.80937Q65.15938 144.12187 65.05 143.05937Z" fill-rule="nonzero"/><path fill="#000000" d="M55.05 88.04896Q55.05 86.51771 55.3625 85.59583Q55.675 84.65833 56.284374 84.15833Q56.909374 83.65833 57.846874 83.65833Q58.534374 83.65833 59.05 83.93958Q59.58125 84.22083 59.925 84.75208Q60.26875 85.26771 60.45625 86.01771Q60.64375 86.76771 60.64375 88.04896Q60.64375 89.56458 60.33125 90.48646Q60.034374 91.40833 59.409374 91.92396Q58.8 92.42396 57.846874 92.42396Q56.6125 92.42396 55.89375 91.53333Q55.05 90.47083 55.05 88.04896ZM56.128124 88.04896Q56.128124 90.15833 56.628124 90.86146Q57.128124 91.56458 57.846874 91.56458Q58.58125 91.56458 59.065624 90.86146Q59.565624 90.15833 59.565624 88.04896Q59.565624 85.92396 59.065624 85.23646Q58.58125 84.53333 57.83125 84.53333Q57.1125 84.53333 56.675 85.14271Q56.128124 85.92396 56.128124 88.04896ZM62.64375 92.28333L62.64375 91.08021L63.846874 91.08021L63.846874 92.28333L62.64375 92.28333ZM68.425 92.28333L68.425 90.22083L64.70625 90.22083L64.70625 89.25208L68.62813 83.68958L69.4875 83.68958L69.4875 89.25208L70.64375 89.25208L70.64375 90.22083L69.4875 90.22083L69.4875 92.28333L68.425 92.28333ZM68.425 89.25208L68.425 85.39271L65.7375 89.25208L68.425 89.25208Z" fill-rule="nonzero"/><path fill="#000000" d="M177.15314 317.45L176.10626 317.45L176.10626 310.73126Q175.71564 311.09064 175.09064 311.46564Q174.48126 311.825 173.99689 311.9969L173.99689 310.98126Q174.87189 310.5594 175.52814 309.98126Q176.20001 309.3875 176.48126 308.825L177.15314 308.825L177.15314 317.45ZM180.18439 313.21564Q180.18439 311.6844 180.49689 310.7625Q180.80939 309.825 181.41876 309.325Q182.04376 308.825 182.98126 308.825Q183.66876 308.825 184.18439 309.10626Q184.71564 309.3875 185.05939 309.91876Q185.40314 310.4344 185.59064 311.1844Q185.77814 311.9344 185.77814 313.21564Q185.77814 314.73126 185.46564 315.65314Q185.16876 316.575 184.54376 317.09064Q183.93439 317.59064 182.98126 317.59064Q181.74689 317.59064 181.02814 316.7Q180.18439 315.6375 180.18439 313.21564ZM181.26251 313.21564Q181.26251 315.325 181.76251 316.02814Q182.26251 316.73126 182.98126 316.73126Q183.71564 316.73126 184.20001 316.02814Q184.70001 315.325 184.70001 313.21564Q184.70001 311.09064 184.20001 310.40314Q183.71564 309.7 182.96564 309.7Q182.24689 309.7 181.80939 310.3094Q181.26251 311.09064 181.26251 313.21564ZM187.18439 313.21564Q187.18439 311.6844 187.49689 310.7625Q187.80939 309.825 188.41876 309.325Q189.04376 308.825 189.98126 308.825Q190.66876 308.825 191.18439 309.10626Q191.71564 309.3875 192.05939 309.91876Q192.40314 310.4344 192.59064 311.1844Q192.77814 311.9344 192.77814 313.21564Q192.77814 314.73126 192.46564 315.65314Q192.16876 316.575 191.54376 317.09064Q190.93439 317.59064 189.98126 317.59064Q188.74689 317.59064 188.02814 316.7Q187.18439 315.6375 187.18439 313.21564ZM188.26251 313.21564Q188.26251 315.325 188.76251 316.02814Q189.26251 316.73126 189.98126 316.73126Q190.71564 316.73126 191.20001 316.02814Q191.70001 315.325 191.70001 313.21564Q191.70001 311.09064 191.20001 310.40314Q190.71564 309.7 189.96564 309.7Q189.24689 309.7 188.80939 310.3094Q188.26251 311.09064 188.26251 313.21564Z" fill-rule="nonzero"/><path fill="#000000" d="M286.4867 317.45L285.43982 317.45L285.43982 310.73126Q285.0492 311.09064 284.4242 311.46564Q283.81482 311.825 283.33044 311.9969L283.33044 310.98126Q284.20544 310.5594 284.8617 309.98126Q285.53357 309.3875 285.81482 308.825L286.4867 308.825L286.4867 317.45ZM289.51794 313.21564Q289.51794 311.6844 289.83044 310.7625Q290.14294 309.825 290.75232 309.325Q291.37732 308.825 292.31482 308.825Q293.00232 308.825 293.51794 309.10626Q294.0492 309.3875 294.39294 309.91876Q294.7367 310.4344 294.9242 311.1844Q295.1117 311.9344 295.1117 313.21564Q295.1117 314.73126 294.7992 315.65314Q294.50232 316.575 293.87732 317.09064Q293.26794 317.59064 292.31482 317.59064Q291.08044 317.59064 290.3617 316.7Q289.51794 315.6375 289.51794 313.21564ZM290.59607 313.21564Q290.59607 315.325 291.09607 316.02814Q291.59607 316.73126 292.31482 316.73126Q293.0492 316.73126 293.53357 316.02814Q294.03357 315.325 294.03357 313.21564Q294.03357 311.09064 293.53357 310.40314Q293.0492 309.7 292.2992 309.7Q291.58044 309.7 291.14294 310.3094Q290.59607 311.09064 290.59607 313.21564ZM296.51794 313.21564Q296.51794 311.6844 296.83044 310.7625Q297.14294 309.825 297.75232 309.325Q298.37732 308.825 299.31482 308.825Q300.00232 308.825 300.51794 309.10626Q301.0492 309.3875 301.39294 309.91876Q301.7367 310.4344 301.9242 311.1844Q302.1117 311.9344 302.1117 313.21564Q302.1117 314.73126 301.7992 315.65314Q301.50232 316.575 300.87732 317.09064Q300.26794 317.59064 299.31482 317.59064Q298.08044 317.59064 297.3617 316.7Q296.51794 315.6375 296.51794 313.21564ZM297.59607 313.21564Q297.59607 315.325 298.09607 316.02814Q298.59607 316.73126 299.31482 316.73126Q300.0492 316.73126 300.53357 316.02814Q301.03357 315.325 301.03357 313.21564Q301.03357 311.09064 300.53357 310.40314Q300.0492 309.7 299.2992 309.7Q298.58044 309.7 298.14294 310.3094Q297.59607 311.09064 297.59607 313.21564ZM303.51794 313.21564Q303.51794 311.6844 303.83044 310.7625Q304.14294 309.825 304.75232 309.325Q305.37732 308.825 306.31482 308.825Q307.00232 308.825 307.51794 309.10626Q308.0492 309.3875 308.39294 309.91876Q308.7367 310.4344 308.9242 311.1844Q309.1117 311.9344 309.1117 313.21564Q309.1117 314.73126 308.7992 315.65314Q308.50232 316.575 307.87732 317.09064Q307.26794 317.59064 306.31482 317.59064Q305.08044 317.59064 304.3617 316.7Q303.51794 315.6375 303.51794 313.21564ZM304.59607 313.21564Q304.59607 315.325 305.09607 316.02814Q305.59607 316.73126 306.31482 316.73126Q307.0492 316.73126 307.53357 316.02814Q308.03357 315.325 308.03357 313.21564Q308.03357 311.09064 307.53357 310.40314Q307.0492 309.7 306.2992 309.7Q305.58044 309.7 305.14294 310.3094Q304.59607 311.09064 304.59607 313.21564ZM310.51794 313.21564Q310.51794 311.6844 310.83044 310.7625Q311.14294 309.825 311.75232 309.325Q312.37732 308.825 313.31482 308.825Q314.00232 308.825 314.51794 309.10626Q315.0492 309.3875 315.39294 309.91876Q315.7367 310.4344 315.9242 311.1844Q316.1117 311.9344 316.1117 313.21564Q316.1117 314.73126 315.7992 315.65314Q315.50232 316.575 314.87732 317.09064Q314.26794 317.59064 313.31482 317.59064Q312.08044 317.59064 311.3617 316.7Q310.51794 315.6375 310.51794 313.21564ZM311.59607 313.21564Q311.59607 315.325 312.09607 316.02814Q312.59607 316.73126 313.31482 316.73126Q314.0492 316.73126 314.53357 316.02814Q315.03357 315.325 315.03357 313.21564Q315.03357 311.09064 314.53357 310.40314Q314.0492 309.7 313.2992 309.7Q312.58044 309.7 312.14294 310.3094Q311.59607 311.09064 311.59607 313.21564Z" fill-rule="nonzero"/><path fill="#000000" d="M395.82025 317.45L394.77338 317.45L394.77338 310.73126Q394.38275 311.09064 393.75775 311.46564Q393.14838 311.825 392.664 311.9969L392.664 310.98126Q393.539 310.5594 394.19525 309.98126Q394.86713 309.3875 395.14838 308.825L395.82025 308.825L395.82025 317.45ZM398.8515 313.21564Q398.8515 311.6844 399.164 310.7625Q399.4765 309.825 400.08588 309.325Q400.71088 308.825 401.64838 308.825Q402.33588 308.825 402.8515 309.10626Q403.38275 309.3875 403.7265 309.91876Q404.07025 310.4344 404.25775 311.1844Q404.44525 311.9344 404.44525 313.21564Q404.44525 314.73126 404.13275 315.65314Q403.83588 316.575 403.21088 317.09064Q402.6015 317.59064 401.64838 317.59064Q400.414 317.59064 399.69525 316.7Q398.8515 315.6375 398.8515 313.21564ZM399.92963 313.21564Q399.92963 315.325 400.42963 316.02814Q400.92963 316.73126 401.64838 316.73126Q402.38275 316.73126 402.86713 316.02814Q403.36713 315.325 403.36713 313.21564Q403.36713 311.09064 402.86713 310.40314Q402.38275 309.7 401.63275 309.7Q400.914 309.7 400.4765 310.3094Q399.92963 311.09064 399.92963 313.21564ZM405.8515 313.21564Q405.8515 311.6844 406.164 310.7625Q406.4765 309.825 407.08588 309.325Q407.71088 308.825 408.64838 308.825Q409.33588 308.825 409.8515 309.10626Q410.38275 309.3875 410.7265 309.91876Q411.07025 310.4344 411.25775 311.1844Q411.44525 311.9344 411.44525 313.21564Q411.44525 314.73126 411.13275 315.65314Q410.83588 316.575 410.21088 317.09064Q409.6015 317.59064 408.64838 317.59064Q407.414 317.59064 406.69525 316.7Q405.8515 315.6375 405.8515 313.21564ZM406.92963 313.21564Q406.92963 315.325 407.42963 316.02814Q407.92963 316.73126 408.64838 316.73126Q409.38275 316.73126 409.86713 316.02814Q410.36713 315.325 410.36713 313.21564Q410.36713 311.09064 409.86713 310.40314Q409.38275 309.7 408.63275 309.7Q407.914 309.7 407.4765 310.3094Q406.92963 311.09064 406.92963 313.21564ZM412.8515 313.21564Q412.8515 311.6844 413.164 310.7625Q413.4765 309.825 414.08588 309.325Q414.71088 308.825 415.64838 308.825Q416.33588 308.825 416.8515 309.10626Q417.38275 309.3875 417.7265 309.91876Q418.07025 310.4344 418.25775 311.1844Q418.44525 311.9344 418.44525 313.21564Q418.44525 314.73126 418.13275 315.65314Q417.83588 316.575 417.21088 317.09064Q416.6015 317.59064 415.64838 317.59064Q414.414 317.59064 413.69525 316.7Q412.8515 315.6375 412.8515 313.21564ZM413.92963 313.21564Q413.92963 315.325 414.42963 316.02814Q414.92963 316.73126 415.64838 316.73126Q416.38275 316.73126 416.86713 316.02814Q417.36713 315.325 417.36713 313.21564Q417.36713 311.09064 416.86713 310.40314Q416.38275 309.7 415.63275 309.7Q414.914 309.7 414.4765 310.3094Q413.92963 311.09064 413.92963 313.21564ZM419.8515 313.21564Q419.8515 311.6844 420.164 310.7625Q420.4765 309.825 421.08588 309.325Q421.71088 308.825 422.64838 308.825Q423.33588 308.825 423.8515 309.10626Q424.38275 309.3875 424.7265 309.91876Q425.07025 310.4344 425.25775 311.1844Q425.44525 311.9344 425.44525 313.21564Q425.44525 314.73126 425.13275 315.65314Q424.83588 316.575 424.21088 317.09064Q423.6015 317.59064 422.64838 317.59064Q421.414 317.59064 420.69525 316.7Q419.8515 315.6375 419.8515 313.21564ZM420.92963 313.21564Q420.92963 315.325 421.42963 316.02814Q421.92963 316.73126 422.64838 316.73126Q423.38275 316.73126 423.86713 316.02814Q424.36713 315.325 424.36713 313.21564Q424.36713 311.09064 423.86713 310.40314Q423.38275 309.7 422.63275 309.7Q421.914 309.7 421.4765 310.3094Q420.92963 311.09064 420.92963 313.21564ZM426.8515 313.21564Q426.8515 311.6844 427.164 310.7625Q427.4765 309.825 428.08588 309.325Q428.71088 308.825 429.64838 308.825Q430.33588 308.825 430.8515 309.10626Q431.38275 309.3875 431.7265 309.91876Q432.07025 310.4344 432.25775 311.1844Q432.44525 311.9344 432.44525 313.21564Q432.44525 314.73126 432.13275 315.65314Q431.83588 316.575 431.21088 317.09064Q430.6015 317.59064 429.64838 317.59064Q428.414 317.59064 427.69525 316.7Q426.8515 315.6375 426.8515 313.21564ZM427.92963 313.21564Q427.92963 315.325 428.42963 316.02814Q428.92963 316.73126 429.64838 316.73126Q430.38275 316.73126 430.86713 316.02814Q431.36713 315.325 431.36713 313.21564Q431.36713 311.09064 430.86713 310.40314Q430.38275 309.7 429.63275 309.7Q428.914 309.7 428.4765 310.3094Q427.92963 311.09064 427.92963 313.21564ZM433.8515 313.21564Q433.8515 311.6844 434.164 310.7625Q434.4765 309.825 435.08588 309.325Q435.71088 308.825 436.64838 308.825Q437.33588 308.825 437.8515 309.10626Q438.38275 309.3875 438.7265 309.91876Q439.07025 310.4344 439.25775 311.1844Q439.44525 311.9344 439.44525 313.21564Q439.44525 314.73126 439.13275 315.65314Q438.83588 316.575 438.21088 317.09064Q437.6015 317.59064 436.64838 317.59064Q435.414 317.59064 434.69525 316.7Q433.8515 315.6375 433.8515 313.21564ZM434.92963 313.21564Q434.92963 315.325 435.42963 316.02814Q435.92963 316.73126 436.64838 316.73126Q437.38275 316.73126 437.86713 316.02814Q438.36713 315.325 438.36713 313.21564Q438.36713 311.09064 437.86713 310.40314Q437.38275 309.7 436.63275 309.7Q435.914 309.7 435.4765 310.3094Q434.92963 311.09064 434.92963 313.21564Z" fill-rule="nonzero"/><path fill="#000000" d="M505.1538 317.45L504.10693 317.45L504.10693 310.73126Q503.7163 311.09064 503.0913 311.46564Q502.48193 311.825 501.99756 311.9969L501.99756 310.98126Q502.87256 310.5594 503.5288 309.98126Q504.20068 309.3875 504.48193 308.825L505.1538 308.825L505.1538 317.45ZM508.18506 313.21564Q508.18506 311.6844 508.49756 310.7625Q508.81006 309.825 509.41943 309.325Q510.04443 308.825 510.98193 308.825Q511.66943 308.825 512.18506 309.10626Q512.7163 309.3875 513.06006 309.91876Q513.4038 310.4344 513.5913 311.1844Q513.7788 311.9344 513.7788 313.21564Q513.7788 314.73126 513.4663 315.65314Q513.16943 316.575 512.54443 317.09064Q511.93506 317.59064 510.98193 317.59064Q509.74756 317.59064 509.0288 316.7Q508.18506 315.6375 508.18506 313.21564ZM509.26318 313.21564Q509.26318 315.325 509.76318 316.02814Q510.26318 316.73126 510.98193 316.73126Q511.7163 316.73126 512.2007 316.02814Q512.7007 315.325 512.7007 313.21564Q512.7007 311.09064 512.2007 310.40314Q511.7163 309.7 510.9663 309.7Q510.24756 309.7 509.81006 310.3094Q509.26318 311.09064 509.26318 313.21564ZM515.18506 313.21564Q515.18506 311.6844 515.49756 310.7625Q515.81006 309.825 516.41943 309.325Q517.04443 308.825 517.98193 308.825Q518.66943 308.825 519.18506 309.10626Q519.7163 309.3875 520.06006 309.91876Q520.4038 310.4344 520.5913 311.1844Q520.7788 311.9344 520.7788 313.21564Q520.7788 314.73126 520.4663 315.65314Q520.16943 316.575 519.54443 317.09064Q518.93506 317.59064 517.98193 317.59064Q516.74756 317.59064 516.0288 316.7Q515.18506 315.6375 515.18506 313.21564ZM516.2632 313.21564Q516.2632 315.325 516.7632 316.02814Q517.2632 316.73126 517.98193 316.73126Q518.7163 316.73126 519.2007 316.02814Q519.7007 315.325 519.7007 313.21564Q519.7007 311.09064 519.2007 310.40314Q518.7163 309.7 517.9663 309.7Q517.24756 309.7 516.81006 310.3094Q516.2632 311.09064 516.2632 313.21564ZM522.18506 313.21564Q522.18506 311.6844 522.49756 310.7625Q522.81006 309.825 523.41943 309.325Q524.04443 308.825 524.98193 308.825Q525.66943 308.825 526.18506 309.10626Q526.7163 309.3875 527.06006 309.91876Q527.4038 310.4344 527.5913 311.1844Q527.7788 311.9344 527.7788 313.21564Q527.7788 314.73126 527.4663 315.65314Q527.16943 316.575 526.54443 317.09064Q525.93506 317.59064 524.98193 317.59064Q523.74756 317.59064 523.0288 316.7Q522.18506 315.6375 522.18506 313.21564ZM523.2632 313.21564Q523.2632 315.325 523.7632 316.02814Q524.2632 316.73126 524.98193 316.73126Q525.7163 316.73126 526.2007 316.02814Q526.7007 315.325 526.7007 313.21564Q526.7007 311.09064 526.2007 310.40314Q525.7163 309.7 524.9663 309.7Q524.24756 309.7 523.81006 310.3094Q523.2632 311.09064 523.2632 313.21564ZM529.18506 313.21564Q529.18506 311.6844 529.49756 310.7625Q529.81006 309.825 530.41943 309.325Q531.04443 308.825 531.98193 308.825Q532.66943 308.825 533.18506 309.10626Q533.7163 309.3875 534.06006 309.91876Q534.4038 310.4344 534.5913 311.1844Q534.7788 311.9344 534.7788 313.21564Q534.7788 314.73126 534.4663 315.65314Q534.16943 316.575 533.54443 317.09064Q532.93506 317.59064 531.98193 317.59064Q530.74756 317.59064 530.0288 316.7Q529.18506 315.6375 529.18506 313.21564ZM530.2632 313.21564Q530.2632 315.325 530.7632 316.02814Q531.2632 316.73126 531.98193 316.73126Q532.7163 316.73126 533.2007 316.02814Q533.7007 315.325 533.7007 313.21564Q533.7007 311.09064 533.2007 310.40314Q532.7163 309.7 531.9663 309.7Q531.24756 309.7 530.81006 310.3094Q530.2632 311.09064 530.2632 313.21564ZM536.18506 313.21564Q536.18506 311.6844 536.49756 310.7625Q536.81006 309.825 537.41943 309.325Q538.04443 308.825 538.98193 308.825Q539.66943 308.825 540.18506 309.10626Q540.7163 309.3875 541.06006 309.91876Q541.4038 310.4344 541.5913 311.1844Q541.7788 311.9344 541.7788 313.21564Q541.7788 314.73126 541.4663 315.65314Q541.16943 316.575 540.54443 317.09064Q539.93506 317.59064 538.98193 317.59064Q537.74756 317.59064 537.0288 316.7Q536.18506 315.6375 536.18506 313.21564ZM537.2632 313.21564Q537.2632 315.325 537.7632 316.02814Q538.2632 316.73126 538.98193 316.73126Q539.7163 316.73126 540.2007 316.02814Q540.7007 315.325 540.7007 313.21564Q540.7007 311.09064 540.2007 310.40314Q539.7163 309.7 538.9663 309.7Q538.24756 309.7 537.81006 310.3094Q537.2632 311.09064 537.2632 313.21564ZM543.18506 313.21564Q543.18506 311.6844 543.49756 310.7625Q543.81006 309.825 544.41943 309.325Q545.04443 308.825 545.98193 308.825Q546.66943 308.825 547.18506 309.10626Q547.7163 309.3875 548.06006 309.91876Q548.4038 310.4344 548.5913 311.1844Q548.7788 311.9344 548.7788 313.21564Q548.7788 314.73126 548.4663 315.65314Q548.16943 316.575 547.54443 317.09064Q546.93506 317.59064 545.98193 317.59064Q544.74756 317.59064 544.0288 316.7Q543.18506 315.6375 543.18506 313.21564ZM544.2632 313.21564Q544.2632 315.325 544.7632 316.02814Q545.2632 316.73126 545.98193 316.73126Q546.7163 316.73126 547.2007 316.02814Q547.7007 315.325 547.7007 313.21564Q547.7007 311.09064 547.2007 310.40314Q546.7163 309.7 545.9663 309.7Q545.24756 309.7 544.81006 310.3094Q544.2632 311.09064 544.2632 313.21564ZM550.18506 313.21564Q550.18506 311.6844 550.49756 310.7625Q550.81006 309.825 551.41943 309.325Q552.04443 308.825 552.98193 308.825Q553.66943 308.825 554.18506 309.10626Q554.7163 309.3875 555.06006 309.91876Q555.4038 310.4344 555.5913 311.1844Q555.7788 311.9344 555.7788 313.21564Q555.7788 314.73126 555.4663 315.65314Q555.16943 316.575 554.54443 317.09064Q553.93506 317.59064 552.98193 317.59064Q551.74756 317.59064 551.0288 316.7Q550.18506 315.6375 550.18506 313.21564ZM551.2632 313.21564Q551.2632 315.325 551.7632 316.02814Q552.2632 316.73126 552.98193 316.73126Q553.7163 316.73126 554.2007 316.02814Q554.7007 315.325 554.7007 313.21564Q554.7007 311.09064 554.2007 310.40314Q553.7163 309.7 552.9663 309.7Q552.24756 309.7 551.81006 310.3094Q551.2632 311.09064 551.2632 313.21564ZM557.18506 313.21564Q557.18506 311.6844 557.49756 310.7625Q557.81006 309.825 558.41943 309.325Q559.04443 308.825 559.98193 308.825Q560.66943 308.825 561.18506 309.10626Q561.7163 309.3875 562.06006 309.91876Q562.4038 310.4344 562.5913 311.1844Q562.7788 311.9344 562.7788 313.21564Q562.7788 314.73126 562.4663 315.65314Q562.16943 316.575 561.54443 317.09064Q560.93506 317.59064 559.98193 317.59064Q558.74756 317.59064 558.0288 316.7Q557.18506 315.6375 557.18506 313.21564ZM558.2632 313.21564Q558.2632 315.325 558.7632 316.02814Q559.2632 316.73126 559.98193 316.73126Q560.7163 316.73126 561.2007 316.02814Q561.7007 315.325 561.7007 313.21564Q561.7007 311.09064 561.2007 310.40314Q560.7163 309.7 559.9663 309.7Q559.24756 309.7 558.81006 310.3094Q558.2632 311.09064 558.2632 313.21564Z" fill-rule="nonzero"/><path fill="#4285f4" d="M149.0 61.916668C149.0 65.23038 146.3137 67.916664 143.0 67.916664C139.6863 67.916664 137.0 65.23038 137.0 61.916668C137.0 58.60296 139.6863 55.916668 143.0 55.916668C146.3137 55.916668 149.0 58.60296 149.0 61.916668Z" fill-rule="nonzero"/><path fill="#1a1a1a" d="M162.96875 59.697914L162.96875 65.916664L162.01562 65.916664L162.01562 65.18229Q161.71875 65.65104 161.42188 65.822914Q161.01562 66.05729 160.46875 66.05729Q159.98438 66.05729 159.60938 65.86979Q159.32812 65.729164 158.98438 65.291664L158.98438 68.30729L157.9375 68.30729L157.9375 59.697914L158.98438 59.697914L158.98438 62.322914Q158.98438 63.760414 159.125 64.197914Q159.28125 64.61979 159.625 64.86979Q159.96875 65.104164 160.42188 65.104164Q160.89062 65.104164 161.25 64.854164Q161.625 64.58854 161.76562 64.18229Q161.92188 63.77604 161.92188 62.354164L161.92188 59.697914L162.96875 59.697914ZM164.375 64.05729L165.40625 63.90104Q165.5 64.52604 165.89062 64.854164Q166.29688 65.18229 167.03125 65.18229Q167.75 65.18229 168.09375 64.90104Q168.45312 64.604164 168.45312 64.197914Q168.45312 63.83854 168.14062 63.635414Q167.92188 63.49479 167.0625 63.27604Q165.90625 62.979164 165.45312 62.77604Q165.01562 62.55729 164.78125 62.18229Q164.54688 61.80729 164.54688 61.33854Q164.54688 60.93229 164.73438 60.572914Q164.92188 60.21354 165.25 59.979164Q165.5 59.80729 165.92188 59.68229Q166.34375 59.55729 166.84375 59.55729Q167.5625 59.55729 168.10938 59.77604Q168.67188 59.979164 168.9375 60.33854Q169.20312 60.697914 169.29688 61.291664L168.26562 61.43229Q168.20312 60.96354 167.85938 60.697914Q167.53125 60.416664 166.90625 60.416664Q166.1875 60.416664 165.875 60.666664Q165.5625 60.90104 165.5625 61.229164Q165.5625 61.43229 165.6875 61.58854Q165.82812 61.760414 166.09375 61.86979Q166.25 61.93229 167.03125 62.135414Q168.15625 62.447914 168.59375 62.635414Q169.03125 62.822914 169.28125 63.18229Q169.53125 63.541664 169.53125 64.08854Q169.53125 64.61979 169.21875 65.08854Q168.92188 65.541664 168.34375 65.80729Q167.76562 66.05729 167.03125 66.05729Q165.8125 66.05729 165.17188 65.55729Q164.54688 65.041664 164.375 64.05729ZM171.0 66.05729L173.48438 57.18229L174.32812 57.18229L171.84375 66.05729L171.0 66.05729ZM174.40625 62.80729Q174.40625 61.072914 175.35938 60.24479Q176.15625 59.55729 177.3125 59.55729Q178.59375 59.55729 179.40625 60.40104Q180.23438 61.229164 180.23438 62.71354Q180.23438 63.916664 179.875 64.604164Q179.51562 65.291664 178.8125 65.68229Q178.125 66.05729 177.3125 66.05729Q176.01562 66.05729 175.20312 65.229164Q174.40625 64.385414 174.40625 62.80729ZM175.48438 62.80729Q175.48438 63.99479 176.0 64.58854Q176.53125 65.18229 177.3125 65.18229Q178.10938 65.18229 178.625 64.58854Q179.14062 63.99479 179.14062 62.77604Q179.14062 61.61979 178.60938 61.02604Q178.09375 60.43229 177.3125 60.43229Q176.53125 60.43229 176.0 61.02604Q175.48438 61.604164 175.48438 62.80729ZM181.79688 68.30729L181.79688 59.697914L182.75 59.697914L182.75 60.49479Q183.09375 60.02604 183.51562 59.791664Q183.95312 59.55729 184.5625 59.55729Q185.35938 59.55729 185.96875 59.96354Q186.57812 60.36979 186.875 61.11979Q187.1875 61.86979 187.1875 62.760414Q187.1875 63.71354 186.84375 64.479164Q186.51562 65.24479 185.85938 65.65104Q185.20312 66.05729 184.48438 66.05729Q183.95312 66.05729 183.53125 65.83854Q183.10938 65.604164 182.84375 65.27604L182.84375 68.30729L181.79688 68.30729ZM182.75 62.83854Q182.75 64.041664 183.23438 64.61979Q183.71875 65.18229 184.40625 65.18229Q185.10938 65.18229 185.60938 64.58854Q186.10938 63.99479 186.10938 62.74479Q186.10938 61.55729 185.625 60.979164Q185.14062 60.385414 184.45312 60.385414Q183.78125 60.385414 183.26562 61.010414Q182.75 61.635414 182.75 62.83854ZM193.04688 63.916664L194.14062 64.041664Q193.89062 64.99479 193.1875 65.52604Q192.48438 66.05729 191.40625 66.05729Q190.04688 66.05729 189.23438 65.21354Q188.4375 64.36979 188.4375 62.854164Q188.4375 61.291664 189.25 60.43229Q190.0625 59.55729 191.34375 59.55729Q192.59375 59.55729 193.375 60.40104Q194.17188 61.24479 194.17188 62.791664Q194.17188 62.885414 194.17188 63.072914L189.53125 63.072914Q189.59375 64.104164 190.10938 64.65104Q190.625 65.18229 191.40625 65.18229Q191.98438 65.18229 192.39062 64.885414Q192.8125 64.572914 193.04688 63.916664ZM189.59375 62.21354L193.0625 62.21354Q193.0 61.416664 192.67188 61.02604Q192.15625 60.416664 191.35938 60.416664Q190.625 60.416664 190.125 60.90104Q189.64062 61.385414 189.59375 62.21354ZM195.78125 65.916664L195.78125 59.697914L196.73438 59.697914L196.73438 60.635414Q197.09375 59.979164 197.39062 59.77604Q197.70312 59.55729 198.07812 59.55729Q198.60938 59.55729 199.15625 59.885414L198.79688 60.86979Q198.40625 60.635414 198.03125 60.635414Q197.67188 60.635414 197.39062 60.854164Q197.125 61.05729 197.01562 61.43229Q196.82812 61.99479 196.82812 62.65104L196.82812 65.916664L195.78125 65.916664ZM203.85938 65.15104Q203.26562 65.65104 202.71875 65.854164Q202.1875 66.05729 201.5625 66.05729Q200.53125 66.05729 199.98438 65.55729Q199.4375 65.05729 199.4375 64.27604Q199.4375 63.822914 199.64062 63.447914Q199.84375 63.05729 200.1875 62.83854Q200.53125 62.604164 200.95312 62.49479Q201.25 62.40104 201.89062 62.322914Q203.15625 62.18229 203.76562 61.96354Q203.76562 61.74479 203.76562 61.697914Q203.76562 61.041664 203.46875 60.77604Q203.0625 60.43229 202.26562 60.43229Q201.53125 60.43229 201.17188 60.697914Q200.8125 60.947914 200.64062 61.604164L199.60938 61.46354Q199.75 60.80729 200.07812 60.40104Q200.40625 59.99479 201.01562 59.77604Q201.625 59.55729 202.42188 59.55729Q203.21875 59.55729 203.71875 59.74479Q204.21875 59.93229 204.45312 60.21354Q204.6875 60.49479 204.78125 60.93229Q204.82812 61.197914 204.82812 61.90104L204.82812 63.30729Q204.82812 64.77604 204.89062 65.166664Q204.96875 65.55729 205.17188 65.916664L204.0625 65.916664Q203.90625 65.58854 203.85938 65.15104ZM203.76562 62.791664Q203.1875 63.02604 202.04688 63.197914Q201.39062 63.291664 201.125 63.416664Q200.85938 63.52604 200.70312 63.74479Q200.5625 63.96354 200.5625 64.24479Q200.5625 64.666664 200.875 64.947914Q201.20312 65.229164 201.8125 65.229164Q202.42188 65.229164 202.89062 64.96354Q203.375 64.697914 203.59375 64.229164Q203.76562 63.86979 203.76562 63.18229L203.76562 62.791664ZM209.09375 64.979164L209.25 65.90104Q208.79688 65.99479 208.45312 65.99479Q207.875 65.99479 207.5625 65.822914Q207.25 65.635414 207.10938 65.33854Q206.98438 65.041664 206.98438 64.08854L206.98438 60.510414L206.21875 60.510414L206.21875 59.697914L206.98438 59.697914L206.98438 58.15104L208.03125 57.52604L208.03125 59.697914L209.09375 59.697914L209.09375 60.510414L208.03125 60.510414L208.03125 64.15104Q208.03125 64.604164 208.07812 64.729164Q208.14062 64.854164 208.26562 64.93229Q208.39062 65.010414 208.625 65.010414Q208.8125 65.010414 209.09375 64.979164ZM209.79688 58.541664L209.79688 57.322914L210.85938 57.322914L210.85938 58.541664L209.79688 58.541664ZM209.79688 65.916664L209.79688 59.697914L210.85938 59.697914L210.85938 65.916664L209.79688 65.916664ZM212.40625 62.80729Q212.40625 61.072914 213.35938 60.24479Q214.15625 59.55729 215.3125 59.55729Q216.59375 59.55729 217.40625 60.40104Q218.23438 61.229164 218.23438 62.71354Q218.23438 63.916664 217.875 64.604164Q217.51562 65.291664 216.8125 65.68229Q216.125 66.05729 215.3125 66.05729Q214.01562 66.05729 213.20312 65.229164Q212.40625 64.385414 212.40625 62.80729ZM213.48438 62.80729Q213.48438 63.99479 214.0 64.58854Q214.53125 65.18229 215.3125 65.18229Q216.10938 65.18229 216.625 64.58854Q217.14062 63.99479 217.14062 62.77604Q217.14062 61.61979 216.60938 61.02604Q216.09375 60.43229 215.3125 60.43229Q214.53125 60.43229 214.0 61.02604Q213.48438 61.604164 213.48438 62.80729ZM219.79688 65.916664L219.79688 59.697914L220.73438 59.697914L220.73438 60.572914Q221.42188 59.55729 222.71875 59.55729Q223.28125 59.55729 223.75 59.760414Q224.23438 59.96354 224.46875 60.291664Q224.70312 60.61979 224.79688 61.05729Q224.84375 61.354164 224.84375 62.08854L224.84375 65.916664L223.79688 65.916664L223.79688 62.135414Q223.79688 61.479164 223.67188 61.166664Q223.54688 60.854164 223.23438 60.666664Q222.92188 60.46354 222.5 60.46354Q221.82812 60.46354 221.32812 60.90104Q220.84375 61.322914 220.84375 62.510414L220.84375 65.916664L219.79688 65.916664Z" fill-rule="nonzero"/><path stroke="#4285f4" stroke-width="4.0" stroke-linecap="butt" d="M242.0 61.916668L254.0 61.916668" fill-rule="nonzero"/><path fill="#1a1a1a" d="M265.10938 65.916664L265.10938 58.33854L262.28125 58.33854L262.28125 57.322914L269.09375 57.322914L269.09375 58.33854L266.25 58.33854L266.25 65.916664L265.10938 65.916664ZM269.78125 65.916664L269.78125 59.697914L270.73438 59.697914L270.73438 60.635414Q271.09375 59.979164 271.39062 59.77604Q271.70312 59.55729 272.07812 59.55729Q272.60938 59.55729 273.15625 59.885414L272.79688 60.86979Q272.40625 60.635414 272.03125 60.635414Q271.67188 60.635414 271.39062 60.854164Q271.125 61.05729 271.01562 61.43229Q270.82812 61.99479 270.82812 62.65104L270.82812 65.916664L269.78125 65.916664ZM278.04688 63.916664L279.14062 64.041664Q278.89062 64.99479 278.1875 65.52604Q277.48438 66.05729 276.40625 66.05729Q275.04688 66.05729 274.23438 65.21354Q273.4375 64.36979 273.4375 62.854164Q273.4375 61.291664 274.25 60.43229Q275.0625 59.55729 276.34375 59.55729Q277.59375 59.55729 278.375 60.40104Q279.17188 61.24479 279.17188 62.791664Q279.17188 62.885414 279.17188 63.072914L274.53125 63.072914Q274.59375 64.104164 275.10938 64.65104Q275.625 65.18229 276.40625 65.18229Q276.98438 65.18229 277.39062 64.885414Q277.8125 64.572914 278.04688 63.916664ZM274.59375 62.21354L278.0625 62.21354Q278.0 61.416664 277.67188 61.02604Q277.15625 60.416664 276.35938 60.416664Q275.625 60.416664 275.125 60.90104Q274.64062 61.385414 274.59375 62.21354ZM280.79688 65.916664L280.79688 59.697914L281.73438 59.697914L281.73438 60.572914Q282.42188 59.55729 283.71875 59.55729Q284.28125 59.55729 284.75 59.760414Q285.23438 59.96354 285.46875 60.291664Q285.70312 60.61979 285.79688 61.05729Q285.84375 61.354164 285.84375 62.08854L285.84375 65.916664L284.79688 65.916664L284.79688 62.135414Q284.79688 61.479164 284.67188 61.166664Q284.54688 60.854164 284.23438 60.666664Q283.92188 60.46354 283.5 60.46354Q282.82812 60.46354 282.32812 60.90104Q281.84375 61.322914 281.84375 62.510414L281.84375 65.916664L280.79688 65.916664ZM291.82812 65.916664L291.82812 65.135414Q291.23438 66.05729 290.09375 66.05729Q289.34375 66.05729 288.71875 65.65104Q288.09375 65.229164 287.75 64.49479Q287.40625 63.760414 287.40625 62.80729Q287.40625 61.885414 287.71875 61.11979Q288.03125 60.354164 288.65625 59.96354Q289.28125 59.55729 290.04688 59.55729Q290.60938 59.55729 291.04688 59.791664Q291.48438 60.02604 291.76562 60.40104L291.76562 57.322914L292.8125 57.322914L292.8125 65.916664L291.82812 65.916664ZM288.5 62.80729Q288.5 64.010414 289.0 64.604164Q289.5 65.18229 290.1875 65.18229Q290.875 65.18229 291.35938 64.61979Q291.84375 64.05729 291.84375 62.90104Q291.84375 61.61979 291.34375 61.02604Q290.85938 60.43229 290.14062 60.43229Q289.4375 60.43229 288.96875 61.010414Q288.5 61.572914 288.5 62.80729ZM294.76562 65.916664L294.76562 57.322914L295.82812 57.322914L295.82812 65.916664L294.76562 65.916664ZM297.79688 58.541664L297.79688 57.322914L298.85938 57.322914L298.85938 58.541664L297.79688 58.541664ZM297.79688 65.916664L297.79688 59.697914L298.85938 59.697914L298.85938 65.916664L297.79688 65.916664ZM300.79688 65.916664L300.79688 59.697914L301.73438 59.697914L301.73438 60.572914Q302.42188 59.55729 303.71875 59.55729Q304.28125 59.55729 304.75 59.760414Q305.23438 59.96354 305.46875 60.291664Q305.70312 60.61979 305.79688 61.05729Q305.84375 61.354164 305.84375 62.08854L305.84375 65.916664L304.79688 65.916664L304.79688 62.135414Q304.79688 61.479164 304.67188 61.166664Q304.54688 60.854164 304.23438 60.666664Q303.92188 60.46354 303.5 60.46354Q302.82812 60.46354 302.32812 60.90104Q301.84375 61.322914 301.84375 62.510414L301.84375 65.916664L300.79688 65.916664ZM312.04688 63.916664L313.14062 64.041664Q312.89062 64.99479 312.1875 65.52604Q311.48438 66.05729 310.40625 66.05729Q309.04688 66.05729 308.23438 65.21354Q307.4375 64.36979 307.4375 62.854164Q307.4375 61.291664 308.25 60.43229Q309.0625 59.55729 310.34375 59.55729Q311.59375 59.55729 312.375 60.40104Q313.17188 61.24479 313.17188 62.791664Q313.17188 62.885414 313.17188 63.072914L308.53125 63.072914Q308.59375 64.104164 309.10938 64.65104Q309.625 65.18229 310.40625 65.18229Q310.98438 65.18229 311.39062 64.885414Q311.8125 64.572914 312.04688 63.916664ZM308.59375 62.21354L312.0625 62.21354Q312.0 61.416664 311.67188 61.02604Q311.15625 60.416664 310.35938 60.416664Q309.625 60.416664 309.125 60.90104Q308.64062 61.385414 308.59375 62.21354ZM318.04688 65.916664L318.04688 60.510414L317.10938 60.510414L317.10938 59.697914L318.04688 59.697914L318.04688 59.02604Q318.04688 58.40104 318.15625 58.104164Q318.3125 57.68229 318.6875 57.43229Q319.07812 57.18229 319.76562 57.18229Q320.21875 57.18229 320.75 57.291664L320.59375 58.197914Q320.26562 58.15104 319.96875 58.15104Q319.48438 58.15104 319.28125 58.354164Q319.09375 58.55729 319.09375 59.11979L319.09375 59.697914L320.3125 59.697914L320.3125 60.510414L319.09375 60.510414L319.09375 65.916664L318.04688 65.916664ZM320.40625 62.80729Q320.40625 61.072914 321.35938 60.24479Q322.15625 59.55729 323.3125 59.55729Q324.59375 59.55729 325.40625 60.40104Q326.23438 61.229164 326.23438 62.71354Q326.23438 63.916664 325.875 64.604164Q325.51562 65.291664 324.8125 65.68229Q324.125 66.05729 323.3125 66.05729Q322.01562 66.05729 321.20312 65.229164Q320.40625 64.385414 320.40625 62.80729ZM321.48438 62.80729Q321.48438 63.99479 322.0 64.58854Q322.53125 65.18229 323.3125 65.18229Q324.10938 65.18229 324.625 64.58854Q325.14062 63.99479 325.14062 62.77604Q325.14062 61.61979 324.60938 61.02604Q324.09375 60.43229 323.3125 60.43229Q322.53125 60.43229 322.0 61.02604Q321.48438 61.604164 321.48438 62.80729ZM327.78125 65.916664L327.78125 59.697914L328.73438 59.697914L328.73438 60.635414Q329.09375 59.979164 329.39062 59.77604Q329.70312 59.55729 330.07812 59.55729Q330.60938 59.55729 331.15625 59.885414L330.79688 60.86979Q330.40625 60.635414 330.03125 60.635414Q329.67188 60.635414 329.39062 60.854164Q329.125 61.05729 329.01562 61.43229Q328.82812 61.99479 328.82812 62.65104L328.82812 65.916664L327.78125 65.916664ZM339.96875 59.697914L339.96875 65.916664L339.01562 65.916664L339.01562 65.18229Q338.71875 65.65104 338.42188 65.822914Q338.01562 66.05729 337.46875 66.05729Q336.98438 66.05729 336.60938 65.86979Q336.32812 65.729164 335.98438 65.291664L335.98438 68.30729L334.9375 68.30729L334.9375 59.697914L335.98438 59.697914L335.98438 62.322914Q335.98438 63.760414 336.125 64.197914Q336.28125 64.61979 336.625 64.86979Q336.96875 65.104164 337.42188 65.104164Q337.89062 65.104164 338.25 64.854164Q338.625 64.58854 338.76562 64.18229Q338.92188 63.77604 338.92188 62.354164L338.92188 59.697914L339.96875 59.697914ZM341.375 64.05729L342.40625 63.90104Q342.5 64.52604 342.89062 64.854164Q343.29688 65.18229 344.03125 65.18229Q344.75 65.18229 345.09375 64.90104Q345.45312 64.604164 345.45312 64.197914Q345.45312 63.83854 345.14062 63.635414Q344.92188 63.49479 344.0625 63.27604Q342.90625 62.979164 342.45312 62.77604Q342.01562 62.55729 341.78125 62.18229Q341.54688 61.80729 341.54688 61.33854Q341.54688 60.93229 341.73438 60.572914Q341.92188 60.21354 342.25 59.979164Q342.5 59.80729 342.92188 59.68229Q343.34375 59.55729 343.84375 59.55729Q344.5625 59.55729 345.10938 59.77604Q345.67188 59.979164 345.9375 60.33854Q346.20312 60.697914 346.29688 61.291664L345.26562 61.43229Q345.20312 60.96354 344.85938 60.697914Q344.53125 60.416664 343.90625 60.416664Q343.1875 60.416664 342.875 60.666664Q342.5625 60.90104 342.5625 61.229164Q342.5625 61.43229 342.6875 61.58854Q342.82812 61.760414 343.09375 61.86979Q343.25 61.93229 344.03125 62.135414Q345.15625 62.447914 345.59375 62.635414Q346.03125 62.822914 346.28125 63.18229Q346.53125 63.541664 346.53125 64.08854Q346.53125 64.61979 346.21875 65.08854Q345.92188 65.541664 345.34375 65.80729Q344.76562 66.05729 344.03125 66.05729Q342.8125 66.05729 342.17188 65.55729Q341.54688 65.041664 341.375 64.05729ZM348.0 66.05729L350.48438 57.18229L351.32812 57.18229L348.84375 66.05729L348.0 66.05729ZM351.40625 62.80729Q351.40625 61.072914 352.35938 60.24479Q353.15625 59.55729 354.3125 59.55729Q355.59375 59.55729 356.40625 60.40104Q357.23438 61.229164 357.23438 62.71354Q357.23438 63.916664 356.875 64.604164Q356.51562 65.291664 355.8125 65.68229Q355.125 66.05729 354.3125 66.05729Q353.01562 66.05729 352.20312 65.229164Q351.40625 64.385414 351.40625 62.80729ZM352.48438 62.80729Q352.48438 63.99479 353.0 64.58854Q353.53125 65.18229 354.3125 65.18229Q355.10938 65.18229 355.625 64.58854Q356.14062 63.99479 356.14062 62.77604Q356.14062 61.61979 355.60938 61.02604Q355.09375 60.43229 354.3125 60.43229Q353.53125 60.43229 353.0 61.02604Q352.48438 61.604164 352.48438 62.80729ZM358.79688 68.30729L358.79688 59.697914L359.75 59.697914L359.75 60.49479Q360.09375 60.02604 360.51562 59.791664Q360.95312 59.55729 361.5625 59.55729Q362.35938 59.55729 362.96875 59.96354Q363.57812 60.36979 363.875 61.11979Q364.1875 61.86979 364.1875 62.760414Q364.1875 63.71354 363.84375 64.479164Q363.51562 65.24479 362.85938 65.65104Q362.20312 66.05729 361.48438 66.05729Q360.95312 66.05729 360.53125 65.83854Q360.10938 65.604164 359.84375 65.27604L359.84375 68.30729L358.79688 68.30729ZM359.75 62.83854Q359.75 64.041664 360.23438 64.61979Q360.71875 65.18229 361.40625 65.18229Q362.10938 65.18229 362.60938 64.58854Q363.10938 63.99479 363.10938 62.74479Q363.10938 61.55729 362.625 60.979164Q362.14062 60.385414 361.45312 60.385414Q360.78125 60.385414 360.26562 61.010414Q359.75 61.635414 359.75 62.83854ZM370.04688 63.916664L371.14062 64.041664Q370.89062 64.99479 370.1875 65.52604Q369.48438 66.05729 368.40625 66.05729Q367.04688 66.05729 366.23438 65.21354Q365.4375 64.36979 365.4375 62.854164Q365.4375 61.291664 366.25 60.43229Q367.0625 59.55729 368.34375 59.55729Q369.59375 59.55729 370.375 60.40104Q371.17188 61.24479 371.17188 62.791664Q371.17188 62.885414 371.17188 63.072914L366.53125 63.072914Q366.59375 64.104164 367.10938 64.65104Q367.625 65.18229 368.40625 65.18229Q368.98438 65.18229 369.39062 64.885414Q369.8125 64.572914 370.04688 63.916664ZM366.59375 62.21354L370.0625 62.21354Q370.0 61.416664 369.67188 61.02604Q369.15625 60.416664 368.35938 60.416664Q367.625 60.416664 367.125 60.90104Q366.64062 61.385414 366.59375 62.21354ZM372.78125 65.916664L372.78125 59.697914L373.73438 59.697914L373.73438 60.635414Q374.09375 59.979164 374.39062 59.77604Q374.70312 59.55729 375.07812 59.55729Q375.60938 59.55729 376.15625 59.885414L375.79688 60.86979Q375.40625 60.635414 375.03125 60.635414Q374.67188 60.635414 374.39062 60.854164Q374.125 61.05729 374.01562 61.43229Q373.82812 61.99479 373.82812 62.65104L373.82812 65.916664L372.78125 65.916664ZM380.85938 65.15104Q380.26562 65.65104 379.71875 65.854164Q379.1875 66.05729 378.5625 66.05729Q377.53125 66.05729 376.98438 65.55729Q376.4375 65.05729 376.4375 64.27604Q376.4375 63.822914 376.64062 63.447914Q376.84375 63.05729 377.1875 62.83854Q377.53125 62.604164 377.95312 62.49479Q378.25 62.40104 378.89062 62.322914Q380.15625 62.18229 380.76562 61.96354Q380.76562 61.74479 380.76562 61.697914Q380.76562 61.041664 380.46875 60.77604Q380.0625 60.43229 379.26562 60.43229Q378.53125 60.43229 378.17188 60.697914Q377.8125 60.947914 377.64062 61.604164L376.60938 61.46354Q376.75 60.80729 377.07812 60.40104Q377.40625 59.99479 378.01562 59.77604Q378.625 59.55729 379.42188 59.55729Q380.21875 59.55729 380.71875 59.74479Q381.21875 59.93229 381.45312 60.21354Q381.6875 60.49479 381.78125 60.93229Q381.82812 61.197914 381.82812 61.90104L381.82812 63.30729Q381.82812 64.77604 381.89062 65.166664Q381.96875 65.55729 382.17188 65.916664L381.0625 65.916664Q380.90625 65.58854 380.85938 65.15104ZM380.76562 62.791664Q380.1875 63.02604 379.04688 63.197914Q378.39062 63.291664 378.125 63.416664Q377.85938 63.52604 377.70312 63.74479Q377.5625 63.96354 377.5625 64.24479Q377.5625 64.666664 377.875 64.947914Q378.20312 65.229164 378.8125 65.229164Q379.42188 65.229164 379.89062 64.96354Q380.375 64.697914 380.59375 64.229164Q380.76562 63.86979 380.76562 63.18229L380.76562 62.791664ZM386.09375 64.979164L386.25 65.90104Q385.79688 65.99479 385.45312 65.99479Q384.875 65.99479 384.5625 65.822914Q384.25 65.635414 384.10938 65.33854Q383.98438 65.041664 383.98438 64.08854L383.98438 60.510414L383.21875 60.510414L383.21875 59.697914L383.98438 59.697914L383.98438 58.15104L385.03125 57.52604L385.03125 59.697914L386.09375 59.697914L386.09375 60.510414L385.03125 60.510414L385.03125 64.15104Q385.03125 64.604164 385.07812 64.729164Q385.14062 64.854164 385.26562 64.93229Q385.39062 65.010414 385.625 65.010414Q385.8125 65.010414 386.09375 64.979164ZM386.79688 58.541664L386.79688 57.322914L387.85938 57.322914L387.85938 58.541664L386.79688 58.541664ZM386.79688 65.916664L386.79688 59.697914L387.85938 59.697914L387.85938 65.916664L386.79688 65.916664ZM389.40625 62.80729Q389.40625 61.072914 390.35938 60.24479Q391.15625 59.55729 392.3125 59.55729Q393.59375 59.55729 394.40625 60.40104Q395.23438 61.229164 395.23438 62.71354Q395.23438 63.916664 394.875 64.604164Q394.51562 65.291664 393.8125 65.68229Q393.125 66.05729 392.3125 66.05729Q391.01562 66.05729 390.20312 65.229164Q389.40625 64.385414 389.40625 62.80729ZM390.48438 62.80729Q390.48438 63.99479 391.0 64.58854Q391.53125 65.18229 392.3125 65.18229Q393.10938 65.18229 393.625 64.58854Q394.14062 63.99479 394.14062 62.77604Q394.14062 61.61979 393.60938 61.02604Q393.09375 60.43229 392.3125 60.43229Q391.53125 60.43229 391.0 61.02604Q390.48438 61.604164 390.48438 62.80729ZM396.79688 65.916664L396.79688 59.697914L397.73438 59.697914L397.73438 60.572914Q398.42188 59.55729 399.71875 59.55729Q400.28125 59.55729 400.75 59.760414Q401.23438 59.96354 401.46875 60.291664Q401.70312 60.61979 401.79688 61.05729Q401.84375 61.354164 401.84375 62.08854L401.84375 65.916664L400.79688 65.916664L400.79688 62.135414Q400.79688 61.479164 400.67188 61.166664Q400.54688 60.854164 400.23438 60.666664Q399.92188 60.46354 399.5 60.46354Q398.82812 60.46354 398.32812 60.90104Q397.84375 61.322914 397.84375 62.510414L397.84375 65.916664L396.79688 65.916664ZM406.9375 65.916664L406.9375 57.322914L410.75 57.322914Q411.90625 57.322914 412.5 57.55729Q413.09375 57.791664 413.45312 58.385414Q413.8125 58.96354 413.8125 59.666664Q413.8125 60.58854 413.21875 61.21354Q412.625 61.83854 411.39062 62.010414Q411.84375 62.229164 412.07812 62.43229Q412.57812 62.885414 413.01562 63.572914L414.51562 65.916664L413.07812 65.916664L411.95312 64.135414Q411.45312 63.354164 411.125 62.947914Q410.8125 62.541664 410.54688 62.385414Q410.29688 62.21354 410.03125 62.135414Q409.84375 62.104164 409.40625 62.104164L408.07812 62.104164L408.07812 65.916664L406.9375 65.916664ZM408.07812 61.11979L410.53125 61.11979Q411.29688 61.11979 411.73438 60.96354Q412.1875 60.791664 412.40625 60.447914Q412.64062 60.08854 412.64062 59.666664Q412.64062 59.05729 412.1875 58.666664Q411.75 58.27604 410.79688 58.27604L408.07812 58.27604L408.07812 61.11979ZM415.14062 61.61979Q415.1875 61.291664 415.42188 60.947914Q415.79688 60.447914 416.64062 59.83854Q417.48438 59.229164 417.64062 59.041664Q417.85938 58.80729 417.85938 58.55729Q417.85938 58.27604 417.64062 58.104164Q417.4375 57.916664 417.04688 57.916664Q416.65625 57.916664 416.46875 58.05729Q416.28125 58.18229 416.15625 58.572914L415.26562 58.479164Q415.4375 57.83854 415.85938 57.52604Q416.28125 57.21354 417.0625 57.21354Q417.95312 57.21354 418.35938 57.572914Q418.78125 57.916664 418.78125 58.416664Q418.78125 58.90104 418.42188 59.33854Q418.17188 59.666664 417.23438 60.33854Q416.73438 60.697914 416.53125 60.916664L418.79688 60.916664L418.79688 61.61979L415.14062 61.61979ZM428.34375 60.86979L422.67188 60.86979L422.67188 59.885414L428.34375 59.885414L428.34375 60.86979ZM428.34375 63.479164L422.67188 63.479164L422.67188 62.49479L428.34375 62.49479L428.34375 63.479164ZM432.5 61.68229Q432.5 60.15104 432.8125 59.229164Q433.125 58.291664 433.73438 57.791664Q434.35938 57.291664 435.29688 57.291664Q435.98438 57.291664 436.5 57.572914Q437.03125 57.854164 437.375 58.385414Q437.71875 58.90104 437.90625 59.65104Q438.09375 60.40104 438.09375 61.68229Q438.09375 63.197914 437.78125 64.11979Q437.48438 65.041664 436.85938 65.55729Q436.25 66.05729 435.29688 66.05729Q434.0625 66.05729 433.34375 65.166664Q432.5 64.104164 432.5 61.68229ZM433.57812 61.68229Q433.57812 63.791664 434.07812 64.49479Q434.57812 65.197914 435.29688 65.197914Q436.03125 65.197914 436.51562 64.49479Q437.01562 63.791664 437.01562 61.68229Q437.01562 59.55729 436.51562 58.86979Q436.03125 58.166664 435.28125 58.166664Q434.5625 58.166664 434.125 58.77604Q433.57812 59.55729 433.57812 61.68229ZM440.09375 65.916664L440.09375 64.71354L441.29688 64.71354L441.29688 65.916664L440.09375 65.916664ZM442.5 61.68229Q442.5 60.15104 442.8125 59.229164Q443.125 58.291664 443.73438 57.791664Q444.35938 57.291664 445.29688 57.291664Q445.98438 57.291664 446.5 57.572914Q447.03125 57.854164 447.375 58.385414Q447.71875 58.90104 447.90625 59.65104Q448.09375 60.40104 448.09375 61.68229Q448.09375 63.197914 447.78125 64.11979Q447.48438 65.041664 446.85938 65.55729Q446.25 66.05729 445.29688 66.05729Q444.0625 66.05729 443.34375 65.166664Q442.5 64.104164 442.5 61.68229ZM443.57812 61.68229Q443.57812 63.791664 444.07812 64.49479Q444.57812 65.197914 445.29688 65.197914Q446.03125 65.197914 446.51562 64.49479Q447.01562 63.791664 447.01562 61.68229Q447.01562 59.55729 446.51562 58.86979Q446.03125 58.166664 445.28125 58.166664Q444.5625 58.166664 444.125 58.77604Q443.57812 59.55729 443.57812 61.68229ZM449.5 61.68229Q449.5 60.15104 449.8125 59.229164Q450.125 58.291664 450.73438 57.791664Q451.35938 57.291664 452.29688 57.291664Q452.98438 57.291664 453.5 57.572914Q454.03125 57.854164 454.375 58.385414Q454.71875 58.90104 454.90625 59.65104Q455.09375 60.40104 455.09375 61.68229Q455.09375 63.197914 454.78125 64.11979Q454.48438 65.041664 453.85938 65.55729Q453.25 66.05729 452.29688 66.05729Q451.0625 66.05729 450.34375 65.166664Q449.5 64.104164 449.5 61.68229ZM450.57812 61.68229Q450.57812 63.791664 451.07812 64.49479Q451.57812 65.197914 452.29688 65.197914Q453.03125 65.197914 453.51562 64.49479Q454.01562 63.791664 454.01562 61.68229Q454.01562 59.55729 453.51562 58.86979Q453.03125 58.166664 452.28125 58.166664Q451.5625 58.166664 451.125 58.77604Q450.57812 59.55729 450.57812 61.68229ZM458.125 61.260414Q457.46875 61.010414 457.14062 60.572914Q456.82812 60.11979 456.82812 59.510414Q456.82812 58.572914 457.5 57.93229Q458.1875 57.291664 459.29688 57.291664Q460.42188 57.291664 461.10938 57.947914Q461.79688 58.604164 461.79688 59.541664Q461.79688 60.135414 461.48438 60.572914Q461.17188 61.010414 460.53125 61.260414Q461.32812 61.510414 461.73438 62.08854Q462.14062 62.666664 462.14062 63.46354Q462.14062 64.55729 461.35938 65.30729Q460.59375 66.05729 459.3125 66.05729Q458.04688 66.05729 457.26562 65.30729Q456.48438 64.55729 456.48438 63.43229Q456.48438 62.58854 456.90625 62.02604Q457.34375 61.46354 458.125 61.260414ZM457.90625 59.46354Q457.90625 60.072914 458.29688 60.46354Q458.70312 60.854164 459.32812 60.854164Q459.9375 60.854164 460.32812 60.479164Q460.71875 60.08854 460.71875 59.52604Q460.71875 58.947914 460.3125 58.55729Q459.90625 58.15104 459.3125 58.15104Q458.70312 58.15104 458.29688 58.541664Q457.90625 58.93229 457.90625 59.46354ZM457.57812 63.43229Q457.57812 63.885414 457.78125 64.30729Q458.0 64.729164 458.42188 64.96354Q458.84375 65.197914 459.32812 65.197914Q460.07812 65.197914 460.5625 64.71354Q461.0625 64.229164 461.0625 63.479164Q461.0625 62.71354 460.5625 62.21354Q460.0625 61.71354 459.29688 61.71354Q458.54688 61.71354 458.0625 62.21354Q457.57812 62.697914 457.57812 63.43229Z" fill-rule="nonzero"/><path fill="#757575" d="M19.45625 32.95625L21.2375 32.8Q21.3625 33.8625 21.815624 34.55Q22.284374 35.2375 23.253124 35.675Q24.2375 36.096874 25.471874 36.096874Q26.55 36.096874 27.378124 35.784374Q28.20625 35.45625 28.6125 34.89375Q29.01875 34.33125 29.01875 33.659374Q29.01875 32.9875 28.628124 32.4875Q28.2375 31.9875 27.346874 31.64375Q26.76875 31.409374 24.784374 30.940624Q22.815624 30.471874 22.034374 30.05Q21.003124 29.51875 20.503124 28.721874Q20.003124 27.925 20.003124 26.940624Q20.003124 25.846874 20.6125 24.909374Q21.221874 23.971874 22.409374 23.4875Q23.596874 22.9875 25.034374 22.9875Q26.628124 22.9875 27.846874 23.503124Q29.065624 24.01875 29.70625 25.01875Q30.3625 26.003124 30.409374 27.26875L28.596874 27.409374Q28.45625 26.05 27.6125 25.3625Q26.76875 24.659374 25.1125 24.659374Q23.39375 24.659374 22.596874 25.3Q21.815624 25.925 21.815624 26.8Q21.815624 27.58125 22.378124 28.08125Q22.925 28.58125 25.2375 29.096874Q27.55 29.6125 28.409374 30.003124Q29.659374 30.58125 30.253124 31.471874Q30.846874 32.346874 30.846874 33.503124Q30.846874 34.64375 30.190624 35.659374Q29.534374 36.675 28.3 37.2375Q27.08125 37.8 25.55 37.8Q23.6125 37.8 22.3 37.2375Q20.9875 36.659374 20.2375 35.51875Q19.4875 34.378124 19.45625 32.95625ZM36.70625 35.971874L36.95625 37.534374Q36.221874 37.690624 35.628124 37.690624Q34.675 37.690624 34.14375 37.39375Q33.628124 37.08125 33.409374 36.596874Q33.190624 36.096874 33.190624 34.51875L33.190624 28.55L31.909374 28.55L31.909374 27.175L33.190624 27.175L33.190624 24.6125L34.940624 23.55L34.940624 27.175L36.70625 27.175L36.70625 28.55L34.940624 28.55L34.940624 34.6125Q34.940624 35.3625 35.034374 35.58125Q35.128124 35.784374 35.33125 35.925Q35.55 36.05 35.940624 36.05Q36.221874 36.05 36.70625 35.971874ZM45.64375 36.26875Q44.659374 37.096874 43.753124 37.440624Q42.846874 37.784374 41.815624 37.784374Q40.1125 37.784374 39.190624 36.95625Q38.26875 36.1125 38.26875 34.815624Q38.26875 34.05 38.6125 33.425Q38.971874 32.8 39.534374 32.425Q40.096874 32.034374 40.8 31.83125Q41.315624 31.70625 42.3625 31.565624Q44.4875 31.315624 45.4875 30.971874Q45.503124 30.6125 45.503124 30.503124Q45.503124 29.440624 45.003124 28.9875Q44.33125 28.39375 43.003124 28.39375Q41.753124 28.39375 41.159374 28.83125Q40.58125 29.26875 40.3 30.378124L38.58125 30.14375Q38.815624 29.034374 39.346874 28.3625Q39.878124 27.675 40.89375 27.315624Q41.909374 26.940624 43.253124 26.940624Q44.58125 26.940624 45.409374 27.253124Q46.2375 27.565624 46.628124 28.05Q47.01875 28.51875 47.175 29.2375Q47.26875 29.690624 47.26875 30.8625L47.26875 33.20625Q47.26875 35.659374 47.378124 36.315624Q47.4875 36.95625 47.83125 37.55L45.9875 37.55Q45.721874 37.003124 45.64375 36.26875ZM45.4875 32.346874Q44.534374 32.7375 42.6125 33.003124Q41.534374 33.159374 41.08125 33.3625Q40.64375 33.55 40.39375 33.925Q40.14375 34.3 40.14375 34.76875Q40.14375 35.471874 40.675 35.940624Q41.20625 36.409374 42.2375 36.409374Q43.253124 36.409374 44.034374 35.971874Q44.83125 35.51875 45.20625 34.753124Q45.4875 34.14375 45.4875 32.9875L45.4875 32.346874ZM56.64375 33.753124L58.3625 33.971874Q58.08125 35.76875 56.909374 36.784374Q55.753124 37.784374 54.05 37.784374Q51.925 37.784374 50.628124 36.39375Q49.33125 35.003124 49.33125 32.409374Q49.33125 30.721874 49.878124 29.471874Q50.440624 28.20625 51.58125 27.58125Q52.721874 26.940624 54.065624 26.940624Q55.753124 26.940624 56.815624 27.8Q57.89375 28.659374 58.20625 30.221874L56.4875 30.4875Q56.253124 29.440624 55.628124 28.925Q55.003124 28.39375 54.128124 28.39375Q52.8 28.39375 51.971874 29.346874Q51.14375 30.3 51.14375 32.346874Q51.14375 34.440624 51.940624 35.39375Q52.7375 36.33125 54.034374 36.33125Q55.065624 36.33125 55.753124 35.70625Q56.45625 35.065624 56.64375 33.753124ZM59.878124 37.55L59.878124 23.2375L61.64375 23.2375L61.64375 31.39375L65.8 27.175L68.06563 27.175L64.1125 31.01875L68.47188 37.55L66.3 37.55L62.878124 32.253124L61.64375 33.440624L61.64375 37.55L59.878124 37.55ZM76.09688 37.55L76.09688 23.2375L81.4875 23.2375Q82.925 23.2375 83.675 23.3625Q84.72188 23.55 85.44063 24.05Q86.15938 24.534374 86.58125 25.425Q87.01875 26.315624 87.01875 27.378124Q87.01875 29.20625 85.84688 30.471874Q84.69063 31.721874 81.65938 31.721874L77.9875 31.721874L77.9875 37.55L76.09688 37.55ZM77.9875 30.034374L81.69063 30.034374Q83.51875 30.034374 84.28438 29.3625Q85.06563 28.675 85.06563 27.425Q85.06563 26.534374 84.6125 25.89375Q84.15938 25.253124 83.425 25.05Q82.94063 24.925 81.64375 24.925L77.9875 24.925L77.9875 30.034374ZM95.97188 34.20625L97.78438 34.440624Q97.3625 36.01875 96.19063 36.909374Q95.03438 37.784374 93.22188 37.784374Q90.95625 37.784374 89.6125 36.39375Q88.28438 34.9875 88.28438 32.45625Q88.28438 29.83125 89.62813 28.39375Q90.97188 26.940624 93.12813 26.940624Q95.20625 26.940624 96.51875 28.3625Q97.84688 29.76875 97.84688 32.346874Q97.84688 32.503124 97.83125 32.815624L90.09688 32.815624Q90.19063 34.51875 91.06563 35.425Q91.94063 36.33125 93.2375 36.33125Q94.20625 36.33125 94.87813 35.83125Q95.56563 35.315624 95.97188 34.20625ZM90.19063 31.3625L95.9875 31.3625Q95.87813 30.065624 95.33125 29.409374Q94.4875 28.39375 93.14375 28.39375Q91.94063 28.39375 91.1125 29.20625Q90.28438 30.003124 90.19063 31.3625ZM99.84688 37.55L99.84688 27.175L101.425 27.175L101.425 28.753124Q102.03438 27.64375 102.55 27.3Q103.06563 26.940624 103.675 26.940624Q104.56563 26.940624 105.4875 27.503124L104.87813 29.14375Q104.2375 28.753124 103.59688 28.753124Q103.01875 28.753124 102.55 29.1125Q102.09688 29.45625 101.89375 30.065624Q101.6125 31.003124 101.6125 32.1125L101.6125 37.55L99.84688 37.55ZM107.28438 37.55L107.28438 28.55L105.7375 28.55L105.7375 27.175L107.28438 27.175L107.28438 26.08125Q107.28438 25.034374 107.47188 24.51875Q107.72188 23.83125 108.3625 23.409374Q109.00313 22.9875 110.15938 22.9875Q110.90938 22.9875 111.8 23.159374L111.53438 24.690624Q110.9875 24.596874 110.50313 24.596874Q109.70625 24.596874 109.3625 24.940624Q109.03438 25.284374 109.03438 26.221874L109.03438 27.175L111.06563 27.175L111.06563 28.55L109.03438 28.55L109.03438 37.55L107.28438 37.55ZM112.22188 32.3625Q112.22188 29.4875 113.81563 28.096874Q115.15938 26.940624 117.08125 26.940624Q119.22188 26.940624 120.56563 28.346874Q121.925 29.753124 121.925 32.221874Q121.925 34.221874 121.33125 35.378124Q120.7375 36.51875 119.58125 37.159374Q118.44063 37.784374 117.08125 37.784374Q114.89375 37.784374 113.55 36.39375Q112.22188 34.9875 112.22188 32.3625ZM114.01875 32.3625Q114.01875 34.3625 114.87813 35.346874Q115.75313 36.33125 117.08125 36.33125Q118.39375 36.33125 119.25313 35.346874Q120.12813 34.346874 120.12813 32.3Q120.12813 30.378124 119.25313 29.39375Q118.37813 28.39375 117.08125 28.39375Q115.75313 28.39375 114.87813 29.39375Q114.01875 30.378124 114.01875 32.3625ZM123.84688 37.55L123.84688 27.175L125.425 27.175L125.425 28.753124Q126.03438 27.64375 126.55 27.3Q127.06563 26.940624 127.675 26.940624Q128.56563 26.940624 129.4875 27.503124L128.87813 29.14375Q128.2375 28.753124 127.59688 28.753124Q127.01875 28.753124 126.55 29.1125Q126.09688 29.45625 125.89375 30.065624Q125.6125 31.003124 125.6125 32.1125L125.6125 37.55L123.84688 37.55ZM130.8625 37.55L130.8625 27.175L132.44063 27.175L132.44063 28.628124Q132.925 27.878124 133.7375 27.409374Q134.55 26.940624 135.58125 26.940624Q136.7375 26.940624 137.47188 27.425Q138.20625 27.89375 138.51875 28.753124Q139.75313 26.940624 141.72188 26.940624Q143.26875 26.940624 144.09688 27.8Q144.925 28.659374 144.925 30.425L144.925 37.55L143.175 37.55L143.175 31.01875Q143.175 29.95625 143.00313 29.503124Q142.83125 29.034374 142.37813 28.753124Q141.94063 28.471874 141.33125 28.471874Q140.2375 28.471874 139.50313 29.20625Q138.78438 29.925 138.78438 31.51875L138.78438 37.55L137.03438 37.55L137.03438 30.815624Q137.03438 29.64375 136.59688 29.065624Q136.175 28.471874 135.19063 28.471874Q134.45625 28.471874 133.81563 28.8625Q133.19063 29.253124 132.90938 30.003124Q132.62813 30.753124 132.62813 32.175L132.62813 37.55L130.8625 37.55ZM153.64375 36.26875Q152.65938 37.096874 151.75313 37.440624Q150.84688 37.784374 149.81563 37.784374Q148.1125 37.784374 147.19063 36.95625Q146.26875 36.1125 146.26875 34.815624Q146.26875 34.05 146.6125 33.425Q146.97188 32.8 147.53438 32.425Q148.09688 32.034374 148.8 31.83125Q149.31563 31.70625 150.3625 31.565624Q152.4875 31.315624 153.4875 30.971874Q153.50313 30.6125 153.50313 30.503124Q153.50313 29.440624 153.00313 28.9875Q152.33125 28.39375 151.00313 28.39375Q149.75313 28.39375 149.15938 28.83125Q148.58125 29.26875 148.3 30.378124L146.58125 30.14375Q146.81563 29.034374 147.34688 28.3625Q147.87813 27.675 148.89375 27.315624Q149.90938 26.940624 151.25313 26.940624Q152.58125 26.940624 153.40938 27.253124Q154.2375 27.565624 154.62813 28.05Q155.01875 28.51875 155.175 29.2375Q155.26875 29.690624 155.26875 30.8625L155.26875 33.20625Q155.26875 35.659374 155.37813 36.315624Q155.4875 36.95625 155.83125 37.55L153.9875 37.55Q153.72188 37.003124 153.64375 36.26875ZM153.4875 32.346874Q152.53438 32.7375 150.6125 33.003124Q149.53438 33.159374 149.08125 33.3625Q148.64375 33.55 148.39375 33.925Q148.14375 34.3 148.14375 34.76875Q148.14375 35.471874 148.675 35.940624Q149.20625 36.409374 150.2375 36.409374Q151.25313 36.409374 152.03438 35.971874Q152.83125 35.51875 153.20625 34.753124Q153.4875 34.14375 153.4875 32.9875L153.4875 32.346874ZM157.8625 37.55L157.8625 27.175L159.45625 27.175L159.45625 28.659374Q160.59688 26.940624 162.75313 26.940624Q163.69063 26.940624 164.47188 27.284374Q165.26875 27.6125 165.65938 28.159374Q166.05 28.70625 166.20625 29.45625Q166.3 29.95625 166.3 31.175L166.3 37.55L164.53438 37.55L164.53438 31.2375Q164.53438 30.159374 164.33125 29.628124Q164.12813 29.096874 163.59688 28.784374Q163.08125 28.471874 162.37813 28.471874Q161.25313 28.471874 160.44063 29.190624Q159.62813 29.89375 159.62813 31.878124L159.62813 37.55L157.8625 37.55ZM174.64375 33.753124L176.3625 33.971874Q176.08125 35.76875 174.90938 36.784374Q173.75313 37.784374 172.05 37.784374Q169.925 37.784374 168.62813 36.39375Q167.33125 35.003124 167.33125 32.409374Q167.33125 30.721874 167.87813 29.471874Q168.44063 28.20625 169.58125 27.58125Q170.72188 26.940624 172.06563 26.940624Q173.75313 26.940624 174.81563 27.8Q175.89375 28.659374 176.20625 30.221874L174.4875 30.4875Q174.25313 29.440624 173.62813 28.925Q173.00313 28.39375 172.12813 28.39375Q170.8 28.39375 169.97188 29.346874Q169.14375 30.3 169.14375 32.346874Q169.14375 34.440624 169.94063 35.39375Q170.7375 36.33125 172.03438 36.33125Q173.06563 36.33125 173.75313 35.70625Q174.45625 35.065624 174.64375 33.753124ZM184.97188 34.20625L186.78438 34.440624Q186.3625 36.01875 185.19063 36.909374Q184.03438 37.784374 182.22188 37.784374Q179.95625 37.784374 178.6125 36.39375Q177.28438 34.9875 177.28438 32.45625Q177.28438 29.83125 178.62813 28.39375Q179.97188 26.940624 182.12813 26.940624Q184.20625 26.940624 185.51875 28.3625Q186.84688 29.76875 186.84688 32.346874Q186.84688 32.503124 186.83125 32.815624L179.09688 32.815624Q179.19063 34.51875 180.06563 35.425Q180.94063 36.33125 182.2375 36.33125Q183.20625 36.33125 183.87813 35.83125Q184.56563 35.315624 184.97188 34.20625ZM179.19063 31.3625L184.9875 31.3625Q184.87813 30.065624 184.33125 29.409374Q183.4875 28.39375 182.14375 28.39375Q180.94063 28.39375 180.1125 29.20625Q179.28438 30.003124 179.19063 31.3625Z" fill-rule="nonzero"/></svg>