<svg version="1.1" viewBox="0.0 0.0 600.0 371.0" fill="none" stroke="none" stroke-linecap="square" stroke-miterlimit="10" width="600" height="371" xmlns:xlink="http://www.w3.org/1999/xlink" xmlns="http://www.w3.org/2000/svg"><path fill="#ffffff" d="M0 0L600.0 0L600.0 371.0L0 371.0L0 0Z" fill-rule="nonzero"/><path stroke="#333333" stroke-width="1.0" stroke-linecap="butt" d="M112.5 88.5L112.5 300.5" fill-rule="nonzero"/><path stroke="#cccccc" stroke-width="1.0" stroke-linecap="butt" d="M253.5 88.5L253.5 300.5" fill-rule="nonzero"/><path stroke="#cccccc" stroke-width="1.0" stroke-linecap="butt" d="M394.5 88.5L394.5 300.5" fill-rule="nonzero"/><path stroke="#cccccc" stroke-width="1.0" stroke-linecap="butt" d="M535.5 88.5L535.5 300.5" fill-rule="nonzero"/><path stroke="#333333" stroke-width="1.0" stroke-linecap="butt" d="M105.5 300.5L581.5 300.5" fill-rule="nonzero"/><path stroke="#cccccc" stroke-width="1.0" stroke-linecap="butt" d="M105.5 247.5L581.5 247.5" fill-rule="nonzero"/><path stroke="#cccccc" stroke-width="1.0" stroke-linecap="butt" d="M105.5 194.5L581.5 194.5" fill-rule="nonzero"/><path stroke="#cccccc" stroke-width="1.0" stroke-linecap="butt" d="M105.5 141.5L581.5 141.5" fill-rule="nonzero"/><path stroke="#cccccc" stroke-width="1.0" stroke-linecap="butt" d="M105.5 88.5L581.5 88.5" fill-rule="nonzero"/><clipPath id="id_0"><path d="M105.55 88.28333L581.45 88.28333L581.45 300.45L105.55 300.45L105.55 88.28333Z" clip-rule="nonzero"/></clipPath><path stroke="#4285f4" stroke-width="2.0" stroke-linecap="butt" stroke-opacity="0.5019608" clip-path="url(#id_0)" d="M0 278.5135C0 278.5135 2.6666667 279.34735 4.0 279.7554C5.3333335 280.16348 6.6666665 280.5656 8.0 280.96185C9.333333 281.3581 10.666667 281.74844 12.0 282.13284C13.333333 282.51727 14.666667 282.89578 16.0 283.26837C17.333334 283.64096 18.666666 284.00766 20.0 284.36844C21.333334 284.72922 22.666666 285.08408 24.0 285.43304C25.333334 285.78198 26.666666 286.12503 28.0 286.46216C29.333334 286.7993 30.666666 287.13052 32.0 287.4558C33.333332 287.78113 34.666668 288.10052 36.0 288.41403C37.333332 288.7275 38.666668 289.0351 40.0 289.33676C41.333332 289.63843 42.666668 289.93417 44.0 290.22403C45.333332 290.51385 46.666668 290.7978 48.0 291.07584C49.333332 291.35385 50.666668 291.62595 52.0 291.89215C53.333332 292.15836 54.666668 292.41864 56.0 292.67303C57.333332 292.9274 58.666668 293.17587 60.0 293.41843C61.333332 293.66098 62.666668 293.89764 64.0 294.1284C65.333336 294.3591 66.666664 294.58395 68.0 294.80286C69.333336 295.02176 70.666664 295.23477 72.0 295.44186C73.333336 295.64896 74.666664 295.85013 76.0 296.0454C77.333336 296.2407 78.666664 296.43005 80.0 296.6135C81.333336 296.79694 82.666664 296.9745 84.0 297.1461C85.333336 297.31772 86.666664 297.48346 88.0 297.64325C89.333336 297.80307 90.666664 297.95694 92.0 298.10495C93.333336 298.25293 94.666664 298.395 96.0 298.53116C97.333336 298.66733 98.666664 298.79758 100.0 298.9219C101.333336 299.04623 102.666664 299.16467 104.0 299.2772C105.333336 299.3897 106.666664 299.4963 108.0 299.59702C109.333336 299.69772 110.666664 299.7925 112.0 299.88138C113.333336 299.97025 114.666664 300.05322 116.0 300.13028C117.333336 300.2073 118.666664 300.27847 120.0 300.3437C121.333336 300.40894 122.666664 300.46823 124.0 300.52167C125.333336 300.57507 126.666664 300.62256 128.0 300.66415C129.33333 300.70575 130.66667 300.74142 132.0 300.77118C133.33333 300.80093 134.66667 300.8248 136.0 300.84274C137.33333 300.8607 138.66667 300.8727 140.0 300.87885C141.33333 300.88498 142.66667 300.8852 144.0 300.8795C145.33333 300.87378 146.66667 300.86218 148.0 300.84464C149.33333 300.82712 150.66667 300.8037 152.0 300.77435C153.33333 300.74503 154.66667 300.70975 156.0 300.66858C157.33333 300.62744 158.66667 300.58035 160.0 300.52737C161.33333 300.47437 162.66667 300.4155 164.0 300.35068C165.33333 300.28586 166.66667 300.21515 168.0 300.13852C169.33333 300.0619 170.66667 299.97934 172.0 299.8909C173.33333 299.80243 174.66667 299.70807 176.0 299.60782C177.33333 299.50754 178.66667 299.40134 180.0 299.28925C181.33333 299.17715 182.66667 299.05914 184.0 298.93524C185.33333 298.8113 186.66667 298.6815 188.0 298.54575C189.33333 298.41 190.66667 298.26837 192.0 298.12082C193.33333 297.97324 194.66667 297.81976 196.0 297.6604C197.33333 297.501 198.66667 297.33572 200.0 297.16452C201.33333 296.99332 202.66667 296.8162 204.0 296.63318C205.33333 296.45013 206.66667 296.2612 208.0 296.06635C209.33333 295.87152 210.66667 295.67075 212.0 295.46408C213.33333 295.25742 214.66667 295.04483 216.0 294.82635C217.33333 294.60785 218.66667 294.38345 220.0 294.15314C221.33333 293.92282 222.66667 293.68658 224.0 293.44446C225.33333 293.20233 226.66667 292.95428 228.0 292.70032C229.33333 292.44638 230.66667 292.1865 232.0 291.92072C233.33333 291.65494 234.66667 291.38327 236.0 291.10565C237.33333 290.82806 238.66667 290.54456 240.0 290.25513C241.33333 289.9657 242.66667 289.67038 244.0 289.36914C245.33333 289.06787 246.66667 288.76074 248.0 288.44766C249.33333 288.1346 250.66667 287.8156 252.0 287.49072C253.33333 287.16586 254.66667 286.83505 256.0 286.49835C257.33334 286.16162 258.66666 285.819 260.0 285.4705C261.33334 285.12195 262.66666 284.76752 264.0 284.40717C265.33334 284.0468 266.66666 283.68054 268.0 283.30838C269.33334 282.9362 270.66666 282.5581 272.0 282.1741C273.33334 281.79013 274.66666 281.4002 276.0 281.0044C277.33334 280.60858 278.66666 280.20685 280.0 279.79922C281.33334 279.39157 282.66666 278.97803 284.0 278.55856C285.33334 278.1391 286.66666 277.7137 288.0 277.28244C289.33334 276.85117 290.66666 276.41397 292.0 275.97086C293.33334 275.52777 294.66666 275.07874 296.0 274.6238C297.33334 274.16888 298.66666 273.70804 300.0 273.2413C301.33334 272.77457 302.66666 272.3019 304.0 271.82333C305.33334 271.34476 306.66666 270.8603 308.0 270.36987C309.33334 269.8795 310.66666 269.38318 312.0 268.88098C313.33334 268.37875 314.66666 267.87064 316.0 267.3566C317.33334 266.84256 318.66666 266.32263 320.0 265.79675C321.33334 265.2709 322.66666 264.73914 324.0 264.20145C325.33334 263.6638 326.66666 263.12018 328.0 262.57068C329.33334 262.02118 330.66666 261.4658 332.0 260.90445C333.33334 260.34314 334.66666 259.7759 336.0 259.20276C337.33334 258.6296 338.66666 258.05057 340.0 257.4656C341.33334 256.8806 342.66666 256.28976 344.0 255.69296C345.33334 255.09618 346.66666 254.49348 348.0 253.88487C349.33334 253.27626 350.66666 252.66174 352.0 252.0413C353.33334 251.42088 354.66666 250.79454 356.0 250.16228C357.33334 249.53003 358.66666 248.89186 360.0 248.24779C361.33334 247.60371 362.66666 246.95374 364.0 246.29784C365.33334 245.64194 366.66666 244.98013 368.0 244.31241C369.33334 243.6447 370.66666 242.97107 372.0 242.29152C373.33334 241.61198 374.66666 240.92653 376.0 240.23517C377.33334 239.54381 378.66666 238.84654 380.0 238.14336C381.33334 237.44017 382.66666 236.73108 384.0 236.01607C385.33334 235.30107 386.66666 234.58015 388.0 233.85332C389.33334 233.1265 390.66666 232.39375 392.0 231.6551C393.33334 230.91646 394.66666 230.1719 396.0 229.42143C397.33334 228.67096 398.66666 227.91458 400.0 227.15228C401.33334 226.38998 402.66666 225.6218 404.0 224.84767C405.33334 224.07356 406.66666 223.29353 408.0 222.5076C409.33334 221.72166 410.66666 220.92981 412.0 220.13206C413.33334 219.3343 414.66666 218.53064 416.0 217.72105C417.33334 216.91147 418.66666 216.09598 420.0 215.27458C421.33334 214.45319 422.66666 213.62587 424.0 212.79265C425.33334 211.95943 426.66666 211.12029 428.0 210.27524C429.33334 209.4302 430.66666 208.57924 432.0 207.72238C433.33334 206.86551 434.66666 206.00273 436.0 205.13405C437.33334 204.26535 438.66666 203.39076 440.0 202.51025C441.33334 201.62975 442.66666 200.74332 444.0 199.85098C445.33334 198.95865 446.66666 198.06041 448.0 197.15627C449.33334 196.2521 450.66666 195.34204 452.0 194.42607C453.33334 193.51009 454.66666 192.5882 456.0 191.6604C457.33334 190.7326 458.66666 189.7989 460.0 188.85928C461.33334 187.91966 462.66666 186.97414 464.0 186.02269C465.33334 185.07126 466.66666 184.1139 468.0 183.15063C469.33334 182.18738 470.66666 181.2182 472.0 180.24312C473.33334 179.26804 474.66666 178.28703 476.0 177.30014C477.33334 176.31323 478.66666 175.3204 480.0 174.32169C481.33334 173.32295 482.66666 172.31831 484.0 171.30777C485.33334 170.29723 486.66666 169.28076 488.0 168.25839C489.33334 167.23602 490.66666 166.20773 492.0 165.17354C493.33334 164.13934 494.66666 163.09924 496.0 162.05322C497.33334 161.00722 498.66666 159.95529 500.0 158.89745C501.33334 157.83961 502.66666 156.77586 504.0 155.7062C505.33334 154.63655 506.66666 153.56099 508.0 152.4795C509.33334 151.39803 510.66666 150.31064 512.0 149.21733C513.3333 148.12402 514.6667 147.02481 516.0 145.9197C517.3333 144.81458 518.6667 143.70354 520.0 142.5866C521.3333 141.46965 522.6667 140.34679 524.0 139.21802C525.3333 138.08925 526.6667 136.95457 528.0 135.81398C529.3333 134.6734 530.6667 133.5269 532.0 132.37448C533.3333 131.22208 534.6667 130.06375 536.0 128.89952C537.3333 127.73529 538.6667 126.56515 540.0 125.38909C541.3333 124.213036 542.6667 123.031075 544.0 121.84319C545.3333 120.65532 546.6667 119.46153 548.0 118.26183C549.3333 117.06214 550.6667 115.85653 552.0 114.64501C553.3333 113.433495 554.6667 112.21606 556.0 110.99272C557.3333 109.76938 558.6667 108.54012 560.0 107.30496C561.3333 106.0698 562.6667 104.82873 564.0 103.58174C565.3333 102.334755 566.6667 101.08186 568.0 99.82305C569.3333 98.56425 570.6667 97.29953 572.0 96.0289C573.3333 94.75827 574.6667 93.481735 576.0 92.19929C577.3333 90.91683 580.0 88.3342 580.0 88.3342" fill-rule="nonzero"/><path fill="#4285f4" clip-path="url(#id_0)" d="M116.84996 300.44882C116.84996 302.9341 114.83524 304.94882 112.34996 304.94882C109.86468 304.94882 107.84996 302.9341 107.84996 300.44882C107.84996 297.96353 109.86468 295.94882 112.34996 295.94882C114.83524 295.94882 116.84996 297.96353 116.84996 300.44882Z" fill-rule="nonzero"/><path fill="#4285f4" clip-path="url(#id_0)" d="M116.9064 300.44803C116.9064 302.93332 114.89168 304.94803 112.4064 304.94803C109.92112 304.94803 107.9064 302.93332 107.9064 300.44803C107.9064 297.96274 109.92112 295.94803 112.4064 295.94803C114.89168 295.94803 116.9064 297.96274 116.9064 300.44803Z" fill-rule="nonzero"/><path fill="#4285f4" clip-path="url(#id_0)" d="M117.01928 300.44824C117.01928 302.9335 115.00456 304.94824 112.51928 304.94824C110.034 304.94824 108.01928 302.9335 108.01928 300.44824C108.01928 297.96295 110.034 295.94824 112.51928 295.94824C115.00456 295.94824 117.01928 297.96295 117.01928 300.44824Z" fill-rule="nonzero"/><path fill="#4285f4" clip-path="url(#id_0)" d="M117.24504 300.44537C117.24504 302.93063 115.23032 304.94537 112.74504 304.94537C110.25976 304.94537 108.24504 302.93063 108.24504 300.44537C108.24504 297.96008 110.25976 295.94537 112.74504 295.94537C115.23032 295.94537 117.24504 297.96008 117.24504 300.44537Z" fill-rule="nonzero"/><path fill="#4285f4" clip-path="url(#id_0)" d="M117.696556 300.44382C117.696556 302.92908 115.68184 304.94382 113.196556 304.94382C110.71128 304.94382 108.696556 302.92908 108.696556 300.44382C108.696556 297.95853 110.71128 295.94382 113.196556 295.94382C115.68184 295.94382 117.696556 297.95853 117.696556 300.44382Z" fill-rule="nonzero"/><path fill="#4285f4" clip-path="url(#id_0)" d="M118.5996 300.4369C118.5996 302.92218 116.58488 304.9369 114.0996 304.9369C111.61432 304.9369 109.5996 302.92218 109.5996 300.4369C109.5996 297.9516 111.61432 295.9369 114.0996 295.9369C116.58488 295.9369 118.5996 297.9516 118.5996 300.4369Z" fill-rule="nonzero"/><path fill="#4285f4" clip-path="url(#id_0)" d="M120.40568 300.41974C120.40568 302.905 118.39096 304.91974 115.90568 304.91974C113.420395 304.91974 111.40568 302.905 111.40568 300.41974C111.40568 297.93445 113.420395 295.91974 115.90568 295.91974C118.39096 295.91974 120.40568 297.93445 120.40568 300.41974Z" fill-rule="nonzero"/><path fill="#4285f4" clip-path="url(#id_0)" d="M124.01784 300.3601C124.01784 302.8454 122.00312 304.8601 119.51784 304.8601C117.03256 304.8601 115.01784 302.8454 115.01784 300.3601C115.01784 297.87482 117.03256 295.8601 119.51784 295.8601C122.00312 295.8601 124.01784 297.87482 124.01784 300.3601Z" fill-rule="nonzero"/><path fill="#4285f4" clip-path="url(#id_0)" d="M131.24216 300.20816C131.24216 302.69342 129.22745 304.70816 126.74216 304.70816C124.25688 304.70816 122.24216 302.69342 122.24216 300.20816C122.24216 297.72287 124.25688 295.70816 126.74216 295.70816C129.22745 295.70816 131.24216 297.72287 131.24216 300.20816Z" fill-rule="nonzero"/><path fill="#4285f4" clip-path="url(#id_0)" d="M145.6908 299.5929C145.6908 302.0782 143.67609 304.0929 141.1908 304.0929C138.70552 304.0929 136.6908 302.0782 136.6908 299.5929C136.6908 297.10764 138.70552 295.0929 141.1908 295.0929C143.67609 295.0929 145.6908 297.10764 145.6908 299.5929Z" fill-rule="nonzero"/><path fill="#4285f4" clip-path="url(#id_0)" d="M174.58809 297.55417C174.58809 300.03946 172.57336 302.05417 170.08809 302.05417C167.6028 302.05417 165.58809 300.03946 165.58809 297.55417C165.58809 295.06888 167.6028 293.05417 170.08809 293.05417C172.57336 293.05417 174.58809 295.06888 174.58809 297.55417Z" fill-rule="nonzero"/><path fill="#4285f4" clip-path="url(#id_0)" d="M232.38264 291.91473C232.38264 294.4 230.36794 296.41473 227.88264 296.41473C225.39737 296.41473 223.38264 294.4 223.38264 291.91473C223.38264 289.42944 225.39737 287.41473 227.88264 287.41473C230.36794 287.41473 232.38264 289.42944 232.38264 291.91473Z" fill-rule="nonzero"/><path fill="#4285f4" clip-path="url(#id_0)" d="M347.97177 257.93784C347.97177 260.42313 345.95706 262.43784 343.47177 262.43784C340.9865 262.43784 338.97177 260.42313 338.97177 257.93784C338.97177 255.45256 340.9865 253.43785 343.47177 253.43785C345.95706 253.43785 347.97177 255.45256 347.97177 257.93784Z" fill-rule="nonzero"/><path fill="#4285f4" clip-path="url(#id_0)" d="M579.15 93.087845C579.15 95.57313 577.1353 97.587845 574.65 97.587845C572.16473 97.587845 570.15 95.57313 570.15 93.087845C570.15 90.60257 572.16473 88.587845 574.65 88.587845C577.1353 88.587845 579.15 90.60257 579.15 93.087845Z" fill-rule="nonzero"/><path fill="#000000" d="M322.54688 347.45L323.64062 347.575Q323.39062 348.52814 322.6875 349.0594Q321.98438 349.59064 320.90625 349.59064Q319.54688 349.59064 318.73438 348.7469Q317.9375 347.90314 317.9375 346.3875Q317.9375 344.825 318.75 343.96564Q319.5625 343.09064 320.84375 343.09064Q322.09375 343.09064 322.875 343.9344Q323.67188 344.77814 323.67188 346.325Q323.67188 346.41876 323.67188 346.60626L319.03125 346.60626Q319.09375 347.6375 319.60938 348.1844Q320.125 348.71564 320.90625 348.71564Q321.48438 348.71564 321.89062 348.41876Q322.3125 348.10626 322.54688 347.45ZM319.09375 345.7469L322.5625 345.7469Q322.5 344.95 322.17188 344.5594Q321.65625 343.95 320.85938 343.95Q320.125 343.95 319.625 344.4344Q319.14062 344.91876 319.09375 345.7469ZM325.26562 349.45L325.26562 340.85626L326.32812 340.85626L326.32812 349.45L325.26562 349.45ZM332.54688 347.45L333.64062 347.575Q333.39062 348.52814 332.6875 349.0594Q331.98438 349.59064 330.90625 349.59064Q329.54688 349.59064 328.73438 348.7469Q327.9375 347.90314 327.9375 346.3875Q327.9375 344.825 328.75 343.96564Q329.5625 343.09064 330.84375 343.09064Q332.09375 343.09064 332.875 343.9344Q333.67188 344.77814 333.67188 346.325Q333.67188 346.41876 333.67188 346.60626L329.03125 346.60626Q329.09375 347.6375 329.60938 348.1844Q330.125 348.71564 330.90625 348.71564Q331.48438 348.71564 331.89062 348.41876Q332.3125 348.10626 332.54688 347.45ZM329.09375 345.7469L332.5625 345.7469Q332.5 344.95 332.17188 344.5594Q331.65625 343.95 330.85938 343.95Q330.125 343.95 329.625 344.4344Q329.14062 344.91876 329.09375 345.7469ZM335.29688 349.45L335.29688 343.23126L336.23438 343.23126L336.23438 344.10626Q336.53125 343.6375 337.01562 343.3719Q337.5 343.09064 338.125 343.09064Q338.8125 343.09064 339.25 343.3719Q339.70312 343.65314 339.875 344.16876Q340.625 343.09064 341.79688 343.09064Q342.73438 343.09064 343.21875 343.60626Q343.71875 344.10626 343.71875 345.1844L343.71875 349.45L342.67188 349.45L342.67188 345.52814Q342.67188 344.90314 342.5625 344.6219Q342.46875 344.34064 342.20312 344.16876Q341.9375 343.9969 341.5625 343.9969Q340.90625 343.9969 340.46875 344.4344Q340.04688 344.8719 340.04688 345.84064L340.04688 349.45L338.98438 349.45L338.98438 345.40314Q338.98438 344.7 338.71875 344.35626Q338.46875 343.9969 337.89062 343.9969Q337.4375 343.9969 337.0625 344.23126Q336.6875 344.46564 336.51562 344.91876Q336.34375 345.3719 336.34375 346.21564L336.34375 349.45L335.29688 349.45ZM350.54688 347.45L351.64062 347.575Q351.39062 348.52814 350.6875 349.0594Q349.98438 349.59064 348.90625 349.59064Q347.54688 349.59064 346.73438 348.7469Q345.9375 347.90314 345.9375 346.3875Q345.9375 344.825 346.75 343.96564Q347.5625 343.09064 348.84375 343.09064Q350.09375 343.09064 350.875 343.9344Q351.67188 344.77814 351.67188 346.325Q351.67188 346.41876 351.67188 346.60626L347.03125 346.60626Q347.09375 347.6375 347.60938 348.1844Q348.125 348.71564 348.90625 348.71564Q349.48438 348.71564 349.89062 348.41876Q350.3125 348.10626 350.54688 347.45ZM347.09375 345.7469L350.5625 345.7469Q350.5 344.95 350.17188 344.5594Q349.65625 343.95 348.85938 343.95Q348.125 343.95 347.625 344.4344Q347.14062 344.91876 347.09375 345.7469ZM353.29688 349.45L353.29688 343.23126L354.23438 343.23126L354.23438 344.10626Q354.92188 343.09064 356.21875 343.09064Q356.78125 343.09064 357.25 343.29376Q357.73438 343.4969 357.96875 343.825Q358.20312 344.15314 358.29688 344.59064Q358.34375 344.8875 358.34375 345.6219L358.34375 349.45L357.29688 349.45L357.29688 345.66876Q357.29688 345.0125 357.17188 344.7Q357.04688 344.3875 356.73438 344.2Q356.42188 343.9969 356.0 343.9969Q355.32812 343.9969 354.82812 344.4344Q354.34375 344.85626 354.34375 346.04376L354.34375 349.45L353.29688 349.45ZM362.59375 348.5125L362.75 349.4344Q362.29688 349.52814 361.95312 349.52814Q361.375 349.52814 361.0625 349.35626Q360.75 349.16876 360.60938 348.8719Q360.48438 348.575 360.48438 347.6219L360.48438 344.04376L359.71875 344.04376L359.71875 343.23126L360.48438 343.23126L360.48438 341.6844L361.53125 341.0594L361.53125 343.23126L362.59375 343.23126L362.59375 344.04376L361.53125 344.04376L361.53125 347.6844Q361.53125 348.1375 361.57812 348.2625Q361.64062 348.3875 361.76562 348.46564Q361.89062 348.54376 362.125 348.54376Q362.3125 348.54376 362.59375 348.5125ZM362.875 347.59064L363.90625 347.4344Q364.0 348.0594 364.39062 348.3875Q364.79688 348.71564 365.53125 348.71564Q366.25 348.71564 366.59375 348.4344Q366.95312 348.1375 366.95312 347.73126Q366.95312 347.3719 366.64062 347.16876Q366.42188 347.02814 365.5625 346.8094Q364.40625 346.5125 363.95312 346.3094Q363.51562 346.09064 363.28125 345.71564Q363.04688 345.34064 363.04688 344.8719Q363.04688 344.46564 363.23438 344.10626Q363.42188 343.7469 363.75 343.5125Q364.0 343.34064 364.42188 343.21564Q364.84375 343.09064 365.34375 343.09064Q366.0625 343.09064 366.60938 343.3094Q367.17188 343.5125 367.4375 343.8719Q367.70312 344.23126 367.79688 344.825L366.76562 344.96564Q366.70312 344.4969 366.35938 344.23126Q366.03125 343.95 365.40625 343.95Q364.6875 343.95 364.375 344.2Q364.0625 344.4344 364.0625 344.7625Q364.0625 344.96564 364.1875 345.1219Q364.32812 345.29376 364.59375 345.40314Q364.75 345.46564 365.53125 345.66876Q366.65625 345.98126 367.09375 346.16876Q367.53125 346.35626 367.78125 346.71564Q368.03125 347.075 368.03125 347.6219Q368.03125 348.15314 367.71875 348.6219Q367.42188 349.075 366.84375 349.34064Q366.26562 349.59064 365.53125 349.59064Q364.3125 349.59064 363.67188 349.09064Q363.04688 348.575 362.875 347.59064Z" fill-rule="nonzero"/><path fill="#000000" d="M23.331263 229.39792L29.550013 229.39792L29.550013 230.35104L28.815638 230.35104Q29.284388 230.64792 29.456263 230.9448Q29.690638 231.35104 29.690638 231.89792Q29.690638 232.3823 29.503138 232.7573Q29.362513 233.03854 28.925013 233.3823L31.940638 233.3823L31.940638 234.42917L23.331263 234.42917L23.331263 233.3823L25.956263 233.3823Q27.393763 233.3823 27.831263 233.24167Q28.253138 233.08542 28.503138 232.74167Q28.737513 232.39792 28.737513 231.9448Q28.737513 231.47604 28.487513 231.11667Q28.221888 230.74167 27.815638 230.60104Q27.409388 230.4448 25.987513 230.4448L23.331263 230.4448L23.331263 229.39792ZM27.690638 227.99167L27.534388 226.96042Q28.159388 226.86667 28.487513 226.47604Q28.815638 226.0698 28.815638 225.33542Q28.815638 224.61667 28.534388 224.27292Q28.237513 223.91354 27.831263 223.91354Q27.471888 223.91354 27.268763 224.22604Q27.128138 224.4448 26.909388 225.30417Q26.612513 226.46042 26.409388 226.91354Q26.190638 227.35104 25.815638 227.58542Q25.440638 227.8198 24.971888 227.8198Q24.565638 227.8198 24.206263 227.6323Q23.846888 227.4448 23.612513 227.11667Q23.440638 226.86667 23.315638 226.4448Q23.190638 226.02292 23.190638 225.52292Q23.190638 224.80417 23.409388 224.2573Q23.612513 223.6948 23.971888 223.42917Q24.331263 223.16354 24.925013 223.0698L25.065638 224.10104Q24.596888 224.16354 24.331263 224.5073Q24.050013 224.83542 24.050013 225.46042Q24.050013 226.17917 24.300013 226.49167Q24.534388 226.80417 24.862513 226.80417Q25.065638 226.80417 25.221888 226.67917Q25.393763 226.53854 25.503138 226.27292Q25.565638 226.11667 25.768763 225.33542Q26.081263 224.21042 26.268763 223.77292Q26.456263 223.33542 26.815638 223.08542Q27.175013 222.83542 27.721888 222.83542Q28.253138 222.83542 28.721888 223.14792Q29.175013 223.4448 29.440638 224.02292Q29.690638 224.60104 29.690638 225.33542Q29.690638 226.55417 29.190638 227.1948Q28.675013 227.8198 27.690638 227.99167ZM29.690638 221.36667L20.815638 218.8823L20.815638 218.03854L29.690638 220.52292L29.690638 221.36667ZM26.440638 217.96042Q24.706263 217.96042 23.878138 217.0073Q23.190638 216.21042 23.190638 215.05417Q23.190638 213.77292 24.034388 212.96042Q24.862513 212.1323 26.346888 212.1323Q27.550013 212.1323 28.237513 212.49167Q28.925013 212.85104 29.315638 213.55417Q29.690638 214.24167 29.690638 215.05417Q29.690638 216.35104 28.862513 217.16354Q28.018763 217.96042 26.440638 217.96042ZM26.440638 216.8823Q27.628138 216.8823 28.221888 216.36667Q28.815638 215.83542 28.815638 215.05417Q28.815638 214.2573 28.221888 213.74167Q27.628138 213.22604 26.409388 213.22604Q25.253138 213.22604 24.659388 213.7573Q24.065638 214.27292 24.065638 215.05417Q24.065638 215.83542 24.659388 216.36667Q25.237513 216.8823 26.440638 216.8823ZM31.940638 210.5698L23.331263 210.5698L23.331263 209.61667L24.128138 209.61667Q23.659388 209.27292 23.425013 208.85104Q23.190638 208.41354 23.190638 207.80417Q23.190638 207.0073 23.596888 206.39792Q24.003138 205.78854 24.753138 205.49167Q25.503138 205.17917 26.393763 205.17917Q27.346888 205.17917 28.112513 205.52292Q28.878138 205.85104 29.284388 206.5073Q29.690638 207.16354 29.690638 207.8823Q29.690638 208.41354 29.471888 208.83542Q29.237513 209.2573 28.909388 209.52292L31.940638 209.52292L31.940638 210.5698ZM26.471888 209.61667Q27.675013 209.61667 28.253138 209.1323Q28.815638 208.64792 28.815638 207.96042Q28.815638 207.2573 28.221888 206.7573Q27.628138 206.2573 26.378138 206.2573Q25.190638 206.2573 24.612513 206.74167Q24.018763 207.22604 24.018763 207.91354Q24.018763 208.58542 24.643763 209.10104Q25.268763 209.61667 26.471888 209.61667ZM27.550013 199.3198L27.675013 198.22604Q28.628138 198.47604 29.159388 199.17917Q29.690638 199.8823 29.690638 200.96042Q29.690638 202.3198 28.846888 203.1323Q28.003138 203.92917 26.487513 203.92917Q24.925013 203.92917 24.065638 203.11667Q23.190638 202.30417 23.190638 201.02292Q23.190638 199.77292 24.034388 198.99167Q24.878138 198.1948 26.425013 198.1948Q26.518763 198.1948 26.706263 198.1948L26.706263 202.83542Q27.737513 202.77292 28.284388 202.2573Q28.815638 201.74167 28.815638 200.96042Q28.815638 200.3823 28.518763 199.97604Q28.206263 199.55417 27.550013 199.3198ZM25.846888 202.77292L25.846888 199.30417Q25.050013 199.36667 24.659388 199.6948Q24.050013 200.21042 24.050013 201.0073Q24.050013 201.74167 24.534388 202.24167Q25.018763 202.72604 25.846888 202.77292ZM29.550013 196.58542L23.331263 196.58542L23.331263 195.6323L24.268763 195.6323Q23.612513 195.27292 23.409388 194.97604Q23.190638 194.66354 23.190638 194.28854Q23.190638 193.7573 23.518763 193.21042L24.503138 193.5698Q24.268763 193.96042 24.268763 194.33542Q24.268763 194.6948 24.487513 194.97604Q24.690638 195.24167 25.065638 195.35104Q25.628138 195.53854 26.284388 195.53854L29.550013 195.53854L29.550013 196.58542ZM28.784388 188.5073Q29.284388 189.10104 29.487513 189.64792Q29.690638 190.17917 29.690638 190.80417Q29.690638 191.83542 29.190638 192.3823Q28.690638 192.92917 27.909388 192.92917Q27.456263 192.92917 27.081263 192.72604Q26.690638 192.52292 26.471888 192.17917Q26.237513 191.83542 26.128138 191.41354Q26.034388 191.11667 25.956263 190.47604Q25.815638 189.21042 25.596888 188.60104Q25.378138 188.60104 25.331263 188.60104Q24.675013 188.60104 24.409388 188.89792Q24.065638 189.30417 24.065638 190.10104Q24.065638 190.83542 24.331263 191.1948Q24.581263 191.55417 25.237513 191.72604L25.096888 192.7573Q24.440638 192.61667 24.034388 192.28854Q23.628138 191.96042 23.409388 191.35104Q23.190638 190.74167 23.190638 189.9448Q23.190638 189.14792 23.378138 188.64792Q23.565638 188.14792 23.846888 187.91354Q24.128138 187.67917 24.565638 187.58542Q24.831263 187.53854 25.534388 187.53854L26.940638 187.53854Q28.409388 187.53854 28.800013 187.47604Q29.190638 187.39792 29.550013 187.1948L29.550013 188.30417Q29.221888 188.46042 28.784388 188.5073ZM26.425013 188.60104Q26.659388 189.17917 26.831263 190.3198Q26.925013 190.97604 27.050013 191.24167Q27.159388 191.5073 27.378138 191.66354Q27.596888 191.80417 27.878138 191.80417Q28.300013 191.80417 28.581263 191.49167Q28.862513 191.16354 28.862513 190.55417Q28.862513 189.9448 28.596888 189.47604Q28.331263 188.99167 27.862513 188.77292Q27.503138 188.60104 26.815638 188.60104L26.425013 188.60104ZM28.612513 183.27292L29.534388 183.11667Q29.628138 183.5698 29.628138 183.91354Q29.628138 184.49167 29.456263 184.80417Q29.268763 185.11667 28.971888 185.2573Q28.675013 185.3823 27.721888 185.3823L24.143763 185.3823L24.143763 186.14792L23.331263 186.14792L23.331263 185.3823L21.784388 185.3823L21.159388 184.33542L23.331263 184.33542L23.331263 183.27292L24.143763 183.27292L24.143763 184.33542L27.784388 184.33542Q28.237513 184.33542 28.362513 184.28854Q28.487513 184.22604 28.565638 184.10104Q28.643763 183.97604 28.643763 183.74167Q28.643763 183.55417 28.612513 183.27292ZM22.175013 182.5698L20.956263 182.5698L20.956263 181.5073L22.175013 181.5073L22.175013 182.5698ZM29.550013 182.5698L23.331263 182.5698L23.331263 181.5073L29.550013 181.5073L29.550013 182.5698ZM26.440638 179.96042Q24.706263 179.96042 23.878138 179.0073Q23.190638 178.21042 23.190638 177.05417Q23.190638 175.77292 24.034388 174.96042Q24.862513 174.1323 26.346888 174.1323Q27.550013 174.1323 28.237513 174.49167Q28.925013 174.85104 29.315638 175.55417Q29.690638 176.24167 29.690638 177.05417Q29.690638 178.35104 28.862513 179.16354Q28.018763 179.96042 26.440638 179.96042ZM26.440638 178.8823Q27.628138 178.8823 28.221888 178.36667Q28.815638 177.83542 28.815638 177.05417Q28.815638 176.2573 28.221888 175.74167Q27.628138 175.22604 26.409388 175.22604Q25.253138 175.22604 24.659388 175.7573Q24.065638 176.27292 24.065638 177.05417Q24.065638 177.83542 24.659388 178.36667Q25.237513 178.8823 26.440638 178.8823ZM29.550013 172.5698L23.331263 172.5698L23.331263 171.6323L24.206263 171.6323Q23.190638 170.9448 23.190638 169.64792Q23.190638 169.08542 23.393763 168.61667Q23.596888 168.1323 23.925013 167.89792Q24.253138 167.66354 24.690638 167.5698Q24.987513 167.52292 25.721888 167.52292L29.550013 167.52292L29.550013 168.5698L25.768763 168.5698Q25.112513 168.5698 24.800013 168.6948Q24.487513 168.8198 24.300013 169.1323Q24.096888 169.4448 24.096888 169.86667Q24.096888 170.53854 24.534388 171.03854Q24.956263 171.52292 26.143763 171.52292L29.550013 171.52292L29.550013 172.5698Z" fill-rule="nonzero"/><path fill="#000000" d="M93.05 300.21564Q93.05 298.6844 93.3625 297.7625Q93.675 296.825 94.28438 296.325Q94.90938 295.825 95.84688 295.825Q96.53438 295.825 97.05 296.10626Q97.58125 296.3875 97.925 296.91876Q98.26875 297.4344 98.45625 298.1844Q98.64375 298.9344 98.64375 300.21564Q98.64375 301.73126 98.33125 302.65314Q98.03438 303.575 97.40938 304.09064Q96.8 304.59064 95.84688 304.59064Q94.6125 304.59064 93.89375 303.7Q93.05 302.6375 93.05 300.21564ZM94.12813 300.21564Q94.12813 302.325 94.62813 303.02814Q95.12813 303.73126 95.84688 303.73126Q96.58125 303.73126 97.06563 303.02814Q97.56563 302.325 97.56563 300.21564Q97.56563 298.09064 97.06563 297.40314Q96.58125 296.7 95.83125 296.7Q95.1125 296.7 94.675 297.3094Q94.12813 298.09064 94.12813 300.21564Z" fill-rule="nonzero"/><path fill="#000000" d="M58.05 249.15834L59.159374 249.06459Q59.284374 249.87709 59.721874 250.28334Q60.175 250.68959 60.815624 250.68959Q61.565624 250.68959 62.096874 250.11147Q62.628124 249.53334 62.628124 248.59584Q62.628124 247.68959 62.1125 247.17397Q61.6125 246.64272 60.784374 246.64272Q60.284374 246.64272 59.8625 246.87709Q59.45625 247.11147 59.221874 247.47084L58.2375 247.34584L59.065624 242.93959L63.346874 242.93959L63.346874 243.93959L59.909374 243.93959L59.45625 246.25209Q60.221874 245.70522 61.065624 245.70522Q62.190624 245.70522 62.95625 246.48647Q63.7375 247.26772 63.7375 248.50209Q63.7375 249.65834 63.065624 250.51772Q62.2375 251.54897 60.815624 251.54897Q59.64375 251.54897 58.89375 250.89272Q58.159374 250.23647 58.05 249.15834ZM65.05 247.17397Q65.05 245.64272 65.3625 244.72084Q65.675 243.78334 66.28438 243.28334Q66.90938 242.78334 67.84688 242.78334Q68.53438 242.78334 69.05 243.06459Q69.58125 243.34584 69.925 243.87709Q70.26875 244.39272 70.45625 245.14272Q70.64375 245.89272 70.64375 247.17397Q70.64375 248.68959 70.33125 249.61147Q70.03438 250.53334 69.40938 251.04897Q68.8 251.54897 67.84688 251.54897Q66.6125 251.54897 65.89375 250.65834Q65.05 249.59584 65.05 247.17397ZM66.12813 247.17397Q66.12813 249.28334 66.62813 249.98647Q67.12813 250.68959 67.84688 250.68959Q68.58125 250.68959 69.06563 249.98647Q69.56563 249.28334 69.56563 247.17397Q69.56563 245.04897 69.06563 244.36147Q68.58125 243.65834 67.83125 243.65834Q67.1125 243.65834 66.675 244.26772Q66.12813 245.04897 66.12813 247.17397ZM72.05 247.17397Q72.05 245.64272 72.3625 244.72084Q72.675 243.78334 73.28438 243.28334Q73.90938 242.78334 74.84688 242.78334Q75.53438 242.78334 76.05 243.06459Q76.58125 243.34584 76.925 243.87709Q77.26875 244.39272 77.45625 245.14272Q77.64375 245.89272 77.64375 247.17397Q77.64375 248.68959 77.33125 249.61147Q77.03438 250.53334 76.40938 251.04897Q75.8 251.54897 74.84688 251.54897Q73.6125 251.54897 72.89375 250.65834Q72.05 249.59584 72.05 247.17397ZM73.12813 247.17397Q73.12813 249.28334 73.62813 249.98647Q74.12813 250.68959 74.84688 250.68959Q75.58125 250.68959 76.06563 249.98647Q76.56563 249.28334 76.56563 247.17397Q76.56563 245.04897 76.06563 244.36147Q75.58125 243.65834 74.83125 243.65834Q74.1125 243.65834 73.675 244.26772Q73.12813 245.04897 73.12813 247.17397ZM79.05 247.17397Q79.05 245.64272 79.3625 244.72084Q79.675 243.78334 80.28438 243.28334Q80.90938 242.78334 81.84688 242.78334Q82.53438 242.78334 83.05 243.06459Q83.58125 243.34584 83.925 243.87709Q84.26875 244.39272 84.45625 245.14272Q84.64375 245.89272 84.64375 247.17397Q84.64375 248.68959 84.33125 249.61147Q84.03438 250.53334 83.40938 251.04897Q82.8 251.54897 81.84688 251.54897Q80.6125 251.54897 79.89375 250.65834Q79.05 249.59584 79.05 247.17397ZM80.12813 247.17397Q80.12813 249.28334 80.62813 249.98647Q81.12813 250.68959 81.84688 250.68959Q82.58125 250.68959 83.06563 249.98647Q83.56563 249.28334 83.56563 247.17397Q83.56563 245.04897 83.06563 244.36147Q82.58125 243.65834 81.83125 243.65834Q81.1125 243.65834 80.675 244.26772Q80.12813 245.04897 80.12813 247.17397ZM86.05 247.17397Q86.05 245.64272 86.3625 244.72084Q86.675 243.78334 87.28438 243.28334Q87.90938 242.78334 88.84688 242.78334Q89.53438 242.78334 90.05 243.06459Q90.58125 243.34584 90.925 243.87709Q91.26875 244.39272 91.45625 245.14272Q91.64375 245.89272 91.64375 247.17397Q91.64375 248.68959 91.33125 249.61147Q91.03438 250.53334 90.40938 251.04897Q89.8 251.54897 88.84688 251.54897Q87.6125 251.54897 86.89375 250.65834Q86.05 249.59584 86.05 247.17397ZM87.12813 247.17397Q87.12813 249.28334 87.62813 249.98647Q88.12813 250.68959 88.84688 250.68959Q89.58125 250.68959 90.06563 249.98647Q90.56563 249.28334 90.56563 247.17397Q90.56563 245.04897 90.06563 244.36147Q89.58125 243.65834 88.83125 243.65834Q88.1125 243.65834 87.675 244.26772Q87.12813 245.04897 87.12813 247.17397ZM93.05 247.17397Q93.05 245.64272 93.3625 244.72084Q93.675 243.78334 94.28438 243.28334Q94.90938 242.78334 95.84688 242.78334Q96.53438 242.78334 97.05 243.06459Q97.58125 243.34584 97.925 243.87709Q98.26875 244.39272 98.45625 245.14272Q98.64375 245.89272 98.64375 247.17397Q98.64375 248.68959 98.33125 249.61147Q98.03438 250.53334 97.40938 251.04897Q96.8 251.54897 95.84688 251.54897Q94.6125 251.54897 93.89375 250.65834Q93.05 249.59584 93.05 247.17397ZM94.12813 247.17397Q94.12813 249.28334 94.62813 249.98647Q95.12813 250.68959 95.84688 250.68959Q96.58125 250.68959 97.06563 249.98647Q97.56563 249.28334 97.56563 247.17397Q97.56563 245.04897 97.06563 244.36147Q96.58125 243.65834 95.83125 243.65834Q95.1125 243.65834 94.675 244.26772Q94.12813 245.04897 94.12813 247.17397Z" fill-rule="nonzero"/><path fill="#000000" d="M55.01875 198.36667L53.971874 198.36667L53.971874 191.64792Q53.58125 192.0073 52.95625 192.3823Q52.346874 192.74167 51.8625 192.91354L51.8625 191.89792Q52.7375 191.47604 53.39375 190.89792Q54.065624 190.30417 54.346874 189.74167L55.01875 189.74167L55.01875 198.36667ZM58.05 194.1323Q58.05 192.60104 58.3625 191.67917Q58.675 190.74167 59.284374 190.24167Q59.909374 189.74167 60.846874 189.74167Q61.534374 189.74167 62.05 190.02292Q62.58125 190.30417 62.925 190.83542Q63.26875 191.35104 63.45625 192.10104Q63.64375 192.85104 63.64375 194.1323Q63.64375 195.64792 63.33125 196.5698Q63.034374 197.49167 62.409374 198.0073Q61.8 198.5073 60.846874 198.5073Q59.6125 198.5073 58.89375 197.61667Q58.05 196.55417 58.05 194.1323ZM59.128124 194.1323Q59.128124 196.24167 59.628124 196.9448Q60.128124 197.64792 60.846874 197.64792Q61.58125 197.64792 62.065624 196.9448Q62.565624 196.24167 62.565624 194.1323Q62.565624 192.0073 62.065624 191.3198Q61.58125 190.61667 60.83125 190.61667Q60.1125 190.61667 59.675 191.22604Q59.128124 192.0073 59.128124 194.1323ZM65.05 194.1323Q65.05 192.60104 65.3625 191.67917Q65.675 190.74167 66.28438 190.24167Q66.90938 189.74167 67.84688 189.74167Q68.53438 189.74167 69.05 190.02292Q69.58125 190.30417 69.925 190.83542Q70.26875 191.35104 70.45625 192.10104Q70.64375 192.85104 70.64375 194.1323Q70.64375 195.64792 70.33125 196.5698Q70.03438 197.49167 69.40938 198.0073Q68.8 198.5073 67.84688 198.5073Q66.6125 198.5073 65.89375 197.61667Q65.05 196.55417 65.05 194.1323ZM66.12813 194.1323Q66.12813 196.24167 66.62813 196.9448Q67.12813 197.64792 67.84688 197.64792Q68.58125 197.64792 69.06563 196.9448Q69.56563 196.24167 69.56563 194.1323Q69.56563 192.0073 69.06563 191.3198Q68.58125 190.61667 67.83125 190.61667Q67.1125 190.61667 66.675 191.22604Q66.12813 192.0073 66.12813 194.1323ZM72.05 194.1323Q72.05 192.60104 72.3625 191.67917Q72.675 190.74167 73.28438 190.24167Q73.90938 189.74167 74.84688 189.74167Q75.53438 189.74167 76.05 190.02292Q76.58125 190.30417 76.925 190.83542Q77.26875 191.35104 77.45625 192.10104Q77.64375 192.85104 77.64375 194.1323Q77.64375 195.64792 77.33125 196.5698Q77.03438 197.49167 76.40938 198.0073Q75.8 198.5073 74.84688 198.5073Q73.6125 198.5073 72.89375 197.61667Q72.05 196.55417 72.05 194.1323ZM73.12813 194.1323Q73.12813 196.24167 73.62813 196.9448Q74.12813 197.64792 74.84688 197.64792Q75.58125 197.64792 76.06563 196.9448Q76.56563 196.24167 76.56563 194.1323Q76.56563 192.0073 76.06563 191.3198Q75.58125 190.61667 74.83125 190.61667Q74.1125 190.61667 73.675 191.22604Q73.12813 192.0073 73.12813 194.1323ZM79.05 194.1323Q79.05 192.60104 79.3625 191.67917Q79.675 190.74167 80.28438 190.24167Q80.90938 189.74167 81.84688 189.74167Q82.53438 189.74167 83.05 190.02292Q83.58125 190.30417 83.925 190.83542Q84.26875 191.35104 84.45625 192.10104Q84.64375 192.85104 84.64375 194.1323Q84.64375 195.64792 84.33125 196.5698Q84.03438 197.49167 83.40938 198.0073Q82.8 198.5073 81.84688 198.5073Q80.6125 198.5073 79.89375 197.61667Q79.05 196.55417 79.05 194.1323ZM80.12813 194.1323Q80.12813 196.24167 80.62813 196.9448Q81.12813 197.64792 81.84688 197.64792Q82.58125 197.64792 83.06563 196.9448Q83.56563 196.24167 83.56563 194.1323Q83.56563 192.0073 83.06563 191.3198Q82.58125 190.61667 81.83125 190.61667Q81.1125 190.61667 80.675 191.22604Q80.12813 192.0073 80.12813 194.1323ZM86.05 194.1323Q86.05 192.60104 86.3625 191.67917Q86.675 190.74167 87.28438 190.24167Q87.90938 189.74167 88.84688 189.74167Q89.53438 189.74167 90.05 190.02292Q90.58125 190.30417 90.925 190.83542Q91.26875 191.35104 91.45625 192.10104Q91.64375 192.85104 91.64375 194.1323Q91.64375 195.64792 91.33125 196.5698Q91.03438 197.49167 90.40938 198.0073Q89.8 198.5073 88.84688 198.5073Q87.6125 198.5073 86.89375 197.61667Q86.05 196.55417 86.05 194.1323ZM87.12813 194.1323Q87.12813 196.24167 87.62813 196.9448Q88.12813 197.64792 88.84688 197.64792Q89.58125 197.64792 90.06563 196.9448Q90.56563 196.24167 90.56563 194.1323Q90.56563 192.0073 90.06563 191.3198Q89.58125 190.61667 88.83125 190.61667Q88.1125 190.61667 87.675 191.22604Q87.12813 192.0073 87.12813 194.1323ZM93.05 194.1323Q93.05 192.60104 93.3625 191.67917Q93.675 190.74167 94.28438 190.24167Q94.90938 189.74167 95.84688 189.74167Q96.53438 189.74167 97.05 190.02292Q97.58125 190.30417 97.925 190.83542Q98.26875 191.35104 98.45625 192.10104Q98.64375 192.85104 98.64375 194.1323Q98.64375 195.64792 98.33125 196.5698Q98.03438 197.49167 97.40938 198.0073Q96.8 198.5073 95.84688 198.5073Q94.6125 198.5073 93.89375 197.61667Q93.05 196.55417 93.05 194.1323ZM94.12813 194.1323Q94.12813 196.24167 94.62813 196.9448Q95.12813 197.64792 95.84688 197.64792Q96.58125 197.64792 97.06563 196.9448Q97.56563 196.24167 97.56563 194.1323Q97.56563 192.0073 97.06563 191.3198Q96.58125 190.61667 95.83125 190.61667Q95.1125 190.61667 94.675 191.22604Q94.12813 192.0073 94.12813 194.1323Z" fill-rule="nonzero"/><path fill="#000000" d="M55.01875 145.325L53.971874 145.325L53.971874 138.60625Q53.58125 138.96562 52.95625 139.34062Q52.346874 139.7 51.8625 139.87187L51.8625 138.85625Q52.7375 138.43437 53.39375 137.85625Q54.065624 137.2625 54.346874 136.7L55.01875 136.7L55.01875 145.325ZM58.05 143.075L59.159374 142.98125Q59.284374 143.79375 59.721874 144.2Q60.175 144.60625 60.815624 144.60625Q61.565624 144.60625 62.096874 144.02812Q62.628124 143.45 62.628124 142.5125Q62.628124 141.60625 62.1125 141.09062Q61.6125 140.55937 60.784374 140.55937Q60.284374 140.55937 59.8625 140.79375Q59.45625 141.02812 59.221874 141.3875L58.2375 141.2625L59.065624 136.85625L63.346874 136.85625L63.346874 137.85625L59.909374 137.85625L59.45625 140.16875Q60.221874 139.62187 61.065624 139.62187Q62.190624 139.62187 62.95625 140.40312Q63.7375 141.18437 63.7375 142.41875Q63.7375 143.575 63.065624 144.43437Q62.2375 145.46562 60.815624 145.46562Q59.64375 145.46562 58.89375 144.80937Q58.159374 144.15312 58.05 143.075ZM65.05 141.09062Q65.05 139.55937 65.3625 138.6375Q65.675 137.7 66.28438 137.2Q66.90938 136.7 67.84688 136.7Q68.53438 136.7 69.05 136.98125Q69.58125 137.2625 69.925 137.79375Q70.26875 138.30937 70.45625 139.05937Q70.64375 139.80937 70.64375 141.09062Q70.64375 142.60625 70.33125 143.52812Q70.03438 144.45 69.40938 144.96562Q68.8 145.46562 67.84688 145.46562Q66.6125 145.46562 65.89375 144.575Q65.05 143.5125 65.05 141.09062ZM66.12813 141.09062Q66.12813 143.2 66.62813 143.90312Q67.12813 144.60625 67.84688 144.60625Q68.58125 144.60625 69.06563 143.90312Q69.56563 143.2 69.56563 141.09062Q69.56563 138.96562 69.06563 138.27812Q68.58125 137.575 67.83125 137.575Q67.1125 137.575 66.675 138.18437Q66.12813 138.96562 66.12813 141.09062ZM72.05 141.09062Q72.05 139.55937 72.3625 138.6375Q72.675 137.7 73.28438 137.2Q73.90938 136.7 74.84688 136.7Q75.53438 136.7 76.05 136.98125Q76.58125 137.2625 76.925 137.79375Q77.26875 138.30937 77.45625 139.05937Q77.64375 139.80937 77.64375 141.09062Q77.64375 142.60625 77.33125 143.52812Q77.03438 144.45 76.40938 144.96562Q75.8 145.46562 74.84688 145.46562Q73.6125 145.46562 72.89375 144.575Q72.05 143.5125 72.05 141.09062ZM73.12813 141.09062Q73.12813 143.2 73.62813 143.90312Q74.12813 144.60625 74.84688 144.60625Q75.58125 144.60625 76.06563 143.90312Q76.56563 143.2 76.56563 141.09062Q76.56563 138.96562 76.06563 138.27812Q75.58125 137.575 74.83125 137.575Q74.1125 137.575 73.675 138.18437Q73.12813 138.96562 73.12813 141.09062ZM79.05 141.09062Q79.05 139.55937 79.3625 138.6375Q79.675 137.7 80.28438 137.2Q80.90938 136.7 81.84688 136.7Q82.53438 136.7 83.05 136.98125Q83.58125 137.2625 83.925 137.79375Q84.26875 138.30937 84.45625 139.05937Q84.64375 139.80937 84.64375 141.09062Q84.64375 142.60625 84.33125 143.52812Q84.03438 144.45 83.40938 144.96562Q82.8 145.46562 81.84688 145.46562Q80.6125 145.46562 79.89375 144.575Q79.05 143.5125 79.05 141.09062ZM80.12813 141.09062Q80.12813 143.2 80.62813 143.90312Q81.12813 144.60625 81.84688 144.60625Q82.58125 144.60625 83.06563 143.90312Q83.56563 143.2 83.56563 141.09062Q83.56563 138.96562 83.06563 138.27812Q82.58125 137.575 81.83125 137.575Q81.1125 137.575 80.675 138.18437Q80.12813 138.96562 80.12813 141.09062ZM86.05 141.09062Q86.05 139.55937 86.3625 138.6375Q86.675 137.7 87.28438 137.2Q87.90938 136.7 88.84688 136.7Q89.53438 136.7 90.05 136.98125Q90.58125 137.2625 90.925 137.79375Q91.26875 138.30937 91.45625 139.05937Q91.64375 139.80937 91.64375 141.09062Q91.64375 142.60625 91.33125 143.52812Q91.03438 144.45 90.40938 144.96562Q89.8 145.46562 88.84688 145.46562Q87.6125 145.46562 86.89375 144.575Q86.05 143.5125 86.05 141.09062ZM87.12813 141.09062Q87.12813 143.2 87.62813 143.90312Q88.12813 144.60625 88.84688 144.60625Q89.58125 144.60625 90.06563 143.90312Q90.56563 143.2 90.56563 141.09062Q90.56563 138.96562 90.06563 138.27812Q89.58125 137.575 88.83125 137.575Q88.1125 137.575 87.675 138.18437Q87.12813 138.96562 87.12813 141.09062ZM93.05 141.09062Q93.05 139.55937 93.3625 138.6375Q93.675 137.7 94.28438 137.2Q94.90938 136.7 95.84688 136.7Q96.53438 136.7 97.05 136.98125Q97.58125 137.2625 97.925 137.79375Q98.26875 138.30937 98.45625 139.05937Q98.64375 139.80937 98.64375 141.09062Q98.64375 142.60625 98.33125 143.52812Q98.03438 144.45 97.40938 144.96562Q96.8 145.46562 95.84688 145.46562Q94.6125 145.46562 93.89375 144.575Q93.05 143.5125 93.05 141.09062ZM94.12813 141.09062Q94.12813 143.2 94.62813 143.90312Q95.12813 144.60625 95.84688 144.60625Q96.58125 144.60625 97.06563 143.90312Q97.56563 143.2 97.56563 141.09062Q97.56563 138.96562 97.06563 138.27812Q96.58125 137.575 95.83125 137.575Q95.1125 137.575 94.675 138.18437Q94.12813 138.96562 94.12813 141.09062Z" fill-rule="nonzero"/><path fill="#000000" d="M56.596874 91.26771L56.596874 92.28333L50.909374 92.28333Q50.909374 91.90833 51.034374 91.54896Q51.253124 90.97083 51.721874 90.40833Q52.20625 89.84583 53.1125 89.11146Q54.51875 87.95521 55.003124 87.28333Q55.503124 86.61146 55.503124 86.01771Q55.503124 85.39271 55.05 84.97083Q54.596874 84.53333 53.878124 84.53333Q53.1125 84.53333 52.659374 84.98646Q52.20625 85.43958 52.190624 86.25208L51.1125 86.14271Q51.221874 84.92396 51.940624 84.29896Q52.675 83.65833 53.909374 83.65833Q55.14375 83.65833 55.8625 84.34583Q56.58125 85.03333 56.58125 86.04896Q56.58125 86.56458 56.3625 87.06458Q56.159374 87.54896 55.659374 88.11146Q55.175 88.65833 54.05 89.61146Q53.096874 90.40833 52.815624 90.70521Q52.55 90.98646 52.378124 91.26771L56.596874 91.26771ZM58.05 88.04896Q58.05 86.51771 58.3625 85.59583Q58.675 84.65833 59.284374 84.15833Q59.909374 83.65833 60.846874 83.65833Q61.534374 83.65833 62.05 83.93958Q62.58125 84.22083 62.925 84.75208Q63.26875 85.26771 63.45625 86.01771Q63.64375 86.76771 63.64375 88.04896Q63.64375 89.56458 63.33125 90.48646Q63.034374 91.40833 62.409374 91.92396Q61.8 92.42396 60.846874 92.42396Q59.6125 92.42396 58.89375 91.53333Q58.05 90.47083 58.05 88.04896ZM59.128124 88.04896Q59.128124 90.15833 59.628124 90.86146Q60.128124 91.56458 60.846874 91.56458Q61.58125 91.56458 62.065624 90.86146Q62.565624 90.15833 62.565624 88.04896Q62.565624 85.92396 62.065624 85.23646Q61.58125 84.53333 60.83125 84.53333Q60.1125 84.53333 59.675 85.14271Q59.128124 85.92396 59.128124 88.04896ZM65.05 88.04896Q65.05 86.51771 65.3625 85.59583Q65.675 84.65833 66.28438 84.15833Q66.90938 83.65833 67.84688 83.65833Q68.53438 83.65833 69.05 83.93958Q69.58125 84.22083 69.925 84.75208Q70.26875 85.26771 70.45625 86.01771Q70.64375 86.76771 70.64375 88.04896Q70.64375 89.56458 70.33125 90.48646Q70.03438 91.40833 69.40938 91.92396Q68.8 92.42396 67.84688 92.42396Q66.6125 92.42396 65.89375 91.53333Q65.05 90.47083 65.05 88.04896ZM66.12813 88.04896Q66.12813 90.15833 66.62813 90.86146Q67.12813 91.56458 67.84688 91.56458Q68.58125 91.56458 69.06563 90.86146Q69.56563 90.15833 69.56563 88.04896Q69.56563 85.92396 69.06563 85.23646Q68.58125 84.53333 67.83125 84.53333Q67.1125 84.53333 66.675 85.14271Q66.12813 85.92396 66.12813 88.04896ZM72.05 88.04896Q72.05 86.51771 72.3625 85.59583Q72.675 84.65833 73.28438 84.15833Q73.90938 83.65833 74.84688 83.65833Q75.53438 83.65833 76.05 83.93958Q76.58125 84.22083 76.925 84.75208Q77.26875 85.26771 77.45625 86.01771Q77.64375 86.76771 77.64375 88.04896Q77.64375 89.56458 77.33125 90.48646Q77.03438 91.40833 76.40938 91.92396Q75.8 92.42396 74.84688 92.42396Q73.6125 92.42396 72.89375 91.53333Q72.05 90.47083 72.05 88.04896ZM73.12813 88.04896Q73.12813 90.15833 73.62813 90.86146Q74.12813 91.56458 74.84688 91.56458Q75.58125 91.56458 76.06563 90.86146Q76.56563 90.15833 76.56563 88.04896Q76.56563 85.92396 76.06563 85.23646Q75.58125 84.53333 74.83125 84.53333Q74.1125 84.53333 73.675 85.14271Q73.12813 85.92396 73.12813 88.04896ZM79.05 88.04896Q79.05 86.51771 79.3625 85.59583Q79.675 84.65833 80.28438 84.15833Q80.90938 83.65833 81.84688 83.65833Q82.53438 83.65833 83.05 83.93958Q83.58125 84.22083 83.925 84.75208Q84.26875 85.26771 84.45625 86.01771Q84.64375 86.76771 84.64375 88.04896Q84.64375 89.56458 84.33125 90.48646Q84.03438 91.40833 83.40938 91.92396Q82.8 92.42396 81.84688 92.42396Q80.6125 92.42396 79.89375 91.53333Q79.05 90.47083 79.05 88.04896ZM80.12813 88.04896Q80.12813 90.15833 80.62813 90.86146Q81.12813 91.56458 81.84688 91.56458Q82.58125 91.56458 83.06563 90.86146Q83.56563 90.15833 83.56563 88.04896Q83.56563 85.92396 83.06563 85.23646Q82.58125 84.53333 81.83125 84.53333Q81.1125 84.53333 80.675 85.14271Q80.12813 85.92396 80.12813 88.04896ZM86.05 88.04896Q86.05 86.51771 86.3625 85.59583Q86.675 84.65833 87.28438 84.15833Q87.90938 83.65833 88.84688 83.65833Q89.53438 83.65833 90.05 83.93958Q90.58125 84.22083 90.925 84.75208Q91.26875 85.26771 91.45625 86.01771Q91.64375 86.76771 91.64375 88.04896Q91.64375 89.56458 91.33125 90.48646Q91.03438 91.40833 90.40938 91.92396Q89.8 92.42396 88.84688 92.42396Q87.6125 92.42396 86.89375 91.53333Q86.05 90.47083 86.05 88.04896ZM87.12813 88.04896Q87.12813 90.15833 87.62813 90.86146Q88.12813 91.56458 88.84688 91.56458Q89.58125 91.56458 90.06563 90.86146Q90.56563 90.15833 90.56563 88.04896Q90.56563 85.92396 90.06563 85.23646Q89.58125 84.53333 88.83125 84.53333Q88.1125 84.53333 87.675 85.14271Q87.12813 85.92396 87.12813 88.04896ZM93.05 88.04896Q93.05 86.51771 93.3625 85.59583Q93.675 84.65833 94.28438 84.15833Q94.90938 83.65833 95.84688 83.65833Q96.53438 83.65833 97.05 83.93958Q97.58125 84.22083 97.925 84.75208Q98.26875 85.26771 98.45625 86.01771Q98.64375 86.76771 98.64375 88.04896Q98.64375 89.56458 98.33125 90.48646Q98.03438 91.40833 97.40938 91.92396Q96.8 92.42396 95.84688 92.42396Q94.6125 92.42396 93.89375 91.53333Q93.05 90.47083 93.05 88.04896ZM94.12813 88.04896Q94.12813 90.15833 94.62813 90.86146Q95.12813 91.56458 95.84688 91.56458Q96.58125 91.56458 97.06563 90.86146Q97.56563 90.15833 97.56563 88.04896Q97.56563 85.92396 97.06563 85.23646Q96.58125 84.53333 95.83125 84.53333Q95.1125 84.53333 94.675 85.14271Q94.12813 85.92396 94.12813 88.04896Z" fill-rule="nonzero"/><path fill="#000000" d="M109.29352 313.21564Q109.29352 311.6844 109.60602 310.7625Q109.91852 309.825 110.52789 309.325Q111.15289 308.825 112.09039 308.825Q112.77789 308.825 113.29352 309.10626Q113.82477 309.3875 114.16852 309.91876Q114.51227 310.4344 114.69977 311.1844Q114.88727 311.9344 114.88727 313.21564Q114.88727 314.73126 114.57477 315.65314Q114.27789 316.575 113.65289 317.09064Q113.04352 317.59064 112.09039 317.59064Q110.85602 317.59064 110.13727 316.7Q109.29352 315.6375 109.29352 313.21564ZM110.37164 313.21564Q110.37164 315.325 110.87164 316.02814Q111.37164 316.73126 112.09039 316.73126Q112.82477 316.73126 113.30914 316.02814Q113.80914 315.325 113.80914 313.21564Q113.80914 311.09064 113.30914 310.40314Q112.82477 309.7 112.07477 309.7Q111.35602 309.7 110.91852 310.3094Q110.37164 311.09064 110.37164 313.21564Z" fill-rule="nonzero"/><path fill="#000000" d="M239.89354 315.2L241.00291 315.10626Q241.12791 315.91876 241.56541 316.325Q242.01854 316.73126 242.65916 316.73126Q243.40916 316.73126 243.94041 316.15314Q244.47166 315.575 244.47166 314.6375Q244.47166 313.73126 243.95604 313.21564Q243.45604 312.6844 242.62791 312.6844Q242.12791 312.6844 241.70604 312.91876Q241.29979 313.15314 241.06541 313.5125L240.08104 313.3875L240.90916 308.98126L245.19041 308.98126L245.19041 309.98126L241.75291 309.98126L241.29979 312.29376Q242.06541 311.7469 242.90916 311.7469Q244.03416 311.7469 244.79979 312.52814Q245.58104 313.3094 245.58104 314.54376Q245.58104 315.7 244.90916 316.5594Q244.08104 317.59064 242.65916 317.59064Q241.48729 317.59064 240.73729 316.9344Q240.00291 316.27814 239.89354 315.2ZM246.89354 313.21564Q246.89354 311.6844 247.20604 310.7625Q247.51854 309.825 248.12791 309.325Q248.75291 308.825 249.69041 308.825Q250.37791 308.825 250.89354 309.10626Q251.42479 309.3875 251.76854 309.91876Q252.11229 310.4344 252.29979 311.1844Q252.48729 311.9344 252.48729 313.21564Q252.48729 314.73126 252.17479 315.65314Q251.87791 316.575 251.25291 317.09064Q250.64354 317.59064 249.69041 317.59064Q248.45604 317.59064 247.73729 316.7Q246.89354 315.6375 246.89354 313.21564ZM247.97166 313.21564Q247.97166 315.325 248.47166 316.02814Q248.97166 316.73126 249.69041 316.73126Q250.42479 316.73126 250.90916 316.02814Q251.40916 315.325 251.40916 313.21564Q251.40916 311.09064 250.90916 310.40314Q250.42479 309.7 249.67479 309.7Q248.95604 309.7 248.51854 310.3094Q247.97166 311.09064 247.97166 313.21564ZM253.89354 313.21564Q253.89354 311.6844 254.20604 310.7625Q254.51854 309.825 255.12791 309.325Q255.75291 308.825 256.69043 308.825Q257.37793 308.825 257.89355 309.10626Q258.4248 309.3875 258.76855 309.91876Q259.1123 310.4344 259.2998 311.1844Q259.4873 311.9344 259.4873 313.21564Q259.4873 314.73126 259.1748 315.65314Q258.87793 316.575 258.25293 317.09064Q257.64355 317.59064 256.69043 317.59064Q255.45604 317.59064 254.73729 316.7Q253.89354 315.6375 253.89354 313.21564ZM254.97166 313.21564Q254.97166 315.325 255.47166 316.02814Q255.97166 316.73126 256.69043 316.73126Q257.4248 316.73126 257.90918 316.02814Q258.40918 315.325 258.40918 313.21564Q258.40918 311.09064 257.90918 310.40314Q257.4248 309.7 256.6748 309.7Q255.95604 309.7 255.51854 310.3094Q254.97166 311.09064 254.97166 313.21564ZM260.89355 313.21564Q260.89355 311.6844 261.20605 310.7625Q261.51855 309.825 262.12793 309.325Q262.75293 308.825 263.69043 308.825Q264.37793 308.825 264.89355 309.10626Q265.4248 309.3875 265.76855 309.91876Q266.1123 310.4344 266.2998 311.1844Q266.4873 311.9344 266.4873 313.21564Q266.4873 314.73126 266.1748 315.65314Q265.87793 316.575 265.25293 317.09064Q264.64355 317.59064 263.69043 317.59064Q262.45605 317.59064 261.7373 316.7Q260.89355 315.6375 260.89355 313.21564ZM261.97168 313.21564Q261.97168 315.325 262.47168 316.02814Q262.97168 316.73126 263.69043 316.73126Q264.4248 316.73126 264.90918 316.02814Q265.40918 315.325 265.40918 313.21564Q265.40918 311.09064 264.90918 310.40314Q264.4248 309.7 263.6748 309.7Q262.95605 309.7 262.51855 310.3094Q261.97168 311.09064 261.97168 313.21564Z" fill-rule="nonzero"/><path fill="#000000" d="M381.46228 317.45L380.4154 317.45L380.4154 310.73126Q380.02478 311.09064 379.39978 311.46564Q378.7904 311.825 378.30603 311.9969L378.30603 310.98126Q379.18103 310.5594 379.83728 309.98126Q380.50916 309.3875 380.7904 308.825L381.46228 308.825L381.46228 317.45ZM384.49353 313.21564Q384.49353 311.6844 384.80603 310.7625Q385.11853 309.825 385.7279 309.325Q386.3529 308.825 387.2904 308.825Q387.9779 308.825 388.49353 309.10626Q389.02478 309.3875 389.36853 309.91876Q389.71228 310.4344 389.89978 311.1844Q390.08728 311.9344 390.08728 313.21564Q390.08728 314.73126 389.77478 315.65314Q389.4779 316.575 388.8529 317.09064Q388.24353 317.59064 387.2904 317.59064Q386.05603 317.59064 385.33728 316.7Q384.49353 315.6375 384.49353 313.21564ZM385.57166 313.21564Q385.57166 315.325 386.07166 316.02814Q386.57166 316.73126 387.2904 316.73126Q388.02478 316.73126 388.50916 316.02814Q389.00916 315.325 389.00916 313.21564Q389.00916 311.09064 388.50916 310.40314Q388.02478 309.7 387.27478 309.7Q386.55603 309.7 386.11853 310.3094Q385.57166 311.09064 385.57166 313.21564ZM391.49353 313.21564Q391.49353 311.6844 391.80603 310.7625Q392.11853 309.825 392.7279 309.325Q393.3529 308.825 394.2904 308.825Q394.9779 308.825 395.49353 309.10626Q396.02478 309.3875 396.36853 309.91876Q396.71228 310.4344 396.89978 311.1844Q397.08728 311.9344 397.08728 313.21564Q397.08728 314.73126 396.77478 315.65314Q396.4779 316.575 395.8529 317.09064Q395.24353 317.59064 394.2904 317.59064Q393.05603 317.59064 392.33728 316.7Q391.49353 315.6375 391.49353 313.21564ZM392.57166 313.21564Q392.57166 315.325 393.07166 316.02814Q393.57166 316.73126 394.2904 316.73126Q395.02478 316.73126 395.50916 316.02814Q396.00916 315.325 396.00916 313.21564Q396.00916 311.09064 395.50916 310.40314Q395.02478 309.7 394.27478 309.7Q393.55603 309.7 393.11853 310.3094Q392.57166 311.09064 392.57166 313.21564ZM398.49353 313.21564Q398.49353 311.6844 398.80603 310.7625Q399.11853 309.825 399.7279 309.325Q400.3529 308.825 401.2904 308.825Q401.9779 308.825 402.49353 309.10626Q403.02478 309.3875 403.36853 309.91876Q403.71228 310.4344 403.89978 311.1844Q404.08728 311.9344 404.08728 313.21564Q404.08728 314.73126 403.77478 315.65314Q403.4779 316.575 402.8529 317.09064Q402.24353 317.59064 401.2904 317.59064Q400.05603 317.59064 399.33728 316.7Q398.49353 315.6375 398.49353 313.21564ZM399.57166 313.21564Q399.57166 315.325 400.07166 316.02814Q400.57166 316.73126 401.2904 316.73126Q402.02478 316.73126 402.50916 316.02814Q403.00916 315.325 403.00916 313.21564Q403.00916 311.09064 402.50916 310.40314Q402.02478 309.7 401.27478 309.7Q400.55603 309.7 400.11853 310.3094Q399.57166 311.09064 399.57166 313.21564ZM405.49353 313.21564Q405.49353 311.6844 405.80603 310.7625Q406.11853 309.825 406.7279 309.325Q407.3529 308.825 408.2904 308.825Q408.9779 308.825 409.49353 309.10626Q410.02478 309.3875 410.36853 309.91876Q410.71228 310.4344 410.89978 311.1844Q411.08728 311.9344 411.08728 313.21564Q411.08728 314.73126 410.77478 315.65314Q410.4779 316.575 409.8529 317.09064Q409.24353 317.59064 408.2904 317.59064Q407.05603 317.59064 406.33728 316.7Q405.49353 315.6375 405.49353 313.21564ZM406.57166 313.21564Q406.57166 315.325 407.07166 316.02814Q407.57166 316.73126 408.2904 316.73126Q409.02478 316.73126 409.50916 316.02814Q410.00916 315.325 410.00916 313.21564Q410.00916 311.09064 409.50916 310.40314Q409.02478 309.7 408.27478 309.7Q407.55603 309.7 407.11853 310.3094Q406.57166 311.09064 406.57166 313.21564Z" fill-rule="nonzero"/><path fill="#000000" d="M522.5623 317.45L521.51544 317.45L521.51544 310.73126Q521.1248 311.09064 520.4998 311.46564Q519.89044 311.825 519.40607 311.9969L519.40607 310.98126Q520.28107 310.5594 520.9373 309.98126Q521.6092 309.3875 521.89044 308.825L522.5623 308.825L522.5623 317.45ZM525.59357 315.2L526.70294 315.10626Q526.82794 315.91876 527.26544 316.325Q527.71857 316.73126 528.3592 316.73126Q529.1092 316.73126 529.64044 316.15314Q530.1717 315.575 530.1717 314.6375Q530.1717 313.73126 529.65607 313.21564Q529.15607 312.6844 528.32794 312.6844Q527.82794 312.6844 527.40607 312.91876Q526.9998 313.15314 526.76544 313.5125L525.78107 313.3875L526.6092 308.98126L530.89044 308.98126L530.89044 309.98126L527.45294 309.98126L526.9998 312.29376Q527.76544 311.7469 528.6092 311.7469Q529.7342 311.7469 530.4998 312.52814Q531.28107 313.3094 531.28107 314.54376Q531.28107 315.7 530.6092 316.5594Q529.78107 317.59064 528.3592 317.59064Q527.1873 317.59064 526.4373 316.9344Q525.70294 316.27814 525.59357 315.2ZM532.59357 313.21564Q532.59357 311.6844 532.90607 310.7625Q533.21857 309.825 533.82794 309.325Q534.45294 308.825 535.39044 308.825Q536.07794 308.825 536.59357 309.10626Q537.1248 309.3875 537.46857 309.91876Q537.8123 310.4344 537.9998 311.1844Q538.1873 311.9344 538.1873 313.21564Q538.1873 314.73126 537.8748 315.65314Q537.57794 316.575 536.95294 317.09064Q536.34357 317.59064 535.39044 317.59064Q534.15607 317.59064 533.4373 316.7Q532.59357 315.6375 532.59357 313.21564ZM533.6717 313.21564Q533.6717 315.325 534.1717 316.02814Q534.6717 316.73126 535.39044 316.73126Q536.1248 316.73126 536.6092 316.02814Q537.1092 315.325 537.1092 313.21564Q537.1092 311.09064 536.6092 310.40314Q536.1248 309.7 535.3748 309.7Q534.65607 309.7 534.21857 310.3094Q533.6717 311.09064 533.6717 313.21564ZM539.59357 313.21564Q539.59357 311.6844 539.90607 310.7625Q540.21857 309.825 540.82794 309.325Q541.45294 308.825 542.39044 308.825Q543.07794 308.825 543.59357 309.10626Q544.1248 309.3875 544.46857 309.91876Q544.8123 310.4344 544.9998 311.1844Q545.1873 311.9344 545.1873 313.21564Q545.1873 314.73126 544.8748 315.65314Q544.57794 316.575 543.95294 317.09064Q543.34357 317.59064 542.39044 317.59064Q541.15607 317.59064 540.4373 316.7Q539.59357 315.6375 539.59357 313.21564ZM540.6717 313.21564Q540.6717 315.325 541.1717 316.02814Q541.6717 316.73126 542.39044 316.73126Q543.1248 316.73126 543.6092 316.02814Q544.1092 315.325 544.1092 313.21564Q544.1092 311.09064 543.6092 310.40314Q543.1248 309.7 542.3748 309.7Q541.65607 309.7 541.21857 310.3094Q540.6717 311.09064 540.6717 313.21564ZM546.59357 313.21564Q546.59357 311.6844 546.90607 310.7625Q547.21857 309.825 547.82794 309.325Q548.45294 308.825 549.39044 308.825Q550.07794 308.825 550.59357 309.10626Q551.1248 309.3875 551.46857 309.91876Q551.8123 310.4344 551.9998 311.1844Q552.1873 311.9344 552.1873 313.21564Q552.1873 314.73126 551.8748 315.65314Q551.57794 316.575 550.95294 317.09064Q550.34357 317.59064 549.39044 317.59064Q548.15607 317.59064 547.4373 316.7Q546.59357 315.6375 546.59357 313.21564ZM547.6717 313.21564Q547.6717 315.325 548.1717 316.02814Q548.6717 316.73126 549.39044 316.73126Q550.1248 316.73126 550.6092 316.02814Q551.1092 315.325 551.1092 313.21564Q551.1092 311.09064 550.6092 310.40314Q550.1248 309.7 549.3748 309.7Q548.65607 309.7 548.21857 310.3094Q547.6717 311.09064 547.6717 313.21564Z" fill-rule="nonzero"/><path fill="#4285f4" d="M211.5 61.916668C211.5 65.23038 208.8137 67.916664 205.5 67.916664C202.1863 67.916664 199.5 65.23038 199.5 61.916668C199.5 58.60296 202.1863 55.916668 205.5 55.916668C208.8137 55.916668 211.5 58.60296 211.5 61.916668Z" fill-rule="nonzero"/><path stroke="#4285f4" stroke-width="4.0" stroke-linecap="butt" stroke-opacity="0.5019608" d="M227.5 61.916668L239.5 61.916668" fill-rule="nonzero"/><path fill="#1a1a1a" d="M250.60938 65.916664L250.60938 58.33854L247.78125 58.33854L247.78125 57.322914L254.59375 57.322914L254.59375 58.33854L251.75 58.33854L251.75 65.916664L250.60938 65.916664ZM255.28125 65.916664L255.28125 59.697914L256.23438 59.697914L256.23438 60.635414Q256.59375 59.979164 256.89062 59.77604Q257.20312 59.55729 257.57812 59.55729Q258.10938 59.55729 258.65625 59.885414L258.29688 60.86979Q257.90625 60.635414 257.53125 60.635414Q257.17188 60.635414 256.89062 60.854164Q256.625 61.05729 256.51562 61.43229Q256.32812 61.99479 256.32812 62.65104L256.32812 65.916664L255.28125 65.916664ZM263.54688 63.916664L264.64062 64.041664Q264.39062 64.99479 263.6875 65.52604Q262.98438 66.05729 261.90625 66.05729Q260.54688 66.05729 259.73438 65.21354Q258.9375 64.36979 258.9375 62.854164Q258.9375 61.291664 259.75 60.43229Q260.5625 59.55729 261.84375 59.55729Q263.09375 59.55729 263.875 60.40104Q264.67188 61.24479 264.67188 62.791664Q264.67188 62.885414 264.67188 63.072914L260.03125 63.072914Q260.09375 64.104164 260.60938 64.65104Q261.125 65.18229 261.90625 65.18229Q262.48438 65.18229 262.89062 64.885414Q263.3125 64.572914 263.54688 63.916664ZM260.09375 62.21354L263.5625 62.21354Q263.5 61.416664 263.17188 61.02604Q262.65625 60.416664 261.85938 60.416664Q261.125 60.416664 260.625 60.90104Q260.14062 61.385414 260.09375 62.21354ZM266.29688 65.916664L266.29688 59.697914L267.23438 59.697914L267.23438 60.572914Q267.92188 59.55729 269.21875 59.55729Q269.78125 59.55729 270.25 59.760414Q270.73438 59.96354 270.96875 60.291664Q271.20312 60.61979 271.29688 61.05729Q271.34375 61.354164 271.34375 62.08854L271.34375 65.916664L270.29688 65.916664L270.29688 62.135414Q270.29688 61.479164 270.17188 61.166664Q270.04688 60.854164 269.73438 60.666664Q269.42188 60.46354 269.0 60.46354Q268.32812 60.46354 267.82812 60.90104Q267.34375 61.322914 267.34375 62.510414L267.34375 65.916664L266.29688 65.916664ZM277.32812 65.916664L277.32812 65.135414Q276.73438 66.05729 275.59375 66.05729Q274.84375 66.05729 274.21875 65.65104Q273.59375 65.229164 273.25 64.49479Q272.90625 63.760414 272.90625 62.80729Q272.90625 61.885414 273.21875 61.11979Q273.53125 60.354164 274.15625 59.96354Q274.78125 59.55729 275.54688 59.55729Q276.10938 59.55729 276.54688 59.791664Q276.98438 60.02604 277.26562 60.40104L277.26562 57.322914L278.3125 57.322914L278.3125 65.916664L277.32812 65.916664ZM274.0 62.80729Q274.0 64.010414 274.5 64.604164Q275.0 65.18229 275.6875 65.18229Q276.375 65.18229 276.85938 64.61979Q277.34375 64.05729 277.34375 62.90104Q277.34375 61.61979 276.84375 61.02604Q276.35938 60.43229 275.64062 60.43229Q274.9375 60.43229 274.46875 61.010414Q274.0 61.572914 274.0 62.80729ZM280.26562 65.916664L280.26562 57.322914L281.32812 57.322914L281.32812 65.916664L280.26562 65.916664ZM283.29688 58.541664L283.29688 57.322914L284.35938 57.322914L284.35938 58.541664L283.29688 58.541664ZM283.29688 65.916664L283.29688 59.697914L284.35938 59.697914L284.35938 65.916664L283.29688 65.916664ZM286.29688 65.916664L286.29688 59.697914L287.23438 59.697914L287.23438 60.572914Q287.92188 59.55729 289.21875 59.55729Q289.78125 59.55729 290.25 59.760414Q290.73438 59.96354 290.96875 60.291664Q291.20312 60.61979 291.29688 61.05729Q291.34375 61.354164 291.34375 62.08854L291.34375 65.916664L290.29688 65.916664L290.29688 62.135414Q290.29688 61.479164 290.17188 61.166664Q290.04688 60.854164 289.73438 60.666664Q289.42188 60.46354 289.0 60.46354Q288.32812 60.46354 287.82812 60.90104Q287.34375 61.322914 287.34375 62.510414L287.34375 65.916664L286.29688 65.916664ZM297.54688 63.916664L298.64062 64.041664Q298.39062 64.99479 297.6875 65.52604Q296.98438 66.05729 295.90625 66.05729Q294.54688 66.05729 293.73438 65.21354Q292.9375 64.36979 292.9375 62.854164Q292.9375 61.291664 293.75 60.43229Q294.5625 59.55729 295.84375 59.55729Q297.09375 59.55729 297.875 60.40104Q298.67188 61.24479 298.67188 62.791664Q298.67188 62.885414 298.67188 63.072914L294.03125 63.072914Q294.09375 64.104164 294.60938 64.65104Q295.125 65.18229 295.90625 65.18229Q296.48438 65.18229 296.89062 64.885414Q297.3125 64.572914 297.54688 63.916664ZM294.09375 62.21354L297.5625 62.21354Q297.5 61.416664 297.17188 61.02604Q296.65625 60.416664 295.85938 60.416664Q295.125 60.416664 294.625 60.90104Q294.14062 61.385414 294.09375 62.21354ZM303.54688 65.916664L303.54688 60.510414L302.60938 60.510414L302.60938 59.697914L303.54688 59.697914L303.54688 59.02604Q303.54688 58.40104 303.65625 58.104164Q303.8125 57.68229 304.1875 57.43229Q304.57812 57.18229 305.26562 57.18229Q305.71875 57.18229 306.25 57.291664L306.09375 58.197914Q305.76562 58.15104 305.46875 58.15104Q304.98438 58.15104 304.78125 58.354164Q304.59375 58.55729 304.59375 59.11979L304.59375 59.697914L305.8125 59.697914L305.8125 60.510414L304.59375 60.510414L304.59375 65.916664L303.54688 65.916664ZM305.90625 62.80729Q305.90625 61.072914 306.85938 60.24479Q307.65625 59.55729 308.8125 59.55729Q310.09375 59.55729 310.90625 60.40104Q311.73438 61.229164 311.73438 62.71354Q311.73438 63.916664 311.375 64.604164Q311.01562 65.291664 310.3125 65.68229Q309.625 66.05729 308.8125 66.05729Q307.51562 66.05729 306.70312 65.229164Q305.90625 64.385414 305.90625 62.80729ZM306.98438 62.80729Q306.98438 63.99479 307.5 64.58854Q308.03125 65.18229 308.8125 65.18229Q309.60938 65.18229 310.125 64.58854Q310.64062 63.99479 310.64062 62.77604Q310.64062 61.61979 310.10938 61.02604Q309.59375 60.43229 308.8125 60.43229Q308.03125 60.43229 307.5 61.02604Q306.98438 61.604164 306.98438 62.80729ZM313.28125 65.916664L313.28125 59.697914L314.23438 59.697914L314.23438 60.635414Q314.59375 59.979164 314.89062 59.77604Q315.20312 59.55729 315.57812 59.55729Q316.10938 59.55729 316.65625 59.885414L316.29688 60.86979Q315.90625 60.635414 315.53125 60.635414Q315.17188 60.635414 314.89062 60.854164Q314.625 61.05729 314.51562 61.43229Q314.32812 61.99479 314.32812 62.65104L314.32812 65.916664L313.28125 65.916664ZM319.875 64.05729L320.90625 63.90104Q321.0 64.52604 321.39062 64.854164Q321.79688 65.18229 322.53125 65.18229Q323.25 65.18229 323.59375 64.90104Q323.95312 64.604164 323.95312 64.197914Q323.95312 63.83854 323.64062 63.635414Q323.42188 63.49479 322.5625 63.27604Q321.40625 62.979164 320.95312 62.77604Q320.51562 62.55729 320.28125 62.18229Q320.04688 61.80729 320.04688 61.33854Q320.04688 60.93229 320.23438 60.572914Q320.42188 60.21354 320.75 59.979164Q321.0 59.80729 321.42188 59.68229Q321.84375 59.55729 322.34375 59.55729Q323.0625 59.55729 323.60938 59.77604Q324.17188 59.979164 324.4375 60.33854Q324.70312 60.697914 324.79688 61.291664L323.76562 61.43229Q323.70312 60.96354 323.35938 60.697914Q323.03125 60.416664 322.40625 60.416664Q321.6875 60.416664 321.375 60.666664Q321.0625 60.90104 321.0625 61.229164Q321.0625 61.43229 321.1875 61.58854Q321.32812 61.760414 321.59375 61.86979Q321.75 61.93229 322.53125 62.135414Q323.65625 62.447914 324.09375 62.635414Q324.53125 62.822914 324.78125 63.18229Q325.03125 63.541664 325.03125 64.08854Q325.03125 64.61979 324.71875 65.08854Q324.42188 65.541664 323.84375 65.80729Q323.26562 66.05729 322.53125 66.05729Q321.3125 66.05729 320.67188 65.55729Q320.04688 65.041664 319.875 64.05729ZM331.54688 63.916664L332.64062 64.041664Q332.39062 64.99479 331.6875 65.52604Q330.98438 66.05729 329.90625 66.05729Q328.54688 66.05729 327.73438 65.21354Q326.9375 64.36979 326.9375 62.854164Q326.9375 61.291664 327.75 60.43229Q328.5625 59.55729 329.84375 59.55729Q331.09375 59.55729 331.875 60.40104Q332.67188 61.24479 332.67188 62.791664Q332.67188 62.885414 332.67188 63.072914L328.03125 63.072914Q328.09375 64.104164 328.60938 64.65104Q329.125 65.18229 329.90625 65.18229Q330.48438 65.18229 330.89062 64.885414Q331.3125 64.572914 331.54688 63.916664ZM328.09375 62.21354L331.5625 62.21354Q331.5 61.416664 331.17188 61.02604Q330.65625 60.416664 329.85938 60.416664Q329.125 60.416664 328.625 60.90104Q328.14062 61.385414 328.09375 62.21354ZM334.28125 65.916664L334.28125 59.697914L335.23438 59.697914L335.23438 60.635414Q335.59375 59.979164 335.89062 59.77604Q336.20312 59.55729 336.57812 59.55729Q337.10938 59.55729 337.65625 59.885414L337.29688 60.86979Q336.90625 60.635414 336.53125 60.635414Q336.17188 60.635414 335.89062 60.854164Q335.625 61.05729 335.51562 61.43229Q335.32812 61.99479 335.32812 62.65104L335.32812 65.916664L334.28125 65.916664ZM338.29688 58.541664L338.29688 57.322914L339.35938 57.322914L339.35938 58.541664L338.29688 58.541664ZM338.29688 65.916664L338.29688 59.697914L339.35938 59.697914L339.35938 65.916664L338.29688 65.916664ZM345.54688 63.916664L346.64062 64.041664Q346.39062 64.99479 345.6875 65.52604Q344.98438 66.05729 343.90625 66.05729Q342.54688 66.05729 341.73438 65.21354Q340.9375 64.36979 340.9375 62.854164Q340.9375 61.291664 341.75 60.43229Q342.5625 59.55729 343.84375 59.55729Q345.09375 59.55729 345.875 60.40104Q346.67188 61.24479 346.67188 62.791664Q346.67188 62.885414 346.67188 63.072914L342.03125 63.072914Q342.09375 64.104164 342.60938 64.65104Q343.125 65.18229 343.90625 65.18229Q344.48438 65.18229 344.89062 64.885414Q345.3125 64.572914 345.54688 63.916664ZM342.09375 62.21354L345.5625 62.21354Q345.5 61.416664 345.17188 61.02604Q344.65625 60.416664 343.85938 60.416664Q343.125 60.416664 342.625 60.90104Q342.14062 61.385414 342.09375 62.21354ZM347.875 64.05729L348.90625 63.90104Q349.0 64.52604 349.39062 64.854164Q349.79688 65.18229 350.53125 65.18229Q351.25 65.18229 351.59375 64.90104Q351.95312 64.604164 351.95312 64.197914Q351.95312 63.83854 351.64062 63.635414Q351.42188 63.49479 350.5625 63.27604Q349.40625 62.979164 348.95312 62.77604Q348.51562 62.55729 348.28125 62.18229Q348.04688 61.80729 348.04688 61.33854Q348.04688 60.93229 348.23438 60.572914Q348.42188 60.21354 348.75 59.979164Q349.0 59.80729 349.42188 59.68229Q349.84375 59.55729 350.34375 59.55729Q351.0625 59.55729 351.60938 59.77604Q352.17188 59.979164 352.4375 60.33854Q352.70312 60.697914 352.79688 61.291664L351.76562 61.43229Q351.70312 60.96354 351.35938 60.697914Q351.03125 60.416664 350.40625 60.416664Q349.6875 60.416664 349.375 60.666664Q349.0625 60.90104 349.0625 61.229164Q349.0625 61.43229 349.1875 61.58854Q349.32812 61.760414 349.59375 61.86979Q349.75 61.93229 350.53125 62.135414Q351.65625 62.447914 352.09375 62.635414Q352.53125 62.822914 352.78125 63.18229Q353.03125 63.541664 353.03125 64.08854Q353.03125 64.61979 352.71875 65.08854Q352.42188 65.541664 351.84375 65.80729Q351.26562 66.05729 350.53125 66.05729Q349.3125 66.05729 348.67188 65.55729Q348.04688 65.041664 347.875 64.05729ZM361.96875 65.916664L360.92188 65.916664L360.92188 59.197914Q360.53125 59.55729 359.90625 59.93229Q359.29688 60.291664 358.8125 60.46354L358.8125 59.447914Q359.6875 59.02604 360.34375 58.447914Q361.01562 57.854164 361.29688 57.291664L361.96875 57.291664L361.96875 65.916664ZM368.4375 65.916664L368.4375 57.322914L372.25 57.322914Q373.40625 57.322914 374.0 57.55729Q374.59375 57.791664 374.95312 58.385414Q375.3125 58.96354 375.3125 59.666664Q375.3125 60.58854 374.71875 61.21354Q374.125 61.83854 372.89062 62.010414Q373.34375 62.229164 373.57812 62.43229Q374.07812 62.885414 374.51562 63.572914L376.01562 65.916664L374.57812 65.916664L373.45312 64.135414Q372.95312 63.354164 372.625 62.947914Q372.3125 62.541664 372.04688 62.385414Q371.79688 62.21354 371.53125 62.135414Q371.34375 62.104164 370.90625 62.104164L369.57812 62.104164L369.57812 65.916664L368.4375 65.916664ZM369.57812 61.11979L372.03125 61.11979Q372.79688 61.11979 373.23438 60.96354Q373.6875 60.791664 373.90625 60.447914Q374.14062 60.08854 374.14062 59.666664Q374.14062 59.05729 373.6875 58.666664Q373.25 58.27604 372.29688 58.27604L369.57812 58.27604L369.57812 61.11979ZM376.64062 61.61979Q376.6875 61.291664 376.92188 60.947914Q377.29688 60.447914 378.14062 59.83854Q378.98438 59.229164 379.14062 59.041664Q379.35938 58.80729 379.35938 58.55729Q379.35938 58.27604 379.14062 58.104164Q378.9375 57.916664 378.54688 57.916664Q378.15625 57.916664 377.96875 58.05729Q377.78125 58.18229 377.65625 58.572914L376.76562 58.479164Q376.9375 57.83854 377.35938 57.52604Q377.78125 57.21354 378.5625 57.21354Q379.45312 57.21354 379.85938 57.572914Q380.28125 57.916664 380.28125 58.416664Q380.28125 58.90104 379.92188 59.33854Q379.67188 59.666664 378.73438 60.33854Q378.23438 60.697914 378.03125 60.916664L380.29688 60.916664L380.29688 61.61979L376.64062 61.61979ZM389.84375 60.86979L384.17188 60.86979L384.17188 59.885414L389.84375 59.885414L389.84375 60.86979ZM389.84375 63.479164L384.17188 63.479164L384.17188 62.49479L389.84375 62.49479L389.84375 63.479164ZM397.96875 65.916664L396.92188 65.916664L396.92188 59.197914Q396.53125 59.55729 395.90625 59.93229Q395.29688 60.291664 394.8125 60.46354L394.8125 59.447914Q395.6875 59.02604 396.34375 58.447914Q397.01562 57.854164 397.29688 57.291664L397.96875 57.291664L397.96875 65.916664Z" fill-rule="nonzero"/><path fill="#757575" d="M19.45625 32.95625L21.2375 32.8Q21.3625 33.8625 21.815624 34.55Q22.284374 35.2375 23.253124 35.675Q24.2375 36.096874 25.471874 36.096874Q26.55 36.096874 27.378124 35.784374Q28.20625 35.45625 28.6125 34.89375Q29.01875 34.33125 29.01875 33.659374Q29.01875 32.9875 28.628124 32.4875Q28.2375 31.9875 27.346874 31.64375Q26.76875 31.409374 24.784374 30.940624Q22.815624 30.471874 22.034374 30.05Q21.003124 29.51875 20.503124 28.721874Q20.003124 27.925 20.003124 26.940624Q20.003124 25.846874 20.6125 24.909374Q21.221874 23.971874 22.409374 23.4875Q23.596874 22.9875 25.034374 22.9875Q26.628124 22.9875 27.846874 23.503124Q29.065624 24.01875 29.70625 25.01875Q30.3625 26.003124 30.409374 27.26875L28.596874 27.409374Q28.45625 26.05 27.6125 25.3625Q26.76875 24.659374 25.1125 24.659374Q23.39375 24.659374 22.596874 25.3Q21.815624 25.925 21.815624 26.8Q21.815624 27.58125 22.378124 28.08125Q22.925 28.58125 25.2375 29.096874Q27.55 29.6125 28.409374 30.003124Q29.659374 30.58125 30.253124 31.471874Q30.846874 32.346874 30.846874 33.503124Q30.846874 34.64375 30.190624 35.659374Q29.534374 36.675 28.3 37.2375Q27.08125 37.8 25.55 37.8Q23.6125 37.8 22.3 37.2375Q20.9875 36.659374 20.2375 35.51875Q19.4875 34.378124 19.45625 32.95625ZM36.70625 35.971874L36.95625 37.534374Q36.221874 37.690624 35.628124 37.690624Q34.675 37.690624 34.14375 37.39375Q33.628124 37.08125 33.409374 36.596874Q33.190624 36.096874 33.190624 34.51875L33.190624 28.55L31.909374 28.55L31.909374 27.175L33.190624 27.175L33.190624 24.6125L34.940624 23.55L34.940624 27.175L36.70625 27.175L36.70625 28.55L34.940624 28.55L34.940624 34.6125Q34.940624 35.3625 35.034374 35.58125Q35.128124 35.784374 35.33125 35.925Q35.55 36.05 35.940624 36.05Q36.221874 36.05 36.70625 35.971874ZM45.64375 36.26875Q44.659374 37.096874 43.753124 37.440624Q42.846874 37.784374 41.815624 37.784374Q40.1125 37.784374 39.190624 36.95625Q38.26875 36.1125 38.26875 34.815624Q38.26875 34.05 38.6125 33.425Q38.971874 32.8 39.534374 32.425Q40.096874 32.034374 40.8 31.83125Q41.315624 31.70625 42.3625 31.565624Q44.4875 31.315624 45.4875 30.971874Q45.503124 30.6125 45.503124 30.503124Q45.503124 29.440624 45.003124 28.9875Q44.33125 28.39375 43.003124 28.39375Q41.753124 28.39375 41.159374 28.83125Q40.58125 29.26875 40.3 30.378124L38.58125 30.14375Q38.815624 29.034374 39.346874 28.3625Q39.878124 27.675 40.89375 27.315624Q41.909374 26.940624 43.253124 26.940624Q44.58125 26.940624 45.409374 27.253124Q46.2375 27.565624 46.628124 28.05Q47.01875 28.51875 47.175 29.2375Q47.26875 29.690624 47.26875 30.8625L47.26875 33.20625Q47.26875 35.659374 47.378124 36.315624Q47.4875 36.95625 47.83125 37.55L45.9875 37.55Q45.721874 37.003124 45.64375 36.26875ZM45.4875 32.346874Q44.534374 32.7375 42.6125 33.003124Q41.534374 33.159374 41.08125 33.3625Q40.64375 33.55 40.39375 33.925Q40.14375 34.3 40.14375 34.76875Q40.14375 35.471874 40.675 35.940624Q41.20625 36.409374 42.2375 36.409374Q43.253124 36.409374 44.034374 35.971874Q44.83125 35.51875 45.20625 34.753124Q45.4875 34.14375 45.4875 32.9875L45.4875 32.346874ZM56.64375 33.753124L58.3625 33.971874Q58.08125 35.76875 56.909374 36.784374Q55.753124 37.784374 54.05 37.784374Q51.925 37.784374 50.628124 36.39375Q49.33125 35.003124 49.33125 32.409374Q49.33125 30.721874 49.878124 29.471874Q50.440624 28.20625 51.58125 27.58125Q52.721874 26.940624 54.065624 26.940624Q55.753124 26.940624 56.815624 27.8Q57.89375 28.659374 58.20625 30.221874L56.4875 30.4875Q56.253124 29.440624 55.628124 28.925Q55.003124 28.39375 54.128124 28.39375Q52.8 28.39375 51.971874 29.346874Q51.14375 30.3 51.14375 32.346874Q51.14375 34.440624 51.940624 35.39375Q52.7375 36.33125 54.034374 36.33125Q55.065624 36.33125 55.753124 35.70625Q56.45625 35.065624 56.64375 33.753124ZM59.878124 37.55L59.878124 23.2375L61.64375 23.2375L61.64375 31.39375L65.8 27.175L68.06563 27.175L64.1125 31.01875L68.47188 37.55L66.3 37.55L62.878124 32.253124L61.64375 33.440624L61.64375 37.55L59.878124 37.55ZM69.45625 32.95625L71.2375 32.8Q71.3625 33.8625 71.81563 34.55Q72.28438 35.2375 73.25313 35.675Q74.2375 36.096874 75.47188 36.096874Q76.55 36.096874 77.37813 35.784374Q78.20625 35.45625 78.6125 34.89375Q79.01875 34.33125 79.01875 33.659374Q79.01875 32.9875 78.62813 32.4875Q78.2375 31.9875 77.34688 31.64375Q76.76875 31.409374 74.78438 30.940624Q72.81563 30.471874 72.03438 30.05Q71.00313 29.51875 70.50313 28.721874Q70.00313 27.925 70.00313 26.940624Q70.00313 25.846874 70.6125 24.909374Q71.22188 23.971874 72.40938 23.4875Q73.59688 22.9875 75.03438 22.9875Q76.62813 22.9875 77.84688 23.503124Q79.06563 24.01875 79.70625 25.01875Q80.3625 26.003124 80.40938 27.26875L78.59688 27.409374Q78.45625 26.05 77.6125 25.3625Q76.76875 24.659374 75.1125 24.659374Q73.39375 24.659374 72.59688 25.3Q71.81563 25.925 71.81563 26.8Q71.81563 27.58125 72.37813 28.08125Q72.925 28.58125 75.2375 29.096874Q77.55 29.6125 78.40938 30.003124Q79.65938 30.58125 80.25313 31.471874Q80.84688 32.346874 80.84688 33.503124Q80.84688 34.64375 80.19063 35.659374Q79.53438 36.675 78.3 37.2375Q77.08125 37.8 75.55 37.8Q73.6125 37.8 72.3 37.2375Q70.9875 36.659374 70.2375 35.51875Q69.4875 34.378124 69.45625 32.95625ZM89.64375 33.753124L91.3625 33.971874Q91.08125 35.76875 89.90938 36.784374Q88.75313 37.784374 87.05 37.784374Q84.925 37.784374 83.62813 36.39375Q82.33125 35.003124 82.33125 32.409374Q82.33125 30.721874 82.87813 29.471874Q83.44063 28.20625 84.58125 27.58125Q85.72188 26.940624 87.06563 26.940624Q88.75313 26.940624 89.81563 27.8Q90.89375 28.659374 91.20625 30.221874L89.4875 30.4875Q89.25313 29.440624 88.62813 28.925Q88.00313 28.39375 87.12813 28.39375Q85.8 28.39375 84.97188 29.346874Q84.14375 30.3 84.14375 32.346874Q84.14375 34.440624 84.94063 35.39375Q85.7375 36.33125 87.03438 36.33125Q88.06563 36.33125 88.75313 35.70625Q89.45625 35.065624 89.64375 33.753124ZM92.84688 37.55L92.84688 27.175L94.425 27.175L94.425 28.753124Q95.03438 27.64375 95.55 27.3Q96.06563 26.940624 96.675 26.940624Q97.56563 26.940624 98.4875 27.503124L97.87813 29.14375Q97.2375 28.753124 96.59688 28.753124Q96.01875 28.753124 95.55 29.1125Q95.09688 29.45625 94.89375 30.065624Q94.6125 31.003124 94.6125 32.1125L94.6125 37.55L92.84688 37.55ZM99.87813 25.253124L99.87813 23.2375L101.64375 23.2375L101.64375 25.253124L99.87813 25.253124ZM99.87813 37.55L99.87813 27.175L101.64375 27.175L101.64375 37.55L99.87813 37.55ZM103.8625 41.51875L103.8625 27.175L105.47188 27.175L105.47188 28.51875Q106.03438 27.7375 106.7375 27.346874Q107.45625 26.940624 108.47188 26.940624Q109.8 26.940624 110.81563 27.628124Q111.83125 28.315624 112.34688 29.565624Q112.87813 30.8 112.87813 32.284374Q112.87813 33.878124 112.3 35.159374Q111.7375 36.425 110.64375 37.1125Q109.55 37.784374 108.34688 37.784374Q107.47188 37.784374 106.76875 37.409374Q106.08125 37.034374 105.62813 36.471874L105.62813 41.51875L103.8625 41.51875ZM105.45625 32.425Q105.45625 34.425 106.26875 35.378124Q107.08125 36.33125 108.2375 36.33125Q109.40938 36.33125 110.2375 35.346874Q111.08125 34.3625 111.08125 32.26875Q111.08125 30.3 110.25313 29.315624Q109.44063 28.315624 108.31563 28.315624Q107.19063 28.315624 106.31563 29.378124Q105.45625 30.425 105.45625 32.425ZM118.70625 35.971874L118.95625 37.534374Q118.22188 37.690624 117.62813 37.690624Q116.675 37.690624 116.14375 37.39375Q115.62813 37.08125 115.40938 36.596874Q115.19063 36.096874 115.19063 34.51875L115.19063 28.55L113.90938 28.55L113.90938 27.175L115.19063 27.175L115.19063 24.6125L116.94063 23.55L116.94063 27.175L118.70625 27.175L118.70625 28.55L116.94063 28.55L116.94063 34.6125Q116.94063 35.3625 117.03438 35.58125Q117.12813 35.784374 117.33125 35.925Q117.55 36.05 117.94063 36.05Q118.22188 36.05 118.70625 35.971874ZM126.45625 32.95625L128.2375 32.8Q128.3625 33.8625 128.81563 34.55Q129.28438 35.2375 130.25313 35.675Q131.2375 36.096874 132.47188 36.096874Q133.55 36.096874 134.37813 35.784374Q135.20625 35.45625 135.6125 34.89375Q136.01875 34.33125 136.01875 33.659374Q136.01875 32.9875 135.62813 32.4875Q135.2375 31.9875 134.34688 31.64375Q133.76875 31.409374 131.78438 30.940624Q129.81563 30.471874 129.03438 30.05Q128.00313 29.51875 127.50313 28.721874Q127.00313 27.925 127.00313 26.940624Q127.00313 25.846874 127.6125 24.909374Q128.22188 23.971874 129.40938 23.4875Q130.59688 22.9875 132.03438 22.9875Q133.62813 22.9875 134.84688 23.503124Q136.06563 24.01875 136.70625 25.01875Q137.3625 26.003124 137.40938 27.26875L135.59688 27.409374Q135.45625 26.05 134.6125 25.3625Q133.76875 24.659374 132.1125 24.659374Q130.39375 24.659374 129.59688 25.3Q128.81563 25.925 128.81563 26.8Q128.81563 27.58125 129.37813 28.08125Q129.925 28.58125 132.2375 29.096874Q134.55 29.6125 135.40938 30.003124Q136.65938 30.58125 137.25313 31.471874Q137.84688 32.346874 137.84688 33.503124Q137.84688 34.64375 137.19063 35.659374Q136.53438 36.675 135.3 37.2375Q134.08125 37.8 132.55 37.8Q130.6125 37.8 129.3 37.2375Q127.9875 36.659374 127.2375 35.51875Q126.4875 34.378124 126.45625 32.95625ZM146.97188 34.20625L148.78438 34.440624Q148.3625 36.01875 147.19063 36.909374Q146.03438 37.784374 144.22188 37.784374Q141.95625 37.784374 140.6125 36.39375Q139.28438 34.9875 139.28438 32.45625Q139.28438 29.83125 140.62813 28.39375Q141.97188 26.940624 144.12813 26.940624Q146.20625 26.940624 147.51875 28.3625Q148.84688 29.76875 148.84688 32.346874Q148.84688 32.503124 148.83125 32.815624L141.09688 32.815624Q141.19063 34.51875 142.06563 35.425Q142.94063 36.33125 144.2375 36.33125Q145.20625 36.33125 145.87813 35.83125Q146.56563 35.315624 146.97188 34.20625ZM141.19063 31.3625L146.9875 31.3625Q146.87813 30.065624 146.33125 29.409374Q145.4875 28.39375 144.14375 28.39375Q142.94063 28.39375 142.1125 29.20625Q141.28438 30.003124 141.19063 31.3625ZM157.64375 36.26875Q156.65938 37.096874 155.75313 37.440624Q154.84688 37.784374 153.81563 37.784374Q152.1125 37.784374 151.19063 36.95625Q150.26875 36.1125 150.26875 34.815624Q150.26875 34.05 150.6125 33.425Q150.97188 32.8 151.53438 32.425Q152.09688 32.034374 152.8 31.83125Q153.31563 31.70625 154.3625 31.565624Q156.4875 31.315624 157.4875 30.971874Q157.50313 30.6125 157.50313 30.503124Q157.50313 29.440624 157.00313 28.9875Q156.33125 28.39375 155.00313 28.39375Q153.75313 28.39375 153.15938 28.83125Q152.58125 29.26875 152.3 30.378124L150.58125 30.14375Q150.81563 29.034374 151.34688 28.3625Q151.87813 27.675 152.89375 27.315624Q153.90938 26.940624 155.25313 26.940624Q156.58125 26.940624 157.40938 27.253124Q158.2375 27.565624 158.62813 28.05Q159.01875 28.51875 159.175 29.2375Q159.26875 29.690624 159.26875 30.8625L159.26875 33.20625Q159.26875 35.659374 159.37813 36.315624Q159.4875 36.95625 159.83125 37.55L157.9875 37.55Q157.72188 37.003124 157.64375 36.26875ZM157.4875 32.346874Q156.53438 32.7375 154.6125 33.003124Q153.53438 33.159374 153.08125 33.3625Q152.64375 33.55 152.39375 33.925Q152.14375 34.3 152.14375 34.76875Q152.14375 35.471874 152.675 35.940624Q153.20625 36.409374 154.2375 36.409374Q155.25313 36.409374 156.03438 35.971874Q156.83125 35.51875 157.20625 34.753124Q157.4875 34.14375 157.4875 32.9875L157.4875 32.346874ZM161.84688 37.55L161.84688 27.175L163.425 27.175L163.425 28.753124Q164.03438 27.64375 164.55 27.3Q165.06563 26.940624 165.675 26.940624Q166.56563 26.940624 167.4875 27.503124L166.87813 29.14375Q166.2375 28.753124 165.59688 28.753124Q165.01875 28.753124 164.55 29.1125Q164.09688 29.45625 163.89375 30.065624Q163.6125 31.003124 163.6125 32.1125L163.6125 37.55L161.84688 37.55ZM175.64375 33.753124L177.3625 33.971874Q177.08125 35.76875 175.90938 36.784374Q174.75313 37.784374 173.05 37.784374Q170.925 37.784374 169.62813 36.39375Q168.33125 35.003124 168.33125 32.409374Q168.33125 30.721874 168.87813 29.471874Q169.44063 28.20625 170.58125 27.58125Q171.72188 26.940624 173.06563 26.940624Q174.75313 26.940624 175.81563 27.8Q176.89375 28.659374 177.20625 30.221874L175.4875 30.4875Q175.25313 29.440624 174.62813 28.925Q174.00313 28.39375 173.12813 28.39375Q171.8 28.39375 170.97188 29.346874Q170.14375 30.3 170.14375 32.346874Q170.14375 34.440624 170.94063 35.39375Q171.7375 36.33125 173.03438 36.33125Q174.06563 36.33125 174.75313 35.70625Q175.45625 35.065624 175.64375 33.753124ZM178.8625 37.55L178.8625 23.2375L180.62813 23.2375L180.62813 28.3625Q181.8625 26.940624 183.7375 26.940624Q184.87813 26.940624 185.72188 27.39375Q186.58125 27.846874 186.94063 28.659374Q187.31563 29.45625 187.31563 30.971874L187.31563 37.55L185.56563 37.55L185.56563 30.971874Q185.56563 29.659374 184.9875 29.065624Q184.40938 28.45625 183.37813 28.45625Q182.59688 28.45625 181.89375 28.8625Q181.20625 29.26875 180.90938 29.971874Q180.62813 30.659374 180.62813 31.878124L180.62813 37.55L178.8625 37.55ZM195.09688 37.55L195.09688 23.2375L200.4875 23.2375Q201.925 23.2375 202.675 23.3625Q203.72188 23.55 204.44063 24.05Q205.15938 24.534374 205.58125 25.425Q206.01875 26.315624 206.01875 27.378124Q206.01875 29.20625 204.84688 30.471874Q203.69063 31.721874 200.65938 31.721874L196.9875 31.721874L196.9875 37.55L195.09688 37.55ZM196.9875 30.034374L200.69063 30.034374Q202.51875 30.034374 203.28438 29.3625Q204.06563 28.675 204.06563 27.425Q204.06563 26.534374 203.6125 25.89375Q203.15938 25.253124 202.425 25.05Q201.94063 24.925 200.64375 24.925L196.9875 24.925L196.9875 30.034374ZM214.97188 34.20625L216.78438 34.440624Q216.3625 36.01875 215.19063 36.909374Q214.03438 37.784374 212.22188 37.784374Q209.95625 37.784374 208.6125 36.39375Q207.28438 34.9875 207.28438 32.45625Q207.28438 29.83125 208.62813 28.39375Q209.97188 26.940624 212.12813 26.940624Q214.20625 26.940624 215.51875 28.3625Q216.84688 29.76875 216.84688 32.346874Q216.84688 32.503124 216.83125 32.815624L209.09688 32.815624Q209.19063 34.51875 210.06563 35.425Q210.94063 36.33125 212.2375 36.33125Q213.20625 36.33125 213.87813 35.83125Q214.56563 35.315624 214.97188 34.20625ZM209.19063 31.3625L214.9875 31.3625Q214.87813 30.065624 214.33125 29.409374Q213.4875 28.39375 212.14375 28.39375Q210.94063 28.39375 210.1125 29.20625Q209.28438 30.003124 209.19063 31.3625ZM218.84688 37.55L218.84688 27.175L220.425 27.175L220.425 28.753124Q221.03438 27.64375 221.55 27.3Q222.06563 26.940624 222.675 26.940624Q223.56563 26.940624 224.4875 27.503124L223.87813 29.14375Q223.2375 28.753124 222.59688 28.753124Q222.01875 28.753124 221.55 29.1125Q221.09688 29.45625 220.89375 30.065624Q220.6125 31.003124 220.6125 32.1125L220.6125 37.55L218.84688 37.55ZM226.28438 37.55L226.28438 28.55L224.7375 28.55L224.7375 27.175L226.28438 27.175L226.28438 26.08125Q226.28438 25.034374 226.47188 24.51875Q226.72188 23.83125 227.3625 23.409374Q228.00313 22.9875 229.15938 22.9875Q229.90938 22.9875 230.8 23.159374L230.53438 24.690624Q229.9875 24.596874 229.50313 24.596874Q228.70625 24.596874 228.3625 24.940624Q228.03438 25.284374 228.03438 26.221874L228.03438 27.175L230.06563 27.175L230.06563 28.55L228.03438 28.55L228.03438 37.55L226.28438 37.55ZM231.22188 32.3625Q231.22188 29.4875 232.81563 28.096874Q234.15938 26.940624 236.08125 26.940624Q238.22188 26.940624 239.56563 28.346874Q240.925 29.753124 240.925 32.221874Q240.925 34.221874 240.33125 35.378124Q239.7375 36.51875 238.58125 37.159374Q237.44063 37.784374 236.08125 37.784374Q233.89375 37.784374 232.55 36.39375Q231.22188 34.9875 231.22188 32.3625ZM233.01875 32.3625Q233.01875 34.3625 233.87813 35.346874Q234.75313 36.33125 236.08125 36.33125Q237.39375 36.33125 238.25313 35.346874Q239.12813 34.346874 239.12813 32.3Q239.12813 30.378124 238.25313 29.39375Q237.37813 28.39375 236.08125 28.39375Q234.75313 28.39375 233.87813 29.39375Q233.01875 30.378124 233.01875 32.3625ZM242.84688 37.55L242.84688 27.175L244.425 27.175L244.425 28.753124Q245.03438 27.64375 245.55 27.3Q246.06563 26.940624 246.675 26.940624Q247.56563 26.940624 248.4875 27.503124L247.87813 29.14375Q247.2375 28.753124 246.59688 28.753124Q246.01875 28.753124 245.55 29.1125Q245.09688 29.45625 244.89375 30.065624Q244.6125 31.003124 244.6125 32.1125L244.6125 37.55L242.84688 37.55ZM249.8625 37.55L249.8625 27.175L251.44063 27.175L251.44063 28.628124Q251.925 27.878124 252.7375 27.409374Q253.55 26.940624 254.58125 26.940624Q255.7375 26.940624 256.47186 27.425Q257.20624 27.89375 257.51874 28.753124Q258.7531 26.940624 260.72186 26.940624Q262.26874 26.940624 263.09686 27.8Q263.925 28.659374 263.925 30.425L263.925 37.55L262.175 37.55L262.175 31.01875Q262.175 29.95625 262.0031 29.503124Q261.83124 29.034374 261.3781 28.753124Q260.9406 28.471874 260.33124 28.471874Q259.2375 28.471874 258.5031 29.20625Q257.78436 29.925 257.78436 31.51875L257.78436 37.55L256.03436 37.55L256.03436 30.815624Q256.03436 29.64375 255.59688 29.065624Q255.175 28.471874 254.19063 28.471874Q253.45625 28.471874 252.81563 28.8625Q252.19063 29.253124 251.90938 30.003124Q251.62813 30.753124 251.62813 32.175L251.62813 37.55L249.8625 37.55ZM272.64374 36.26875Q271.65936 37.096874 270.7531 37.440624Q269.84686 37.784374 268.8156 37.784374Q267.1125 37.784374 266.1906 36.95625Q265.26874 36.1125 265.26874 34.815624Q265.26874 34.05 265.6125 33.425Q265.97186 32.8 266.53436 32.425Q267.09686 32.034374 267.8 31.83125Q268.3156 31.70625 269.3625 31.565624Q271.4875 31.315624 272.4875 30.971874Q272.5031 30.6125 272.5031 30.503124Q272.5031 29.440624 272.0031 28.9875Q271.33124 28.39375 270.0031 28.39375Q268.7531 28.39375 268.15936 28.83125Q267.58124 29.26875 267.3 30.378124L265.58124 30.14375Q265.8156 29.034374 266.34686 28.3625Q266.8781 27.675 267.89374 27.315624Q268.90936 26.940624 270.2531 26.940624Q271.58124 26.940624 272.40936 27.253124Q273.2375 27.565624 273.6281 28.05Q274.01874 28.51875 274.175 29.2375Q274.26874 29.690624 274.26874 30.8625L274.26874 33.20625Q274.26874 35.659374 274.3781 36.315624Q274.4875 36.95625 274.83124 37.55L272.9875 37.55Q272.72186 37.003124 272.64374 36.26875ZM272.4875 32.346874Q271.53436 32.7375 269.6125 33.003124Q268.53436 33.159374 268.08124 33.3625Q267.64374 33.55 267.39374 33.925Q267.14374 34.3 267.14374 34.76875Q267.14374 35.471874 267.675 35.940624Q268.20624 36.409374 269.2375 36.409374Q270.2531 36.409374 271.03436 35.971874Q271.83124 35.51875 272.20624 34.753124Q272.4875 34.14375 272.4875 32.9875L272.4875 32.346874ZM276.8625 37.55L276.8625 27.175L278.45624 27.175L278.45624 28.659374Q279.59686 26.940624 281.7531 26.940624Q282.6906 26.940624 283.47186 27.284374Q284.26874 27.6125 284.65936 28.159374Q285.05 28.70625 285.20624 29.45625Q285.3 29.95625 285.3 31.175L285.3 37.55L283.53436 37.55L283.53436 31.2375Q283.53436 30.159374 283.33124 29.628124Q283.1281 29.096874 282.59686 28.784374Q282.08124 28.471874 281.3781 28.471874Q280.2531 28.471874 279.4406 29.190624Q278.6281 29.89375 278.6281 31.878124L278.6281 37.55L276.8625 37.55ZM293.64374 33.753124L295.3625 33.971874Q295.08124 35.76875 293.90936 36.784374Q292.7531 37.784374 291.05 37.784374Q288.925 37.784374 287.6281 36.39375Q286.33124 35.003124 286.33124 32.409374Q286.33124 30.721874 286.8781 29.471874Q287.4406 28.20625 288.58124 27.58125Q289.72186 26.940624 291.0656 26.940624Q292.7531 26.940624 293.8156 27.8Q294.89374 28.659374 295.20624 30.221874L293.4875 30.4875Q293.2531 29.440624 292.6281 28.925Q292.0031 28.39375 291.1281 28.39375Q289.8 28.39375 288.97186 29.346874Q288.14374 30.3 288.14374 32.346874Q288.14374 34.440624 288.9406 35.39375Q289.7375 36.33125 291.03436 36.33125Q292.0656 36.33125 292.7531 35.70625Q293.45624 35.065624 293.64374 33.753124ZM303.97186 34.20625L305.78436 34.440624Q305.3625 36.01875 304.1906 36.909374Q303.03436 37.784374 301.22186 37.784374Q298.95624 37.784374 297.6125 36.39375Q296.28436 34.9875 296.28436 32.45625Q296.28436 29.83125 297.6281 28.39375Q298.97186 26.940624 301.1281 26.940624Q303.20624 26.940624 304.51874 28.3625Q305.84686 29.76875 305.84686 32.346874Q305.84686 32.503124 305.83124 32.815624L298.09686 32.815624Q298.1906 34.51875 299.0656 35.425Q299.9406 36.33125 301.2375 36.33125Q302.20624 36.33125 302.8781 35.83125Q303.5656 35.315624 303.97186 34.20625ZM298.1906 31.3625L303.9875 31.3625Q303.8781 30.065624 303.33124 29.409374Q302.4875 28.39375 301.14374 28.39375Q299.9406 28.39375 299.1125 29.20625Q298.28436 30.003124 298.1906 31.3625Z" fill-rule="nonzero"/></svg>